%TF.GenerationSoftware,KiCad,Pcbnew,9.0.0-9.0.0-2~ubuntu24.04.1*%
%TF.CreationDate,2025-03-27T18:59:43+01:00*%
%TF.ProjectId,Kolibri v0.5,4b6f6c69-6272-4692-9076-302e352e6b69,rev?*%
%TF.SameCoordinates,Original*%
%TF.FileFunction,Plated,1,8,PTH,Mixed*%
%TF.FilePolarity,Positive*%
%FSLAX46Y46*%
G04 Gerber Fmt 4.6, Leading zero omitted, Abs format (unit mm)*
G04 Created by KiCad (PCBNEW 9.0.0-9.0.0-2~ubuntu24.04.1) date 2025-03-27 18:59:43*
%MOMM*%
%LPD*%
G01*
G04 APERTURE LIST*
%TA.AperFunction,ViaDrill*%
%ADD10C,0.200000*%
%TD*%
%TA.AperFunction,ComponentDrill*%
%ADD11C,0.200000*%
%TD*%
G04 aperture for slot hole*
%TA.AperFunction,ComponentDrill*%
%ADD12C,0.600000*%
%TD*%
G04 APERTURE END LIST*
D10*
X81733793Y-111494456D03*
X82300000Y-88600000D03*
X82405546Y-112166206D03*
X82425000Y-90613746D03*
X82900000Y-110450000D03*
X83000000Y-98500000D03*
X83000000Y-99000000D03*
X83000000Y-108500000D03*
X83000000Y-109000000D03*
X83020000Y-99800000D03*
X83020000Y-100810000D03*
X83020000Y-101450000D03*
X83020000Y-103925000D03*
X83020000Y-105600000D03*
X83025000Y-103525000D03*
X83025000Y-107100000D03*
X83080000Y-92900000D03*
X83316798Y-90168183D03*
X83500000Y-108500000D03*
X83700000Y-90700000D03*
X83700000Y-95250000D03*
X83700000Y-96400000D03*
X83970000Y-104770000D03*
X84134442Y-87830577D03*
X84150000Y-103450000D03*
X84200000Y-91400000D03*
X84350000Y-98000000D03*
X84350000Y-108600000D03*
X84650000Y-96400000D03*
X84750000Y-95200000D03*
X85080000Y-95800000D03*
X85090266Y-96832133D03*
X85484998Y-89150000D03*
X85500000Y-100500000D03*
X85500000Y-108650000D03*
X85500000Y-111050000D03*
X85522492Y-95264361D03*
X85559468Y-94420705D03*
X85700000Y-105600000D03*
X85700000Y-107350000D03*
X85713365Y-90439786D03*
X85750000Y-91350000D03*
X85900000Y-92950000D03*
X85950000Y-103050000D03*
X85999998Y-97020000D03*
X86088113Y-95727684D03*
X86217049Y-95090597D03*
X86250000Y-88400000D03*
X86250000Y-90500000D03*
X86550000Y-97500000D03*
X86700000Y-92050000D03*
X86700000Y-98450000D03*
X86770000Y-103422604D03*
X86799538Y-90330408D03*
X86800000Y-98950000D03*
X87050000Y-104650000D03*
X87050000Y-109750000D03*
X87100000Y-96800000D03*
X87400000Y-96100000D03*
X87400000Y-101600000D03*
X87400000Y-102700000D03*
X87471446Y-88028554D03*
X87518321Y-88950000D03*
X87800000Y-106332500D03*
X87800000Y-109000000D03*
X87900000Y-82400000D03*
X87925000Y-95500000D03*
X88000000Y-103250000D03*
X88002500Y-96700000D03*
X88050000Y-108487500D03*
X88050000Y-110158648D03*
X88063303Y-94785001D03*
X88309998Y-89020000D03*
X88500000Y-89967500D03*
X88500000Y-113500000D03*
X88505546Y-81733794D03*
X88505546Y-118266206D03*
X88550000Y-84620000D03*
X88598419Y-94712517D03*
X88600000Y-98200000D03*
X88600000Y-98600000D03*
X88600000Y-102800000D03*
X88617967Y-109678648D03*
X88650000Y-82600000D03*
X88650000Y-85600000D03*
X88850000Y-92850000D03*
X88850000Y-102200000D03*
X88868144Y-100386702D03*
X88894454Y-116533794D03*
X89000000Y-106300000D03*
X89050000Y-108487500D03*
X89150000Y-87600000D03*
X89250000Y-85150000D03*
X89315002Y-96700000D03*
X89450000Y-89967500D03*
X89497500Y-100850000D03*
X89500000Y-104450000D03*
X89566206Y-83075000D03*
X89625000Y-95494912D03*
X89700000Y-84600000D03*
X89700000Y-114620000D03*
X89705642Y-94508060D03*
X89750000Y-99717500D03*
X89800000Y-86600000D03*
X89800000Y-87200000D03*
X89835021Y-96038491D03*
X89850000Y-91050000D03*
X89850000Y-92900000D03*
X89995000Y-88110602D03*
X90100000Y-97950000D03*
X90100000Y-98450000D03*
X90100000Y-98950000D03*
X90150000Y-112150000D03*
X90150000Y-112900000D03*
X90400000Y-89967500D03*
X90550000Y-94850000D03*
X90565002Y-103665002D03*
X90700000Y-100700000D03*
X90845000Y-88100000D03*
X90850000Y-86500000D03*
X90900000Y-93000000D03*
X91000000Y-112150000D03*
X91000000Y-112900000D03*
X91100000Y-95650000D03*
X91117500Y-102750000D03*
X91185094Y-94454135D03*
X91200000Y-90100000D03*
X91250000Y-83750000D03*
X91350000Y-83125000D03*
X91572315Y-94988691D03*
X91702513Y-96702513D03*
X91837500Y-105350000D03*
X91850000Y-100999998D03*
X91910000Y-108700000D03*
X92100000Y-88650000D03*
X92116103Y-94382695D03*
X92187500Y-110100000D03*
X92197487Y-97197487D03*
X92250000Y-98600000D03*
X92300000Y-85150000D03*
X92400000Y-101350000D03*
X92400000Y-102050000D03*
X92400000Y-111750000D03*
X92400000Y-112250000D03*
X92500000Y-88200000D03*
X92800000Y-94800000D03*
X92850000Y-88750000D03*
X92950000Y-98550000D03*
X93161009Y-93350726D03*
X93200000Y-111750000D03*
X93200000Y-112250000D03*
X93215000Y-90441742D03*
X93223534Y-91360294D03*
X93250000Y-89350000D03*
X93253338Y-89903102D03*
X93370000Y-107250000D03*
X93384998Y-103100000D03*
X93550000Y-97975000D03*
X93600000Y-88200000D03*
X93850000Y-99200000D03*
X94050000Y-103900000D03*
X94250000Y-105075002D03*
X94250000Y-111000000D03*
X94330000Y-107250000D03*
X94464353Y-109690450D03*
X94474998Y-98241000D03*
X94500000Y-94500000D03*
X94800000Y-85750000D03*
X94800000Y-101000000D03*
X94900000Y-105650000D03*
X94900000Y-117575000D03*
X94950000Y-96100000D03*
X95015002Y-94300000D03*
X95037501Y-105075002D03*
X95084999Y-97986677D03*
X95099000Y-109550000D03*
X95300000Y-99500000D03*
X95400000Y-105980000D03*
X95516382Y-94099448D03*
X95600000Y-83000000D03*
X95600000Y-101050000D03*
X95650000Y-87050000D03*
X95700000Y-88150000D03*
X96045286Y-94257055D03*
X96050000Y-98150000D03*
X96150000Y-83125000D03*
X96150000Y-96950000D03*
X96180000Y-107250000D03*
X96225000Y-108425000D03*
X96300000Y-95750000D03*
X96300000Y-99500000D03*
X96450000Y-91450000D03*
X96450000Y-91950000D03*
X96450000Y-92450000D03*
X96550000Y-100700000D03*
X96587500Y-93450000D03*
X96600000Y-83000000D03*
X96650000Y-88235000D03*
X96900000Y-102300000D03*
X96950000Y-91450000D03*
X96950000Y-91950000D03*
X96950000Y-92450000D03*
X97068939Y-94297663D03*
X97300000Y-99500000D03*
X97440002Y-95484998D03*
X97450000Y-113350000D03*
X97562500Y-109450000D03*
X97880723Y-98291201D03*
X98000000Y-83200000D03*
X98000000Y-100700000D03*
X98000000Y-111750000D03*
X98000000Y-112250000D03*
X98010000Y-97415002D03*
X98182500Y-99550000D03*
X98200000Y-102734998D03*
X98200000Y-103750000D03*
X98439254Y-96771449D03*
X98515000Y-94850000D03*
X98600000Y-84200000D03*
X98600000Y-88850000D03*
X98700000Y-91900000D03*
X98800000Y-95975000D03*
X98800000Y-107700000D03*
X98800000Y-111750000D03*
X98800000Y-112250000D03*
X98950000Y-102150000D03*
X98991811Y-101475764D03*
X99100000Y-87450000D03*
X99200000Y-84200000D03*
X99200000Y-90800000D03*
X99200000Y-91900000D03*
X99300000Y-114700000D03*
X99317500Y-99550000D03*
X99322501Y-96832626D03*
X99350000Y-105650000D03*
X99551613Y-106271084D03*
X99600000Y-100250000D03*
X99700000Y-88850000D03*
X99700000Y-97700000D03*
X99750000Y-90450000D03*
X99775000Y-85875000D03*
X99787500Y-95400000D03*
X99800000Y-108500000D03*
X99837500Y-109450000D03*
X99837500Y-110399998D03*
X99851004Y-101750000D03*
X100027339Y-99866150D03*
X100150000Y-112150000D03*
X100150000Y-112900000D03*
X100150000Y-115550000D03*
X100215000Y-107060000D03*
X100235000Y-83450000D03*
X100250000Y-87600000D03*
X100401509Y-107887149D03*
X100500000Y-85500000D03*
X100500000Y-100150000D03*
X100528824Y-97654690D03*
X100550000Y-90650000D03*
X100550000Y-94300000D03*
X100600000Y-103850000D03*
X100700000Y-88850000D03*
X100700000Y-100909267D03*
X100738175Y-98309565D03*
X100949159Y-102722257D03*
X101000000Y-85500000D03*
X101000000Y-112150000D03*
X101000000Y-112900000D03*
X101003606Y-100438526D03*
X101017500Y-91900000D03*
X101200000Y-89300000D03*
X101200000Y-95550000D03*
X101250000Y-108610000D03*
X101325098Y-105086471D03*
X101380319Y-97198143D03*
X101400000Y-116090000D03*
X101400000Y-117110000D03*
X101450025Y-97809565D03*
X101500000Y-85500000D03*
X101750000Y-84000000D03*
X101975000Y-105075002D03*
X102085000Y-97900000D03*
X102100000Y-95900000D03*
X102250000Y-106150000D03*
X102250000Y-106800000D03*
X102350000Y-96350000D03*
X102450000Y-84650000D03*
X102500000Y-87050000D03*
X102650000Y-95900000D03*
X102714710Y-98756025D03*
X102800000Y-110100000D03*
X102882500Y-100520000D03*
X102900000Y-96350000D03*
X102925611Y-101145566D03*
X102965359Y-102261869D03*
X103000000Y-116875000D03*
X103208671Y-99638402D03*
X103312955Y-97382379D03*
X103352450Y-95830640D03*
X103780000Y-105800000D03*
X103800000Y-96450000D03*
X103933743Y-100150615D03*
X104000000Y-102150000D03*
X104017500Y-101200000D03*
X104050000Y-114450000D03*
X104350000Y-88350000D03*
X104500000Y-87050000D03*
X104639412Y-103939412D03*
X104700000Y-106500000D03*
X104700000Y-107000000D03*
X104800000Y-83050000D03*
X104900000Y-85550000D03*
X104900000Y-97400000D03*
X105000000Y-96450000D03*
X105100000Y-92450000D03*
X105250000Y-84000000D03*
X105300000Y-87100000D03*
X105300000Y-93350000D03*
X105300000Y-98832500D03*
X105300000Y-100000000D03*
X105337500Y-92850000D03*
X105550000Y-102900000D03*
X105550000Y-104017500D03*
X105580360Y-111381512D03*
X105600000Y-92200000D03*
X105650000Y-117100000D03*
X105700000Y-96302500D03*
X105701178Y-97415001D03*
X105732500Y-94950000D03*
X105850000Y-92800000D03*
X105950000Y-109870000D03*
X106000000Y-87050000D03*
X106074064Y-111915995D03*
X106075000Y-110625000D03*
X106100000Y-115650000D03*
X106450000Y-109350000D03*
X106500000Y-98832500D03*
X106500000Y-99870000D03*
X106600000Y-96382379D03*
X106669064Y-103552000D03*
X106681876Y-101013589D03*
X106700000Y-108700000D03*
X106800000Y-102584000D03*
X107065002Y-94950000D03*
X107158731Y-99334954D03*
X107181855Y-111910000D03*
X107250000Y-108400000D03*
X107250000Y-109150000D03*
X107301992Y-104035000D03*
X107700000Y-98850000D03*
X107801522Y-103552000D03*
X107877570Y-99851594D03*
X107917500Y-101000000D03*
X107950000Y-102400000D03*
X107967500Y-96382379D03*
X108000000Y-85500000D03*
X108062500Y-87600000D03*
X108062500Y-88900000D03*
X108100000Y-89900000D03*
X108150000Y-92650000D03*
X108150000Y-93300000D03*
X108250000Y-92100000D03*
X108450000Y-109300000D03*
X108500000Y-83000000D03*
X108500000Y-85500000D03*
X108500000Y-108450000D03*
X108600000Y-116875000D03*
X108650000Y-92800000D03*
X108700000Y-97525002D03*
X108850000Y-92100000D03*
X109000000Y-85500000D03*
X109150000Y-90000000D03*
X109150000Y-104675000D03*
X109500000Y-106200000D03*
X109550000Y-100950000D03*
X109550000Y-102200000D03*
X109600000Y-96500000D03*
X109800000Y-104700000D03*
X109900000Y-116650000D03*
X109950000Y-100550000D03*
X109950000Y-101350000D03*
X109950000Y-108800000D03*
X110000000Y-91600000D03*
X110050000Y-114800000D03*
X110100000Y-96150000D03*
X110100000Y-102200000D03*
X110140000Y-113750000D03*
X110142855Y-90194390D03*
X110150000Y-87100000D03*
X110150000Y-112800000D03*
X110200000Y-93750000D03*
X110250000Y-98800000D03*
X110400000Y-82800000D03*
X110500000Y-85500000D03*
X110515000Y-101376000D03*
X110550000Y-105850000D03*
X110640002Y-107400000D03*
X110650000Y-93750000D03*
X110700000Y-90450000D03*
X110850000Y-87100000D03*
X110850000Y-99100000D03*
X110965002Y-108800000D03*
X111000000Y-85500000D03*
X111000000Y-114550000D03*
X111100000Y-93750000D03*
X111105546Y-83466206D03*
X111150000Y-100390000D03*
X111150000Y-101400000D03*
X111246066Y-102350000D03*
X111494454Y-118266206D03*
X111500000Y-85500000D03*
X111550000Y-87100000D03*
X111550000Y-87750000D03*
X111700000Y-88520000D03*
X111711504Y-103401728D03*
X111800000Y-101447500D03*
X111825000Y-112575000D03*
X112050000Y-104800000D03*
X112165000Y-115985000D03*
X112173750Y-107973750D03*
X112250000Y-87100000D03*
X112500000Y-100300000D03*
X112550000Y-101950000D03*
X112625000Y-88287500D03*
X112700000Y-98650000D03*
X112750000Y-92000000D03*
X112850000Y-111415002D03*
X113000000Y-94650000D03*
X113000000Y-95650000D03*
X113000000Y-96650000D03*
X113000000Y-97650000D03*
X113100000Y-102200000D03*
X113250000Y-98650000D03*
X113350000Y-107482500D03*
X113350000Y-108617500D03*
X113400000Y-110850000D03*
X113450000Y-104750000D03*
X113550000Y-109450000D03*
X113700000Y-82100000D03*
X113900000Y-102900000D03*
X114100000Y-104750000D03*
X114100000Y-112200000D03*
X114189412Y-101860588D03*
X114500000Y-95650000D03*
X114500000Y-106000000D03*
X114500000Y-111000000D03*
X114600000Y-104750000D03*
X114650000Y-91000000D03*
X114650000Y-101950000D03*
X114750000Y-104000000D03*
X114800000Y-94100000D03*
X115000000Y-99000000D03*
X115500000Y-101300000D03*
X115850000Y-110500000D03*
X115900000Y-111650000D03*
X116400000Y-107300000D03*
X116450000Y-109950000D03*
X116500000Y-87600000D03*
X116500000Y-106000000D03*
X116650000Y-103150000D03*
X116850000Y-97300000D03*
X117000000Y-103500000D03*
X117000000Y-106000000D03*
X117000000Y-108000000D03*
X117000000Y-108500000D03*
X117000000Y-109000000D03*
X117050000Y-92100000D03*
X117350000Y-103850000D03*
X117450000Y-89250000D03*
X117500000Y-106000000D03*
X117594454Y-87833794D03*
X118266206Y-111494454D03*
D11*
%TO.C,U7*%
X108950000Y-87700000D03*
X108950000Y-88800000D03*
%TO.C,U6*%
X113512500Y-88387500D03*
X113512500Y-89487500D03*
D12*
%TO.C,J1*%
X91280000Y-117047500D02*
X91280000Y-116447500D01*
X99920000Y-117047500D02*
X99920000Y-116447500D01*
M02*
