%TF.GenerationSoftware,KiCad,Pcbnew,9.0.0-9.0.0-2~ubuntu24.04.1*%
%TF.CreationDate,2025-03-27T18:59:32+01:00*%
%TF.ProjectId,Kolibri v0.5,4b6f6c69-6272-4692-9076-302e352e6b69,rev?*%
%TF.SameCoordinates,Original*%
%TF.FileFunction,Paste,Bot*%
%TF.FilePolarity,Positive*%
%FSLAX46Y46*%
G04 Gerber Fmt 4.6, Leading zero omitted, Abs format (unit mm)*
G04 Created by KiCad (PCBNEW 9.0.0-9.0.0-2~ubuntu24.04.1) date 2025-03-27 18:59:32*
%MOMM*%
%LPD*%
G01*
G04 APERTURE LIST*
G04 Aperture macros list*
%AMRoundRect*
0 Rectangle with rounded corners*
0 $1 Rounding radius*
0 $2 $3 $4 $5 $6 $7 $8 $9 X,Y pos of 4 corners*
0 Add a 4 corners polygon primitive as box body*
4,1,4,$2,$3,$4,$5,$6,$7,$8,$9,$2,$3,0*
0 Add four circle primitives for the rounded corners*
1,1,$1+$1,$2,$3*
1,1,$1+$1,$4,$5*
1,1,$1+$1,$6,$7*
1,1,$1+$1,$8,$9*
0 Add four rect primitives between the rounded corners*
20,1,$1+$1,$2,$3,$4,$5,0*
20,1,$1+$1,$4,$5,$6,$7,0*
20,1,$1+$1,$6,$7,$8,$9,0*
20,1,$1+$1,$8,$9,$2,$3,0*%
G04 Aperture macros list end*
%ADD10RoundRect,0.160000X-0.197500X-0.160000X0.197500X-0.160000X0.197500X0.160000X-0.197500X0.160000X0*%
%ADD11RoundRect,0.155000X0.212500X0.155000X-0.212500X0.155000X-0.212500X-0.155000X0.212500X-0.155000X0*%
%ADD12RoundRect,0.155000X-0.212500X-0.155000X0.212500X-0.155000X0.212500X0.155000X-0.212500X0.155000X0*%
%ADD13RoundRect,0.175000X0.375000X-0.175000X0.375000X0.175000X-0.375000X0.175000X-0.375000X-0.175000X0*%
%ADD14RoundRect,0.150000X0.450000X-0.150000X0.450000X0.150000X-0.450000X0.150000X-0.450000X-0.150000X0*%
%ADD15RoundRect,0.160000X-0.160000X0.197500X-0.160000X-0.197500X0.160000X-0.197500X0.160000X0.197500X0*%
%ADD16RoundRect,0.160000X0.197500X0.160000X-0.197500X0.160000X-0.197500X-0.160000X0.197500X-0.160000X0*%
%ADD17RoundRect,0.218750X0.218750X0.256250X-0.218750X0.256250X-0.218750X-0.256250X0.218750X-0.256250X0*%
%ADD18RoundRect,0.155000X0.155000X-0.212500X0.155000X0.212500X-0.155000X0.212500X-0.155000X-0.212500X0*%
%ADD19RoundRect,0.155000X-0.155000X0.212500X-0.155000X-0.212500X0.155000X-0.212500X0.155000X0.212500X0*%
%ADD20RoundRect,0.160000X0.160000X-0.197500X0.160000X0.197500X-0.160000X0.197500X-0.160000X-0.197500X0*%
%ADD21RoundRect,0.225000X0.250000X-0.225000X0.250000X0.225000X-0.250000X0.225000X-0.250000X-0.225000X0*%
%ADD22R,0.800000X0.900000*%
%ADD23RoundRect,0.250000X-0.325000X-0.650000X0.325000X-0.650000X0.325000X0.650000X-0.325000X0.650000X0*%
%ADD24RoundRect,0.175000X0.175000X0.375000X-0.175000X0.375000X-0.175000X-0.375000X0.175000X-0.375000X0*%
%ADD25RoundRect,0.150000X0.150000X0.450000X-0.150000X0.450000X-0.150000X-0.450000X0.150000X-0.450000X0*%
%ADD26RoundRect,0.250000X0.325000X0.650000X-0.325000X0.650000X-0.325000X-0.650000X0.325000X-0.650000X0*%
%ADD27RoundRect,0.150000X-0.150000X-0.625000X0.150000X-0.625000X0.150000X0.625000X-0.150000X0.625000X0*%
%ADD28RoundRect,0.250000X-0.350000X-0.650000X0.350000X-0.650000X0.350000X0.650000X-0.350000X0.650000X0*%
%ADD29R,0.900000X0.800000*%
%ADD30RoundRect,0.250001X0.859999X2.249999X-0.859999X2.249999X-0.859999X-2.249999X0.859999X-2.249999X0*%
%ADD31RoundRect,0.100000X0.675000X0.100000X-0.675000X0.100000X-0.675000X-0.100000X0.675000X-0.100000X0*%
%ADD32RoundRect,0.218750X-0.256250X0.218750X-0.256250X-0.218750X0.256250X-0.218750X0.256250X0.218750X0*%
%ADD33RoundRect,0.097500X-0.227500X0.302500X-0.227500X-0.302500X0.227500X-0.302500X0.227500X0.302500X0*%
%ADD34R,0.700000X1.600000*%
%ADD35R,1.200000X2.200000*%
%ADD36R,1.200000X1.400000*%
%ADD37R,1.600000X1.400000*%
%ADD38RoundRect,0.250000X-0.250000X-0.475000X0.250000X-0.475000X0.250000X0.475000X-0.250000X0.475000X0*%
%ADD39RoundRect,0.160000X0.160000X-0.222500X0.160000X0.222500X-0.160000X0.222500X-0.160000X-0.222500X0*%
%ADD40RoundRect,0.218750X0.218750X0.381250X-0.218750X0.381250X-0.218750X-0.381250X0.218750X-0.381250X0*%
%ADD41RoundRect,0.112500X0.187500X0.112500X-0.187500X0.112500X-0.187500X-0.112500X0.187500X-0.112500X0*%
%ADD42RoundRect,0.218750X0.256250X-0.218750X0.256250X0.218750X-0.256250X0.218750X-0.256250X-0.218750X0*%
G04 APERTURE END LIST*
D10*
%TO.C,R11*%
X88302500Y-100850000D03*
X89497500Y-100850000D03*
%TD*%
D11*
%TO.C,C27*%
X92517500Y-89450000D03*
X91382500Y-89450000D03*
%TD*%
D12*
%TO.C,C61*%
X98182500Y-99550000D03*
X99317500Y-99550000D03*
%TD*%
D11*
%TO.C,C60*%
X97717500Y-100700000D03*
X96582500Y-100700000D03*
%TD*%
%TO.C,C30*%
X92067500Y-93150000D03*
X90932500Y-93150000D03*
%TD*%
D10*
%TO.C,R20*%
X97102500Y-90000000D03*
X98297500Y-90000000D03*
%TD*%
D12*
%TO.C,C74*%
X98882500Y-102150000D03*
X100017500Y-102150000D03*
%TD*%
D10*
%TO.C,R25*%
X111352500Y-104050000D03*
X112547500Y-104050000D03*
%TD*%
D13*
%TO.C,SW2*%
X84300000Y-96300000D03*
X84300000Y-92800000D03*
D14*
X82850000Y-92350000D03*
X82850000Y-96750000D03*
%TD*%
D12*
%TO.C,C75*%
X98882500Y-100850000D03*
X100017500Y-100850000D03*
%TD*%
%TO.C,C6*%
X102882500Y-99000000D03*
X104017500Y-99000000D03*
%TD*%
D15*
%TO.C,R17*%
X110700000Y-90652500D03*
X110700000Y-91847500D03*
%TD*%
D16*
%TO.C,R18*%
X100647500Y-90000000D03*
X99452500Y-90000000D03*
%TD*%
D12*
%TO.C,C44*%
X95632500Y-94800000D03*
X96767500Y-94800000D03*
%TD*%
D11*
%TO.C,C4*%
X107917500Y-101000000D03*
X106782500Y-101000000D03*
%TD*%
D17*
%TO.C,D15*%
X95637500Y-89300000D03*
X94062500Y-89300000D03*
%TD*%
D18*
%TO.C,C26*%
X89850000Y-94017500D03*
X89850000Y-92882500D03*
%TD*%
D12*
%TO.C,C10*%
X102882500Y-100250000D03*
X104017500Y-100250000D03*
%TD*%
D11*
%TO.C,C15*%
X107967500Y-96600000D03*
X106832500Y-96600000D03*
%TD*%
D15*
%TO.C,R37*%
X112950000Y-93402500D03*
X112950000Y-94597500D03*
%TD*%
D19*
%TO.C,C28*%
X89450000Y-88832500D03*
X89450000Y-89967500D03*
%TD*%
D20*
%TO.C,R19*%
X95250000Y-91847500D03*
X95250000Y-90652500D03*
%TD*%
D15*
%TO.C,R4*%
X105700000Y-96302500D03*
X105700000Y-97497500D03*
%TD*%
D11*
%TO.C,C71*%
X99717500Y-88850000D03*
X98582500Y-88850000D03*
%TD*%
D21*
%TO.C,C64*%
X100600000Y-99075000D03*
X100600000Y-97525000D03*
%TD*%
%TO.C,C63*%
X98800000Y-97525000D03*
X98800000Y-95975000D03*
%TD*%
D22*
%TO.C,Y5*%
X97150000Y-96950000D03*
X97150000Y-98350000D03*
X96050000Y-98350000D03*
X96050000Y-96950000D03*
%TD*%
D18*
%TO.C,C31*%
X88500000Y-89967500D03*
X88500000Y-88832500D03*
%TD*%
D12*
%TO.C,C39*%
X83732500Y-90750000D03*
X84867500Y-90750000D03*
%TD*%
D23*
%TO.C,C66*%
X105412500Y-92650000D03*
X108362500Y-92650000D03*
%TD*%
D11*
%TO.C,C78*%
X110317500Y-104050000D03*
X109182500Y-104050000D03*
%TD*%
D10*
%TO.C,R12*%
X91252500Y-100100000D03*
X92447500Y-100100000D03*
%TD*%
D20*
%TO.C,R28*%
X111800000Y-101447500D03*
X111800000Y-100252500D03*
%TD*%
D24*
%TO.C,SW1*%
X109600000Y-115650000D03*
X106100000Y-115650000D03*
D25*
X105650000Y-117100000D03*
X110050000Y-117100000D03*
%TD*%
D19*
%TO.C,C5*%
X106500000Y-98832500D03*
X106500000Y-99967500D03*
%TD*%
D12*
%TO.C,C53*%
X90032500Y-102750000D03*
X91167500Y-102750000D03*
%TD*%
D19*
%TO.C,C29*%
X90400000Y-88832500D03*
X90400000Y-89967500D03*
%TD*%
D20*
%TO.C,R7*%
X102050000Y-89247500D03*
X102050000Y-88052500D03*
%TD*%
D26*
%TO.C,C68*%
X111175000Y-94950000D03*
X108225000Y-94950000D03*
%TD*%
D11*
%TO.C,C43*%
X94767500Y-98600000D03*
X93632500Y-98600000D03*
%TD*%
D27*
%TO.C,J7*%
X89850000Y-87000000D03*
X90850000Y-87000000D03*
X91850000Y-87000000D03*
X92850000Y-87000000D03*
X93850000Y-87000000D03*
X94850000Y-87000000D03*
D28*
X88550000Y-83125000D03*
X96150000Y-83125000D03*
%TD*%
D19*
%TO.C,C42*%
X94800000Y-96232500D03*
X94800000Y-97367500D03*
%TD*%
%TO.C,C36*%
X86800000Y-93332500D03*
X86800000Y-94467500D03*
%TD*%
D29*
%TO.C,Y2*%
X86250000Y-89500000D03*
X84850000Y-89500000D03*
X84850000Y-88400000D03*
X86250000Y-88400000D03*
%TD*%
D19*
%TO.C,C25*%
X87550000Y-88832500D03*
X87550000Y-89967500D03*
%TD*%
D18*
%TO.C,C34*%
X86800000Y-92267500D03*
X86800000Y-91132500D03*
%TD*%
D30*
%TO.C,U5*%
X108950000Y-109650000D03*
D31*
X111825000Y-105425000D03*
X111825000Y-106075000D03*
X111825000Y-106725000D03*
X111825000Y-107375000D03*
X111825000Y-108025000D03*
X111825000Y-108675000D03*
X111825000Y-109325000D03*
X111825000Y-109975000D03*
X111825000Y-110625000D03*
X111825000Y-111275000D03*
X111825000Y-111925000D03*
X111825000Y-112575000D03*
X111825000Y-113225000D03*
X111825000Y-113875000D03*
X106075000Y-113875000D03*
X106075000Y-113225000D03*
X106075000Y-112575000D03*
X106075000Y-111925000D03*
X106075000Y-111275000D03*
X106075000Y-110625000D03*
X106075000Y-109975000D03*
X106075000Y-109325000D03*
X106075000Y-108675000D03*
X106075000Y-108025000D03*
X106075000Y-107375000D03*
X106075000Y-106725000D03*
X106075000Y-106075000D03*
X106075000Y-105425000D03*
%TD*%
D11*
%TO.C,C70*%
X101017500Y-91900000D03*
X99882500Y-91900000D03*
%TD*%
D18*
%TO.C,C9*%
X105550000Y-104017500D03*
X105550000Y-102882500D03*
%TD*%
%TO.C,C55*%
X94600000Y-102117500D03*
X94600000Y-100982500D03*
%TD*%
D20*
%TO.C,R29*%
X93850000Y-91847500D03*
X93850000Y-90652500D03*
%TD*%
D11*
%TO.C,C65*%
X109267500Y-89900000D03*
X108132500Y-89900000D03*
%TD*%
D19*
%TO.C,C86*%
X113350000Y-107482500D03*
X113350000Y-108617500D03*
%TD*%
%TO.C,C56*%
X104590000Y-107812500D03*
X104590000Y-108947500D03*
%TD*%
%TO.C,C40*%
X86850000Y-95582500D03*
X86850000Y-96717500D03*
%TD*%
D15*
%TO.C,R33*%
X111150000Y-115252500D03*
X111150000Y-116447500D03*
%TD*%
D32*
%TO.C,D16*%
X103750000Y-90462500D03*
X103750000Y-92037500D03*
%TD*%
D15*
%TO.C,R13*%
X100100000Y-95052500D03*
X100100000Y-96247500D03*
%TD*%
D32*
%TO.C,D14*%
X111650000Y-97362500D03*
X111650000Y-98937500D03*
%TD*%
D33*
%TO.C,D11*%
X87925000Y-94000000D03*
X87925000Y-95500000D03*
X88875000Y-94000000D03*
X88875000Y-95500000D03*
%TD*%
D18*
%TO.C,C50*%
X88600000Y-99717500D03*
X88600000Y-98582500D03*
%TD*%
%TO.C,C37*%
X82700000Y-89717500D03*
X82700000Y-88582500D03*
%TD*%
D34*
%TO.C,J9*%
X94050000Y-103850000D03*
X95150000Y-103850000D03*
X96250000Y-103850000D03*
X97350000Y-103850000D03*
X98450000Y-103850000D03*
X99550000Y-103850000D03*
X100650000Y-103850000D03*
X101750000Y-103850000D03*
X102850000Y-103850000D03*
D35*
X104050000Y-113950000D03*
D36*
X104050000Y-104350000D03*
D37*
X89450000Y-104350000D03*
D35*
X88550000Y-113950000D03*
%TD*%
D18*
%TO.C,C23*%
X87800000Y-107467500D03*
X87800000Y-106332500D03*
%TD*%
D12*
%TO.C,C7*%
X102882500Y-102150000D03*
X104017500Y-102150000D03*
%TD*%
%TO.C,C33*%
X88732500Y-91050000D03*
X89867500Y-91050000D03*
%TD*%
D16*
%TO.C,R10*%
X89197500Y-96700000D03*
X88002500Y-96700000D03*
%TD*%
D20*
%TO.C,R8*%
X103450000Y-89247500D03*
X103450000Y-88052500D03*
%TD*%
D16*
%TO.C,R36*%
X114197500Y-95650000D03*
X113002500Y-95650000D03*
%TD*%
D12*
%TO.C,C14*%
X105732500Y-94950000D03*
X106867500Y-94950000D03*
%TD*%
D11*
%TO.C,C1*%
X107917500Y-102150000D03*
X106782500Y-102150000D03*
%TD*%
D20*
%TO.C,R9*%
X87400000Y-99747500D03*
X87400000Y-98552500D03*
%TD*%
D10*
%TO.C,R16*%
X108402500Y-91000000D03*
X109597500Y-91000000D03*
%TD*%
D20*
%TO.C,R30*%
X103250000Y-94447500D03*
X103250000Y-93252500D03*
%TD*%
D12*
%TO.C,C41*%
X97832500Y-94800000D03*
X98967500Y-94800000D03*
%TD*%
D19*
%TO.C,C84*%
X108050000Y-87682500D03*
X108050000Y-88817500D03*
%TD*%
D12*
%TO.C,C62*%
X95982500Y-99550000D03*
X97117500Y-99550000D03*
%TD*%
D16*
%TO.C,R35*%
X114197500Y-96650000D03*
X113002500Y-96650000D03*
%TD*%
D38*
%TO.C,C72*%
X96700000Y-91600000D03*
X98600000Y-91600000D03*
%TD*%
D10*
%TO.C,R15*%
X106002500Y-91000000D03*
X107197500Y-91000000D03*
%TD*%
D11*
%TO.C,C8*%
X107917500Y-103300000D03*
X106782500Y-103300000D03*
%TD*%
D39*
%TO.C,L2*%
X87750000Y-92272500D03*
X87750000Y-91127500D03*
%TD*%
D40*
%TO.C,L5*%
X98712500Y-93450000D03*
X96587500Y-93450000D03*
%TD*%
D19*
%TO.C,C2*%
X105300000Y-98832500D03*
X105300000Y-99967500D03*
%TD*%
D12*
%TO.C,C3*%
X102882500Y-101200000D03*
X104017500Y-101200000D03*
%TD*%
D18*
%TO.C,C35*%
X85850000Y-92267500D03*
X85850000Y-91132500D03*
%TD*%
%TO.C,C38*%
X83650000Y-89517500D03*
X83650000Y-88382500D03*
%TD*%
D41*
%TO.C,D10*%
X104350000Y-96050000D03*
X102250000Y-96050000D03*
%TD*%
D42*
%TO.C,D18*%
X92300000Y-97037500D03*
X92300000Y-95462500D03*
%TD*%
D12*
%TO.C,C77*%
X109182500Y-102900000D03*
X110317500Y-102900000D03*
%TD*%
D19*
%TO.C,C24*%
X87800000Y-109232500D03*
X87800000Y-110367500D03*
%TD*%
D18*
%TO.C,C49*%
X89750000Y-99717500D03*
X89750000Y-98582500D03*
%TD*%
D20*
%TO.C,R14*%
X101197500Y-96247500D03*
X101197500Y-95052500D03*
%TD*%
%TO.C,R34*%
X113250000Y-100947500D03*
X113250000Y-99752500D03*
%TD*%
D18*
%TO.C,C17*%
X117600000Y-88917500D03*
X117600000Y-87782500D03*
%TD*%
D19*
%TO.C,C47*%
X95600000Y-100982500D03*
X95600000Y-102117500D03*
%TD*%
D11*
%TO.C,C45*%
X97417500Y-95750000D03*
X96282500Y-95750000D03*
%TD*%
M02*
