%TF.GenerationSoftware,KiCad,Pcbnew,9.0.0-9.0.0-2~ubuntu24.04.1*%
%TF.CreationDate,2025-03-27T18:59:33+01:00*%
%TF.ProjectId,Kolibri v0.5,4b6f6c69-6272-4692-9076-302e352e6b69,rev?*%
%TF.SameCoordinates,Original*%
%TF.FileFunction,Profile,NP*%
%FSLAX46Y46*%
G04 Gerber Fmt 4.6, Leading zero omitted, Abs format (unit mm)*
G04 Created by KiCad (PCBNEW 9.0.0-9.0.0-2~ubuntu24.04.1) date 2025-03-27 18:59:33*
%MOMM*%
%LPD*%
G01*
G04 APERTURE LIST*
%TA.AperFunction,Profile*%
%ADD10C,0.050000*%
%TD*%
G04 APERTURE END LIST*
D10*
X90000000Y-82000000D02*
G75*
G02*
X89292893Y-81707107I0J1000000D01*
G01*
X83000000Y-116300000D02*
X82150000Y-117150000D01*
X118000000Y-90000000D02*
G75*
G02*
X118292893Y-89292893I1000000J0D01*
G01*
X110000000Y-118000000D02*
G75*
G02*
X110707107Y-118292893I0J-1000000D01*
G01*
X116000000Y-119000000D02*
X117150000Y-117850000D01*
X83700000Y-83000000D02*
X82850000Y-82150000D01*
X88585786Y-119000000D02*
X84000000Y-119000000D01*
X89292893Y-81707107D02*
X88585786Y-81000000D01*
X118292893Y-110707107D02*
X119000000Y-111414214D01*
X81000000Y-116000000D02*
X82150000Y-117150000D01*
X89292893Y-118292893D02*
X88585786Y-119000000D01*
X116300000Y-117000000D02*
X117150000Y-117850000D01*
X116300000Y-117000000D02*
G75*
G02*
X117000000Y-116300000I-1050000J1750000D01*
G01*
X81000000Y-111414214D02*
X81000000Y-116000000D01*
X117000000Y-116300000D02*
X117850000Y-117150000D01*
X84000000Y-81000000D02*
X82850000Y-82150000D01*
X90000000Y-82000000D02*
X110000000Y-82000000D01*
X83000000Y-83700000D02*
X82150000Y-82850000D01*
X119000000Y-88585786D02*
X119000000Y-84000000D01*
X81707107Y-89292893D02*
G75*
G02*
X82000000Y-90000000I-707107J-707107D01*
G01*
X118292893Y-89292893D02*
X119000000Y-88585786D01*
X116300000Y-83000000D02*
X117150000Y-82150000D01*
X116000000Y-81000000D02*
X117150000Y-82150000D01*
X119000000Y-111414214D02*
X119000000Y-116000000D01*
X81000000Y-88585786D02*
X81000000Y-84000000D01*
X81707107Y-110707107D02*
X81000000Y-111414214D01*
X81000000Y-84000000D02*
X82150000Y-82850000D01*
X110707107Y-81707107D02*
X111414214Y-81000000D01*
X119000000Y-116000000D02*
X117850000Y-117150000D01*
X110707107Y-81707107D02*
G75*
G02*
X110000000Y-82000000I-707107J707107D01*
G01*
X119000000Y-84000000D02*
X117850000Y-82850000D01*
X88585786Y-81000000D02*
X84000000Y-81000000D01*
X111414214Y-119000000D02*
X116000000Y-119000000D01*
X82000000Y-110000000D02*
G75*
G02*
X81707107Y-110707107I-1000000J0D01*
G01*
X83000000Y-116300000D02*
G75*
G02*
X83700000Y-117000000I1750000J1050000D01*
G01*
X117000000Y-83700000D02*
X117850000Y-82850000D01*
X83700000Y-117000000D02*
X82850000Y-117850000D01*
X117000000Y-83700000D02*
G75*
G02*
X116300000Y-83000000I-1750000J-1050000D01*
G01*
X118000000Y-90000000D02*
X118000000Y-110000000D01*
X83700000Y-83000000D02*
G75*
G02*
X83000000Y-83700000I1050000J-1750000D01*
G01*
X82000000Y-110000000D02*
X82000000Y-90000000D01*
X110707107Y-118292893D02*
X111414214Y-119000000D01*
X84000000Y-119000000D02*
X82850000Y-117850000D01*
X110000000Y-118000000D02*
X90000000Y-118000000D01*
X111414214Y-81000000D02*
X116000000Y-81000000D01*
X89292893Y-118292893D02*
G75*
G02*
X90000000Y-118000000I707107J-707107D01*
G01*
X118292893Y-110707107D02*
G75*
G02*
X118000000Y-110000000I707107J707107D01*
G01*
X81707107Y-89292893D02*
X81000000Y-88585786D01*
M02*
