%TF.GenerationSoftware,KiCad,Pcbnew,9.0.0-9.0.0-2~ubuntu24.04.1*%
%TF.CreationDate,2025-03-27T18:59:32+01:00*%
%TF.ProjectId,Kolibri v0.5,4b6f6c69-6272-4692-9076-302e352e6b69,rev?*%
%TF.SameCoordinates,Original*%
%TF.FileFunction,Soldermask,Top*%
%TF.FilePolarity,Negative*%
%FSLAX46Y46*%
G04 Gerber Fmt 4.6, Leading zero omitted, Abs format (unit mm)*
G04 Created by KiCad (PCBNEW 9.0.0-9.0.0-2~ubuntu24.04.1) date 2025-03-27 18:59:32*
%MOMM*%
%LPD*%
G01*
G04 APERTURE LIST*
G04 Aperture macros list*
%AMRoundRect*
0 Rectangle with rounded corners*
0 $1 Rounding radius*
0 $2 $3 $4 $5 $6 $7 $8 $9 X,Y pos of 4 corners*
0 Add a 4 corners polygon primitive as box body*
4,1,4,$2,$3,$4,$5,$6,$7,$8,$9,$2,$3,0*
0 Add four circle primitives for the rounded corners*
1,1,$1+$1,$2,$3*
1,1,$1+$1,$4,$5*
1,1,$1+$1,$6,$7*
1,1,$1+$1,$8,$9*
0 Add four rect primitives between the rounded corners*
20,1,$1+$1,$2,$3,$4,$5,0*
20,1,$1+$1,$4,$5,$6,$7,0*
20,1,$1+$1,$6,$7,$8,$9,0*
20,1,$1+$1,$8,$9,$2,$3,0*%
%AMRotRect*
0 Rectangle, with rotation*
0 The origin of the aperture is its center*
0 $1 length*
0 $2 width*
0 $3 Rotation angle, in degrees counterclockwise*
0 Add horizontal line*
21,1,$1,$2,0,0,$3*%
%AMOutline5P*
0 Free polygon, 5 corners , with rotation*
0 The origin of the aperture is its center*
0 number of corners: always 5*
0 $1 to $10 corner X, Y*
0 $11 Rotation angle, in degrees counterclockwise*
0 create outline with 5 corners*
4,1,5,$1,$2,$3,$4,$5,$6,$7,$8,$9,$10,$1,$2,$11*%
%AMOutline6P*
0 Free polygon, 6 corners , with rotation*
0 The origin of the aperture is its center*
0 number of corners: always 6*
0 $1 to $12 corner X, Y*
0 $13 Rotation angle, in degrees counterclockwise*
0 create outline with 6 corners*
4,1,6,$1,$2,$3,$4,$5,$6,$7,$8,$9,$10,$11,$12,$1,$2,$13*%
%AMOutline7P*
0 Free polygon, 7 corners , with rotation*
0 The origin of the aperture is its center*
0 number of corners: always 7*
0 $1 to $14 corner X, Y*
0 $15 Rotation angle, in degrees counterclockwise*
0 create outline with 7 corners*
4,1,7,$1,$2,$3,$4,$5,$6,$7,$8,$9,$10,$11,$12,$13,$14,$1,$2,$15*%
%AMOutline8P*
0 Free polygon, 8 corners , with rotation*
0 The origin of the aperture is its center*
0 number of corners: always 8*
0 $1 to $16 corner X, Y*
0 $17 Rotation angle, in degrees counterclockwise*
0 create outline with 8 corners*
4,1,8,$1,$2,$3,$4,$5,$6,$7,$8,$9,$10,$11,$12,$13,$14,$15,$16,$1,$2,$17*%
G04 Aperture macros list end*
%ADD10R,0.800000X0.300000*%
%ADD11R,0.300000X0.800000*%
%ADD12R,1.750000X1.750000*%
%ADD13R,0.700000X0.200000*%
%ADD14R,0.200000X0.700000*%
%ADD15R,3.400000X3.400000*%
%ADD16RoundRect,0.050000X-0.387500X0.050000X-0.387500X-0.050000X0.387500X-0.050000X0.387500X0.050000X0*%
%ADD17RoundRect,0.050000X0.050000X0.387500X-0.050000X0.387500X-0.050000X-0.387500X0.050000X-0.387500X0*%
%ADD18R,0.300000X0.850000*%
%ADD19R,0.850000X0.300000*%
%ADD20R,2.650000X2.650000*%
%ADD21RoundRect,0.140000X-0.170000X0.140000X-0.170000X-0.140000X0.170000X-0.140000X0.170000X0.140000X0*%
%ADD22RoundRect,0.150000X0.150000X0.625000X-0.150000X0.625000X-0.150000X-0.625000X0.150000X-0.625000X0*%
%ADD23RoundRect,0.250000X0.350000X0.650000X-0.350000X0.650000X-0.350000X-0.650000X0.350000X-0.650000X0*%
%ADD24RoundRect,0.135000X-0.185000X0.135000X-0.185000X-0.135000X0.185000X-0.135000X0.185000X0.135000X0*%
%ADD25RoundRect,0.097500X-0.374767X0.053033X0.053033X-0.374767X0.374767X-0.053033X-0.053033X0.374767X0*%
%ADD26RoundRect,0.140000X0.170000X-0.140000X0.170000X0.140000X-0.170000X0.140000X-0.170000X-0.140000X0*%
%ADD27RoundRect,0.062500X0.237500X-0.062500X0.237500X0.062500X-0.237500X0.062500X-0.237500X-0.062500X0*%
%ADD28RoundRect,0.050000X0.250000X-0.050000X0.250000X0.050000X-0.250000X0.050000X-0.250000X-0.050000X0*%
%ADD29RoundRect,0.075000X0.075000X-0.250000X0.075000X0.250000X-0.075000X0.250000X-0.075000X-0.250000X0*%
%ADD30Outline8P,-0.750000X0.300000X-0.300000X0.750000X0.300000X0.750000X0.750000X0.300000X0.750000X-0.300000X0.300000X-0.750000X-0.300000X-0.750000X-0.750000X-0.300000X0.000000*%
%ADD31RoundRect,0.097500X0.053033X0.374767X-0.374767X-0.053033X-0.053033X-0.374767X0.374767X0.053033X0*%
%ADD32C,0.650000*%
%ADD33R,0.600000X1.150000*%
%ADD34R,0.300000X1.150000*%
%ADD35R,1.700000X1.700000*%
%ADD36O,1.000000X1.600000*%
%ADD37R,0.550000X0.550000*%
%ADD38R,0.300000X0.500000*%
%ADD39R,0.300000X0.900000*%
%ADD40R,2.600000X1.400000*%
%ADD41RoundRect,0.218750X0.381250X-0.218750X0.381250X0.218750X-0.381250X0.218750X-0.381250X-0.218750X0*%
%ADD42RoundRect,0.147500X-0.147500X-0.172500X0.147500X-0.172500X0.147500X0.172500X-0.147500X0.172500X0*%
%ADD43RoundRect,0.140000X-0.140000X-0.170000X0.140000X-0.170000X0.140000X0.170000X-0.140000X0.170000X0*%
%ADD44RoundRect,0.218750X0.218750X0.256250X-0.218750X0.256250X-0.218750X-0.256250X0.218750X-0.256250X0*%
%ADD45RoundRect,0.140000X0.140000X0.170000X-0.140000X0.170000X-0.140000X-0.170000X0.140000X-0.170000X0*%
%ADD46RoundRect,0.135000X-0.135000X-0.185000X0.135000X-0.185000X0.135000X0.185000X-0.135000X0.185000X0*%
%ADD47R,1.500000X1.500000*%
%ADD48RoundRect,0.250000X0.250000X0.550000X-0.250000X0.550000X-0.250000X-0.550000X0.250000X-0.550000X0*%
%ADD49RoundRect,0.087500X-0.125000X-0.087500X0.125000X-0.087500X0.125000X0.087500X-0.125000X0.087500X0*%
%ADD50RoundRect,0.087500X-0.087500X-0.125000X0.087500X-0.125000X0.087500X0.125000X-0.087500X0.125000X0*%
%ADD51RoundRect,0.093750X-0.093750X-0.106250X0.093750X-0.106250X0.093750X0.106250X-0.093750X0.106250X0*%
%ADD52R,1.000000X1.600000*%
%ADD53R,0.675000X0.250000*%
%ADD54R,0.250000X0.675000*%
%ADD55RoundRect,0.135000X0.135000X0.185000X-0.135000X0.185000X-0.135000X-0.185000X0.135000X-0.185000X0*%
%ADD56R,1.400000X1.200000*%
%ADD57RoundRect,0.375000X0.375000X-0.375000X0.375000X0.375000X-0.375000X0.375000X-0.375000X-0.375000X0*%
%ADD58RotRect,0.550000X0.550000X315.000000*%
%ADD59RotRect,0.300000X0.500000X225.000000*%
%ADD60RoundRect,0.050000X-0.100000X0.285000X-0.100000X-0.285000X0.100000X-0.285000X0.100000X0.285000X0*%
%ADD61RoundRect,0.150000X0.625000X-0.150000X0.625000X0.150000X-0.625000X0.150000X-0.625000X-0.150000X0*%
%ADD62RoundRect,0.250000X0.650000X-0.350000X0.650000X0.350000X-0.650000X0.350000X-0.650000X-0.350000X0*%
%ADD63RoundRect,0.250000X-1.600000X0.600000X-1.600000X-0.600000X1.600000X-0.600000X1.600000X0.600000X0*%
%ADD64RoundRect,0.375000X-0.375000X-0.375000X0.375000X-0.375000X0.375000X0.375000X-0.375000X0.375000X0*%
%ADD65RoundRect,0.097500X-0.053033X-0.374767X0.374767X0.053033X0.053033X0.374767X-0.374767X-0.053033X0*%
%ADD66RoundRect,0.100000X0.400000X0.400000X-0.400000X0.400000X-0.400000X-0.400000X0.400000X-0.400000X0*%
%ADD67RoundRect,0.105000X0.420000X0.995000X-0.420000X0.995000X-0.420000X-0.995000X0.420000X-0.995000X0*%
%ADD68RoundRect,0.135000X0.185000X-0.135000X0.185000X0.135000X-0.185000X0.135000X-0.185000X-0.135000X0*%
%ADD69RoundRect,0.100000X-0.400000X-0.400000X0.400000X-0.400000X0.400000X0.400000X-0.400000X0.400000X0*%
%ADD70RoundRect,0.105000X-0.420000X-0.995000X0.420000X-0.995000X0.420000X0.995000X-0.420000X0.995000X0*%
%ADD71RoundRect,0.097500X0.374767X-0.053033X-0.053033X0.374767X-0.374767X0.053033X0.053033X-0.374767X0*%
%ADD72RoundRect,0.150000X-0.150000X-0.625000X0.150000X-0.625000X0.150000X0.625000X-0.150000X0.625000X0*%
%ADD73RoundRect,0.250000X-0.350000X-0.650000X0.350000X-0.650000X0.350000X0.650000X-0.350000X0.650000X0*%
%ADD74RoundRect,0.150000X0.512500X0.150000X-0.512500X0.150000X-0.512500X-0.150000X0.512500X-0.150000X0*%
%ADD75RoundRect,0.097500X0.227500X-0.302500X0.227500X0.302500X-0.227500X0.302500X-0.227500X-0.302500X0*%
%ADD76RoundRect,0.112500X-0.187500X-0.112500X0.187500X-0.112500X0.187500X0.112500X-0.187500X0.112500X0*%
%ADD77RoundRect,0.140000X-0.219203X-0.021213X-0.021213X-0.219203X0.219203X0.021213X0.021213X0.219203X0*%
%ADD78RoundRect,0.250000X0.325000X0.650000X-0.325000X0.650000X-0.325000X-0.650000X0.325000X-0.650000X0*%
%ADD79R,0.900000X0.800000*%
%ADD80RoundRect,0.140000X0.021213X-0.219203X0.219203X-0.021213X-0.021213X0.219203X-0.219203X0.021213X0*%
%ADD81RoundRect,0.112500X-0.112500X0.187500X-0.112500X-0.187500X0.112500X-0.187500X0.112500X0.187500X0*%
%ADD82RoundRect,0.150000X0.587500X0.150000X-0.587500X0.150000X-0.587500X-0.150000X0.587500X-0.150000X0*%
%ADD83RoundRect,0.062500X0.387500X0.062500X-0.387500X0.062500X-0.387500X-0.062500X0.387500X-0.062500X0*%
%ADD84R,0.200000X1.600000*%
%ADD85C,1.000000*%
G04 APERTURE END LIST*
D10*
%TO.C,IC2*%
X90100000Y-98950000D03*
X90100000Y-98450000D03*
X90100000Y-97950000D03*
X90100000Y-97450000D03*
D11*
X89350000Y-96700000D03*
X88850000Y-96700000D03*
X88350000Y-96700000D03*
X87850000Y-96700000D03*
D10*
X87100000Y-97450000D03*
X87100000Y-97950000D03*
X87100000Y-98450000D03*
X87100000Y-98950000D03*
D11*
X87850000Y-99700000D03*
X88350000Y-99700000D03*
X88850000Y-99700000D03*
X89350000Y-99700000D03*
D12*
X88600000Y-98200000D03*
%TD*%
D10*
%TO.C,IC4*%
X90750000Y-103200000D03*
X90750000Y-102700000D03*
X90750000Y-102200000D03*
X90750000Y-101700000D03*
D11*
X90000000Y-100950000D03*
X89500000Y-100950000D03*
X89000000Y-100950000D03*
X88500000Y-100950000D03*
D10*
X87750000Y-101700000D03*
X87750000Y-102200000D03*
X87750000Y-102700000D03*
X87750000Y-103200000D03*
D11*
X88500000Y-103950000D03*
X89000000Y-103950000D03*
X89500000Y-103950000D03*
X90000000Y-103950000D03*
D12*
X89250000Y-102450000D03*
%TD*%
D13*
%TO.C,U3*%
X87450000Y-89125000D03*
X87450000Y-89475000D03*
X87450000Y-89825000D03*
X87450000Y-90175000D03*
X87450000Y-90525000D03*
X87450000Y-90875000D03*
X87450000Y-91225000D03*
X87450000Y-91575000D03*
X87450000Y-91925000D03*
X87450000Y-92275000D03*
X87450000Y-92625000D03*
X87450000Y-92975000D03*
X87450000Y-93325000D03*
X87450000Y-93675000D03*
D14*
X88375000Y-93900000D03*
X88725000Y-93900000D03*
X89075000Y-93900000D03*
X89425000Y-93900000D03*
X89775000Y-93900000D03*
X90125000Y-93900000D03*
X90475000Y-93900000D03*
X90825000Y-93900000D03*
X91175000Y-93900000D03*
X91525000Y-93900000D03*
D13*
X92450000Y-93675000D03*
X92450000Y-93325000D03*
X92450000Y-92975000D03*
X92450000Y-92625000D03*
X92450000Y-92275000D03*
X92450000Y-91925000D03*
X92450000Y-91575000D03*
X92450000Y-91225000D03*
X92450000Y-90875000D03*
X92450000Y-90525000D03*
X92450000Y-90175000D03*
X92450000Y-89825000D03*
X92450000Y-89475000D03*
X92450000Y-89125000D03*
D14*
X91525000Y-88900000D03*
X91175000Y-88900000D03*
X90825000Y-88900000D03*
X90475000Y-88900000D03*
X90125000Y-88900000D03*
X89775000Y-88900000D03*
X89425000Y-88900000D03*
X89075000Y-88900000D03*
X88725000Y-88900000D03*
X88375000Y-88900000D03*
D15*
X89950000Y-91400000D03*
%TD*%
D16*
%TO.C,U1*%
X108737500Y-104150000D03*
X108737500Y-103750000D03*
X108737500Y-103350000D03*
X108737500Y-102950000D03*
X108737500Y-102550000D03*
X108737500Y-102150000D03*
X108737500Y-101750000D03*
X108737500Y-101350000D03*
X108737500Y-100950000D03*
X108737500Y-100550000D03*
X108737500Y-100150000D03*
X108737500Y-99750000D03*
X108737500Y-99350000D03*
X108737500Y-98950000D03*
X108737500Y-98550000D03*
D17*
X108100000Y-97912500D03*
X107700000Y-97912500D03*
X107300000Y-97912500D03*
X106900000Y-97912500D03*
X106500000Y-97912500D03*
X106100000Y-97912500D03*
X105700000Y-97912500D03*
X105300000Y-97912500D03*
X104900000Y-97912500D03*
X104500000Y-97912500D03*
X104100000Y-97912500D03*
X103700000Y-97912500D03*
X103300000Y-97912500D03*
X102900000Y-97912500D03*
X102500000Y-97912500D03*
D16*
X101862500Y-98550000D03*
X101862500Y-98950000D03*
X101862500Y-99350000D03*
X101862500Y-99750000D03*
X101862500Y-100150000D03*
X101862500Y-100550000D03*
X101862500Y-100950000D03*
X101862500Y-101350000D03*
X101862500Y-101750000D03*
X101862500Y-102150000D03*
X101862500Y-102550000D03*
X101862500Y-102950000D03*
X101862500Y-103350000D03*
X101862500Y-103750000D03*
X101862500Y-104150000D03*
D17*
X102500000Y-104787500D03*
X102900000Y-104787500D03*
X103300000Y-104787500D03*
X103700000Y-104787500D03*
X104100000Y-104787500D03*
X104500000Y-104787500D03*
X104900000Y-104787500D03*
X105300000Y-104787500D03*
X105700000Y-104787500D03*
X106100000Y-104787500D03*
X106500000Y-104787500D03*
X106900000Y-104787500D03*
X107300000Y-104787500D03*
X107700000Y-104787500D03*
X108100000Y-104787500D03*
D15*
X105300000Y-101350000D03*
%TD*%
D18*
%TO.C,IC3*%
X94800000Y-103400000D03*
X95300000Y-103400000D03*
X95800000Y-103400000D03*
X96300000Y-103400000D03*
X96800000Y-103400000D03*
X97300000Y-103400000D03*
D19*
X98000000Y-102700000D03*
X98000000Y-102200000D03*
X98000000Y-101700000D03*
X98000000Y-101200000D03*
X98000000Y-100700000D03*
X98000000Y-100200000D03*
D18*
X97300000Y-99500000D03*
X96800000Y-99500000D03*
X96300000Y-99500000D03*
X95800000Y-99500000D03*
X95300000Y-99500000D03*
X94800000Y-99500000D03*
D19*
X94100000Y-100200000D03*
X94100000Y-100700000D03*
X94100000Y-101200000D03*
X94100000Y-101700000D03*
X94100000Y-102200000D03*
X94100000Y-102700000D03*
D20*
X96050000Y-101450000D03*
%TD*%
D18*
%TO.C,IC1*%
X94550000Y-98150000D03*
X95050000Y-98150000D03*
X95550000Y-98150000D03*
X96050000Y-98150000D03*
X96550000Y-98150000D03*
X97050000Y-98150000D03*
D19*
X97750000Y-97450000D03*
X97750000Y-96950000D03*
X97750000Y-96450000D03*
X97750000Y-95950000D03*
X97750000Y-95450000D03*
X97750000Y-94950000D03*
D18*
X97050000Y-94250000D03*
X96550000Y-94250000D03*
X96050000Y-94250000D03*
X95550000Y-94250000D03*
X95050000Y-94250000D03*
X94550000Y-94250000D03*
D19*
X93850000Y-94950000D03*
X93850000Y-95450000D03*
X93850000Y-95950000D03*
X93850000Y-96450000D03*
X93850000Y-96950000D03*
X93850000Y-97450000D03*
D20*
X95800000Y-96200000D03*
%TD*%
D21*
%TO.C,C81*%
X115350000Y-88470000D03*
X115350000Y-89430000D03*
%TD*%
D22*
%TO.C,J6*%
X97650000Y-87000000D03*
X96650000Y-87000000D03*
X95650000Y-87000000D03*
X94650000Y-87000000D03*
X93650000Y-87000000D03*
X92650000Y-87000000D03*
D23*
X98950000Y-83125000D03*
X91350000Y-83125000D03*
%TD*%
D24*
%TO.C,R27*%
X112750000Y-105440000D03*
X112750000Y-106460000D03*
%TD*%
D25*
%TO.C,D6*%
X82405546Y-87833794D03*
X83466206Y-88894454D03*
X81733794Y-88505546D03*
X82794454Y-89566206D03*
%TD*%
D26*
%TO.C,C32*%
X86350000Y-89830000D03*
X86350000Y-88870000D03*
%TD*%
D27*
%TO.C,U9*%
X112500000Y-104300000D03*
D28*
X112500000Y-103800000D03*
X112500000Y-103300000D03*
D27*
X112500000Y-102800000D03*
D29*
X111800000Y-102625000D03*
D27*
X111100000Y-102800000D03*
D28*
X111100000Y-103300000D03*
X111100000Y-103800000D03*
D27*
X111100000Y-104300000D03*
D29*
X111800000Y-104475000D03*
%TD*%
D30*
%TO.C,P30*%
X108500000Y-85500000D03*
%TD*%
%TO.C,P29*%
X85500000Y-100500000D03*
%TD*%
D31*
%TO.C,D9*%
X118266206Y-88505546D03*
X117205546Y-89566206D03*
X117594454Y-87833794D03*
X116533794Y-88894454D03*
%TD*%
D32*
%TO.C,J1*%
X92710000Y-113087500D03*
X98490000Y-113087500D03*
D33*
X92400000Y-111982500D03*
X93200000Y-111982500D03*
D34*
X94350000Y-111982500D03*
X95350000Y-111982500D03*
X95850000Y-111982500D03*
X96850000Y-111982500D03*
D33*
X98000000Y-111982500D03*
X98800000Y-111982500D03*
X98800000Y-111982500D03*
X98000000Y-111982500D03*
D34*
X97350000Y-111982500D03*
X96350000Y-111982500D03*
X94850000Y-111982500D03*
X93850000Y-111982500D03*
D33*
X93200000Y-111982500D03*
X92400000Y-111982500D03*
D35*
X90600000Y-112547500D03*
D36*
X91280000Y-116747500D03*
X99920000Y-116747500D03*
D35*
X100600000Y-112547500D03*
%TD*%
D26*
%TO.C,C80*%
X108480000Y-110250000D03*
X108480000Y-109290000D03*
%TD*%
D24*
%TO.C,R5*%
X88750000Y-114340000D03*
X88750000Y-115360000D03*
%TD*%
D31*
%TO.C,D8*%
X112166206Y-82405546D03*
X111105546Y-83466206D03*
X111494454Y-81733794D03*
X110433794Y-82794454D03*
%TD*%
D37*
%TO.C,FL2*%
X93000000Y-101700000D03*
D38*
X92400000Y-101350000D03*
D37*
X91800000Y-101700000D03*
D38*
X92400000Y-102050000D03*
%TD*%
D39*
%TO.C,IC6*%
X98700000Y-91900000D03*
X99200000Y-91900000D03*
X99700000Y-91900000D03*
X100200000Y-91900000D03*
X100700000Y-91900000D03*
X101200000Y-91900000D03*
X101200000Y-89000000D03*
X100700000Y-89000000D03*
X100200000Y-89000000D03*
X99700000Y-89000000D03*
X99200000Y-89000000D03*
X98700000Y-89000000D03*
D40*
X99950000Y-90450000D03*
%TD*%
D41*
%TO.C,L6*%
X99550000Y-100612500D03*
X99550000Y-98487500D03*
%TD*%
D42*
%TO.C,L3*%
X84465000Y-89800000D03*
X85435000Y-89800000D03*
%TD*%
D24*
%TO.C,R2*%
X105500000Y-106240000D03*
X105500000Y-107260000D03*
%TD*%
D43*
%TO.C,C18*%
X110570000Y-115350000D03*
X111530000Y-115350000D03*
%TD*%
D44*
%TO.C,D17*%
X92187500Y-110100000D03*
X90612500Y-110100000D03*
%TD*%
D45*
%TO.C,C13*%
X103780000Y-105800000D03*
X102820000Y-105800000D03*
%TD*%
D46*
%TO.C,R38*%
X97190000Y-107250000D03*
X98210000Y-107250000D03*
%TD*%
D47*
%TO.C,P25*%
X111000000Y-85500000D03*
%TD*%
D45*
%TO.C,C67*%
X110680000Y-94300000D03*
X109720000Y-94300000D03*
%TD*%
D48*
%TO.C,L1*%
X104400000Y-108150000D03*
X102400000Y-108150000D03*
%TD*%
D49*
%TO.C,U11*%
X87787500Y-109000000D03*
X87787500Y-109500000D03*
D50*
X88050000Y-110012500D03*
X88550000Y-110012500D03*
X89050000Y-110012500D03*
D49*
X89312500Y-109500000D03*
X89312500Y-109000000D03*
D50*
X89050000Y-108487500D03*
X88550000Y-108487500D03*
X88050000Y-108487500D03*
%TD*%
D25*
%TO.C,D7*%
X88505546Y-81733794D03*
X89566206Y-82794454D03*
X87833794Y-82405546D03*
X88894454Y-83466206D03*
%TD*%
D51*
%TO.C,U7*%
X108062500Y-87600000D03*
X108062500Y-88250000D03*
X108062500Y-88900000D03*
X109837500Y-88900000D03*
X109837500Y-88250000D03*
X109837500Y-87600000D03*
D52*
X108950000Y-88250000D03*
%TD*%
D53*
%TO.C,U2*%
X96062500Y-110100000D03*
X96062500Y-109600000D03*
X96062500Y-109100000D03*
X96062500Y-108600000D03*
D54*
X95300000Y-108337500D03*
X94800000Y-108337500D03*
X94300000Y-108337500D03*
D53*
X93537500Y-108600000D03*
X93537500Y-109100000D03*
X93537500Y-109600000D03*
X93537500Y-110100000D03*
D54*
X94300000Y-110362500D03*
X94800000Y-110362500D03*
X95300000Y-110362500D03*
%TD*%
D46*
%TO.C,R22*%
X107490000Y-111250000D03*
X108510000Y-111250000D03*
%TD*%
D55*
%TO.C,R31*%
X91910000Y-108700000D03*
X90890000Y-108700000D03*
%TD*%
D56*
%TO.C,Y1*%
X108250000Y-94800000D03*
X106050000Y-94800000D03*
X106050000Y-96500000D03*
X108250000Y-96500000D03*
%TD*%
D22*
%TO.C,J8*%
X104450000Y-87000000D03*
X103450000Y-87000000D03*
X102450000Y-87000000D03*
D23*
X105750000Y-83125000D03*
X101150000Y-83125000D03*
%TD*%
D46*
%TO.C,R32*%
X91590000Y-95000000D03*
X92610000Y-95000000D03*
%TD*%
D45*
%TO.C,C12*%
X103780000Y-106750000D03*
X102820000Y-106750000D03*
%TD*%
D57*
%TO.C,P14*%
X114500000Y-108500000D03*
%TD*%
D58*
%TO.C,FL1*%
X92374264Y-96525736D03*
D59*
X91702513Y-96702513D03*
D58*
X91525736Y-97374264D03*
D59*
X92197487Y-97197487D03*
%TD*%
D43*
%TO.C,C85*%
X107520000Y-108400000D03*
X108480000Y-108400000D03*
%TD*%
D60*
%TO.C,U4*%
X100787500Y-95560000D03*
X100287500Y-95560000D03*
X99787500Y-95560000D03*
X99287500Y-95560000D03*
X99287500Y-97040000D03*
X99787500Y-97040000D03*
X100287500Y-97040000D03*
X100787500Y-97040000D03*
%TD*%
D47*
%TO.C,P23*%
X114500000Y-103500000D03*
%TD*%
D61*
%TO.C,J5*%
X113000000Y-99650000D03*
X113000000Y-98650000D03*
X113000000Y-97650000D03*
X113000000Y-96650000D03*
X113000000Y-95650000D03*
X113000000Y-94650000D03*
X113000000Y-93650000D03*
X113000000Y-92650000D03*
D62*
X116875000Y-100950000D03*
X116875000Y-91350000D03*
%TD*%
D21*
%TO.C,C52*%
X86000000Y-97020000D03*
X86000000Y-97980000D03*
%TD*%
D45*
%TO.C,C22*%
X96180000Y-107250000D03*
X95220000Y-107250000D03*
%TD*%
D63*
%TO.C,L7*%
X105337500Y-90150000D03*
X105337500Y-92850000D03*
%TD*%
D64*
%TO.C,P21*%
X83000000Y-103500000D03*
%TD*%
D26*
%TO.C,C73*%
X111800000Y-106430000D03*
X111800000Y-105470000D03*
%TD*%
%TO.C,C19*%
X89700000Y-115580000D03*
X89700000Y-114620000D03*
%TD*%
D65*
%TO.C,D4*%
X87833794Y-117594454D03*
X88894454Y-116533794D03*
X88505546Y-118266206D03*
X89566206Y-117205546D03*
%TD*%
D66*
%TO.C,J3*%
X84200000Y-94400000D03*
D67*
X82725000Y-92900000D03*
D66*
X84200000Y-91400000D03*
D67*
X85675000Y-92900000D03*
%TD*%
D30*
%TO.C,P34*%
X83000000Y-98500000D03*
%TD*%
D55*
%TO.C,R23*%
X111160000Y-113750000D03*
X110140000Y-113750000D03*
%TD*%
D68*
%TO.C,R3*%
X101250000Y-108610000D03*
X101250000Y-107590000D03*
%TD*%
D69*
%TO.C,J4*%
X84500000Y-105600000D03*
D70*
X85975000Y-107100000D03*
D69*
X84500000Y-108600000D03*
D70*
X83025000Y-107100000D03*
%TD*%
D43*
%TO.C,C79*%
X111737500Y-107450000D03*
X112697500Y-107450000D03*
%TD*%
D71*
%TO.C,D3*%
X111494454Y-118266206D03*
X110433794Y-117205546D03*
X112166206Y-117594454D03*
X111105546Y-116533794D03*
%TD*%
D45*
%TO.C,C51*%
X85080000Y-95800000D03*
X84120000Y-95800000D03*
%TD*%
%TO.C,C58*%
X85480000Y-104200000D03*
X84520000Y-104200000D03*
%TD*%
D30*
%TO.C,P28*%
X117000000Y-106000000D03*
%TD*%
D72*
%TO.C,J2*%
X104300000Y-113000000D03*
X105300000Y-113000000D03*
X106300000Y-113000000D03*
X107300000Y-113000000D03*
D73*
X103000000Y-116875000D03*
X108600000Y-116875000D03*
%TD*%
D64*
%TO.C,P18*%
X114500000Y-111000000D03*
%TD*%
%TO.C,P22*%
X83000000Y-101000000D03*
%TD*%
%TO.C,P19*%
X114500000Y-106000000D03*
%TD*%
D55*
%TO.C,R24*%
X111160000Y-112800000D03*
X110140000Y-112800000D03*
%TD*%
D21*
%TO.C,C48*%
X105950000Y-109870000D03*
X105950000Y-110830000D03*
%TD*%
D74*
%TO.C,U8*%
X99837500Y-110400000D03*
X99837500Y-109450000D03*
X99837500Y-108500000D03*
X97562500Y-108500000D03*
X97562500Y-109450000D03*
X97562500Y-110400000D03*
%TD*%
D75*
%TO.C,D1*%
X99265000Y-107060000D03*
X99265000Y-105560000D03*
X100215000Y-107060000D03*
X100215000Y-105560000D03*
%TD*%
D51*
%TO.C,U6*%
X112625000Y-88287500D03*
X112625000Y-88937500D03*
X112625000Y-89587500D03*
X114400000Y-89587500D03*
X114400000Y-88937500D03*
X114400000Y-88287500D03*
D52*
X113512500Y-88937500D03*
%TD*%
D64*
%TO.C,P20*%
X108500000Y-83000000D03*
%TD*%
D68*
%TO.C,R21*%
X107500000Y-110310000D03*
X107500000Y-109290000D03*
%TD*%
D43*
%TO.C,C16*%
X99260000Y-104510000D03*
X100220000Y-104510000D03*
%TD*%
D39*
%TO.C,IC5*%
X108150000Y-93100000D03*
X108650000Y-93100000D03*
X109150000Y-93100000D03*
X109650000Y-93100000D03*
X110150000Y-93100000D03*
X110650000Y-93100000D03*
X110650000Y-90200000D03*
X110150000Y-90200000D03*
X109650000Y-90200000D03*
X109150000Y-90200000D03*
X108650000Y-90200000D03*
X108150000Y-90200000D03*
D40*
X109400000Y-91650000D03*
%TD*%
D76*
%TO.C,D13*%
X102100000Y-95900000D03*
X104200000Y-95900000D03*
%TD*%
D42*
%TO.C,L4*%
X87565000Y-87700000D03*
X88535000Y-87700000D03*
%TD*%
D77*
%TO.C,C46*%
X84210589Y-96910589D03*
X84889411Y-97589411D03*
%TD*%
D21*
%TO.C,C83*%
X110750000Y-87820000D03*
X110750000Y-88780000D03*
%TD*%
D56*
%TO.C,Y4*%
X109950000Y-110500000D03*
X112150000Y-110500000D03*
X112150000Y-108800000D03*
X109950000Y-108800000D03*
%TD*%
D26*
%TO.C,C11*%
X101250000Y-106730000D03*
X101250000Y-105770000D03*
%TD*%
D78*
%TO.C,C69*%
X102225000Y-93750000D03*
X99275000Y-93750000D03*
%TD*%
D79*
%TO.C,Y3*%
X97750000Y-104850000D03*
X96350000Y-104850000D03*
X96350000Y-105950000D03*
X97750000Y-105950000D03*
%TD*%
D80*
%TO.C,C57*%
X84860589Y-103089411D03*
X85539411Y-102410589D03*
%TD*%
D63*
%TO.C,L8*%
X95900000Y-89400000D03*
X95900000Y-92100000D03*
%TD*%
D71*
%TO.C,D2*%
X117594454Y-112166206D03*
X116533794Y-111105546D03*
X118266206Y-111494454D03*
X117205546Y-110433794D03*
%TD*%
D47*
%TO.C,P24*%
X117000000Y-108500000D03*
%TD*%
D43*
%TO.C,C76*%
X110170000Y-111850000D03*
X111130000Y-111850000D03*
%TD*%
D24*
%TO.C,R1*%
X106450000Y-106240000D03*
X106450000Y-107260000D03*
%TD*%
D65*
%TO.C,D5*%
X81733794Y-111494454D03*
X82794454Y-110433794D03*
X82405546Y-112166206D03*
X83466206Y-111105546D03*
%TD*%
D81*
%TO.C,D12*%
X88000000Y-105200000D03*
X88000000Y-107300000D03*
%TD*%
D82*
%TO.C,Q1*%
X91837500Y-107250000D03*
X91837500Y-105350000D03*
X89962500Y-106300000D03*
%TD*%
D26*
%TO.C,C59*%
X86650000Y-103180000D03*
X86650000Y-102220000D03*
%TD*%
D24*
%TO.C,R6*%
X101400000Y-116090000D03*
X101400000Y-117110000D03*
%TD*%
D21*
%TO.C,C20*%
X88550000Y-84620000D03*
X88550000Y-85580000D03*
%TD*%
D24*
%TO.C,R26*%
X111150000Y-100390000D03*
X111150000Y-101410000D03*
%TD*%
D30*
%TO.C,P33*%
X117000000Y-103500000D03*
%TD*%
D43*
%TO.C,C21*%
X93370000Y-107250000D03*
X94330000Y-107250000D03*
%TD*%
D26*
%TO.C,C54*%
X91850000Y-104130000D03*
X91850000Y-103170000D03*
%TD*%
D21*
%TO.C,C82*%
X111700000Y-88520000D03*
X111700000Y-89480000D03*
%TD*%
D83*
%TO.C,U10*%
X110575000Y-107400000D03*
X110575000Y-106900000D03*
X110575000Y-106400000D03*
X110575000Y-105900000D03*
X107725000Y-105900000D03*
X107725000Y-106400000D03*
X107725000Y-106900000D03*
X107725000Y-107400000D03*
D84*
X109150000Y-106650000D03*
%TD*%
D85*
%TO.C,J9*%
X101230000Y-114350000D03*
X93250000Y-114350000D03*
%TD*%
M02*
