%TF.GenerationSoftware,KiCad,Pcbnew,9.0.0-9.0.0-2~ubuntu24.04.1*%
%TF.CreationDate,2025-03-27T18:59:32+01:00*%
%TF.ProjectId,Kolibri v0.5,4b6f6c69-6272-4692-9076-302e352e6b69,rev?*%
%TF.SameCoordinates,Original*%
%TF.FileFunction,Legend,Top*%
%TF.FilePolarity,Positive*%
%FSLAX46Y46*%
G04 Gerber Fmt 4.6, Leading zero omitted, Abs format (unit mm)*
G04 Created by KiCad (PCBNEW 9.0.0-9.0.0-2~ubuntu24.04.1) date 2025-03-27 18:59:32*
%MOMM*%
%LPD*%
G01*
G04 APERTURE LIST*
%ADD10C,0.300000*%
%ADD11C,0.070000*%
%ADD12C,0.160000*%
%ADD13C,0.250000*%
%ADD14C,0.100000*%
%ADD15C,0.120000*%
%ADD16C,0.150000*%
G04 APERTURE END LIST*
D10*
X94500000Y-105250000D02*
X93650000Y-106100000D01*
X93650000Y-104400000D01*
X94500000Y-105250000D01*
G36*
X94500000Y-105250000D02*
G01*
X93650000Y-106100000D01*
X93650000Y-104400000D01*
X94500000Y-105250000D01*
G37*
D11*
G36*
X113810478Y-105131000D02*
G01*
X113537909Y-104417029D01*
X113638824Y-104417029D01*
X113864975Y-105018159D01*
X114091638Y-104417029D01*
X114192083Y-104417029D01*
X113919985Y-105131000D01*
X113810478Y-105131000D01*
G37*
G36*
X114197597Y-104417029D02*
G01*
X114801549Y-104417029D01*
X114801549Y-104499094D01*
X114548086Y-104499094D01*
X114548086Y-105131000D01*
X114451017Y-105131000D01*
X114451017Y-104499094D01*
X114197597Y-104499094D01*
X114197597Y-104417029D01*
G37*
G36*
X114860533Y-104417029D02*
G01*
X114964312Y-104417029D01*
X115141693Y-104682417D01*
X115320058Y-104417029D01*
X115423837Y-104417029D01*
X115194309Y-104759909D01*
X115439138Y-105131000D01*
X115335360Y-105131000D01*
X115134513Y-104827357D01*
X114932255Y-105131000D01*
X114828006Y-105131000D01*
X115082880Y-104749865D01*
X114860533Y-104417029D01*
G37*
G36*
X87043508Y-81587321D02*
G01*
X87070713Y-81595811D01*
X87094263Y-81609590D01*
X87114763Y-81628972D01*
X87135147Y-81660748D01*
X87148113Y-81700751D01*
X87152804Y-81751216D01*
X87148129Y-81801364D01*
X87135175Y-81841320D01*
X87114763Y-81873246D01*
X87094250Y-81892731D01*
X87070695Y-81906574D01*
X87043494Y-81915099D01*
X87011754Y-81918083D01*
X86979991Y-81915099D01*
X86952769Y-81906573D01*
X86929193Y-81892730D01*
X86908659Y-81873246D01*
X86888272Y-81841323D01*
X86875332Y-81801367D01*
X86870661Y-81751216D01*
X86875347Y-81700747D01*
X86888300Y-81660744D01*
X86908659Y-81628972D01*
X86929180Y-81609591D01*
X86952750Y-81595812D01*
X86979977Y-81587321D01*
X87011754Y-81584349D01*
X87043508Y-81587321D01*
G37*
G36*
X87327650Y-82072455D02*
G01*
X86679102Y-82072455D01*
X86679102Y-81624271D01*
X86756880Y-81624271D01*
X86760060Y-81699636D01*
X86767244Y-81751216D01*
X86768939Y-81763388D01*
X86782669Y-81817081D01*
X86800611Y-81862114D01*
X86822362Y-81899703D01*
X86851036Y-81934022D01*
X86883648Y-81960185D01*
X86920686Y-81978982D01*
X86963002Y-81990613D01*
X87011754Y-81994677D01*
X87064984Y-81990184D01*
X87110723Y-81977376D01*
X87150335Y-81956747D01*
X87184818Y-81928084D01*
X87212714Y-81892936D01*
X87232890Y-81852478D01*
X87245457Y-81805692D01*
X87249872Y-81751216D01*
X87245557Y-81695246D01*
X87233366Y-81647860D01*
X87213986Y-81607559D01*
X87187468Y-81573193D01*
X87154302Y-81545139D01*
X87115693Y-81524865D01*
X87070573Y-81512214D01*
X87017482Y-81507755D01*
X86983929Y-81510291D01*
X86952835Y-81517733D01*
X86923747Y-81530023D01*
X86897122Y-81546917D01*
X86873621Y-81568091D01*
X86853008Y-81593923D01*
X86860215Y-81527488D01*
X86872824Y-81474440D01*
X86889833Y-81432495D01*
X86910625Y-81399702D01*
X86938115Y-81372012D01*
X86970839Y-81352170D01*
X87009851Y-81339799D01*
X87056719Y-81335417D01*
X87093033Y-81337499D01*
X87130108Y-81343837D01*
X87166792Y-81354085D01*
X87203497Y-81368243D01*
X87203497Y-81280706D01*
X87163507Y-81268582D01*
X87126261Y-81260190D01*
X87089224Y-81255046D01*
X87052872Y-81253351D01*
X86999619Y-81257598D01*
X86952332Y-81269856D01*
X86909977Y-81289794D01*
X86871761Y-81317628D01*
X86837194Y-81354095D01*
X86809494Y-81394997D01*
X86787362Y-81441579D01*
X86770909Y-81494644D01*
X86760529Y-81555169D01*
X86756880Y-81624271D01*
X86679102Y-81624271D01*
X86679102Y-81175573D01*
X87327650Y-81175573D01*
X87327650Y-82072455D01*
G37*
G36*
X118494610Y-86946293D02*
G01*
X118530194Y-86958780D01*
X118558566Y-86978596D01*
X118580045Y-87005453D01*
X118593298Y-87038613D01*
X118598017Y-87079939D01*
X118593290Y-87120935D01*
X118579972Y-87154046D01*
X118558309Y-87181068D01*
X118529799Y-87201036D01*
X118494278Y-87213577D01*
X118449786Y-87218083D01*
X118405281Y-87213595D01*
X118369839Y-87201118D01*
X118341477Y-87181281D01*
X118319997Y-87154425D01*
X118306744Y-87121264D01*
X118302025Y-87079939D01*
X118306744Y-87038613D01*
X118319997Y-87005453D01*
X118341477Y-86978596D01*
X118369839Y-86958760D01*
X118405281Y-86946283D01*
X118449786Y-86941795D01*
X118494610Y-86946293D01*
G37*
G36*
X118490114Y-86633780D02*
G01*
X118521925Y-86644367D01*
X118547068Y-86661020D01*
X118566259Y-86683863D01*
X118578050Y-86712164D01*
X118582245Y-86747573D01*
X118578050Y-86782982D01*
X118566259Y-86811284D01*
X118547068Y-86834127D01*
X118521925Y-86850779D01*
X118490114Y-86861366D01*
X118449786Y-86865200D01*
X118409114Y-86861345D01*
X118377324Y-86850740D01*
X118352461Y-86834127D01*
X118333575Y-86811323D01*
X118321942Y-86783022D01*
X118317797Y-86747573D01*
X118321942Y-86712124D01*
X118333575Y-86683823D01*
X118352461Y-86661020D01*
X118377324Y-86644406D01*
X118409114Y-86633802D01*
X118449786Y-86629946D01*
X118490114Y-86633780D01*
G37*
G36*
X118772393Y-87372455D02*
G01*
X118127179Y-87372455D01*
X118127179Y-87079811D01*
X118204957Y-87079811D01*
X118204968Y-87079939D01*
X118209345Y-87131136D01*
X118221682Y-87173785D01*
X118241293Y-87209410D01*
X118268301Y-87239197D01*
X118301204Y-87262259D01*
X118341369Y-87279550D01*
X118390283Y-87290673D01*
X118449786Y-87294677D01*
X118509291Y-87290673D01*
X118558196Y-87279548D01*
X118598346Y-87262257D01*
X118631228Y-87239197D01*
X118658257Y-87209407D01*
X118677881Y-87173781D01*
X118690225Y-87131133D01*
X118694615Y-87079811D01*
X118690083Y-87035596D01*
X118677045Y-86997424D01*
X118655634Y-86964021D01*
X118626954Y-86936454D01*
X118591161Y-86915228D01*
X118546854Y-86900378D01*
X118585967Y-86886677D01*
X118617686Y-86867373D01*
X118643196Y-86842461D01*
X118662261Y-86812436D01*
X118673870Y-86778189D01*
X118677903Y-86738597D01*
X118673878Y-86696858D01*
X118662365Y-86661103D01*
X118643631Y-86630130D01*
X118617166Y-86603146D01*
X118585788Y-86582334D01*
X118548273Y-86566810D01*
X118503437Y-86556894D01*
X118449829Y-86553351D01*
X118396466Y-86556885D01*
X118351718Y-86566787D01*
X118314169Y-86582310D01*
X118282663Y-86603146D01*
X118256094Y-86630144D01*
X118237296Y-86661121D01*
X118225748Y-86696872D01*
X118221712Y-86738597D01*
X118222625Y-86747573D01*
X118225741Y-86778192D01*
X118237336Y-86812439D01*
X118256376Y-86842461D01*
X118281901Y-86867346D01*
X118313764Y-86886656D01*
X118353188Y-86900378D01*
X118308871Y-86915219D01*
X118272986Y-86936443D01*
X118244152Y-86964021D01*
X118222617Y-86997439D01*
X118209511Y-87035609D01*
X118204957Y-87079811D01*
X118127179Y-87079811D01*
X118127179Y-86475573D01*
X118772393Y-86475573D01*
X118772393Y-87372455D01*
G37*
G36*
X90357547Y-111572455D02*
G01*
X88438692Y-111572455D01*
X88438692Y-111366108D01*
X88516470Y-111366108D01*
X88516470Y-111459115D01*
X88567034Y-111474850D01*
X88614735Y-111485787D01*
X88662073Y-111492494D01*
X88707273Y-111494677D01*
X88775067Y-111490468D01*
X88830797Y-111478797D01*
X88876495Y-111460741D01*
X88913847Y-111436846D01*
X88945318Y-111405375D01*
X88967751Y-111368458D01*
X88981654Y-111325009D01*
X88986552Y-111273399D01*
X88981999Y-111228910D01*
X88968944Y-111190803D01*
X88947571Y-111157738D01*
X88918913Y-111130584D01*
X88883279Y-111110014D01*
X88839262Y-111096061D01*
X88879108Y-111082127D01*
X88910845Y-111063152D01*
X88935817Y-111039256D01*
X88954481Y-111010325D01*
X88965846Y-110977230D01*
X88969797Y-110938854D01*
X88965610Y-110897535D01*
X88953575Y-110861915D01*
X88933847Y-110830804D01*
X88905726Y-110803445D01*
X88872752Y-110782501D01*
X88833955Y-110767029D01*
X89072550Y-110767029D01*
X89345119Y-111481000D01*
X89454625Y-111481000D01*
X89498411Y-111366108D01*
X89809687Y-111366108D01*
X89809687Y-111459115D01*
X89860252Y-111474850D01*
X89907952Y-111485787D01*
X89955290Y-111492494D01*
X90000490Y-111494677D01*
X90068284Y-111490468D01*
X90124015Y-111478797D01*
X90169712Y-111460741D01*
X90207064Y-111436846D01*
X90238535Y-111405375D01*
X90260968Y-111368458D01*
X90274871Y-111325009D01*
X90279769Y-111273399D01*
X90275216Y-111228910D01*
X90262161Y-111190803D01*
X90240788Y-111157738D01*
X90212130Y-111130584D01*
X90176496Y-111110014D01*
X90132479Y-111096061D01*
X90172325Y-111082127D01*
X90204062Y-111063152D01*
X90229034Y-111039256D01*
X90247698Y-111010325D01*
X90259063Y-110977230D01*
X90263014Y-110938854D01*
X90258827Y-110897535D01*
X90246792Y-110861915D01*
X90227064Y-110830804D01*
X90198943Y-110803445D01*
X90165969Y-110782501D01*
X90126788Y-110766876D01*
X90080235Y-110756907D01*
X90024896Y-110753351D01*
X89981736Y-110755168D01*
X89934282Y-110760874D01*
X89885583Y-110770040D01*
X89831229Y-110783442D01*
X89831229Y-110868243D01*
X89884859Y-110853268D01*
X89931161Y-110843410D01*
X89975987Y-110837338D01*
X90016262Y-110835417D01*
X90063959Y-110839184D01*
X90100350Y-110849356D01*
X90127905Y-110864824D01*
X90149336Y-110886946D01*
X90162298Y-110914507D01*
X90166886Y-110949240D01*
X90162431Y-110983063D01*
X90149860Y-111009836D01*
X90129102Y-111031263D01*
X90102411Y-111046205D01*
X90066912Y-111056067D01*
X90020109Y-111059729D01*
X89933085Y-111059729D01*
X89933085Y-111139060D01*
X90016262Y-111139060D01*
X90067769Y-111143508D01*
X90108014Y-111155691D01*
X90139403Y-111174579D01*
X90158630Y-111193870D01*
X90172275Y-111216239D01*
X90180689Y-111242298D01*
X90183641Y-111272972D01*
X90180420Y-111306255D01*
X90171311Y-111333978D01*
X90156646Y-111357274D01*
X90136069Y-111376879D01*
X90102424Y-111395595D01*
X90057366Y-111407993D01*
X89997626Y-111412612D01*
X89946213Y-111409643D01*
X89897651Y-111400900D01*
X89851444Y-111386197D01*
X89809687Y-111366108D01*
X89498411Y-111366108D01*
X89726724Y-110767029D01*
X89626279Y-110767029D01*
X89399616Y-111368159D01*
X89173465Y-110767029D01*
X89072550Y-110767029D01*
X88833955Y-110767029D01*
X88833571Y-110766876D01*
X88787018Y-110756907D01*
X88731679Y-110753351D01*
X88688519Y-110755168D01*
X88641065Y-110760874D01*
X88592366Y-110770040D01*
X88538012Y-110783442D01*
X88538012Y-110868243D01*
X88591642Y-110853268D01*
X88637944Y-110843410D01*
X88682770Y-110837338D01*
X88723045Y-110835417D01*
X88770742Y-110839184D01*
X88807133Y-110849356D01*
X88834688Y-110864824D01*
X88856119Y-110886946D01*
X88869081Y-110914507D01*
X88873669Y-110949240D01*
X88869214Y-110983063D01*
X88856643Y-111009836D01*
X88835885Y-111031263D01*
X88809194Y-111046205D01*
X88773695Y-111056067D01*
X88726891Y-111059729D01*
X88639868Y-111059729D01*
X88639868Y-111139060D01*
X88723045Y-111139060D01*
X88774552Y-111143508D01*
X88814797Y-111155691D01*
X88846186Y-111174579D01*
X88865413Y-111193870D01*
X88879058Y-111216239D01*
X88887472Y-111242298D01*
X88890424Y-111272972D01*
X88887203Y-111306255D01*
X88878094Y-111333978D01*
X88863429Y-111357274D01*
X88842852Y-111376879D01*
X88809207Y-111395595D01*
X88764149Y-111407993D01*
X88704409Y-111412612D01*
X88652996Y-111409643D01*
X88604434Y-111400900D01*
X88558227Y-111386197D01*
X88516470Y-111366108D01*
X88438692Y-111366108D01*
X88438692Y-110675573D01*
X90357547Y-110675573D01*
X90357547Y-111572455D01*
G37*
G36*
X113975164Y-106917029D02*
G01*
X114426568Y-106917029D01*
X114426568Y-106999094D01*
X114071762Y-106999094D01*
X114071762Y-107209729D01*
X114411736Y-107209729D01*
X114411736Y-107291795D01*
X114071762Y-107291795D01*
X114071762Y-107548934D01*
X114435159Y-107548934D01*
X114435159Y-107631000D01*
X113975164Y-107631000D01*
X113975164Y-106917029D01*
G37*
G36*
X114895325Y-107246061D02*
G01*
X114939342Y-107260014D01*
X114974976Y-107280584D01*
X115003634Y-107307738D01*
X115025007Y-107340803D01*
X115038063Y-107378910D01*
X115042616Y-107423399D01*
X115037717Y-107475009D01*
X115023815Y-107518458D01*
X115001381Y-107555375D01*
X114969911Y-107586846D01*
X114932559Y-107610741D01*
X114886861Y-107628797D01*
X114831131Y-107640468D01*
X114763336Y-107644677D01*
X114718137Y-107642494D01*
X114670799Y-107635787D01*
X114623098Y-107624850D01*
X114572534Y-107609115D01*
X114572534Y-107516108D01*
X114614291Y-107536197D01*
X114660498Y-107550900D01*
X114709059Y-107559643D01*
X114760472Y-107562612D01*
X114820212Y-107557993D01*
X114865270Y-107545595D01*
X114898915Y-107526879D01*
X114919492Y-107507274D01*
X114934158Y-107483978D01*
X114943266Y-107456255D01*
X114946488Y-107422972D01*
X114943536Y-107392298D01*
X114935121Y-107366239D01*
X114921476Y-107343870D01*
X114902249Y-107324579D01*
X114870860Y-107305691D01*
X114830615Y-107293508D01*
X114779108Y-107289060D01*
X114695931Y-107289060D01*
X114695931Y-107209729D01*
X114782955Y-107209729D01*
X114829758Y-107206067D01*
X114865258Y-107196205D01*
X114891948Y-107181263D01*
X114912707Y-107159836D01*
X114925277Y-107133063D01*
X114929733Y-107099240D01*
X114925144Y-107064507D01*
X114912183Y-107036946D01*
X114890751Y-107014824D01*
X114863196Y-106999356D01*
X114826805Y-106989184D01*
X114779108Y-106985417D01*
X114738833Y-106987338D01*
X114694008Y-106993410D01*
X114647705Y-107003268D01*
X114594076Y-107018243D01*
X114594076Y-106933442D01*
X114648430Y-106920040D01*
X114697128Y-106910874D01*
X114744582Y-106905168D01*
X114787742Y-106903351D01*
X114843082Y-106906907D01*
X114889635Y-106916876D01*
X114928816Y-106932501D01*
X114961789Y-106953445D01*
X114989910Y-106980804D01*
X115009639Y-107011915D01*
X115021673Y-107047535D01*
X115025860Y-107088854D01*
X115021909Y-107127230D01*
X115010544Y-107160325D01*
X114991880Y-107189256D01*
X114966908Y-107213152D01*
X114935172Y-107232127D01*
X114895325Y-107246061D01*
G37*
G36*
X111966569Y-99476900D02*
G01*
X111764773Y-99476900D01*
X111764773Y-99643723D01*
X111680910Y-99643723D01*
X111680910Y-99375822D01*
X112003801Y-99375822D01*
X112029403Y-99416463D01*
X112050515Y-99459853D01*
X112067196Y-99506271D01*
X112083183Y-99579161D01*
X112088659Y-99658408D01*
X112084042Y-99729700D01*
X112070896Y-99791769D01*
X112049945Y-99845992D01*
X112021448Y-99893509D01*
X111985185Y-99935166D01*
X111942444Y-99969826D01*
X111893334Y-99997295D01*
X111836917Y-100017633D01*
X111771979Y-100030461D01*
X111697086Y-100034979D01*
X111621944Y-100030455D01*
X111556840Y-100017617D01*
X111500326Y-99997272D01*
X111451177Y-99969806D01*
X111408445Y-99935166D01*
X111372184Y-99893509D01*
X111343687Y-99845990D01*
X111322735Y-99791758D01*
X111309588Y-99729676D01*
X111304971Y-99658363D01*
X111309633Y-99585830D01*
X111323316Y-99518109D01*
X111346072Y-99453962D01*
X111377267Y-99395522D01*
X111487157Y-99395522D01*
X111456820Y-99434676D01*
X111432416Y-99474723D01*
X111413551Y-99515850D01*
X111399856Y-99558879D01*
X111391613Y-99603406D01*
X111388835Y-99649778D01*
X111392412Y-99706141D01*
X111402475Y-99753899D01*
X111418293Y-99794399D01*
X111439533Y-99828758D01*
X111466281Y-99857809D01*
X111506511Y-99886431D01*
X111556836Y-99908102D01*
X111619457Y-99922188D01*
X111697086Y-99927304D01*
X111774412Y-99922195D01*
X111836860Y-99908120D01*
X111887114Y-99886451D01*
X111927348Y-99857809D01*
X111954100Y-99828740D01*
X111975341Y-99794370D01*
X111991158Y-99753868D01*
X112001219Y-99706119D01*
X112004795Y-99649778D01*
X112002333Y-99597221D01*
X111995487Y-99553263D01*
X111983417Y-99512444D01*
X111966569Y-99476900D01*
G37*
G36*
X111912872Y-98329420D02*
G01*
X111954293Y-98342590D01*
X111989420Y-98363815D01*
X112019300Y-98393547D01*
X112041982Y-98428886D01*
X112059123Y-98472143D01*
X112070203Y-98524921D01*
X112074200Y-98589152D01*
X112074200Y-98860081D01*
X111319430Y-98860081D01*
X111319430Y-98606820D01*
X111403294Y-98606820D01*
X111403294Y-98757963D01*
X111631749Y-98757963D01*
X111631749Y-98606820D01*
X111630800Y-98594213D01*
X111715612Y-98594213D01*
X111715612Y-98757963D01*
X111990336Y-98757963D01*
X111990336Y-98594213D01*
X111985897Y-98540152D01*
X111974109Y-98500619D01*
X111956448Y-98472123D01*
X111931185Y-98450872D01*
X111897506Y-98437391D01*
X111852703Y-98432451D01*
X111807574Y-98437417D01*
X111773952Y-98450916D01*
X111749004Y-98472123D01*
X111731620Y-98500576D01*
X111719994Y-98540107D01*
X111715612Y-98594213D01*
X111630800Y-98594213D01*
X111628036Y-98557505D01*
X111618204Y-98521383D01*
X111603598Y-98495348D01*
X111582310Y-98475514D01*
X111554339Y-98463175D01*
X111517521Y-98458703D01*
X111481032Y-98463157D01*
X111453126Y-98475480D01*
X111431715Y-98495348D01*
X111416960Y-98521406D01*
X111407038Y-98557529D01*
X111403294Y-98606820D01*
X111319430Y-98606820D01*
X111319430Y-98599274D01*
X111322994Y-98540013D01*
X111332858Y-98491405D01*
X111348078Y-98451666D01*
X111368140Y-98419302D01*
X111394770Y-98391883D01*
X111426040Y-98372394D01*
X111462871Y-98360336D01*
X111506677Y-98356088D01*
X111552004Y-98360077D01*
X111588268Y-98371118D01*
X111617335Y-98388441D01*
X111640699Y-98412584D01*
X111657829Y-98443720D01*
X111668574Y-98483510D01*
X111683788Y-98435731D01*
X111706225Y-98397248D01*
X111735855Y-98366481D01*
X111771952Y-98343700D01*
X111814019Y-98329688D01*
X111863593Y-98324775D01*
X111912872Y-98329420D01*
G37*
G36*
X111987444Y-97793672D02*
G01*
X111987444Y-97626849D01*
X111411969Y-97626849D01*
X111449563Y-97808357D01*
X111357024Y-97808357D01*
X111319430Y-97627888D01*
X111319430Y-97525770D01*
X111987444Y-97525770D01*
X111987444Y-97358947D01*
X112074200Y-97358947D01*
X112074200Y-97793672D01*
X111987444Y-97793672D01*
G37*
G36*
X111987444Y-96735847D02*
G01*
X111987444Y-96379474D01*
X112074200Y-96379474D01*
X112074200Y-96858705D01*
X111987444Y-96858705D01*
X111826134Y-96700242D01*
X111695640Y-96574130D01*
X111641558Y-96530077D01*
X111602514Y-96505630D01*
X111564001Y-96490843D01*
X111527552Y-96486155D01*
X111489372Y-96491003D01*
X111457200Y-96504977D01*
X111429591Y-96528358D01*
X111408986Y-96558472D01*
X111396238Y-96594577D01*
X111391726Y-96638293D01*
X111395695Y-96686700D01*
X111408219Y-96739688D01*
X111428263Y-96793218D01*
X111458239Y-96853644D01*
X111354133Y-96853644D01*
X111332317Y-96792571D01*
X111317397Y-96738423D01*
X111307908Y-96685750D01*
X111304971Y-96640326D01*
X111309063Y-96581701D01*
X111320605Y-96531908D01*
X111338865Y-96489497D01*
X111363621Y-96453306D01*
X111395333Y-96422841D01*
X111431369Y-96401319D01*
X111472597Y-96388134D01*
X111520323Y-96383540D01*
X111565777Y-96387930D01*
X111608569Y-96400982D01*
X111650911Y-96423587D01*
X111706891Y-96464421D01*
X111791568Y-96544805D01*
X111987444Y-96735847D01*
G37*
G36*
X111667264Y-95526879D02*
G01*
X111682015Y-95480347D01*
X111703760Y-95442677D01*
X111732466Y-95412381D01*
X111767420Y-95389787D01*
X111807705Y-95375985D01*
X111854736Y-95371172D01*
X111909295Y-95376350D01*
X111955227Y-95391047D01*
X111994254Y-95414763D01*
X112027523Y-95448032D01*
X112052783Y-95487518D01*
X112071872Y-95535827D01*
X112084209Y-95594742D01*
X112088659Y-95666410D01*
X112086351Y-95714193D01*
X112079260Y-95764236D01*
X112067699Y-95814662D01*
X112051065Y-95868116D01*
X111952742Y-95868116D01*
X111973980Y-95823973D01*
X111989523Y-95775125D01*
X111998765Y-95723789D01*
X112001904Y-95669438D01*
X111997022Y-95606284D01*
X111983915Y-95558651D01*
X111964129Y-95523084D01*
X111943404Y-95501331D01*
X111918777Y-95485827D01*
X111889469Y-95476198D01*
X111854284Y-95472793D01*
X111821857Y-95475914D01*
X111794310Y-95484809D01*
X111770662Y-95499234D01*
X111750269Y-95519559D01*
X111730302Y-95552742D01*
X111717423Y-95595287D01*
X111712720Y-95649737D01*
X111712720Y-95737667D01*
X111628857Y-95737667D01*
X111628857Y-95645671D01*
X111624985Y-95596193D01*
X111614560Y-95558665D01*
X111598764Y-95530449D01*
X111576112Y-95508504D01*
X111547810Y-95495216D01*
X111512054Y-95490505D01*
X111475336Y-95495356D01*
X111446200Y-95509058D01*
X111422814Y-95531714D01*
X111406462Y-95560844D01*
X111395708Y-95599314D01*
X111391726Y-95649737D01*
X111393757Y-95692314D01*
X111400176Y-95739700D01*
X111410598Y-95788649D01*
X111426428Y-95845343D01*
X111336781Y-95845343D01*
X111322614Y-95787883D01*
X111312924Y-95736402D01*
X111306892Y-95686236D01*
X111304971Y-95640610D01*
X111308730Y-95582108D01*
X111319268Y-95532895D01*
X111335787Y-95491475D01*
X111357928Y-95456617D01*
X111386849Y-95426889D01*
X111419739Y-95406033D01*
X111457394Y-95393311D01*
X111501074Y-95388885D01*
X111541643Y-95393062D01*
X111576629Y-95405076D01*
X111607213Y-95424807D01*
X111632475Y-95451206D01*
X111652534Y-95484756D01*
X111667264Y-95526879D01*
G37*
G36*
X111894906Y-94466525D02*
G01*
X112074200Y-94466525D01*
X112074200Y-94568146D01*
X111894906Y-94568146D01*
X111894906Y-94908840D01*
X111796538Y-94908840D01*
X111319430Y-94594940D01*
X111319430Y-94568146D01*
X111408354Y-94568146D01*
X111811042Y-94825926D01*
X111811042Y-94568146D01*
X111408354Y-94568146D01*
X111319430Y-94568146D01*
X111319430Y-94466525D01*
X111811042Y-94466525D01*
X111811042Y-94358849D01*
X111894906Y-94358849D01*
X111894906Y-94466525D01*
G37*
G36*
X111507400Y-93403640D02*
G01*
X111783209Y-93608373D01*
X112074200Y-93393021D01*
X112074200Y-93502730D01*
X111851528Y-93667520D01*
X112074200Y-93832309D01*
X112074200Y-93942018D01*
X111777651Y-93722103D01*
X111507400Y-93923311D01*
X111507400Y-93813602D01*
X111709331Y-93663498D01*
X111507400Y-93513349D01*
X111507400Y-93403640D01*
G37*
G36*
X111377267Y-92363076D02*
G01*
X111484265Y-92363076D01*
X111454454Y-92398903D01*
X111430707Y-92435486D01*
X111412557Y-92473011D01*
X111399435Y-92512524D01*
X111391513Y-92553762D01*
X111388835Y-92597089D01*
X111392387Y-92649183D01*
X111402465Y-92694018D01*
X111418482Y-92732737D01*
X111440262Y-92766267D01*
X111468044Y-92795270D01*
X111509097Y-92823734D01*
X111559574Y-92845164D01*
X111621433Y-92859001D01*
X111697086Y-92863996D01*
X111772438Y-92859008D01*
X111834123Y-92845182D01*
X111884528Y-92823754D01*
X111925586Y-92795270D01*
X111953368Y-92766267D01*
X111975148Y-92732737D01*
X111991165Y-92694018D01*
X112001243Y-92649183D01*
X112004795Y-92597089D01*
X112002117Y-92553762D01*
X111994195Y-92512524D01*
X111981073Y-92473011D01*
X111962923Y-92435486D01*
X111939176Y-92398903D01*
X111909365Y-92363076D01*
X112016363Y-92363076D01*
X112048098Y-92418468D01*
X112070585Y-92476581D01*
X112084069Y-92537669D01*
X112088659Y-92603189D01*
X112084034Y-92671917D01*
X112070819Y-92732100D01*
X112049661Y-92785037D01*
X112020727Y-92831788D01*
X111983694Y-92873123D01*
X111940365Y-92907454D01*
X111891026Y-92934604D01*
X111834812Y-92954647D01*
X111770605Y-92967247D01*
X111697086Y-92971672D01*
X111623318Y-92967241D01*
X111558949Y-92954630D01*
X111502647Y-92934580D01*
X111453283Y-92907433D01*
X111409981Y-92873123D01*
X111372930Y-92831786D01*
X111343984Y-92785033D01*
X111322818Y-92732096D01*
X111309598Y-92671914D01*
X111304971Y-92603189D01*
X111309577Y-92536796D01*
X111323045Y-92475541D01*
X111345576Y-92417596D01*
X111377267Y-92363076D01*
G37*
G36*
X84959051Y-98867029D02*
G01*
X85338262Y-98867029D01*
X85338262Y-98949094D01*
X85047528Y-98949094D01*
X85047528Y-99122244D01*
X85089587Y-99111388D01*
X85131688Y-99107755D01*
X85191128Y-99112295D01*
X85241512Y-99125125D01*
X85284412Y-99145519D01*
X85321037Y-99173407D01*
X85351069Y-99208370D01*
X85372694Y-99248866D01*
X85386147Y-99295981D01*
X85390878Y-99351216D01*
X85385962Y-99408162D01*
X85372071Y-99455991D01*
X85349871Y-99496423D01*
X85319157Y-99530692D01*
X85281817Y-99557449D01*
X85236758Y-99577374D01*
X85182430Y-99590113D01*
X85116899Y-99594677D01*
X85071791Y-99592819D01*
X85025302Y-99587154D01*
X84978483Y-99577887D01*
X84928960Y-99564586D01*
X84928960Y-99468843D01*
X84972853Y-99488181D01*
X85017907Y-99501798D01*
X85064644Y-99509854D01*
X85114976Y-99512612D01*
X85156223Y-99509588D01*
X85191127Y-99501063D01*
X85220764Y-99487559D01*
X85245981Y-99469185D01*
X85266831Y-99445907D01*
X85281769Y-99419013D01*
X85291029Y-99387786D01*
X85294280Y-99351216D01*
X85291028Y-99314645D01*
X85281768Y-99283427D01*
X85266830Y-99256547D01*
X85245981Y-99233289D01*
X85220762Y-99214898D01*
X85191118Y-99201380D01*
X85156201Y-99192846D01*
X85114933Y-99189820D01*
X85076350Y-99191979D01*
X85037697Y-99198497D01*
X84999357Y-99209346D01*
X84959051Y-99225382D01*
X84959051Y-98867029D01*
G37*
G36*
X85756626Y-99581000D02*
G01*
X85484057Y-98867029D01*
X85584972Y-98867029D01*
X85811123Y-99468159D01*
X86037786Y-98867029D01*
X86138231Y-98867029D01*
X85866132Y-99581000D01*
X85756626Y-99581000D01*
G37*
G36*
X101384062Y-105222455D02*
G01*
X100725940Y-105222455D01*
X100725940Y-104606806D01*
X100803718Y-104606806D01*
X100807047Y-104647208D01*
X100816445Y-104681193D01*
X100831417Y-104709936D01*
X100852017Y-104734306D01*
X100876942Y-104753801D01*
X100910092Y-104771763D01*
X100953229Y-104787884D01*
X101008411Y-104801626D01*
X101067225Y-104813166D01*
X101115612Y-104826017D01*
X101149833Y-104841073D01*
X101173141Y-104857661D01*
X101190701Y-104879359D01*
X101201545Y-104906282D01*
X101205412Y-104939983D01*
X101202426Y-104969202D01*
X101193922Y-104993835D01*
X101180086Y-105014843D01*
X101160447Y-105032820D01*
X101128813Y-105049919D01*
X101087170Y-105061179D01*
X101032775Y-105065347D01*
X100978304Y-105061288D01*
X100921815Y-105048806D01*
X100865772Y-105028672D01*
X100806581Y-104999695D01*
X100806581Y-105098173D01*
X100867635Y-105118611D01*
X100924935Y-105132923D01*
X100981434Y-105141843D01*
X101032775Y-105144677D01*
X101101228Y-105140682D01*
X101156587Y-105129698D01*
X101201111Y-105112897D01*
X101236699Y-105090950D01*
X101266615Y-105061582D01*
X101288093Y-105026360D01*
X101301516Y-104984094D01*
X101306284Y-104933016D01*
X101302782Y-104889818D01*
X101292830Y-104852876D01*
X101276883Y-104821078D01*
X101254865Y-104793590D01*
X101228039Y-104771152D01*
X101193554Y-104751325D01*
X101149939Y-104734374D01*
X101095435Y-104720842D01*
X101037092Y-104708832D01*
X100984141Y-104696331D01*
X100949917Y-104683236D01*
X100929252Y-104670193D01*
X100913868Y-104652389D01*
X100904262Y-104629317D01*
X100900786Y-104599326D01*
X100905734Y-104564233D01*
X100919854Y-104536033D01*
X100943571Y-104513028D01*
X100973678Y-104497096D01*
X101013381Y-104486579D01*
X101065302Y-104482681D01*
X101110982Y-104485661D01*
X101159506Y-104494906D01*
X101208593Y-104509808D01*
X101263285Y-104531921D01*
X101263285Y-104438913D01*
X101208841Y-104423221D01*
X101156642Y-104412242D01*
X101104661Y-104405545D01*
X101054317Y-104403351D01*
X100995381Y-104407229D01*
X100946104Y-104418078D01*
X100904891Y-104435056D01*
X100870439Y-104457805D01*
X100841397Y-104487330D01*
X100820815Y-104521336D01*
X100808151Y-104560712D01*
X100803718Y-104606806D01*
X100725940Y-104606806D01*
X100725940Y-104325573D01*
X101384062Y-104325573D01*
X101384062Y-105222455D01*
G37*
G36*
X114703369Y-102529187D02*
G01*
X114703369Y-102338299D01*
X114545563Y-102338299D01*
X114545563Y-102258969D01*
X114798984Y-102258969D01*
X114798984Y-102564407D01*
X114760539Y-102588625D01*
X114719495Y-102608595D01*
X114675586Y-102624374D01*
X114606635Y-102639498D01*
X114531672Y-102644677D01*
X114464234Y-102640310D01*
X114405520Y-102627875D01*
X114354228Y-102608056D01*
X114309280Y-102581099D01*
X114269874Y-102546797D01*
X114237088Y-102506366D01*
X114211104Y-102459911D01*
X114191865Y-102406543D01*
X114179731Y-102345116D01*
X114175456Y-102274271D01*
X114179736Y-102203190D01*
X114191880Y-102141606D01*
X114211126Y-102088146D01*
X114237107Y-102041654D01*
X114269874Y-102001232D01*
X114309279Y-101966931D01*
X114354230Y-101939974D01*
X114405530Y-101920155D01*
X114464257Y-101907718D01*
X114531715Y-101903351D01*
X114600328Y-101907761D01*
X114664388Y-101920705D01*
X114725068Y-101942230D01*
X114780348Y-101971739D01*
X114780348Y-102075689D01*
X114743311Y-102046992D01*
X114705429Y-102023907D01*
X114666525Y-102006061D01*
X114625821Y-101993107D01*
X114583701Y-101985309D01*
X114539836Y-101982681D01*
X114486519Y-101986066D01*
X114441343Y-101995585D01*
X114403032Y-102010547D01*
X114370530Y-102030639D01*
X114343049Y-102055942D01*
X114315975Y-102093997D01*
X114295475Y-102141602D01*
X114282151Y-102200838D01*
X114277311Y-102274271D01*
X114282144Y-102347417D01*
X114295458Y-102406489D01*
X114315956Y-102454027D01*
X114343049Y-102492086D01*
X114370547Y-102517392D01*
X114403060Y-102537485D01*
X114441373Y-102552446D01*
X114486541Y-102561964D01*
X114539836Y-102565347D01*
X114589552Y-102563017D01*
X114631134Y-102556542D01*
X114669746Y-102545124D01*
X114703369Y-102529187D01*
G37*
G36*
X106867029Y-86040948D02*
G01*
X106867029Y-85661737D01*
X106949094Y-85661737D01*
X106949094Y-85952471D01*
X107122244Y-85952471D01*
X107111388Y-85910412D01*
X107107755Y-85868311D01*
X107112295Y-85808871D01*
X107125125Y-85758487D01*
X107145519Y-85715587D01*
X107173407Y-85678962D01*
X107208370Y-85648930D01*
X107248866Y-85627305D01*
X107295981Y-85613852D01*
X107351216Y-85609121D01*
X107408162Y-85614037D01*
X107455991Y-85627928D01*
X107496423Y-85650128D01*
X107530692Y-85680842D01*
X107557449Y-85718182D01*
X107577374Y-85763241D01*
X107590113Y-85817569D01*
X107594677Y-85883100D01*
X107592819Y-85928208D01*
X107587154Y-85974697D01*
X107577887Y-86021516D01*
X107564586Y-86071039D01*
X107468843Y-86071039D01*
X107488181Y-86027146D01*
X107501798Y-85982092D01*
X107509854Y-85935355D01*
X107512612Y-85885023D01*
X107509588Y-85843776D01*
X107501063Y-85808872D01*
X107487559Y-85779235D01*
X107469185Y-85754018D01*
X107445907Y-85733168D01*
X107419013Y-85718230D01*
X107387786Y-85708970D01*
X107351216Y-85705719D01*
X107314645Y-85708971D01*
X107283427Y-85718231D01*
X107256547Y-85733169D01*
X107233289Y-85754018D01*
X107214898Y-85779237D01*
X107201380Y-85808881D01*
X107192846Y-85843798D01*
X107189820Y-85885066D01*
X107191979Y-85923649D01*
X107198497Y-85962302D01*
X107209346Y-86000642D01*
X107225382Y-86040948D01*
X106867029Y-86040948D01*
G37*
G36*
X107581000Y-85243373D02*
G01*
X106867029Y-85515942D01*
X106867029Y-85415027D01*
X107468159Y-85188876D01*
X106867029Y-84962213D01*
X106867029Y-84861768D01*
X107581000Y-85133867D01*
X107581000Y-85243373D01*
G37*
G36*
X103960740Y-111317029D02*
G01*
X104339951Y-111317029D01*
X104339951Y-111399094D01*
X104049217Y-111399094D01*
X104049217Y-111572244D01*
X104091276Y-111561388D01*
X104133377Y-111557755D01*
X104192817Y-111562295D01*
X104243201Y-111575125D01*
X104286101Y-111595519D01*
X104322726Y-111623407D01*
X104352758Y-111658370D01*
X104374383Y-111698866D01*
X104387836Y-111745981D01*
X104392567Y-111801216D01*
X104387651Y-111858162D01*
X104373760Y-111905991D01*
X104351560Y-111946423D01*
X104320846Y-111980692D01*
X104283506Y-112007449D01*
X104238447Y-112027374D01*
X104184119Y-112040113D01*
X104118588Y-112044677D01*
X104073480Y-112042819D01*
X104026991Y-112037154D01*
X103980172Y-112027887D01*
X103930649Y-112014586D01*
X103930649Y-111918843D01*
X103974542Y-111938181D01*
X104019596Y-111951798D01*
X104066333Y-111959854D01*
X104116665Y-111962612D01*
X104157912Y-111959588D01*
X104192816Y-111951063D01*
X104222453Y-111937559D01*
X104247670Y-111919185D01*
X104268520Y-111895907D01*
X104283458Y-111869013D01*
X104292718Y-111837786D01*
X104295969Y-111801216D01*
X104292717Y-111764645D01*
X104283457Y-111733427D01*
X104268519Y-111706547D01*
X104247670Y-111683289D01*
X104222451Y-111664898D01*
X104192807Y-111651380D01*
X104157890Y-111642846D01*
X104116622Y-111639820D01*
X104078039Y-111641979D01*
X104039386Y-111648497D01*
X104001046Y-111659346D01*
X103960740Y-111675382D01*
X103960740Y-111317029D01*
G37*
G36*
X105372183Y-111929187D02*
G01*
X105372183Y-111738299D01*
X105214377Y-111738299D01*
X105214377Y-111658969D01*
X105467798Y-111658969D01*
X105467798Y-111964407D01*
X105429354Y-111988625D01*
X105388309Y-112008595D01*
X105344400Y-112024374D01*
X105275450Y-112039498D01*
X105200486Y-112044677D01*
X105133048Y-112040310D01*
X105074334Y-112027875D01*
X105023042Y-112008056D01*
X104978094Y-111981099D01*
X104938688Y-111946797D01*
X104905902Y-111906366D01*
X104879918Y-111859911D01*
X104860679Y-111806543D01*
X104848545Y-111745116D01*
X104844270Y-111674271D01*
X104848550Y-111603190D01*
X104860694Y-111541606D01*
X104879940Y-111488146D01*
X104905921Y-111441654D01*
X104938688Y-111401232D01*
X104978093Y-111366931D01*
X105023044Y-111339974D01*
X105074344Y-111320155D01*
X105133071Y-111307718D01*
X105200529Y-111303351D01*
X105269142Y-111307761D01*
X105333202Y-111320705D01*
X105393882Y-111342230D01*
X105449162Y-111371739D01*
X105449162Y-111475689D01*
X105412125Y-111446992D01*
X105374243Y-111423907D01*
X105335339Y-111406061D01*
X105294635Y-111393107D01*
X105252515Y-111385309D01*
X105208650Y-111382681D01*
X105155333Y-111386066D01*
X105110157Y-111395585D01*
X105071846Y-111410547D01*
X105039344Y-111430639D01*
X105011863Y-111455942D01*
X104984789Y-111493997D01*
X104964289Y-111541602D01*
X104950965Y-111600838D01*
X104946126Y-111674271D01*
X104950958Y-111747417D01*
X104964272Y-111806489D01*
X104984770Y-111854027D01*
X105011863Y-111892086D01*
X105039361Y-111917392D01*
X105071874Y-111937485D01*
X105110187Y-111952446D01*
X105155355Y-111961964D01*
X105208650Y-111965347D01*
X105258366Y-111963017D01*
X105299948Y-111956542D01*
X105338560Y-111945124D01*
X105372183Y-111929187D01*
G37*
G36*
X105907362Y-111721886D02*
G01*
X106165099Y-111721886D01*
X106165099Y-111801216D01*
X105907362Y-111801216D01*
X105907362Y-111721886D01*
G37*
G36*
X106974727Y-111418243D02*
G01*
X106974727Y-111683588D01*
X107241056Y-111683588D01*
X107241056Y-111765654D01*
X106974727Y-111765654D01*
X106974727Y-112031000D01*
X106894371Y-112031000D01*
X106894371Y-111765654D01*
X106628043Y-111765654D01*
X106628043Y-111683588D01*
X106894371Y-111683588D01*
X106894371Y-111418243D01*
X106974727Y-111418243D01*
G37*
G36*
X114011539Y-109471739D02*
G01*
X114011539Y-109572953D01*
X113977648Y-109544754D01*
X113943043Y-109522291D01*
X113907546Y-109505121D01*
X113870169Y-109492709D01*
X113831160Y-109485215D01*
X113790175Y-109482681D01*
X113740897Y-109486042D01*
X113698485Y-109495575D01*
X113661860Y-109510726D01*
X113630142Y-109531329D01*
X113602707Y-109557609D01*
X113575781Y-109596443D01*
X113555510Y-109644191D01*
X113542420Y-109702707D01*
X113537695Y-109774271D01*
X113542414Y-109845549D01*
X113555493Y-109903900D01*
X113575762Y-109951580D01*
X113602707Y-109990419D01*
X113630142Y-110016699D01*
X113661860Y-110037302D01*
X113698485Y-110052454D01*
X113740897Y-110061986D01*
X113790175Y-110065347D01*
X113831160Y-110062813D01*
X113870169Y-110055320D01*
X113907546Y-110042907D01*
X113943043Y-110025738D01*
X113977648Y-110003275D01*
X114011539Y-109975075D01*
X114011539Y-110076289D01*
X113959141Y-110106309D01*
X113904170Y-110127580D01*
X113846383Y-110140335D01*
X113784405Y-110144677D01*
X113719392Y-110140302D01*
X113662462Y-110127801D01*
X113612386Y-110107788D01*
X113568162Y-110080417D01*
X113529061Y-110045386D01*
X113496586Y-110004399D01*
X113470904Y-109957728D01*
X113451944Y-109904552D01*
X113440025Y-109843815D01*
X113435840Y-109774271D01*
X113440031Y-109704490D01*
X113451960Y-109643600D01*
X113470927Y-109590341D01*
X113496606Y-109543646D01*
X113529061Y-109502685D01*
X113568165Y-109467637D01*
X113612390Y-109440255D01*
X113662466Y-109420233D01*
X113719395Y-109407728D01*
X113784405Y-109403351D01*
X113847209Y-109407708D01*
X113905153Y-109420448D01*
X113959966Y-109441761D01*
X114011539Y-109471739D01*
G37*
G36*
X114403190Y-109585527D02*
G01*
X114450211Y-109597593D01*
X114488088Y-109616322D01*
X114518465Y-109641427D01*
X114542127Y-109672935D01*
X114560011Y-109712597D01*
X114571639Y-109762231D01*
X114575868Y-109824108D01*
X114575868Y-110131000D01*
X114487904Y-110131000D01*
X114487904Y-110048934D01*
X114465606Y-110079433D01*
X114440638Y-110103317D01*
X114412805Y-110121340D01*
X114382008Y-110133882D01*
X114345702Y-110141846D01*
X114302829Y-110144677D01*
X114262023Y-110141498D01*
X114227286Y-110132494D01*
X114197560Y-110118136D01*
X114172037Y-110098430D01*
X114151143Y-110073814D01*
X114136121Y-110045480D01*
X114126797Y-110012702D01*
X114123524Y-109974476D01*
X114124092Y-109968407D01*
X114211531Y-109968407D01*
X114215157Y-109998434D01*
X114225445Y-110022925D01*
X114242348Y-110043164D01*
X114264433Y-110058060D01*
X114291921Y-110067444D01*
X114326295Y-110070818D01*
X114361878Y-110067391D01*
X114392717Y-110057541D01*
X114419768Y-110041441D01*
X114443665Y-110018629D01*
X114462395Y-109991521D01*
X114476162Y-109959949D01*
X114484837Y-109923085D01*
X114487904Y-109879887D01*
X114487904Y-109860183D01*
X114400410Y-109860183D01*
X114328588Y-109863753D01*
X114281654Y-109872654D01*
X114252649Y-109884717D01*
X114235056Y-109898725D01*
X114222418Y-109916696D01*
X114214422Y-109939469D01*
X114211531Y-109968407D01*
X114124092Y-109968407D01*
X114127680Y-109930031D01*
X114139364Y-109893407D01*
X114158028Y-109863025D01*
X114184005Y-109837829D01*
X114214875Y-109819145D01*
X114253994Y-109804738D01*
X114303172Y-109795260D01*
X114364549Y-109791795D01*
X114487904Y-109791795D01*
X114487904Y-109783076D01*
X114483149Y-109744182D01*
X114469790Y-109713280D01*
X114447982Y-109688486D01*
X114419530Y-109670679D01*
X114382901Y-109659210D01*
X114335826Y-109655019D01*
X114290397Y-109657770D01*
X114246409Y-109665961D01*
X114203828Y-109679600D01*
X114162719Y-109698787D01*
X114162719Y-109616722D01*
X114210931Y-109600985D01*
X114256453Y-109590050D01*
X114301680Y-109583343D01*
X114344888Y-109581160D01*
X114403190Y-109585527D01*
G37*
G36*
X115174434Y-109696565D02*
G01*
X115198895Y-109659263D01*
X115225174Y-109630596D01*
X115253337Y-109609327D01*
X115285025Y-109593944D01*
X115320756Y-109584459D01*
X115361390Y-109581160D01*
X115402222Y-109585101D01*
X115436545Y-109596287D01*
X115465675Y-109614357D01*
X115490472Y-109639760D01*
X115509201Y-109669802D01*
X115523395Y-109706645D01*
X115532588Y-109751662D01*
X115535907Y-109806498D01*
X115535907Y-110131000D01*
X115447473Y-110131000D01*
X115447473Y-109809405D01*
X115443843Y-109758489D01*
X115434282Y-109721474D01*
X115420203Y-109695069D01*
X115399489Y-109674767D01*
X115372450Y-109662263D01*
X115337026Y-109657755D01*
X115303527Y-109660805D01*
X115274925Y-109669499D01*
X115250278Y-109683554D01*
X115228931Y-109703233D01*
X115207617Y-109735674D01*
X115194128Y-109776240D01*
X115189266Y-109827143D01*
X115189266Y-110131000D01*
X115100789Y-110131000D01*
X115100789Y-109809405D01*
X115097146Y-109758159D01*
X115087573Y-109721108D01*
X115073519Y-109694855D01*
X115052795Y-109674734D01*
X115025464Y-109662269D01*
X114989359Y-109657755D01*
X114956402Y-109660800D01*
X114928124Y-109669502D01*
X114903613Y-109683617D01*
X114882246Y-109703446D01*
X114860903Y-109736037D01*
X114847428Y-109776556D01*
X114842581Y-109827143D01*
X114842581Y-110131000D01*
X114754104Y-110131000D01*
X114754104Y-109594838D01*
X114842581Y-109594838D01*
X114842581Y-109676903D01*
X114864737Y-109646173D01*
X114888762Y-109622329D01*
X114914773Y-109604497D01*
X114943697Y-109591828D01*
X114976740Y-109583928D01*
X115014705Y-109581160D01*
X115052641Y-109584634D01*
X115085374Y-109594581D01*
X115113911Y-109610738D01*
X115138259Y-109632772D01*
X115158425Y-109661016D01*
X115174434Y-109696565D01*
G37*
G36*
X118748970Y-113358778D02*
G01*
X118168297Y-113358778D01*
X118168297Y-112602591D01*
X118246075Y-112602591D01*
X118246075Y-112690127D01*
X118417772Y-112654565D01*
X118417772Y-113198934D01*
X118259967Y-113198934D01*
X118259967Y-113281000D01*
X118671192Y-113281000D01*
X118671192Y-113198934D01*
X118513387Y-113198934D01*
X118513387Y-112567029D01*
X118416789Y-112567029D01*
X118246075Y-112602591D01*
X118168297Y-112602591D01*
X118168297Y-112489251D01*
X118748970Y-112489251D01*
X118748970Y-113358778D01*
G37*
G36*
X113305681Y-82108778D02*
G01*
X112691070Y-82108778D01*
X112691070Y-81399094D01*
X112768848Y-81399094D01*
X113111686Y-81399094D01*
X112867797Y-82031000D01*
X112968712Y-82031000D01*
X113227903Y-81358147D01*
X113227903Y-81317029D01*
X112768848Y-81317029D01*
X112768848Y-81399094D01*
X112691070Y-81399094D01*
X112691070Y-81239251D01*
X113305681Y-81239251D01*
X113305681Y-82108778D01*
G37*
G36*
X82568780Y-97196061D02*
G01*
X82612797Y-97210014D01*
X82648431Y-97230584D01*
X82677089Y-97257738D01*
X82698462Y-97290803D01*
X82711517Y-97328910D01*
X82716070Y-97373399D01*
X82711172Y-97425009D01*
X82697269Y-97468458D01*
X82674836Y-97505375D01*
X82643365Y-97536846D01*
X82606013Y-97560741D01*
X82560315Y-97578797D01*
X82504585Y-97590468D01*
X82436791Y-97594677D01*
X82391591Y-97592494D01*
X82344253Y-97585787D01*
X82296552Y-97574850D01*
X82245988Y-97559115D01*
X82245988Y-97466108D01*
X82287745Y-97486197D01*
X82333952Y-97500900D01*
X82382514Y-97509643D01*
X82433927Y-97512612D01*
X82493667Y-97507993D01*
X82538725Y-97495595D01*
X82572370Y-97476879D01*
X82592947Y-97457274D01*
X82607612Y-97433978D01*
X82616721Y-97406255D01*
X82619942Y-97372972D01*
X82616990Y-97342298D01*
X82608576Y-97316239D01*
X82594931Y-97293870D01*
X82575704Y-97274579D01*
X82544315Y-97255691D01*
X82504070Y-97243508D01*
X82452563Y-97239060D01*
X82369386Y-97239060D01*
X82369386Y-97159729D01*
X82456409Y-97159729D01*
X82503213Y-97156067D01*
X82538712Y-97146205D01*
X82565403Y-97131263D01*
X82586161Y-97109836D01*
X82598732Y-97083063D01*
X82603187Y-97049240D01*
X82598599Y-97014507D01*
X82585637Y-96986946D01*
X82564206Y-96964824D01*
X82536651Y-96949356D01*
X82500260Y-96939184D01*
X82452563Y-96935417D01*
X82412288Y-96937338D01*
X82367462Y-96943410D01*
X82321160Y-96953268D01*
X82267530Y-96968243D01*
X82267530Y-96883442D01*
X82321884Y-96870040D01*
X82370583Y-96860874D01*
X82418037Y-96855168D01*
X82461197Y-96853351D01*
X82516536Y-96856907D01*
X82563089Y-96866876D01*
X82602270Y-96882501D01*
X82635244Y-96903445D01*
X82663365Y-96930804D01*
X82683093Y-96961915D01*
X82695128Y-96997535D01*
X82699315Y-97038854D01*
X82695364Y-97077230D01*
X82683999Y-97110325D01*
X82665335Y-97139256D01*
X82640363Y-97163152D01*
X82608626Y-97182127D01*
X82568780Y-97196061D01*
G37*
G36*
X82899136Y-97460637D02*
G01*
X83000051Y-97460637D01*
X83000051Y-97581000D01*
X82899136Y-97581000D01*
X82899136Y-97460637D01*
G37*
G36*
X83502960Y-97196061D02*
G01*
X83546977Y-97210014D01*
X83582611Y-97230584D01*
X83611269Y-97257738D01*
X83632642Y-97290803D01*
X83645697Y-97328910D01*
X83650250Y-97373399D01*
X83645352Y-97425009D01*
X83631450Y-97468458D01*
X83609016Y-97505375D01*
X83577545Y-97536846D01*
X83540193Y-97560741D01*
X83494496Y-97578797D01*
X83438765Y-97590468D01*
X83370971Y-97594677D01*
X83325771Y-97592494D01*
X83278433Y-97585787D01*
X83230733Y-97574850D01*
X83180168Y-97559115D01*
X83180168Y-97466108D01*
X83221925Y-97486197D01*
X83268132Y-97500900D01*
X83316694Y-97509643D01*
X83368107Y-97512612D01*
X83427847Y-97507993D01*
X83472905Y-97495595D01*
X83506550Y-97476879D01*
X83527127Y-97457274D01*
X83541792Y-97433978D01*
X83550901Y-97406255D01*
X83554122Y-97372972D01*
X83551170Y-97342298D01*
X83542756Y-97316239D01*
X83529111Y-97293870D01*
X83509884Y-97274579D01*
X83478495Y-97255691D01*
X83438250Y-97243508D01*
X83386743Y-97239060D01*
X83303566Y-97239060D01*
X83303566Y-97159729D01*
X83390590Y-97159729D01*
X83437393Y-97156067D01*
X83472892Y-97146205D01*
X83499583Y-97131263D01*
X83520341Y-97109836D01*
X83532912Y-97083063D01*
X83537367Y-97049240D01*
X83532779Y-97014507D01*
X83519817Y-96986946D01*
X83498386Y-96964824D01*
X83470831Y-96949356D01*
X83434440Y-96939184D01*
X83386743Y-96935417D01*
X83346468Y-96937338D01*
X83301642Y-96943410D01*
X83255340Y-96953268D01*
X83201710Y-96968243D01*
X83201710Y-96883442D01*
X83256064Y-96870040D01*
X83304763Y-96860874D01*
X83352217Y-96855168D01*
X83395377Y-96853351D01*
X83450716Y-96856907D01*
X83497269Y-96866876D01*
X83536450Y-96882501D01*
X83569424Y-96903445D01*
X83597545Y-96930804D01*
X83617273Y-96961915D01*
X83629308Y-96997535D01*
X83633495Y-97038854D01*
X83629544Y-97077230D01*
X83618179Y-97110325D01*
X83599515Y-97139256D01*
X83574543Y-97163152D01*
X83542806Y-97182127D01*
X83502960Y-97196061D01*
G37*
G36*
X116470717Y-101920400D02*
G01*
X116516697Y-101929731D01*
X116554288Y-101944128D01*
X116584902Y-101963105D01*
X116610839Y-101988296D01*
X116629275Y-102017875D01*
X116640682Y-102052716D01*
X116644699Y-102094154D01*
X116640927Y-102137031D01*
X116630482Y-102171335D01*
X116614096Y-102198830D01*
X116591257Y-102220932D01*
X116561804Y-102237136D01*
X116524165Y-102247300D01*
X116569361Y-102261691D01*
X116605765Y-102282916D01*
X116634868Y-102310944D01*
X116656418Y-102345090D01*
X116669673Y-102384883D01*
X116674320Y-102431777D01*
X116669926Y-102478392D01*
X116657468Y-102517575D01*
X116637390Y-102550803D01*
X116609266Y-102579067D01*
X116575837Y-102600524D01*
X116534918Y-102616738D01*
X116484993Y-102627219D01*
X116424233Y-102631000D01*
X116167949Y-102631000D01*
X116167949Y-102551669D01*
X116264547Y-102551669D01*
X116419446Y-102551669D01*
X116470585Y-102547470D01*
X116507981Y-102536320D01*
X116534936Y-102519613D01*
X116555039Y-102495716D01*
X116567791Y-102463857D01*
X116572464Y-102421476D01*
X116567767Y-102378786D01*
X116554997Y-102346982D01*
X116534936Y-102323382D01*
X116508021Y-102306937D01*
X116470628Y-102295941D01*
X116419446Y-102291795D01*
X116264547Y-102291795D01*
X116264547Y-102551669D01*
X116167949Y-102551669D01*
X116167949Y-102212465D01*
X116264547Y-102212465D01*
X116407521Y-102212465D01*
X116454170Y-102208953D01*
X116488339Y-102199652D01*
X116512967Y-102185836D01*
X116531729Y-102165698D01*
X116543401Y-102139240D01*
X116547631Y-102104412D01*
X116543418Y-102069895D01*
X116531761Y-102043497D01*
X116512967Y-102023244D01*
X116488318Y-102009286D01*
X116454147Y-101999901D01*
X116407521Y-101996359D01*
X116264547Y-101996359D01*
X116264547Y-102212465D01*
X116167949Y-102212465D01*
X116167949Y-101917029D01*
X116414659Y-101917029D01*
X116470717Y-101920400D01*
G37*
G36*
X117082555Y-102085527D02*
G01*
X117129576Y-102097593D01*
X117167453Y-102116322D01*
X117197830Y-102141427D01*
X117221492Y-102172935D01*
X117239376Y-102212597D01*
X117251004Y-102262231D01*
X117255233Y-102324108D01*
X117255233Y-102631000D01*
X117167269Y-102631000D01*
X117167269Y-102548934D01*
X117144971Y-102579433D01*
X117120003Y-102603317D01*
X117092170Y-102621340D01*
X117061373Y-102633882D01*
X117025067Y-102641846D01*
X116982194Y-102644677D01*
X116941388Y-102641498D01*
X116906651Y-102632494D01*
X116876925Y-102618136D01*
X116851402Y-102598430D01*
X116830508Y-102573814D01*
X116815486Y-102545480D01*
X116806162Y-102512702D01*
X116802889Y-102474476D01*
X116803457Y-102468407D01*
X116890896Y-102468407D01*
X116894522Y-102498434D01*
X116904810Y-102522925D01*
X116921713Y-102543164D01*
X116943798Y-102558060D01*
X116971286Y-102567444D01*
X117005660Y-102570818D01*
X117041243Y-102567391D01*
X117072082Y-102557541D01*
X117099133Y-102541441D01*
X117123031Y-102518629D01*
X117141761Y-102491521D01*
X117155527Y-102459949D01*
X117164202Y-102423085D01*
X117167269Y-102379887D01*
X117167269Y-102360183D01*
X117079775Y-102360183D01*
X117007953Y-102363753D01*
X116961019Y-102372654D01*
X116932014Y-102384717D01*
X116914421Y-102398725D01*
X116901783Y-102416696D01*
X116893787Y-102439469D01*
X116890896Y-102468407D01*
X116803457Y-102468407D01*
X116807046Y-102430031D01*
X116818729Y-102393407D01*
X116837393Y-102363025D01*
X116863370Y-102337829D01*
X116894240Y-102319145D01*
X116933359Y-102304738D01*
X116982537Y-102295260D01*
X117043914Y-102291795D01*
X117167269Y-102291795D01*
X117167269Y-102283076D01*
X117162514Y-102244182D01*
X117149155Y-102213280D01*
X117127347Y-102188486D01*
X117098895Y-102170679D01*
X117062266Y-102159210D01*
X117015191Y-102155019D01*
X116969762Y-102157770D01*
X116925774Y-102165961D01*
X116883193Y-102179600D01*
X116842084Y-102198787D01*
X116842084Y-102116722D01*
X116890296Y-102100985D01*
X116935818Y-102090050D01*
X116981045Y-102083343D01*
X117024253Y-102081160D01*
X117082555Y-102085527D01*
G37*
G36*
X117523827Y-101941648D02*
G01*
X117523827Y-102094838D01*
X117705055Y-102094838D01*
X117705055Y-102163226D01*
X117523827Y-102163226D01*
X117523827Y-102454217D01*
X117526562Y-102498303D01*
X117533124Y-102524359D01*
X117541736Y-102538462D01*
X117555264Y-102547724D01*
X117578168Y-102554431D01*
X117614697Y-102557140D01*
X117705055Y-102557140D01*
X117705055Y-102631000D01*
X117614697Y-102631000D01*
X117561895Y-102627923D01*
X117522748Y-102619786D01*
X117494297Y-102607877D01*
X117474117Y-102592916D01*
X117458862Y-102572976D01*
X117446762Y-102544892D01*
X117438511Y-102506282D01*
X117435393Y-102454217D01*
X117435393Y-102163226D01*
X117370809Y-102163226D01*
X117370809Y-102094838D01*
X117435393Y-102094838D01*
X117435393Y-101941648D01*
X117523827Y-101941648D01*
G37*
G36*
X106917029Y-84013355D02*
G01*
X106917029Y-83916757D01*
X107548934Y-83916757D01*
X107548934Y-83569132D01*
X107631000Y-83569132D01*
X107631000Y-84013355D01*
X106917029Y-84013355D01*
G37*
G36*
X106917029Y-83467618D02*
G01*
X106917029Y-83016215D01*
X106999094Y-83016215D01*
X106999094Y-83371020D01*
X107209729Y-83371020D01*
X107209729Y-83031047D01*
X107291795Y-83031047D01*
X107291795Y-83371020D01*
X107548934Y-83371020D01*
X107548934Y-83007624D01*
X107631000Y-83007624D01*
X107631000Y-83467618D01*
X106917029Y-83467618D01*
G37*
G36*
X107349009Y-82253224D02*
G01*
X107412138Y-82266118D01*
X107464696Y-82286189D01*
X107508372Y-82312865D01*
X107544446Y-82346141D01*
X107573200Y-82385447D01*
X107596834Y-82433722D01*
X107614957Y-82492593D01*
X107626746Y-82564023D01*
X107631000Y-82650254D01*
X107631000Y-82848707D01*
X106917029Y-82848707D01*
X106917029Y-82650254D01*
X106917755Y-82635465D01*
X106996359Y-82635465D01*
X106996359Y-82752109D01*
X107551669Y-82752109D01*
X107551669Y-82635465D01*
X107548405Y-82574064D01*
X107539352Y-82523260D01*
X107525403Y-82481403D01*
X107507126Y-82447067D01*
X107484735Y-82419102D01*
X107457241Y-82396012D01*
X107423583Y-82377262D01*
X107382665Y-82363008D01*
X107333105Y-82353780D01*
X107273288Y-82350458D01*
X107213919Y-82353774D01*
X107164688Y-82362989D01*
X107124000Y-82377234D01*
X107090491Y-82395986D01*
X107063080Y-82419102D01*
X107040768Y-82447054D01*
X107022551Y-82481382D01*
X107008642Y-82523238D01*
X106999614Y-82574049D01*
X106996359Y-82635465D01*
X106917755Y-82635465D01*
X106921286Y-82563536D01*
X106933074Y-82491863D01*
X106951170Y-82432943D01*
X106974737Y-82384768D01*
X107003369Y-82345671D01*
X107039331Y-82312547D01*
X107082841Y-82285997D01*
X107135167Y-82266026D01*
X107197982Y-82253199D01*
X107273288Y-82248602D01*
X107349009Y-82253224D01*
G37*
G36*
X86362679Y-109245941D02*
G01*
X86400072Y-109256937D01*
X86426987Y-109273382D01*
X86447048Y-109296982D01*
X86459818Y-109328786D01*
X86464515Y-109371476D01*
X86459842Y-109413857D01*
X86447090Y-109445716D01*
X86426987Y-109469613D01*
X86400032Y-109486320D01*
X86362636Y-109497470D01*
X86311497Y-109501669D01*
X86156598Y-109501669D01*
X86156598Y-109241795D01*
X86311497Y-109241795D01*
X86362679Y-109245941D01*
G37*
G36*
X86346198Y-108949901D02*
G01*
X86380369Y-108959286D01*
X86405018Y-108973244D01*
X86423812Y-108993497D01*
X86435469Y-109019895D01*
X86439682Y-109054412D01*
X86435452Y-109089240D01*
X86423780Y-109115698D01*
X86405018Y-109135836D01*
X86380390Y-109149652D01*
X86346221Y-109158953D01*
X86299572Y-109162465D01*
X86156598Y-109162465D01*
X86156598Y-108946359D01*
X86299572Y-108946359D01*
X86346198Y-108949901D01*
G37*
G36*
X86644149Y-109658778D02*
G01*
X85982222Y-109658778D01*
X85982222Y-108946359D01*
X86060000Y-108946359D01*
X86060000Y-109162465D01*
X86060000Y-109241795D01*
X86060000Y-109501669D01*
X86060000Y-109581000D01*
X86316284Y-109581000D01*
X86377044Y-109577219D01*
X86426969Y-109566738D01*
X86467888Y-109550524D01*
X86501317Y-109529067D01*
X86529441Y-109500803D01*
X86549519Y-109467575D01*
X86561977Y-109428392D01*
X86566371Y-109381777D01*
X86561724Y-109334883D01*
X86548469Y-109295090D01*
X86526919Y-109260944D01*
X86497816Y-109232916D01*
X86461412Y-109211691D01*
X86416216Y-109197300D01*
X86453855Y-109187136D01*
X86483308Y-109170932D01*
X86506147Y-109148830D01*
X86522533Y-109121335D01*
X86532978Y-109087031D01*
X86536750Y-109044154D01*
X86532733Y-109002716D01*
X86521326Y-108967875D01*
X86502890Y-108938296D01*
X86476953Y-108913105D01*
X86446339Y-108894128D01*
X86408748Y-108879731D01*
X86362768Y-108870400D01*
X86306710Y-108867029D01*
X86060000Y-108867029D01*
X86060000Y-108946359D01*
X85982222Y-108946359D01*
X85982222Y-108789251D01*
X86644149Y-108789251D01*
X86644149Y-109658778D01*
G37*
G36*
X86581134Y-95168390D02*
G01*
X86318609Y-95168390D01*
X86449615Y-94812387D01*
X86581134Y-95168390D01*
G37*
G36*
X86854501Y-95508778D02*
G01*
X86044771Y-95508778D01*
X86044771Y-95431000D01*
X86122549Y-95431000D01*
X86224405Y-95431000D01*
X86289416Y-95247720D01*
X86611267Y-95247720D01*
X86676278Y-95431000D01*
X86776723Y-95431000D01*
X86504625Y-94717029D01*
X86395118Y-94717029D01*
X86222804Y-95168390D01*
X86122549Y-95431000D01*
X86044771Y-95431000D01*
X86044771Y-94639251D01*
X86854501Y-94639251D01*
X86854501Y-95508778D01*
G37*
G36*
X113291319Y-118808778D02*
G01*
X112682436Y-118808778D01*
X112682436Y-118648934D01*
X112760214Y-118648934D01*
X112760214Y-118731000D01*
X113213541Y-118731000D01*
X113213541Y-118648934D01*
X112876431Y-118648934D01*
X113057147Y-118463645D01*
X113133185Y-118383546D01*
X113171813Y-118330592D01*
X113193196Y-118290538D01*
X113205543Y-118250060D01*
X113209695Y-118207062D01*
X113205349Y-118161916D01*
X113192877Y-118122917D01*
X113172518Y-118088829D01*
X113143700Y-118058831D01*
X113109465Y-118035413D01*
X113069347Y-118018140D01*
X113022246Y-118007221D01*
X112966789Y-118003351D01*
X112923821Y-118006130D01*
X112873995Y-118015105D01*
X112822773Y-118029219D01*
X112765002Y-118049855D01*
X112765002Y-118148334D01*
X112822161Y-118119978D01*
X112872798Y-118101018D01*
X112922922Y-118089171D01*
X112968712Y-118085417D01*
X113010065Y-118089684D01*
X113044219Y-118101744D01*
X113072705Y-118121235D01*
X113094822Y-118147351D01*
X113108041Y-118177784D01*
X113112626Y-118213901D01*
X113108192Y-118248380D01*
X113094204Y-118284811D01*
X113071079Y-118321744D01*
X113029407Y-118372903D01*
X112910112Y-118496343D01*
X112760214Y-118648934D01*
X112682436Y-118648934D01*
X112682436Y-117925573D01*
X113291319Y-117925573D01*
X113291319Y-118808778D01*
G37*
G36*
X83036502Y-99438913D02*
G01*
X83036502Y-99531921D01*
X82981810Y-99509808D01*
X82932723Y-99494906D01*
X82884199Y-99485661D01*
X82838519Y-99482681D01*
X82786598Y-99486579D01*
X82746895Y-99497096D01*
X82716788Y-99513028D01*
X82693071Y-99536033D01*
X82678951Y-99564233D01*
X82674003Y-99599326D01*
X82677479Y-99629317D01*
X82687085Y-99652389D01*
X82702469Y-99670193D01*
X82723134Y-99683236D01*
X82757358Y-99696331D01*
X82810309Y-99708832D01*
X82868652Y-99720842D01*
X82923156Y-99734374D01*
X82966771Y-99751325D01*
X83001256Y-99771152D01*
X83028082Y-99793590D01*
X83050100Y-99821078D01*
X83066047Y-99852876D01*
X83075999Y-99889818D01*
X83079501Y-99933016D01*
X83074733Y-99984094D01*
X83061310Y-100026360D01*
X83039832Y-100061582D01*
X83009916Y-100090950D01*
X82974328Y-100112897D01*
X82929804Y-100129698D01*
X82874445Y-100140682D01*
X82805992Y-100144677D01*
X82754651Y-100141843D01*
X82698152Y-100132923D01*
X82640852Y-100118611D01*
X82579798Y-100098173D01*
X82579798Y-99999695D01*
X82638989Y-100028672D01*
X82695032Y-100048806D01*
X82751521Y-100061288D01*
X82805992Y-100065347D01*
X82860387Y-100061179D01*
X82902030Y-100049919D01*
X82933664Y-100032820D01*
X82953303Y-100014843D01*
X82967139Y-99993835D01*
X82975643Y-99969202D01*
X82978629Y-99939983D01*
X82974762Y-99906282D01*
X82963918Y-99879359D01*
X82946358Y-99857661D01*
X82923050Y-99841073D01*
X82888829Y-99826017D01*
X82840442Y-99813166D01*
X82781628Y-99801626D01*
X82726446Y-99787884D01*
X82683309Y-99771763D01*
X82650159Y-99753801D01*
X82625234Y-99734306D01*
X82604634Y-99709936D01*
X82589662Y-99681193D01*
X82580264Y-99647208D01*
X82576935Y-99606806D01*
X82581368Y-99560712D01*
X82594032Y-99521336D01*
X82614614Y-99487330D01*
X82643656Y-99457805D01*
X82678108Y-99435056D01*
X82719321Y-99418078D01*
X82768598Y-99407229D01*
X82827534Y-99403351D01*
X82877878Y-99405545D01*
X82929859Y-99412242D01*
X82982058Y-99423221D01*
X83036502Y-99438913D01*
G37*
G36*
X83181869Y-99821886D02*
G01*
X83439607Y-99821886D01*
X83439607Y-99901216D01*
X83181869Y-99901216D01*
X83181869Y-99821886D01*
G37*
G36*
X115963359Y-105048934D02*
G01*
X116121164Y-105048934D01*
X116121164Y-104504565D01*
X115949467Y-104540127D01*
X115949467Y-104452591D01*
X116120181Y-104417029D01*
X116216779Y-104417029D01*
X116216779Y-105048934D01*
X116374584Y-105048934D01*
X116374584Y-105131000D01*
X115963359Y-105131000D01*
X115963359Y-105048934D01*
G37*
G36*
X116823260Y-104407388D02*
G01*
X116864159Y-104418955D01*
X116900022Y-104437695D01*
X116931673Y-104463877D01*
X116959558Y-104498368D01*
X116985237Y-104546308D01*
X117005108Y-104606503D01*
X117018179Y-104681506D01*
X117022945Y-104774271D01*
X117018184Y-104866744D01*
X117005123Y-104941591D01*
X116985253Y-105001735D01*
X116959558Y-105049703D01*
X116931676Y-105084176D01*
X116900026Y-105110346D01*
X116864163Y-105129079D01*
X116823263Y-105140642D01*
X116776193Y-105144677D01*
X116729124Y-105140642D01*
X116688218Y-105129081D01*
X116652346Y-105110347D01*
X116620684Y-105084177D01*
X116592785Y-105049703D01*
X116567108Y-105001738D01*
X116547252Y-104941595D01*
X116534198Y-104866747D01*
X116529440Y-104774271D01*
X116626509Y-104774271D01*
X116629444Y-104850700D01*
X116637388Y-104911179D01*
X116649211Y-104958370D01*
X116664036Y-104994651D01*
X116686093Y-105027892D01*
X116711651Y-105050237D01*
X116741240Y-105063501D01*
X116776193Y-105068083D01*
X116811393Y-105063488D01*
X116841125Y-105050204D01*
X116866739Y-105027856D01*
X116888777Y-104994651D01*
X116903620Y-104958368D01*
X116915456Y-104911175D01*
X116923409Y-104850697D01*
X116926347Y-104774271D01*
X116923404Y-104697550D01*
X116915445Y-104636918D01*
X116903608Y-104589676D01*
X116888777Y-104553420D01*
X116866736Y-104520193D01*
X116841121Y-104497832D01*
X116811390Y-104484542D01*
X116776193Y-104479946D01*
X116741243Y-104484530D01*
X116711655Y-104497799D01*
X116686096Y-104520157D01*
X116664036Y-104553420D01*
X116649222Y-104589674D01*
X116637399Y-104636915D01*
X116629448Y-104697548D01*
X116626509Y-104774271D01*
X116529440Y-104774271D01*
X116534204Y-104681503D01*
X116547266Y-104606499D01*
X116567124Y-104546305D01*
X116592785Y-104498368D01*
X116620686Y-104463876D01*
X116652350Y-104437694D01*
X116688222Y-104418953D01*
X116729126Y-104407387D01*
X116776193Y-104403351D01*
X116823260Y-104407388D01*
G37*
G36*
X117368134Y-105131000D02*
G01*
X117095565Y-104417029D01*
X117196480Y-104417029D01*
X117422630Y-105018159D01*
X117649294Y-104417029D01*
X117749739Y-104417029D01*
X117477640Y-105131000D01*
X117368134Y-105131000D01*
G37*
G36*
X92903207Y-87938509D02*
G01*
X92903207Y-88018035D01*
X92869316Y-87995878D01*
X92834711Y-87978228D01*
X92799214Y-87964738D01*
X92761837Y-87954985D01*
X92722828Y-87949097D01*
X92681843Y-87947107D01*
X92632565Y-87949747D01*
X92590153Y-87957237D01*
X92553528Y-87969142D01*
X92521810Y-87985330D01*
X92494375Y-88005978D01*
X92467449Y-88036491D01*
X92447178Y-88074007D01*
X92434088Y-88119984D01*
X92429363Y-88176213D01*
X92434082Y-88232217D01*
X92447161Y-88278065D01*
X92467430Y-88315527D01*
X92494375Y-88346044D01*
X92521810Y-88366692D01*
X92553528Y-88382880D01*
X92590153Y-88394785D01*
X92632565Y-88402275D01*
X92681843Y-88404915D01*
X92722828Y-88402925D01*
X92761837Y-88397037D01*
X92799214Y-88387284D01*
X92834711Y-88373794D01*
X92869316Y-88356144D01*
X92903207Y-88333987D01*
X92903207Y-88413513D01*
X92850809Y-88437100D01*
X92795838Y-88453813D01*
X92738051Y-88463835D01*
X92676073Y-88467246D01*
X92611060Y-88463809D01*
X92554130Y-88453987D01*
X92504054Y-88438262D01*
X92459830Y-88416756D01*
X92420729Y-88389232D01*
X92388254Y-88357028D01*
X92362572Y-88320357D01*
X92343612Y-88278576D01*
X92331693Y-88230855D01*
X92327508Y-88176213D01*
X92331699Y-88121385D01*
X92343628Y-88073543D01*
X92362595Y-88031697D01*
X92388274Y-87995008D01*
X92420729Y-87962824D01*
X92459833Y-87935286D01*
X92504058Y-87913772D01*
X92554134Y-87898040D01*
X92611063Y-87888215D01*
X92676073Y-87884776D01*
X92738877Y-87888199D01*
X92796821Y-87898209D01*
X92851634Y-87914955D01*
X92903207Y-87938509D01*
G37*
G36*
X93648842Y-87898868D02*
G01*
X93720515Y-87908130D01*
X93779435Y-87922348D01*
X93827611Y-87940865D01*
X93866708Y-87963361D01*
X93899832Y-87991617D01*
X93926382Y-88025804D01*
X93946353Y-88066917D01*
X93959180Y-88116271D01*
X93963776Y-88175440D01*
X93959155Y-88234935D01*
X93946261Y-88284537D01*
X93926190Y-88325832D01*
X93899514Y-88360149D01*
X93866238Y-88388493D01*
X93826931Y-88411085D01*
X93778657Y-88429655D01*
X93719786Y-88443894D01*
X93648356Y-88453157D01*
X93562125Y-88456500D01*
X93363672Y-88456500D01*
X93363672Y-88394169D01*
X93460270Y-88394169D01*
X93576914Y-88394169D01*
X93638315Y-88391604D01*
X93689119Y-88384491D01*
X93730976Y-88373531D01*
X93765312Y-88359171D01*
X93793277Y-88341577D01*
X93816367Y-88319975D01*
X93835116Y-88293529D01*
X93849371Y-88261380D01*
X93858598Y-88222440D01*
X93861921Y-88175440D01*
X93858605Y-88128793D01*
X93849390Y-88090112D01*
X93835145Y-88058143D01*
X93816392Y-88031814D01*
X93793277Y-88010277D01*
X93765324Y-87992746D01*
X93730996Y-87978432D01*
X93689140Y-87967505D01*
X93638330Y-87960411D01*
X93576914Y-87957853D01*
X93460270Y-87957853D01*
X93460270Y-88394169D01*
X93363672Y-88394169D01*
X93363672Y-87895523D01*
X93562125Y-87895523D01*
X93648842Y-87898868D01*
G37*
G36*
X94438688Y-87895523D02*
G01*
X94817900Y-87895523D01*
X94817900Y-87960003D01*
X94527165Y-87960003D01*
X94527165Y-88096049D01*
X94569224Y-88087519D01*
X94611325Y-88084664D01*
X94670765Y-88088232D01*
X94721150Y-88098312D01*
X94764049Y-88114337D01*
X94800675Y-88136248D01*
X94830706Y-88163719D01*
X94852332Y-88195538D01*
X94865784Y-88232556D01*
X94870516Y-88275955D01*
X94865599Y-88320699D01*
X94851708Y-88358278D01*
X94829508Y-88390047D01*
X94798794Y-88416972D01*
X94761454Y-88437996D01*
X94716395Y-88453651D01*
X94662068Y-88463660D01*
X94596536Y-88467246D01*
X94551428Y-88465786D01*
X94504939Y-88461336D01*
X94458120Y-88454054D01*
X94408598Y-88443603D01*
X94408598Y-88368377D01*
X94452490Y-88383570D01*
X94497545Y-88394269D01*
X94544281Y-88400599D01*
X94594613Y-88402766D01*
X94635861Y-88400391D01*
X94670764Y-88393692D01*
X94700402Y-88383082D01*
X94725619Y-88368645D01*
X94746468Y-88350356D01*
X94761406Y-88329224D01*
X94770666Y-88304689D01*
X94773918Y-88275955D01*
X94770666Y-88247221D01*
X94761405Y-88222692D01*
X94746467Y-88201572D01*
X94725619Y-88183299D01*
X94700399Y-88168848D01*
X94670755Y-88158227D01*
X94635839Y-88151522D01*
X94594570Y-88149144D01*
X94555988Y-88150841D01*
X94517335Y-88155962D01*
X94478994Y-88164486D01*
X94438688Y-88177086D01*
X94438688Y-87895523D01*
G37*
G36*
X95850131Y-88376504D02*
G01*
X95850131Y-88226520D01*
X95692326Y-88226520D01*
X95692326Y-88164190D01*
X95945746Y-88164190D01*
X95945746Y-88404177D01*
X95907302Y-88423205D01*
X95866257Y-88438896D01*
X95822348Y-88451294D01*
X95753398Y-88463177D01*
X95678434Y-88467246D01*
X95610996Y-88463815D01*
X95552282Y-88454044D01*
X95500990Y-88438473D01*
X95456042Y-88417292D01*
X95416637Y-88390340D01*
X95383851Y-88358573D01*
X95357866Y-88322073D01*
X95338627Y-88280141D01*
X95326493Y-88231876D01*
X95322218Y-88176213D01*
X95326498Y-88120364D01*
X95338642Y-88071976D01*
X95357888Y-88029972D01*
X95383869Y-87993442D01*
X95416637Y-87961682D01*
X95456041Y-87934731D01*
X95500993Y-87913551D01*
X95552292Y-87897979D01*
X95611019Y-87888207D01*
X95678477Y-87884776D01*
X95747090Y-87888241D01*
X95811150Y-87898411D01*
X95871830Y-87915324D01*
X95927110Y-87938509D01*
X95927110Y-88020184D01*
X95890073Y-87997637D01*
X95852191Y-87979498D01*
X95813287Y-87965477D01*
X95772584Y-87955299D01*
X95730464Y-87949171D01*
X95686598Y-87947107D01*
X95633282Y-87949766D01*
X95588105Y-87957245D01*
X95549795Y-87969001D01*
X95517292Y-87984788D01*
X95489812Y-88004669D01*
X95462737Y-88034569D01*
X95442238Y-88071973D01*
X95428913Y-88118515D01*
X95424074Y-88176213D01*
X95428906Y-88233685D01*
X95442221Y-88280099D01*
X95462719Y-88317449D01*
X95489812Y-88347353D01*
X95517310Y-88367236D01*
X95549822Y-88383024D01*
X95588135Y-88394779D01*
X95633303Y-88402257D01*
X95686598Y-88404915D01*
X95736314Y-88403085D01*
X95777896Y-88397997D01*
X95816509Y-88389026D01*
X95850131Y-88376504D01*
G37*
G36*
X96713983Y-87898541D02*
G01*
X96763746Y-87906799D01*
X96803213Y-87919387D01*
X96834277Y-87935823D01*
X96859711Y-87957505D01*
X96878381Y-87984221D01*
X96890269Y-88017047D01*
X96894544Y-88057462D01*
X96890778Y-88092105D01*
X96880157Y-88121125D01*
X96863214Y-88145584D01*
X96839661Y-88166214D01*
X96809698Y-88182380D01*
X96772130Y-88194180D01*
X96801528Y-88206401D01*
X96832610Y-88229442D01*
X96860542Y-88259553D01*
X96891680Y-88303628D01*
X96989732Y-88456500D01*
X96885953Y-88456500D01*
X96794612Y-88312998D01*
X96768434Y-88276239D01*
X96745721Y-88252512D01*
X96725968Y-88238443D01*
X96702681Y-88228702D01*
X96673032Y-88222381D01*
X96635396Y-88220072D01*
X96530207Y-88220072D01*
X96530207Y-88456500D01*
X96433609Y-88456500D01*
X96433609Y-88157742D01*
X96530207Y-88157742D01*
X96651638Y-88157742D01*
X96697129Y-88154499D01*
X96731412Y-88145738D01*
X96757084Y-88132285D01*
X96776246Y-88113545D01*
X96788336Y-88089171D01*
X96792731Y-88057428D01*
X96788324Y-88025693D01*
X96776228Y-88001458D01*
X96757084Y-87982940D01*
X96731451Y-87969697D01*
X96697170Y-87961055D01*
X96651638Y-87957853D01*
X96530207Y-87957853D01*
X96530207Y-88157742D01*
X96433609Y-88157742D01*
X96433609Y-87895523D01*
X96651638Y-87895523D01*
X96713983Y-87898541D01*
G37*
G36*
X97326243Y-87895523D02*
G01*
X97930195Y-87895523D01*
X97930195Y-87960003D01*
X97676732Y-87960003D01*
X97676732Y-88456500D01*
X97579664Y-88456500D01*
X97579664Y-87960003D01*
X97326243Y-87960003D01*
X97326243Y-87895523D01*
G37*
G36*
X110029187Y-85296630D02*
G01*
X109838299Y-85296630D01*
X109838299Y-85454436D01*
X109758969Y-85454436D01*
X109758969Y-85201015D01*
X110064407Y-85201015D01*
X110088625Y-85239460D01*
X110108595Y-85280504D01*
X110124374Y-85324413D01*
X110139498Y-85393364D01*
X110144677Y-85468327D01*
X110140310Y-85535765D01*
X110127875Y-85594479D01*
X110108056Y-85645771D01*
X110081099Y-85690719D01*
X110046797Y-85730125D01*
X110006366Y-85762911D01*
X109959911Y-85788895D01*
X109906543Y-85808134D01*
X109845116Y-85820268D01*
X109774271Y-85824543D01*
X109703190Y-85820263D01*
X109641606Y-85808119D01*
X109588146Y-85788873D01*
X109541654Y-85762892D01*
X109501232Y-85730125D01*
X109466931Y-85690720D01*
X109439974Y-85645769D01*
X109420155Y-85594469D01*
X109407718Y-85535742D01*
X109403351Y-85468284D01*
X109407761Y-85399671D01*
X109420705Y-85335611D01*
X109442230Y-85274931D01*
X109471739Y-85219651D01*
X109575689Y-85219651D01*
X109546992Y-85256688D01*
X109523907Y-85294570D01*
X109506061Y-85333474D01*
X109493107Y-85374178D01*
X109485309Y-85416298D01*
X109482681Y-85460163D01*
X109486066Y-85513480D01*
X109495585Y-85558656D01*
X109510547Y-85596967D01*
X109530639Y-85629469D01*
X109555942Y-85656950D01*
X109593997Y-85684024D01*
X109641602Y-85704524D01*
X109700838Y-85717848D01*
X109774271Y-85722688D01*
X109847417Y-85717855D01*
X109906489Y-85704541D01*
X109954027Y-85684043D01*
X109992086Y-85656950D01*
X110017392Y-85629452D01*
X110037485Y-85596939D01*
X110052446Y-85558626D01*
X110061964Y-85513458D01*
X110065347Y-85460163D01*
X110063017Y-85410447D01*
X110056542Y-85368865D01*
X110045124Y-85330253D01*
X110029187Y-85296630D01*
G37*
G36*
X85153757Y-89322455D02*
G01*
X84536283Y-89322455D01*
X84536283Y-89118843D01*
X84614061Y-89118843D01*
X84614061Y-89214586D01*
X84663584Y-89227887D01*
X84710403Y-89237154D01*
X84756892Y-89242819D01*
X84802000Y-89244677D01*
X84867531Y-89240113D01*
X84921859Y-89227374D01*
X84966918Y-89207449D01*
X85004258Y-89180692D01*
X85034972Y-89146423D01*
X85057172Y-89105991D01*
X85071063Y-89058162D01*
X85075979Y-89001216D01*
X85071248Y-88945981D01*
X85057795Y-88898866D01*
X85036170Y-88858370D01*
X85006138Y-88823407D01*
X84969513Y-88795519D01*
X84926613Y-88775125D01*
X84876229Y-88762295D01*
X84816789Y-88757755D01*
X84774688Y-88761388D01*
X84732629Y-88772244D01*
X84732629Y-88599094D01*
X85023363Y-88599094D01*
X85023363Y-88517029D01*
X84644152Y-88517029D01*
X84644152Y-88875382D01*
X84684458Y-88859346D01*
X84722798Y-88848497D01*
X84761451Y-88841979D01*
X84800034Y-88839820D01*
X84841302Y-88842846D01*
X84876219Y-88851380D01*
X84905863Y-88864898D01*
X84931082Y-88883289D01*
X84951931Y-88906547D01*
X84966869Y-88933427D01*
X84976129Y-88964645D01*
X84979381Y-89001216D01*
X84976130Y-89037786D01*
X84966870Y-89069013D01*
X84951932Y-89095907D01*
X84931082Y-89119185D01*
X84905865Y-89137559D01*
X84876228Y-89151063D01*
X84841324Y-89159588D01*
X84800077Y-89162612D01*
X84749745Y-89159854D01*
X84703008Y-89151798D01*
X84657954Y-89138181D01*
X84614061Y-89118843D01*
X84536283Y-89118843D01*
X84536283Y-88439251D01*
X85153757Y-88439251D01*
X85153757Y-89322455D01*
G37*
D12*
G36*
X84678760Y-110239810D02*
G01*
X84469278Y-110474600D01*
X84306179Y-110380436D01*
X84932825Y-109678197D01*
X85095923Y-109772362D01*
X84824149Y-110076906D01*
X85397419Y-109946431D01*
X85590786Y-110058071D01*
X85008375Y-110180858D01*
X84996408Y-110778939D01*
X84801994Y-110666694D01*
X84822731Y-110211693D01*
X84678760Y-110239810D01*
G37*
G36*
X85875149Y-110230712D02*
G01*
X85944987Y-110252587D01*
X86013680Y-110285984D01*
X86078315Y-110330260D01*
X86126922Y-110377956D01*
X86161839Y-110429288D01*
X86184527Y-110484995D01*
X86195465Y-110546279D01*
X86194400Y-110608010D01*
X86181497Y-110670878D01*
X86155809Y-110735914D01*
X86115658Y-110804054D01*
X86058719Y-110876113D01*
X85999981Y-110934777D01*
X85937668Y-110983549D01*
X85871485Y-111023106D01*
X85800987Y-111053873D01*
X85725593Y-111076005D01*
X85647843Y-111088058D01*
X85573267Y-111088463D01*
X85500976Y-111077631D01*
X85430141Y-111055467D01*
X85360030Y-111021366D01*
X85294869Y-110976762D01*
X85246056Y-110928913D01*
X85211165Y-110877607D01*
X85188666Y-110822107D01*
X85178040Y-110761208D01*
X85178432Y-110742021D01*
X85374409Y-110742021D01*
X85379859Y-110789182D01*
X85396866Y-110829888D01*
X85425943Y-110865796D01*
X85469336Y-110897659D01*
X85517936Y-110919570D01*
X85568961Y-110930742D01*
X85623494Y-110931287D01*
X85682784Y-110920442D01*
X85738991Y-110900245D01*
X85793146Y-110870743D01*
X85845721Y-110831175D01*
X85897019Y-110780407D01*
X85944806Y-110719543D01*
X85976183Y-110664385D01*
X85994007Y-110613828D01*
X86000304Y-110566670D01*
X85995240Y-110519459D01*
X85978384Y-110478616D01*
X85949184Y-110442455D01*
X85905279Y-110410214D01*
X85856152Y-110388069D01*
X85804799Y-110376880D01*
X85750127Y-110376491D01*
X85690882Y-110387644D01*
X85634886Y-110408221D01*
X85580403Y-110438381D01*
X85526970Y-110479000D01*
X85474287Y-110531330D01*
X85427924Y-110590588D01*
X85397485Y-110644746D01*
X85380272Y-110694842D01*
X85374409Y-110742021D01*
X85178432Y-110742021D01*
X85179298Y-110699599D01*
X85192105Y-110637266D01*
X85217300Y-110573235D01*
X85256412Y-110506629D01*
X85311586Y-110436696D01*
X85373253Y-110374982D01*
X85437696Y-110324325D01*
X85505190Y-110283860D01*
X85576159Y-110253000D01*
X85651164Y-110231455D01*
X85729085Y-110219938D01*
X85803454Y-110219840D01*
X85875149Y-110230712D01*
G37*
G36*
X86655422Y-110672739D02*
G01*
X86138796Y-111251682D01*
X86511013Y-111466582D01*
X86400994Y-111589877D01*
X85865678Y-111280813D01*
X86492324Y-110578574D01*
X86655422Y-110672739D01*
G37*
G36*
X87298106Y-111043792D02*
G01*
X86671460Y-111746031D01*
X86508362Y-111651866D01*
X87135008Y-110949628D01*
X87298106Y-111043792D01*
G37*
G36*
X87820953Y-111345658D02*
G01*
X87867653Y-111376259D01*
X87903324Y-111406962D01*
X87929686Y-111437816D01*
X87950386Y-111472536D01*
X87961542Y-111504244D01*
X87964669Y-111533843D01*
X87960276Y-111578100D01*
X87949568Y-111615613D01*
X87932617Y-111649695D01*
X87910266Y-111679730D01*
X87881347Y-111707405D01*
X87849784Y-111728791D01*
X87815217Y-111744342D01*
X87756793Y-111758033D01*
X87676552Y-111762830D01*
X87698135Y-111820828D01*
X87705409Y-111872443D01*
X87700294Y-111919492D01*
X87683216Y-111963614D01*
X87653063Y-112006076D01*
X87619542Y-112038204D01*
X87579956Y-112066096D01*
X87535359Y-112088489D01*
X87481094Y-112106867D01*
X87442962Y-112113776D01*
X87399688Y-112114673D01*
X87350294Y-112108766D01*
X87301988Y-112096708D01*
X87251421Y-112077419D01*
X87198162Y-112050123D01*
X86846456Y-111847065D01*
X86872450Y-111817935D01*
X87119574Y-111817935D01*
X87308610Y-111927075D01*
X87357122Y-111948921D01*
X87399009Y-111956343D01*
X87436380Y-111951804D01*
X87471105Y-111935720D01*
X87504501Y-111906407D01*
X87529025Y-111870276D01*
X87536468Y-111839316D01*
X87530356Y-111810607D01*
X87509236Y-111781513D01*
X87467079Y-111750528D01*
X87277424Y-111641031D01*
X87119574Y-111817935D01*
X86872450Y-111817935D01*
X87140334Y-111517736D01*
X87387444Y-111517736D01*
X87559394Y-111617011D01*
X87606246Y-111638448D01*
X87645828Y-111646180D01*
X87680244Y-111642832D01*
X87711349Y-111629175D01*
X87740446Y-111604021D01*
X87761335Y-111572709D01*
X87767183Y-111545265D01*
X87760690Y-111519071D01*
X87739905Y-111491753D01*
X87698749Y-111461919D01*
X87526180Y-111362286D01*
X87387444Y-111517736D01*
X87140334Y-111517736D01*
X87473102Y-111144827D01*
X87820953Y-111345658D01*
G37*
G36*
X88658907Y-111829451D02*
G01*
X88697068Y-111854945D01*
X88725629Y-111881059D01*
X88746134Y-111907860D01*
X88761050Y-111937859D01*
X88768231Y-111966473D01*
X88768488Y-111994438D01*
X88760429Y-112036026D01*
X88746140Y-112073484D01*
X88725854Y-112108389D01*
X88699106Y-112142528D01*
X88650342Y-112188077D01*
X88598681Y-112219770D01*
X88543308Y-112239065D01*
X88482980Y-112246375D01*
X88416137Y-112241039D01*
X88441542Y-112279249D01*
X88448038Y-112295059D01*
X88451551Y-112316756D01*
X88451275Y-112338687D01*
X88447594Y-112354385D01*
X88419399Y-112402451D01*
X88371298Y-112466311D01*
X88294802Y-112555721D01*
X88276797Y-112583175D01*
X88272095Y-112607794D01*
X88278635Y-112631863D01*
X88253850Y-112659624D01*
X88079806Y-112559140D01*
X88089633Y-112525779D01*
X88103109Y-112498224D01*
X88123130Y-112470095D01*
X88162547Y-112423522D01*
X88203615Y-112379208D01*
X88230289Y-112351141D01*
X88252776Y-112320570D01*
X88262502Y-112296031D01*
X88263017Y-112275550D01*
X88255433Y-112256424D01*
X88237690Y-112235993D01*
X88205682Y-112213512D01*
X88023452Y-112108301D01*
X87777120Y-112384384D01*
X87614022Y-112290219D01*
X87886381Y-111985006D01*
X88133471Y-111985006D01*
X88324649Y-112095382D01*
X88363188Y-112114162D01*
X88396131Y-112123756D01*
X88424672Y-112125908D01*
X88451848Y-112119776D01*
X88482633Y-112101848D01*
X88518607Y-112067951D01*
X88546082Y-112030486D01*
X88555985Y-112003087D01*
X88554217Y-111982094D01*
X88543304Y-111962502D01*
X88521777Y-111940746D01*
X88485542Y-111916174D01*
X88293746Y-111805441D01*
X88133471Y-111985006D01*
X87886381Y-111985006D01*
X88240668Y-111587981D01*
X88658907Y-111829451D01*
G37*
G36*
X89180469Y-112130575D02*
G01*
X88553823Y-112832814D01*
X88390725Y-112738649D01*
X89017371Y-112036411D01*
X89180469Y-112130575D01*
G37*
G36*
X85010115Y-112532761D02*
G01*
X84851015Y-112440904D01*
X85112409Y-111803948D01*
X85273413Y-111896904D01*
X85062676Y-112342914D01*
X85512135Y-112034730D01*
X85673472Y-112127878D01*
X85010115Y-112532761D01*
G37*
G36*
X86026873Y-112087241D02*
G01*
X86084138Y-112102972D01*
X86143432Y-112131171D01*
X86190697Y-112163312D01*
X86224714Y-112196351D01*
X86247798Y-112230452D01*
X86262171Y-112268565D01*
X86266679Y-112309172D01*
X86260991Y-112353559D01*
X86238580Y-112419965D01*
X86200386Y-112491614D01*
X86150308Y-112562934D01*
X86079155Y-112648286D01*
X86010116Y-112720451D01*
X85946104Y-112777511D01*
X85878760Y-112826063D01*
X85807579Y-112865439D01*
X85757624Y-112884721D01*
X85707514Y-112895194D01*
X85656619Y-112897199D01*
X85606137Y-112890654D01*
X85555158Y-112875125D01*
X85503046Y-112849844D01*
X85455323Y-112817139D01*
X85421298Y-112783265D01*
X85398561Y-112748019D01*
X85384762Y-112708722D01*
X85380849Y-112667427D01*
X85381484Y-112662898D01*
X85561165Y-112662898D01*
X85561674Y-112682791D01*
X85569075Y-112701092D01*
X85583062Y-112718124D01*
X85605267Y-112734230D01*
X85641951Y-112748817D01*
X85678892Y-112750910D01*
X85703098Y-112744972D01*
X85735914Y-112729409D01*
X85780067Y-112700306D01*
X85844383Y-112645689D01*
X85929827Y-112556869D01*
X86010251Y-112459611D01*
X86054998Y-112392046D01*
X86075237Y-112346448D01*
X86081465Y-112310933D01*
X86077680Y-112283576D01*
X86065375Y-112261806D01*
X86043635Y-112244123D01*
X86014045Y-112231891D01*
X85982945Y-112228354D01*
X85949131Y-112233674D01*
X85911286Y-112249253D01*
X85864885Y-112280047D01*
X85800297Y-112336728D01*
X85712211Y-112429197D01*
X85633443Y-112524261D01*
X85589913Y-112589696D01*
X85569088Y-112633263D01*
X85561165Y-112662898D01*
X85381484Y-112662898D01*
X85387088Y-112622922D01*
X85409873Y-112556779D01*
X85446383Y-112488236D01*
X85493709Y-112420599D01*
X85559431Y-112341561D01*
X85643065Y-112255205D01*
X85720104Y-112189338D01*
X85791306Y-112140968D01*
X85857502Y-112107533D01*
X85914561Y-112089475D01*
X85970684Y-112082859D01*
X86026873Y-112087241D01*
G37*
G36*
X86178472Y-112992068D02*
G01*
X86051716Y-113134129D01*
X85888666Y-113039992D01*
X86015421Y-112897931D01*
X86178472Y-112992068D01*
G37*
G36*
X87242488Y-112786017D02*
G01*
X87132468Y-112909312D01*
X86819788Y-112728786D01*
X86674319Y-112851603D01*
X86737260Y-112851134D01*
X86792287Y-112861896D01*
X86841049Y-112883203D01*
X86889327Y-112918010D01*
X86922711Y-112956762D01*
X86943542Y-113000053D01*
X86952657Y-113049296D01*
X86949890Y-113099342D01*
X86935222Y-113150672D01*
X86907169Y-113204476D01*
X86863235Y-113261773D01*
X86810657Y-113312324D01*
X86754347Y-113351004D01*
X86693749Y-113378812D01*
X86628017Y-113396167D01*
X86560213Y-113402342D01*
X86495113Y-113396719D01*
X86431689Y-113379412D01*
X86369032Y-113349821D01*
X86316615Y-113313625D01*
X86278827Y-113275277D01*
X86253254Y-113234540D01*
X86238444Y-113190664D01*
X86234506Y-113144587D01*
X86242198Y-113098904D01*
X86262298Y-113052279D01*
X86296896Y-113003584D01*
X86447096Y-113090302D01*
X86424267Y-113127053D01*
X86417083Y-113157474D01*
X86421999Y-113184289D01*
X86439370Y-113209847D01*
X86473348Y-113235416D01*
X86511588Y-113251628D01*
X86550813Y-113257032D01*
X86592343Y-113251767D01*
X86632038Y-113236918D01*
X86670636Y-113212202D01*
X86708687Y-113176099D01*
X86741007Y-113132790D01*
X86757839Y-113095074D01*
X86762605Y-113061279D01*
X86756198Y-113028808D01*
X86738122Y-113000746D01*
X86705987Y-112975795D01*
X86669784Y-112959749D01*
X86635422Y-112953701D01*
X86601789Y-112956730D01*
X86567774Y-112969099D01*
X86430376Y-112889772D01*
X86835338Y-112550949D01*
X87242488Y-112786017D01*
G37*
D11*
G36*
X87310938Y-118822455D02*
G01*
X86685300Y-118822455D01*
X86685300Y-118616108D01*
X86763078Y-118616108D01*
X86763078Y-118709115D01*
X86813642Y-118724850D01*
X86861343Y-118735787D01*
X86908681Y-118742494D01*
X86953881Y-118744677D01*
X87021675Y-118740468D01*
X87077405Y-118728797D01*
X87123103Y-118710741D01*
X87160455Y-118686846D01*
X87191926Y-118655375D01*
X87214359Y-118618458D01*
X87228262Y-118575009D01*
X87233160Y-118523399D01*
X87228607Y-118478910D01*
X87215552Y-118440803D01*
X87194179Y-118407738D01*
X87165521Y-118380584D01*
X87129887Y-118360014D01*
X87085870Y-118346061D01*
X87125716Y-118332127D01*
X87157453Y-118313152D01*
X87182425Y-118289256D01*
X87201089Y-118260325D01*
X87212454Y-118227230D01*
X87216405Y-118188854D01*
X87212218Y-118147535D01*
X87200183Y-118111915D01*
X87180455Y-118080804D01*
X87152334Y-118053445D01*
X87119360Y-118032501D01*
X87080179Y-118016876D01*
X87033626Y-118006907D01*
X86978287Y-118003351D01*
X86935127Y-118005168D01*
X86887673Y-118010874D01*
X86838974Y-118020040D01*
X86784620Y-118033442D01*
X86784620Y-118118243D01*
X86838250Y-118103268D01*
X86884552Y-118093410D01*
X86929378Y-118087338D01*
X86969653Y-118085417D01*
X87017350Y-118089184D01*
X87053741Y-118099356D01*
X87081296Y-118114824D01*
X87102727Y-118136946D01*
X87115689Y-118164507D01*
X87120277Y-118199240D01*
X87115822Y-118233063D01*
X87103251Y-118259836D01*
X87082493Y-118281263D01*
X87055802Y-118296205D01*
X87020303Y-118306067D01*
X86973499Y-118309729D01*
X86886476Y-118309729D01*
X86886476Y-118389060D01*
X86969653Y-118389060D01*
X87021160Y-118393508D01*
X87061405Y-118405691D01*
X87092794Y-118424579D01*
X87112021Y-118443870D01*
X87125666Y-118466239D01*
X87134080Y-118492298D01*
X87137032Y-118522972D01*
X87133811Y-118556255D01*
X87124702Y-118583978D01*
X87110037Y-118607274D01*
X87089460Y-118626879D01*
X87055815Y-118645595D01*
X87010757Y-118657993D01*
X86951017Y-118662612D01*
X86899604Y-118659643D01*
X86851042Y-118650900D01*
X86804835Y-118636197D01*
X86763078Y-118616108D01*
X86685300Y-118616108D01*
X86685300Y-117925573D01*
X87310938Y-117925573D01*
X87310938Y-118822455D01*
G37*
G36*
X117203369Y-107529187D02*
G01*
X117203369Y-107338299D01*
X117045563Y-107338299D01*
X117045563Y-107258969D01*
X117298984Y-107258969D01*
X117298984Y-107564407D01*
X117260539Y-107588625D01*
X117219495Y-107608595D01*
X117175586Y-107624374D01*
X117106635Y-107639498D01*
X117031672Y-107644677D01*
X116964234Y-107640310D01*
X116905520Y-107627875D01*
X116854228Y-107608056D01*
X116809280Y-107581099D01*
X116769874Y-107546797D01*
X116737088Y-107506366D01*
X116711104Y-107459911D01*
X116691865Y-107406543D01*
X116679731Y-107345116D01*
X116675456Y-107274271D01*
X116679736Y-107203190D01*
X116691880Y-107141606D01*
X116711126Y-107088146D01*
X116737107Y-107041654D01*
X116769874Y-107001232D01*
X116809279Y-106966931D01*
X116854230Y-106939974D01*
X116905530Y-106920155D01*
X116964257Y-106907718D01*
X117031715Y-106903351D01*
X117100328Y-106907761D01*
X117164388Y-106920705D01*
X117225068Y-106942230D01*
X117280348Y-106971739D01*
X117280348Y-107075689D01*
X117243311Y-107046992D01*
X117205429Y-107023907D01*
X117166525Y-107006061D01*
X117125821Y-106993107D01*
X117083701Y-106985309D01*
X117039836Y-106982681D01*
X116986519Y-106986066D01*
X116941343Y-106995585D01*
X116903032Y-107010547D01*
X116870530Y-107030639D01*
X116843049Y-107055942D01*
X116815975Y-107093997D01*
X116795475Y-107141602D01*
X116782151Y-107200838D01*
X116777311Y-107274271D01*
X116782144Y-107347417D01*
X116795458Y-107406489D01*
X116815956Y-107454027D01*
X116843049Y-107492086D01*
X116870547Y-107517392D01*
X116903060Y-107537485D01*
X116941373Y-107552446D01*
X116986541Y-107561964D01*
X117039836Y-107565347D01*
X117089552Y-107563017D01*
X117131134Y-107556542D01*
X117169746Y-107545124D01*
X117203369Y-107529187D01*
G37*
G36*
X102450866Y-87923931D02*
G01*
X102520491Y-87936393D01*
X102577728Y-87955523D01*
X102624527Y-87980436D01*
X102662507Y-88010704D01*
X102694684Y-88048722D01*
X102720476Y-88094718D01*
X102739876Y-88150033D01*
X102752337Y-88216438D01*
X102756802Y-88296047D01*
X102752312Y-88376095D01*
X102739786Y-88442832D01*
X102720289Y-88498393D01*
X102694375Y-88544565D01*
X102662050Y-88582700D01*
X102623866Y-88613097D01*
X102576971Y-88638082D01*
X102519783Y-88657240D01*
X102450393Y-88669703D01*
X102366626Y-88674200D01*
X102173843Y-88674200D01*
X102173843Y-88590336D01*
X102267681Y-88590336D01*
X102380993Y-88590336D01*
X102440639Y-88586885D01*
X102489991Y-88577315D01*
X102530653Y-88562569D01*
X102564007Y-88543248D01*
X102591173Y-88519577D01*
X102613604Y-88490512D01*
X102631818Y-88454930D01*
X102645665Y-88411675D01*
X102654629Y-88359283D01*
X102657856Y-88296047D01*
X102654635Y-88233286D01*
X102645683Y-88181242D01*
X102631845Y-88138229D01*
X102613629Y-88102804D01*
X102591173Y-88073827D01*
X102564020Y-88050240D01*
X102530673Y-88030982D01*
X102490012Y-88016279D01*
X102440653Y-88006735D01*
X102380993Y-88003294D01*
X102267681Y-88003294D01*
X102267681Y-88590336D01*
X102173843Y-88590336D01*
X102173843Y-87919430D01*
X102366626Y-87919430D01*
X102450866Y-87923931D01*
G37*
G36*
X103681771Y-88566569D02*
G01*
X103681771Y-88364773D01*
X103528475Y-88364773D01*
X103528475Y-88280910D01*
X103774654Y-88280910D01*
X103774654Y-88603801D01*
X103737309Y-88629403D01*
X103697437Y-88650515D01*
X103654783Y-88667196D01*
X103587802Y-88683183D01*
X103514980Y-88688659D01*
X103449469Y-88684042D01*
X103392432Y-88670896D01*
X103342606Y-88649945D01*
X103298942Y-88621448D01*
X103260662Y-88585185D01*
X103228813Y-88542444D01*
X103203571Y-88493334D01*
X103184882Y-88436917D01*
X103173094Y-88371979D01*
X103168942Y-88297086D01*
X103173099Y-88221944D01*
X103184897Y-88156840D01*
X103203592Y-88100326D01*
X103228831Y-88051177D01*
X103260662Y-88008445D01*
X103298941Y-87972184D01*
X103342608Y-87943687D01*
X103392442Y-87922735D01*
X103449491Y-87909588D01*
X103515022Y-87904971D01*
X103581674Y-87909633D01*
X103643904Y-87923316D01*
X103702850Y-87946072D01*
X103756551Y-87977267D01*
X103756551Y-88087157D01*
X103720572Y-88056820D01*
X103683772Y-88032416D01*
X103645980Y-88013551D01*
X103606439Y-87999856D01*
X103565523Y-87991613D01*
X103522911Y-87988835D01*
X103471118Y-87992412D01*
X103427232Y-88002475D01*
X103390016Y-88018293D01*
X103358442Y-88039533D01*
X103331747Y-88066281D01*
X103305446Y-88106511D01*
X103285532Y-88156836D01*
X103272588Y-88219457D01*
X103267887Y-88297086D01*
X103272582Y-88374412D01*
X103285516Y-88436860D01*
X103305428Y-88487114D01*
X103331747Y-88527348D01*
X103358459Y-88554100D01*
X103390043Y-88575341D01*
X103427261Y-88591158D01*
X103471138Y-88601219D01*
X103522911Y-88604795D01*
X103571207Y-88602333D01*
X103611600Y-88595487D01*
X103649110Y-88583417D01*
X103681771Y-88566569D01*
G37*
G36*
X104767885Y-87977267D02*
G01*
X104767885Y-88084265D01*
X104734963Y-88054454D01*
X104701346Y-88030707D01*
X104666864Y-88012557D01*
X104630554Y-87999435D01*
X104592660Y-87991513D01*
X104552846Y-87988835D01*
X104504976Y-87992387D01*
X104463776Y-88002465D01*
X104428197Y-88018482D01*
X104397385Y-88040262D01*
X104370734Y-88068044D01*
X104344577Y-88109097D01*
X104324885Y-88159574D01*
X104312170Y-88221433D01*
X104307580Y-88297086D01*
X104312164Y-88372438D01*
X104324869Y-88434123D01*
X104344559Y-88484528D01*
X104370734Y-88525586D01*
X104397385Y-88553368D01*
X104428197Y-88575148D01*
X104463776Y-88591165D01*
X104504976Y-88601243D01*
X104552846Y-88604795D01*
X104592660Y-88602117D01*
X104630554Y-88594195D01*
X104666864Y-88581073D01*
X104701346Y-88562923D01*
X104734963Y-88539176D01*
X104767885Y-88509365D01*
X104767885Y-88616363D01*
X104716984Y-88648098D01*
X104663584Y-88670585D01*
X104607448Y-88684069D01*
X104547241Y-88688659D01*
X104484086Y-88684034D01*
X104428782Y-88670819D01*
X104380137Y-88649661D01*
X104337177Y-88620727D01*
X104299193Y-88583694D01*
X104267645Y-88540365D01*
X104242697Y-88491026D01*
X104224279Y-88434812D01*
X104212701Y-88370605D01*
X104208635Y-88297086D01*
X104212706Y-88223318D01*
X104224294Y-88158949D01*
X104242720Y-88102647D01*
X104267665Y-88053283D01*
X104299193Y-88009981D01*
X104337179Y-87972930D01*
X104380141Y-87943984D01*
X104428785Y-87922818D01*
X104484088Y-87909598D01*
X104547241Y-87904971D01*
X104608250Y-87909577D01*
X104664539Y-87923045D01*
X104717786Y-87945576D01*
X104767885Y-87977267D01*
G37*
G36*
X82802957Y-101938913D02*
G01*
X82802957Y-102031921D01*
X82748265Y-102009808D01*
X82699178Y-101994906D01*
X82650654Y-101985661D01*
X82604974Y-101982681D01*
X82553053Y-101986579D01*
X82513350Y-101997096D01*
X82483243Y-102013028D01*
X82459526Y-102036033D01*
X82445406Y-102064233D01*
X82440458Y-102099326D01*
X82443934Y-102129317D01*
X82453540Y-102152389D01*
X82468924Y-102170193D01*
X82489589Y-102183236D01*
X82523813Y-102196331D01*
X82576764Y-102208832D01*
X82635107Y-102220842D01*
X82689611Y-102234374D01*
X82733226Y-102251325D01*
X82767711Y-102271152D01*
X82794537Y-102293590D01*
X82816555Y-102321078D01*
X82832502Y-102352876D01*
X82842454Y-102389818D01*
X82845956Y-102433016D01*
X82841188Y-102484094D01*
X82827765Y-102526360D01*
X82806287Y-102561582D01*
X82776371Y-102590950D01*
X82740783Y-102612897D01*
X82696259Y-102629698D01*
X82640900Y-102640682D01*
X82572447Y-102644677D01*
X82521106Y-102641843D01*
X82464607Y-102632923D01*
X82407307Y-102618611D01*
X82346253Y-102598173D01*
X82346253Y-102499695D01*
X82405444Y-102528672D01*
X82461487Y-102548806D01*
X82517976Y-102561288D01*
X82572447Y-102565347D01*
X82626842Y-102561179D01*
X82668485Y-102549919D01*
X82700119Y-102532820D01*
X82719758Y-102514843D01*
X82733594Y-102493835D01*
X82742098Y-102469202D01*
X82745084Y-102439983D01*
X82741217Y-102406282D01*
X82730373Y-102379359D01*
X82712813Y-102357661D01*
X82689505Y-102341073D01*
X82655284Y-102326017D01*
X82606897Y-102313166D01*
X82548083Y-102301626D01*
X82492901Y-102287884D01*
X82449764Y-102271763D01*
X82416614Y-102253801D01*
X82391689Y-102234306D01*
X82371089Y-102209936D01*
X82356117Y-102181193D01*
X82346719Y-102147208D01*
X82343390Y-102106806D01*
X82347823Y-102060712D01*
X82360487Y-102021336D01*
X82381069Y-101987330D01*
X82410111Y-101957805D01*
X82444563Y-101935056D01*
X82485776Y-101918078D01*
X82535053Y-101907229D01*
X82593989Y-101903351D01*
X82644333Y-101905545D01*
X82696314Y-101912242D01*
X82748513Y-101923221D01*
X82802957Y-101938913D01*
G37*
G36*
X83350959Y-102018243D02*
G01*
X83350959Y-102283588D01*
X83617287Y-102283588D01*
X83617287Y-102365654D01*
X83350959Y-102365654D01*
X83350959Y-102631000D01*
X83270603Y-102631000D01*
X83270603Y-102365654D01*
X83004274Y-102365654D01*
X83004274Y-102283588D01*
X83270603Y-102283588D01*
X83270603Y-102018243D01*
X83350959Y-102018243D01*
G37*
G36*
X81608600Y-113132067D02*
G01*
X81364754Y-113132067D01*
X81608600Y-112751146D01*
X81608600Y-113132067D01*
G37*
G36*
X81884361Y-113458778D02*
G01*
X81208543Y-113458778D01*
X81208543Y-113118347D01*
X81286321Y-113118347D01*
X81286321Y-113132067D01*
X81286321Y-113211397D01*
X81608600Y-113211397D01*
X81608600Y-113381000D01*
X81704728Y-113381000D01*
X81704728Y-113211397D01*
X81806583Y-113211397D01*
X81806583Y-113132067D01*
X81704728Y-113132067D01*
X81704728Y-112667029D01*
X81583253Y-112667029D01*
X81286321Y-113118347D01*
X81208543Y-113118347D01*
X81208543Y-112589251D01*
X81884361Y-112589251D01*
X81884361Y-113458778D01*
G37*
D13*
%TO.C,IC2*%
X90625000Y-99700000D02*
G75*
G02*
X90375000Y-99700000I-125000J0D01*
G01*
X90375000Y-99700000D02*
G75*
G02*
X90625000Y-99700000I125000J0D01*
G01*
%TO.C,IC4*%
X91275000Y-103950000D02*
G75*
G02*
X91025000Y-103950000I-125000J0D01*
G01*
X91025000Y-103950000D02*
G75*
G02*
X91275000Y-103950000I125000J0D01*
G01*
D14*
%TO.C,U3*%
X87150000Y-94200000D02*
X88050000Y-94200000D01*
X91850000Y-94200000D02*
X92750000Y-94200000D01*
X92750000Y-88600000D02*
X91850000Y-88600000D01*
X87450000Y-88800000D02*
X87150000Y-88500000D01*
X87750000Y-88500000D01*
X87450000Y-88800000D01*
G36*
X87450000Y-88800000D02*
G01*
X87150000Y-88500000D01*
X87750000Y-88500000D01*
X87450000Y-88800000D01*
G37*
D15*
%TO.C,U1*%
X108950000Y-97700000D02*
X108950000Y-98150000D01*
X108500000Y-105000000D02*
X109237500Y-105000000D01*
X108500000Y-97700000D02*
X108950000Y-97700000D01*
X102100000Y-105000000D02*
X101650000Y-105000000D01*
X102100000Y-97700000D02*
X101650000Y-97700000D01*
X101650000Y-105000000D02*
X101650000Y-104550000D01*
X101650000Y-97700000D02*
X101650000Y-98150000D01*
D13*
%TO.C,IC3*%
X94175000Y-103825000D02*
G75*
G02*
X93925000Y-103825000I-125000J0D01*
G01*
X93925000Y-103825000D02*
G75*
G02*
X94175000Y-103825000I125000J0D01*
G01*
%TO.C,IC1*%
X93925000Y-98575000D02*
G75*
G02*
X93675000Y-98575000I-125000J0D01*
G01*
X93675000Y-98575000D02*
G75*
G02*
X93925000Y-98575000I125000J0D01*
G01*
D15*
%TO.C,C81*%
X114990000Y-88842164D02*
X114990000Y-89057836D01*
X115710000Y-88842164D02*
X115710000Y-89057836D01*
%TO.C,J6*%
X91040000Y-84285000D02*
X91040000Y-86785000D01*
X91040000Y-86785000D02*
X92090000Y-86785000D01*
X98090000Y-82315000D02*
X92210000Y-82315000D01*
X98210000Y-86785000D02*
X98210000Y-87775000D01*
X99260000Y-84285000D02*
X99260000Y-86785000D01*
X99260000Y-86785000D02*
X98210000Y-86785000D01*
%TO.C,R27*%
X112370000Y-105796359D02*
X112370000Y-106103641D01*
X113130000Y-105796359D02*
X113130000Y-106103641D01*
D14*
%TO.C,D6*%
X82352513Y-87109010D02*
X81044365Y-88417157D01*
X84190990Y-88947487D02*
X82352513Y-87109010D01*
X82564645Y-88593934D02*
X82493934Y-88664645D01*
X82352513Y-88452513D01*
X82564645Y-88593934D01*
G36*
X82564645Y-88593934D02*
G01*
X82493934Y-88664645D01*
X82352513Y-88452513D01*
X82564645Y-88593934D01*
G37*
D15*
%TO.C,C32*%
X85990000Y-89457836D02*
X85990000Y-89242164D01*
X86710000Y-89457836D02*
X86710000Y-89242164D01*
D14*
%TO.C,U9*%
X110900000Y-102450000D02*
X111500000Y-102450000D01*
X110900000Y-104650000D02*
X111500000Y-104650000D01*
X112100000Y-102450000D02*
X112700000Y-102450000D01*
X112700000Y-104850000D02*
X112300000Y-104850000D01*
X112500000Y-104650000D01*
X112700000Y-104850000D01*
G36*
X112700000Y-104850000D02*
G01*
X112300000Y-104850000D01*
X112500000Y-104650000D01*
X112700000Y-104850000D01*
G37*
%TO.C,D9*%
X117152513Y-90290990D02*
X118990990Y-88452513D01*
X118990990Y-88452513D02*
X117682843Y-87144365D01*
X117506066Y-88664645D02*
X117435355Y-88593934D01*
X117647487Y-88452513D01*
X117506066Y-88664645D01*
G36*
X117506066Y-88664645D02*
G01*
X117435355Y-88593934D01*
X117647487Y-88452513D01*
X117506066Y-88664645D01*
G37*
D15*
%TO.C,J1*%
X91020000Y-113822500D02*
X91020000Y-115742500D01*
X91020000Y-119457500D02*
X91020000Y-117752500D01*
X100180000Y-115742500D02*
X100180000Y-113822500D01*
X100180000Y-117752500D02*
X100180000Y-119457500D01*
X100180000Y-119457500D02*
X91020000Y-119457500D01*
%TO.C,C80*%
X108120000Y-109877836D02*
X108120000Y-109662164D01*
X108840000Y-109877836D02*
X108840000Y-109662164D01*
%TO.C,R5*%
X88370000Y-114696359D02*
X88370000Y-115003641D01*
X89130000Y-114696359D02*
X89130000Y-115003641D01*
D14*
%TO.C,D8*%
X111052513Y-84190990D02*
X112890990Y-82352513D01*
X112890990Y-82352513D02*
X111582843Y-81044365D01*
X111406066Y-82564645D02*
X111335355Y-82493934D01*
X111547487Y-82352513D01*
X111406066Y-82564645D01*
G36*
X111406066Y-82564645D02*
G01*
X111335355Y-82493934D01*
X111547487Y-82352513D01*
X111406066Y-82564645D01*
G37*
%TO.C,FL2*%
D16*
X93375000Y-102600000D02*
G75*
G02*
X93225000Y-102600000I-75000J0D01*
G01*
X93225000Y-102600000D02*
G75*
G02*
X93375000Y-102600000I75000J0D01*
G01*
D13*
%TO.C,IC6*%
X98175000Y-92350000D02*
G75*
G02*
X97925000Y-92350000I-125000J0D01*
G01*
X97925000Y-92350000D02*
G75*
G02*
X98175000Y-92350000I125000J0D01*
G01*
D15*
%TO.C,L6*%
X98990000Y-99949622D02*
X98990000Y-99150378D01*
X100110000Y-99949622D02*
X100110000Y-99150378D01*
%TO.C,R2*%
X105120000Y-106596359D02*
X105120000Y-106903641D01*
X105880000Y-106596359D02*
X105880000Y-106903641D01*
%TO.C,C18*%
X110942164Y-114990000D02*
X111157836Y-114990000D01*
X110942164Y-115710000D02*
X111157836Y-115710000D01*
%TO.C,D17*%
X90600000Y-109365000D02*
X92885000Y-109365000D01*
X92885000Y-109365000D02*
X92885000Y-110835000D01*
X92885000Y-110835000D02*
X90600000Y-110835000D01*
%TO.C,C13*%
X103407836Y-105440000D02*
X103192164Y-105440000D01*
X103407836Y-106160000D02*
X103192164Y-106160000D01*
%TO.C,R38*%
X97546359Y-106870000D02*
X97853641Y-106870000D01*
X97546359Y-107630000D02*
X97853641Y-107630000D01*
%TO.C,C67*%
X110307836Y-93940000D02*
X110092164Y-93940000D01*
X110307836Y-94660000D02*
X110092164Y-94660000D01*
%TO.C,L1*%
D14*
X105000000Y-109050000D02*
X101800000Y-109050000D01*
X101800000Y-107250000D01*
X105000000Y-107250000D01*
X105000000Y-109050000D01*
D16*
X105475000Y-108950000D02*
G75*
G02*
X105325000Y-108950000I-75000J0D01*
G01*
X105325000Y-108950000D02*
G75*
G02*
X105475000Y-108950000I75000J0D01*
G01*
D15*
%TO.C,U11*%
X87430000Y-108565000D02*
X87430000Y-108370000D01*
X87440000Y-110360000D02*
X87440000Y-109935000D01*
X87615000Y-110360000D02*
X87440000Y-110360000D01*
X89485000Y-108140000D02*
X89660000Y-108140000D01*
X89485000Y-110360000D02*
X89660000Y-110360000D01*
X89660000Y-108140000D02*
X89660000Y-108565000D01*
X89660000Y-110360000D02*
X89660000Y-109935000D01*
X87430000Y-108130000D02*
X87290000Y-107940000D01*
X87570000Y-107940000D01*
X87430000Y-108130000D01*
G36*
X87430000Y-108130000D02*
G01*
X87290000Y-107940000D01*
X87570000Y-107940000D01*
X87430000Y-108130000D01*
G37*
D14*
%TO.C,D7*%
X88452513Y-81009010D02*
X87144365Y-82317157D01*
X90290990Y-82847487D02*
X88452513Y-81009010D01*
X88664645Y-82493934D02*
X88593934Y-82564645D01*
X88452513Y-82352513D01*
X88664645Y-82493934D01*
G36*
X88664645Y-82493934D02*
G01*
X88593934Y-82564645D01*
X88452513Y-82352513D01*
X88664645Y-82493934D01*
G37*
D15*
%TO.C,U7*%
X107950000Y-87140000D02*
X109950000Y-87140000D01*
X107950000Y-89360000D02*
X109950000Y-89360000D01*
X107710000Y-87240000D02*
X107430000Y-87240000D01*
X107710000Y-86960000D01*
X107710000Y-87240000D01*
G36*
X107710000Y-87240000D02*
G01*
X107430000Y-87240000D01*
X107710000Y-86960000D01*
X107710000Y-87240000D01*
G37*
D14*
%TO.C,U2*%
X93200000Y-108000000D02*
X93920000Y-108000000D01*
X93200000Y-108220000D02*
X93200000Y-108000000D01*
X93200000Y-110700000D02*
X93200000Y-110480000D01*
X93920000Y-110700000D02*
X93200000Y-110700000D01*
X96200000Y-110700000D02*
X95680000Y-110700000D01*
X96400000Y-108000000D02*
X95680000Y-108000000D01*
X96400000Y-108000000D02*
X96400000Y-108220000D01*
X96400000Y-111060000D02*
X96400000Y-110700000D01*
X96760000Y-110700000D01*
X96400000Y-111060000D01*
G36*
X96400000Y-111060000D02*
G01*
X96400000Y-110700000D01*
X96760000Y-110700000D01*
X96400000Y-111060000D01*
G37*
D15*
%TO.C,R22*%
X107846359Y-110870000D02*
X108153641Y-110870000D01*
X107846359Y-111630000D02*
X108153641Y-111630000D01*
%TO.C,R31*%
X91553641Y-108320000D02*
X91246359Y-108320000D01*
X91553641Y-109080000D02*
X91246359Y-109080000D01*
%TO.C,Y1*%
X109150000Y-94000000D02*
X105150000Y-94000000D01*
X109150000Y-97300000D02*
X109150000Y-94000000D01*
%TO.C,J8*%
X100840000Y-84285000D02*
X100840000Y-86785000D01*
X100840000Y-86785000D02*
X101890000Y-86785000D01*
X104890000Y-82315000D02*
X102010000Y-82315000D01*
X105010000Y-86785000D02*
X105010000Y-87775000D01*
X106060000Y-84285000D02*
X106060000Y-86785000D01*
X106060000Y-86785000D02*
X105010000Y-86785000D01*
%TO.C,R32*%
X91946359Y-94620000D02*
X92253641Y-94620000D01*
X91946359Y-95380000D02*
X92253641Y-95380000D01*
%TO.C,C12*%
X103407836Y-106390000D02*
X103192164Y-106390000D01*
X103407836Y-107110000D02*
X103192164Y-107110000D01*
%TO.C,FL1*%
D16*
X93297792Y-96950000D02*
G75*
G02*
X93147792Y-96950000I-75000J0D01*
G01*
X93147792Y-96950000D02*
G75*
G02*
X93297792Y-96950000I75000J0D01*
G01*
D15*
%TO.C,C85*%
X107892164Y-108040000D02*
X108107836Y-108040000D01*
X107892164Y-108760000D02*
X108107836Y-108760000D01*
%TO.C,U4*%
X98877500Y-96950000D02*
X98877500Y-95650000D01*
X101197500Y-96950000D02*
X101197500Y-95900000D01*
X101477500Y-95540000D02*
X101197500Y-95540000D01*
X101197500Y-95260000D01*
X101477500Y-95540000D01*
G36*
X101477500Y-95540000D02*
G01*
X101197500Y-95540000D01*
X101197500Y-95260000D01*
X101477500Y-95540000D01*
G37*
%TO.C,J5*%
X113215000Y-91040000D02*
X113215000Y-92090000D01*
X113215000Y-100210000D02*
X112225000Y-100210000D01*
X113215000Y-101260000D02*
X113215000Y-100210000D01*
X115715000Y-91040000D02*
X113215000Y-91040000D01*
X115715000Y-101260000D02*
X113215000Y-101260000D01*
X117685000Y-100090000D02*
X117685000Y-92210000D01*
%TO.C,C52*%
X85640000Y-97392164D02*
X85640000Y-97607836D01*
X86360000Y-97392164D02*
X86360000Y-97607836D01*
%TO.C,C22*%
X95807836Y-106890000D02*
X95592164Y-106890000D01*
X95807836Y-107610000D02*
X95592164Y-107610000D01*
%TO.C,L7*%
X103077500Y-89240000D02*
X103077500Y-93760000D01*
X103077500Y-89240000D02*
X103227500Y-89240000D01*
X103077500Y-93760000D02*
X103227500Y-93760000D01*
X107597500Y-89240000D02*
X107447500Y-89240000D01*
X107597500Y-89240000D02*
X107597500Y-93760000D01*
X107597500Y-93760000D02*
X107447500Y-93760000D01*
%TO.C,C73*%
X111440000Y-106057836D02*
X111440000Y-105842164D01*
X112160000Y-106057836D02*
X112160000Y-105842164D01*
%TO.C,C19*%
X89340000Y-115207836D02*
X89340000Y-114992164D01*
X90060000Y-115207836D02*
X90060000Y-114992164D01*
D14*
%TO.C,D4*%
X87109010Y-117647487D02*
X88417157Y-118955635D01*
X88947487Y-115809010D02*
X87109010Y-117647487D01*
X88664645Y-117506066D02*
X88452513Y-117647487D01*
X88593934Y-117435355D01*
X88664645Y-117506066D01*
G36*
X88664645Y-117506066D02*
G01*
X88452513Y-117647487D01*
X88593934Y-117435355D01*
X88664645Y-117506066D01*
G37*
D15*
%TO.C,J3*%
X82700000Y-91400000D02*
X83500000Y-91400000D01*
X82700000Y-91600000D02*
X82700000Y-91400000D01*
X82700000Y-94400000D02*
X82700000Y-94200000D01*
X83500000Y-91400000D02*
X83500000Y-90900000D01*
X83500000Y-94400000D02*
X82700000Y-94400000D01*
X84900000Y-91400000D02*
X84900000Y-90900000D01*
X84900000Y-91400000D02*
X85500000Y-91400000D01*
X85500000Y-91400000D02*
X85700000Y-91600000D01*
X85700000Y-94200000D02*
X85700000Y-94400000D01*
X85700000Y-94400000D02*
X84900000Y-94400000D01*
%TO.C,R23*%
X110803641Y-113370000D02*
X110496359Y-113370000D01*
X110803641Y-114130000D02*
X110496359Y-114130000D01*
%TO.C,R3*%
X100870000Y-108253641D02*
X100870000Y-107946359D01*
X101630000Y-108253641D02*
X101630000Y-107946359D01*
%TO.C,J4*%
X83000000Y-105600000D02*
X83800000Y-105600000D01*
X83000000Y-105800000D02*
X83000000Y-105600000D01*
X83200000Y-108600000D02*
X83000000Y-108400000D01*
X83800000Y-108600000D02*
X83200000Y-108600000D01*
X83800000Y-108600000D02*
X83800000Y-109100000D01*
X85200000Y-105600000D02*
X86000000Y-105600000D01*
X85200000Y-108600000D02*
X85200000Y-109100000D01*
X86000000Y-105600000D02*
X86000000Y-105800000D01*
X86000000Y-108400000D02*
X86000000Y-108600000D01*
X86000000Y-108600000D02*
X85200000Y-108600000D01*
%TO.C,C79*%
X112109664Y-107090000D02*
X112325336Y-107090000D01*
X112109664Y-107810000D02*
X112325336Y-107810000D01*
D14*
%TO.C,D3*%
X109709010Y-117152513D02*
X111547487Y-118990990D01*
X111547487Y-118990990D02*
X112855635Y-117682843D01*
X111547487Y-117647487D02*
X111335355Y-117506066D01*
X111406066Y-117435355D01*
X111547487Y-117647487D01*
G36*
X111547487Y-117647487D02*
G01*
X111335355Y-117506066D01*
X111406066Y-117435355D01*
X111547487Y-117647487D01*
G37*
D15*
%TO.C,C51*%
X84707836Y-95440000D02*
X84492164Y-95440000D01*
X84707836Y-96160000D02*
X84492164Y-96160000D01*
%TO.C,C58*%
X85107836Y-103840000D02*
X84892164Y-103840000D01*
X85107836Y-104560000D02*
X84892164Y-104560000D01*
%TO.C,J2*%
X102690000Y-113215000D02*
X103740000Y-113215000D01*
X102690000Y-115715000D02*
X102690000Y-113215000D01*
X103740000Y-113215000D02*
X103740000Y-112225000D01*
X103860000Y-117685000D02*
X107740000Y-117685000D01*
X108910000Y-113215000D02*
X107860000Y-113215000D01*
X108910000Y-115715000D02*
X108910000Y-113215000D01*
%TO.C,R24*%
X110803641Y-112420000D02*
X110496359Y-112420000D01*
X110803641Y-113180000D02*
X110496359Y-113180000D01*
%TO.C,C48*%
X105590000Y-110242164D02*
X105590000Y-110457836D01*
X106310000Y-110242164D02*
X106310000Y-110457836D01*
%TO.C,U8*%
X98700000Y-107890000D02*
X97900000Y-107890000D01*
X98700000Y-107890000D02*
X99500000Y-107890000D01*
X98700000Y-111010000D02*
X97900000Y-111010000D01*
X98700000Y-111010000D02*
X99500000Y-111010000D01*
X100240000Y-111290000D02*
X99760000Y-111290000D01*
X100000000Y-110960000D01*
X100240000Y-111290000D01*
G36*
X100240000Y-111290000D02*
G01*
X99760000Y-111290000D01*
X100000000Y-110960000D01*
X100240000Y-111290000D01*
G37*
D14*
%TO.C,D1*%
X98790000Y-105010000D02*
X98790000Y-107610000D01*
X98790000Y-107610000D02*
X100640000Y-107610000D01*
X99740000Y-106660000D02*
X99690000Y-106410000D01*
X99790000Y-106410000D01*
X99740000Y-106660000D01*
G36*
X99740000Y-106660000D02*
G01*
X99690000Y-106410000D01*
X99790000Y-106410000D01*
X99740000Y-106660000D01*
G37*
D15*
%TO.C,U6*%
X112512500Y-87827500D02*
X114512500Y-87827500D01*
X112512500Y-90047500D02*
X114512500Y-90047500D01*
X112272500Y-87927500D02*
X111992500Y-87927500D01*
X112272500Y-87647500D01*
X112272500Y-87927500D01*
G36*
X112272500Y-87927500D02*
G01*
X111992500Y-87927500D01*
X112272500Y-87647500D01*
X112272500Y-87927500D01*
G37*
%TO.C,R21*%
X107120000Y-109953641D02*
X107120000Y-109646359D01*
X107880000Y-109953641D02*
X107880000Y-109646359D01*
%TO.C,C16*%
X99632164Y-104150000D02*
X99847836Y-104150000D01*
X99632164Y-104870000D02*
X99847836Y-104870000D01*
D13*
%TO.C,IC5*%
X107625000Y-93550000D02*
G75*
G02*
X107375000Y-93550000I-125000J0D01*
G01*
X107375000Y-93550000D02*
G75*
G02*
X107625000Y-93550000I125000J0D01*
G01*
D15*
%TO.C,D13*%
X101540000Y-95050000D02*
X101540000Y-96750000D01*
X101540000Y-95050000D02*
X104200000Y-95050000D01*
X101540000Y-96750000D02*
X104200000Y-96750000D01*
%TO.C,C46*%
X84219190Y-97428307D02*
X84371693Y-97580810D01*
X84728307Y-96919190D02*
X84880810Y-97071693D01*
%TO.C,C83*%
X110390000Y-88192164D02*
X110390000Y-88407836D01*
X111110000Y-88192164D02*
X111110000Y-88407836D01*
%TO.C,Y4*%
X109050000Y-108000000D02*
X109050000Y-111300000D01*
X109050000Y-111300000D02*
X113050000Y-111300000D01*
%TO.C,C11*%
X100890000Y-106357836D02*
X100890000Y-106142164D01*
X101610000Y-106357836D02*
X101610000Y-106142164D01*
%TO.C,C69*%
X101461252Y-92840000D02*
X100038748Y-92840000D01*
X101461252Y-94660000D02*
X100038748Y-94660000D01*
%TO.C,Y3*%
X98400000Y-104250000D02*
X95700000Y-104250000D01*
X98400000Y-106550000D02*
X98400000Y-104250000D01*
%TO.C,C57*%
X84869190Y-102571693D02*
X85021693Y-102419190D01*
X85378307Y-103080810D02*
X85530810Y-102928307D01*
%TO.C,L8*%
X93640000Y-88490000D02*
X93640000Y-93010000D01*
X93640000Y-88490000D02*
X93790000Y-88490000D01*
X93640000Y-93010000D02*
X93790000Y-93010000D01*
X98160000Y-88490000D02*
X98010000Y-88490000D01*
X98160000Y-88490000D02*
X98160000Y-93010000D01*
X98160000Y-93010000D02*
X98010000Y-93010000D01*
D14*
%TO.C,D2*%
X115809010Y-111052513D02*
X117647487Y-112890990D01*
X117647487Y-112890990D02*
X118955635Y-111582843D01*
X117647487Y-111547487D02*
X117435355Y-111406066D01*
X117506066Y-111335355D01*
X117647487Y-111547487D01*
G36*
X117647487Y-111547487D02*
G01*
X117435355Y-111406066D01*
X117506066Y-111335355D01*
X117647487Y-111547487D01*
G37*
D15*
%TO.C,C76*%
X110542164Y-111490000D02*
X110757836Y-111490000D01*
X110542164Y-112210000D02*
X110757836Y-112210000D01*
%TO.C,R1*%
X106070000Y-106596359D02*
X106070000Y-106903641D01*
X106830000Y-106596359D02*
X106830000Y-106903641D01*
D14*
%TO.C,D5*%
X81009010Y-111547487D02*
X82317157Y-112855635D01*
X82847487Y-109709010D02*
X81009010Y-111547487D01*
X82564645Y-111406066D02*
X82352513Y-111547487D01*
X82493934Y-111335355D01*
X82564645Y-111406066D01*
G36*
X82564645Y-111406066D02*
G01*
X82352513Y-111547487D01*
X82493934Y-111335355D01*
X82564645Y-111406066D01*
G37*
D15*
%TO.C,D12*%
X87150000Y-104640000D02*
X87150000Y-107300000D01*
X88850000Y-104640000D02*
X87150000Y-104640000D01*
X88850000Y-104640000D02*
X88850000Y-107300000D01*
%TO.C,Q1*%
X90900000Y-104740000D02*
X90250000Y-104740000D01*
X90900000Y-104740000D02*
X91550000Y-104740000D01*
X90900000Y-107860000D02*
X90250000Y-107860000D01*
X90900000Y-107860000D02*
X91550000Y-107860000D01*
X92302500Y-108140000D02*
X91822500Y-108140000D01*
X92062500Y-107810000D01*
X92302500Y-108140000D01*
G36*
X92302500Y-108140000D02*
G01*
X91822500Y-108140000D01*
X92062500Y-107810000D01*
X92302500Y-108140000D01*
G37*
%TO.C,C59*%
X86290000Y-102807836D02*
X86290000Y-102592164D01*
X87010000Y-102807836D02*
X87010000Y-102592164D01*
%TO.C,R6*%
X101020000Y-116446359D02*
X101020000Y-116753641D01*
X101780000Y-116446359D02*
X101780000Y-116753641D01*
%TO.C,C20*%
X88190000Y-84992164D02*
X88190000Y-85207836D01*
X88910000Y-84992164D02*
X88910000Y-85207836D01*
%TO.C,R26*%
X110770000Y-100746359D02*
X110770000Y-101053641D01*
X111530000Y-100746359D02*
X111530000Y-101053641D01*
%TO.C,C21*%
X93742164Y-106890000D02*
X93957836Y-106890000D01*
X93742164Y-107610000D02*
X93957836Y-107610000D01*
%TO.C,C54*%
X91490000Y-103757836D02*
X91490000Y-103542164D01*
X92210000Y-103757836D02*
X92210000Y-103542164D01*
%TO.C,C82*%
X111340000Y-88892164D02*
X111340000Y-89107836D01*
X112060000Y-88892164D02*
X112060000Y-89107836D01*
%TO.C,U10*%
X110650000Y-105515000D02*
X107650000Y-105515000D01*
X110650000Y-107785000D02*
X107650000Y-107785000D01*
X111200000Y-107980000D02*
X111200000Y-107700000D01*
X111480000Y-107700000D01*
X111200000Y-107980000D01*
G36*
X111200000Y-107980000D02*
G01*
X111200000Y-107700000D01*
X111480000Y-107700000D01*
X111200000Y-107980000D01*
G37*
%TD*%
M02*
