%TF.GenerationSoftware,KiCad,Pcbnew,9.0.0-9.0.0-2~ubuntu24.04.1*%
%TF.CreationDate,2025-03-27T18:59:32+01:00*%
%TF.ProjectId,Kolibri v0.5,4b6f6c69-6272-4692-9076-302e352e6b69,rev?*%
%TF.SameCoordinates,Original*%
%TF.FileFunction,Legend,Bot*%
%TF.FilePolarity,Positive*%
%FSLAX46Y46*%
G04 Gerber Fmt 4.6, Leading zero omitted, Abs format (unit mm)*
G04 Created by KiCad (PCBNEW 9.0.0-9.0.0-2~ubuntu24.04.1) date 2025-03-27 18:59:32*
%MOMM*%
%LPD*%
G01*
G04 APERTURE LIST*
%ADD10C,0.070000*%
%ADD11C,0.120000*%
%ADD12C,0.100000*%
G04 APERTURE END LIST*
G36*
X93800000Y-106750000D02*
G01*
X98800000Y-106750000D01*
X98800000Y-111750000D01*
X93800000Y-111750000D01*
X93800000Y-106750000D01*
G37*
D10*
G36*
X117686640Y-105048934D02*
G01*
X117528835Y-105048934D01*
X117528835Y-104504565D01*
X117700532Y-104540127D01*
X117700532Y-104452591D01*
X117529818Y-104417029D01*
X117433220Y-104417029D01*
X117433220Y-105048934D01*
X117275415Y-105048934D01*
X117275415Y-105131000D01*
X117686640Y-105131000D01*
X117686640Y-105048934D01*
G37*
G36*
X116920873Y-104407387D02*
G01*
X116961777Y-104418953D01*
X116997649Y-104437694D01*
X117029313Y-104463876D01*
X117057214Y-104498368D01*
X117082875Y-104546305D01*
X117102733Y-104606499D01*
X117115795Y-104681503D01*
X117120559Y-104774271D01*
X117115801Y-104866747D01*
X117102747Y-104941595D01*
X117082891Y-105001738D01*
X117057214Y-105049703D01*
X117029315Y-105084177D01*
X116997653Y-105110347D01*
X116961781Y-105129081D01*
X116920875Y-105140642D01*
X116873806Y-105144677D01*
X116826736Y-105140642D01*
X116785836Y-105129079D01*
X116749973Y-105110346D01*
X116718323Y-105084176D01*
X116690441Y-105049703D01*
X116664746Y-105001735D01*
X116644876Y-104941591D01*
X116631815Y-104866744D01*
X116627054Y-104774271D01*
X116723652Y-104774271D01*
X116726590Y-104850697D01*
X116734543Y-104911175D01*
X116746379Y-104958368D01*
X116761222Y-104994651D01*
X116783260Y-105027856D01*
X116808874Y-105050204D01*
X116838606Y-105063488D01*
X116873806Y-105068083D01*
X116908759Y-105063501D01*
X116938348Y-105050237D01*
X116963906Y-105027892D01*
X116985963Y-104994651D01*
X117000788Y-104958370D01*
X117012611Y-104911179D01*
X117020555Y-104850700D01*
X117023490Y-104774271D01*
X117020551Y-104697548D01*
X117012600Y-104636915D01*
X117000777Y-104589674D01*
X116985963Y-104553420D01*
X116963903Y-104520157D01*
X116938344Y-104497799D01*
X116908756Y-104484530D01*
X116873806Y-104479946D01*
X116838609Y-104484542D01*
X116808878Y-104497832D01*
X116783263Y-104520193D01*
X116761222Y-104553420D01*
X116746391Y-104589676D01*
X116734554Y-104636918D01*
X116726595Y-104697550D01*
X116723652Y-104774271D01*
X116627054Y-104774271D01*
X116631820Y-104681506D01*
X116644891Y-104606503D01*
X116664762Y-104546308D01*
X116690441Y-104498368D01*
X116718326Y-104463877D01*
X116749977Y-104437695D01*
X116785840Y-104418955D01*
X116826739Y-104407388D01*
X116873806Y-104403351D01*
X116920873Y-104407387D01*
G37*
G36*
X116281865Y-105131000D02*
G01*
X116554434Y-104417029D01*
X116453519Y-104417029D01*
X116227369Y-105018159D01*
X116000705Y-104417029D01*
X115900260Y-104417029D01*
X116172359Y-105131000D01*
X116281865Y-105131000D01*
G37*
G36*
X88101539Y-103246934D02*
G01*
X87943734Y-103246934D01*
X87943734Y-102702565D01*
X88115431Y-102738127D01*
X88115431Y-102650591D01*
X87944717Y-102615029D01*
X87848119Y-102615029D01*
X87848119Y-103246934D01*
X87690314Y-103246934D01*
X87690314Y-103329000D01*
X88101539Y-103329000D01*
X88101539Y-103246934D01*
G37*
G36*
X87335772Y-102605387D02*
G01*
X87376676Y-102616953D01*
X87412548Y-102635694D01*
X87444212Y-102661876D01*
X87472113Y-102696368D01*
X87497774Y-102744305D01*
X87517632Y-102804499D01*
X87530694Y-102879503D01*
X87535458Y-102972271D01*
X87530700Y-103064747D01*
X87517646Y-103139595D01*
X87497790Y-103199738D01*
X87472113Y-103247703D01*
X87444214Y-103282177D01*
X87412552Y-103308347D01*
X87376680Y-103327081D01*
X87335774Y-103338642D01*
X87288705Y-103342677D01*
X87241635Y-103338642D01*
X87200735Y-103327079D01*
X87164872Y-103308346D01*
X87133222Y-103282176D01*
X87105340Y-103247703D01*
X87079645Y-103199735D01*
X87059775Y-103139591D01*
X87046714Y-103064744D01*
X87041953Y-102972271D01*
X87138551Y-102972271D01*
X87141489Y-103048697D01*
X87149442Y-103109175D01*
X87161278Y-103156368D01*
X87176121Y-103192651D01*
X87198159Y-103225856D01*
X87223773Y-103248204D01*
X87253505Y-103261488D01*
X87288705Y-103266083D01*
X87323658Y-103261501D01*
X87353247Y-103248237D01*
X87378805Y-103225892D01*
X87400862Y-103192651D01*
X87415687Y-103156370D01*
X87427510Y-103109179D01*
X87435454Y-103048700D01*
X87438389Y-102972271D01*
X87435450Y-102895548D01*
X87427499Y-102834915D01*
X87415676Y-102787674D01*
X87400862Y-102751420D01*
X87378802Y-102718157D01*
X87353243Y-102695799D01*
X87323655Y-102682530D01*
X87288705Y-102677946D01*
X87253508Y-102682542D01*
X87223777Y-102695832D01*
X87198162Y-102718193D01*
X87176121Y-102751420D01*
X87161290Y-102787676D01*
X87149453Y-102834918D01*
X87141494Y-102895550D01*
X87138551Y-102972271D01*
X87041953Y-102972271D01*
X87046719Y-102879506D01*
X87059790Y-102804503D01*
X87079661Y-102744308D01*
X87105340Y-102696368D01*
X87133225Y-102661877D01*
X87164876Y-102635695D01*
X87200739Y-102616955D01*
X87241638Y-102605388D01*
X87288705Y-102601351D01*
X87335772Y-102605387D01*
G37*
G36*
X87797042Y-103812913D02*
G01*
X87797042Y-103905921D01*
X87851734Y-103883808D01*
X87900821Y-103868906D01*
X87949345Y-103859661D01*
X87995025Y-103856681D01*
X88046946Y-103860579D01*
X88086649Y-103871096D01*
X88116756Y-103887028D01*
X88140473Y-103910033D01*
X88154593Y-103938233D01*
X88159541Y-103973326D01*
X88156065Y-104003317D01*
X88146459Y-104026389D01*
X88131075Y-104044193D01*
X88110410Y-104057236D01*
X88076186Y-104070331D01*
X88023235Y-104082832D01*
X87964892Y-104094842D01*
X87910388Y-104108374D01*
X87866773Y-104125325D01*
X87832288Y-104145152D01*
X87805462Y-104167590D01*
X87783444Y-104195078D01*
X87767497Y-104226876D01*
X87757545Y-104263818D01*
X87754043Y-104307016D01*
X87758811Y-104358094D01*
X87772234Y-104400360D01*
X87793712Y-104435582D01*
X87823628Y-104464950D01*
X87859216Y-104486897D01*
X87903740Y-104503698D01*
X87959099Y-104514682D01*
X88027552Y-104518677D01*
X88078893Y-104515843D01*
X88135392Y-104506923D01*
X88192692Y-104492611D01*
X88253746Y-104472173D01*
X88253746Y-104373695D01*
X88194555Y-104402672D01*
X88138512Y-104422806D01*
X88082023Y-104435288D01*
X88027552Y-104439347D01*
X87973157Y-104435179D01*
X87931514Y-104423919D01*
X87899880Y-104406820D01*
X87880241Y-104388843D01*
X87866405Y-104367835D01*
X87857901Y-104343202D01*
X87854915Y-104313983D01*
X87858782Y-104280282D01*
X87869626Y-104253359D01*
X87887186Y-104231661D01*
X87910494Y-104215073D01*
X87944715Y-104200017D01*
X87993102Y-104187166D01*
X88051916Y-104175626D01*
X88107098Y-104161884D01*
X88150235Y-104145763D01*
X88183385Y-104127801D01*
X88208310Y-104108306D01*
X88228910Y-104083936D01*
X88243882Y-104055193D01*
X88253280Y-104021208D01*
X88256609Y-103980806D01*
X88252176Y-103934712D01*
X88239512Y-103895336D01*
X88218930Y-103861330D01*
X88189888Y-103831805D01*
X88155436Y-103809056D01*
X88114223Y-103792078D01*
X88064946Y-103781229D01*
X88006010Y-103777351D01*
X87955666Y-103779545D01*
X87903685Y-103786242D01*
X87851486Y-103797221D01*
X87797042Y-103812913D01*
G37*
G36*
X87249040Y-103892243D02*
G01*
X87249040Y-104157588D01*
X86982712Y-104157588D01*
X86982712Y-104239654D01*
X87249040Y-104239654D01*
X87249040Y-104505000D01*
X87329396Y-104505000D01*
X87329396Y-104239654D01*
X87595725Y-104239654D01*
X87595725Y-104157588D01*
X87329396Y-104157588D01*
X87329396Y-103892243D01*
X87249040Y-103892243D01*
G37*
G36*
X88332050Y-105681000D02*
G01*
X88075766Y-105681000D01*
X88015006Y-105677219D01*
X87965081Y-105666738D01*
X87924162Y-105650524D01*
X87890733Y-105629067D01*
X87862609Y-105600803D01*
X87842531Y-105567575D01*
X87830073Y-105528392D01*
X87825679Y-105481777D01*
X87826700Y-105471476D01*
X87927535Y-105471476D01*
X87932208Y-105513857D01*
X87944960Y-105545716D01*
X87965063Y-105569613D01*
X87992018Y-105586320D01*
X88029414Y-105597470D01*
X88080553Y-105601669D01*
X88235452Y-105601669D01*
X88235452Y-105341795D01*
X88080553Y-105341795D01*
X88029371Y-105345941D01*
X87991978Y-105356937D01*
X87965063Y-105373382D01*
X87945002Y-105396982D01*
X87932232Y-105428786D01*
X87927535Y-105471476D01*
X87826700Y-105471476D01*
X87830326Y-105434883D01*
X87843581Y-105395090D01*
X87865131Y-105360944D01*
X87894234Y-105332916D01*
X87930638Y-105311691D01*
X87975834Y-105297300D01*
X87938195Y-105287136D01*
X87908742Y-105270932D01*
X87885903Y-105248830D01*
X87869517Y-105221335D01*
X87859072Y-105187031D01*
X87856202Y-105154412D01*
X87952368Y-105154412D01*
X87956598Y-105189240D01*
X87968270Y-105215698D01*
X87987032Y-105235836D01*
X88011660Y-105249652D01*
X88045829Y-105258953D01*
X88092478Y-105262465D01*
X88235452Y-105262465D01*
X88235452Y-105046359D01*
X88092478Y-105046359D01*
X88045852Y-105049901D01*
X88011681Y-105059286D01*
X87987032Y-105073244D01*
X87968238Y-105093497D01*
X87956581Y-105119895D01*
X87952368Y-105154412D01*
X87856202Y-105154412D01*
X87855300Y-105144154D01*
X87859317Y-105102716D01*
X87870724Y-105067875D01*
X87889160Y-105038296D01*
X87915097Y-105013105D01*
X87945711Y-104994128D01*
X87983302Y-104979731D01*
X88029282Y-104970400D01*
X88085340Y-104967029D01*
X88332050Y-104967029D01*
X88332050Y-105681000D01*
G37*
G36*
X87518954Y-105133343D02*
G01*
X87564181Y-105140050D01*
X87609703Y-105150985D01*
X87657915Y-105166722D01*
X87657915Y-105248787D01*
X87616806Y-105229600D01*
X87574225Y-105215961D01*
X87530237Y-105207770D01*
X87484808Y-105205019D01*
X87437733Y-105209210D01*
X87401104Y-105220679D01*
X87372652Y-105238486D01*
X87350844Y-105263280D01*
X87337485Y-105294182D01*
X87332730Y-105333076D01*
X87332730Y-105341795D01*
X87456085Y-105341795D01*
X87517462Y-105345260D01*
X87566640Y-105354738D01*
X87605759Y-105369145D01*
X87636629Y-105387829D01*
X87662606Y-105413025D01*
X87681270Y-105443407D01*
X87692953Y-105480031D01*
X87697110Y-105524476D01*
X87693837Y-105562702D01*
X87684513Y-105595480D01*
X87669491Y-105623814D01*
X87648597Y-105648430D01*
X87623074Y-105668136D01*
X87593348Y-105682494D01*
X87558611Y-105691498D01*
X87517805Y-105694677D01*
X87474932Y-105691846D01*
X87438626Y-105683882D01*
X87407829Y-105671340D01*
X87379996Y-105653317D01*
X87355028Y-105629433D01*
X87332730Y-105598934D01*
X87332730Y-105681000D01*
X87244766Y-105681000D01*
X87244766Y-105429887D01*
X87332730Y-105429887D01*
X87335797Y-105473085D01*
X87344472Y-105509949D01*
X87358238Y-105541521D01*
X87376968Y-105568629D01*
X87400866Y-105591441D01*
X87427917Y-105607541D01*
X87458756Y-105617391D01*
X87494339Y-105620818D01*
X87528713Y-105617444D01*
X87556201Y-105608060D01*
X87578286Y-105593164D01*
X87595189Y-105572925D01*
X87605477Y-105548434D01*
X87609103Y-105518407D01*
X87606212Y-105489469D01*
X87598216Y-105466696D01*
X87585578Y-105448725D01*
X87567985Y-105434717D01*
X87538980Y-105422654D01*
X87492046Y-105413753D01*
X87420224Y-105410183D01*
X87332730Y-105410183D01*
X87332730Y-105429887D01*
X87244766Y-105429887D01*
X87244766Y-105374108D01*
X87248995Y-105312231D01*
X87260623Y-105262597D01*
X87278507Y-105222935D01*
X87302169Y-105191427D01*
X87332546Y-105166322D01*
X87370423Y-105147593D01*
X87417444Y-105135527D01*
X87475746Y-105131160D01*
X87518954Y-105133343D01*
G37*
G36*
X86976172Y-104991648D02*
G01*
X86976172Y-105144838D01*
X86794944Y-105144838D01*
X86794944Y-105213226D01*
X86976172Y-105213226D01*
X86976172Y-105504217D01*
X86973437Y-105548303D01*
X86966875Y-105574359D01*
X86958263Y-105588462D01*
X86944735Y-105597724D01*
X86921831Y-105604431D01*
X86885302Y-105607140D01*
X86794944Y-105607140D01*
X86794944Y-105681000D01*
X86885302Y-105681000D01*
X86938104Y-105677923D01*
X86977251Y-105669786D01*
X87005702Y-105657877D01*
X87025882Y-105642916D01*
X87041137Y-105622976D01*
X87053237Y-105594892D01*
X87061488Y-105556282D01*
X87064606Y-105504217D01*
X87064606Y-105213226D01*
X87129190Y-105213226D01*
X87129190Y-105144838D01*
X87064606Y-105144838D01*
X87064606Y-104991648D01*
X86976172Y-104991648D01*
G37*
G36*
X106917029Y-82236644D02*
G01*
X106917029Y-82333242D01*
X107548934Y-82333242D01*
X107548934Y-82680867D01*
X107631000Y-82680867D01*
X107631000Y-82236644D01*
X106917029Y-82236644D01*
G37*
G36*
X106917029Y-82782381D02*
G01*
X106917029Y-83233784D01*
X106999094Y-83233784D01*
X106999094Y-82878979D01*
X107209729Y-82878979D01*
X107209729Y-83218952D01*
X107291795Y-83218952D01*
X107291795Y-82878979D01*
X107548934Y-82878979D01*
X107548934Y-83242375D01*
X107631000Y-83242375D01*
X107631000Y-82782381D01*
X106917029Y-82782381D01*
G37*
G36*
X107631000Y-83599745D02*
G01*
X107626746Y-83685976D01*
X107614957Y-83757406D01*
X107596834Y-83816277D01*
X107573200Y-83864552D01*
X107544446Y-83903858D01*
X107508372Y-83937134D01*
X107464696Y-83963810D01*
X107412138Y-83983881D01*
X107349009Y-83996775D01*
X107273288Y-84001397D01*
X107197982Y-83996800D01*
X107135167Y-83983973D01*
X107082841Y-83964002D01*
X107039331Y-83937452D01*
X107003369Y-83904328D01*
X106974737Y-83865231D01*
X106951170Y-83817056D01*
X106933074Y-83758136D01*
X106921286Y-83686463D01*
X106917755Y-83614534D01*
X106996359Y-83614534D01*
X106999614Y-83675950D01*
X107008642Y-83726761D01*
X107022551Y-83768617D01*
X107040768Y-83802945D01*
X107063080Y-83830897D01*
X107090491Y-83854013D01*
X107124000Y-83872765D01*
X107164688Y-83887010D01*
X107213919Y-83896225D01*
X107273288Y-83899541D01*
X107333105Y-83896219D01*
X107382665Y-83886991D01*
X107423583Y-83872737D01*
X107457241Y-83853987D01*
X107484735Y-83830897D01*
X107507126Y-83802932D01*
X107525403Y-83768596D01*
X107539352Y-83726739D01*
X107548405Y-83675935D01*
X107551669Y-83614534D01*
X107551669Y-83497890D01*
X106996359Y-83497890D01*
X106996359Y-83614534D01*
X106917755Y-83614534D01*
X106917029Y-83599745D01*
X106917029Y-83401292D01*
X107631000Y-83401292D01*
X107631000Y-83599745D01*
G37*
G36*
X117223115Y-89477374D02*
G01*
X117223115Y-89578588D01*
X117257006Y-89550389D01*
X117291611Y-89527926D01*
X117327108Y-89510756D01*
X117364485Y-89498344D01*
X117403494Y-89490850D01*
X117444479Y-89488316D01*
X117493757Y-89491677D01*
X117536169Y-89501210D01*
X117572794Y-89516361D01*
X117604512Y-89536964D01*
X117631947Y-89563244D01*
X117658873Y-89602078D01*
X117679144Y-89649826D01*
X117692234Y-89708342D01*
X117696959Y-89779906D01*
X117692240Y-89851184D01*
X117679161Y-89909535D01*
X117658892Y-89957215D01*
X117631947Y-89996054D01*
X117604512Y-90022334D01*
X117572794Y-90042937D01*
X117536169Y-90058089D01*
X117493757Y-90067621D01*
X117444479Y-90070982D01*
X117403494Y-90068448D01*
X117364485Y-90060955D01*
X117327108Y-90048542D01*
X117291611Y-90031373D01*
X117257006Y-90008910D01*
X117223115Y-89980710D01*
X117223115Y-90081924D01*
X117275513Y-90111944D01*
X117330484Y-90133215D01*
X117388271Y-90145970D01*
X117450249Y-90150312D01*
X117515262Y-90145937D01*
X117572192Y-90133436D01*
X117622268Y-90113423D01*
X117666492Y-90086052D01*
X117705593Y-90051021D01*
X117738068Y-90010034D01*
X117763750Y-89963363D01*
X117782710Y-89910187D01*
X117794629Y-89849450D01*
X117798814Y-89779906D01*
X117794623Y-89710125D01*
X117782694Y-89649235D01*
X117763727Y-89595976D01*
X117738048Y-89549281D01*
X117705593Y-89508320D01*
X117666489Y-89473272D01*
X117622264Y-89445890D01*
X117572188Y-89425868D01*
X117515259Y-89413363D01*
X117450249Y-89408986D01*
X117387445Y-89413343D01*
X117329501Y-89426083D01*
X117274688Y-89447396D01*
X117223115Y-89477374D01*
G37*
G36*
X117086724Y-89925230D02*
G01*
X117086724Y-89600473D01*
X116998760Y-89600473D01*
X116998760Y-89921896D01*
X116994887Y-89971828D01*
X116984576Y-90008780D01*
X116969139Y-90035762D01*
X116946831Y-90056355D01*
X116917877Y-90069113D01*
X116880149Y-90073718D01*
X116845116Y-90070651D01*
X116815278Y-90061932D01*
X116789660Y-90047899D01*
X116767566Y-90028368D01*
X116750064Y-90004638D01*
X116737199Y-89976686D01*
X116729074Y-89943696D01*
X116726191Y-89904628D01*
X116726191Y-89600473D01*
X116638184Y-89600473D01*
X116638184Y-90136635D01*
X116726191Y-90136635D01*
X116726191Y-90054569D01*
X116749481Y-90085069D01*
X116774234Y-90108859D01*
X116800563Y-90126761D01*
X116829614Y-90139618D01*
X116862140Y-90147555D01*
X116898828Y-90150312D01*
X116944382Y-90146331D01*
X116981959Y-90135165D01*
X117013112Y-90117434D01*
X117038938Y-90092994D01*
X117058594Y-90063418D01*
X117073513Y-90026666D01*
X117083208Y-89981218D01*
X117086724Y-89925230D01*
G37*
G36*
X116146346Y-89682538D02*
G01*
X116178617Y-89670143D01*
X116217128Y-89666125D01*
X116253785Y-89669437D01*
X116284357Y-89678783D01*
X116310033Y-89693736D01*
X116331635Y-89714510D01*
X116348129Y-89739439D01*
X116360588Y-89770075D01*
X116368646Y-89807594D01*
X116371556Y-89853423D01*
X116371556Y-90136635D01*
X116460033Y-90136635D01*
X116460033Y-89600473D01*
X116371556Y-89600473D01*
X116371556Y-89682538D01*
X116350748Y-89652371D01*
X116326759Y-89628559D01*
X116299364Y-89610389D01*
X116268837Y-89597674D01*
X116233150Y-89589640D01*
X116191311Y-89586795D01*
X116171222Y-89588163D01*
X116146816Y-89592266D01*
X116146346Y-89682538D01*
G37*
G36*
X87574835Y-97267029D02*
G01*
X87123431Y-97267029D01*
X87123431Y-97349094D01*
X87478237Y-97349094D01*
X87478237Y-97559729D01*
X87138263Y-97559729D01*
X87138263Y-97641795D01*
X87478237Y-97641795D01*
X87478237Y-97898934D01*
X87114840Y-97898934D01*
X87114840Y-97981000D01*
X87574835Y-97981000D01*
X87574835Y-97267029D01*
G37*
G36*
X86930577Y-97898934D02*
G01*
X86772772Y-97898934D01*
X86772772Y-97354565D01*
X86944468Y-97390127D01*
X86944468Y-97302591D01*
X86773755Y-97267029D01*
X86677157Y-97267029D01*
X86677157Y-97898934D01*
X86519351Y-97898934D01*
X86519351Y-97981000D01*
X86930577Y-97981000D01*
X86930577Y-97898934D01*
G37*
G36*
X104417029Y-84936432D02*
G01*
X104417029Y-85540383D01*
X104499094Y-85540383D01*
X104499094Y-85286920D01*
X105131000Y-85286920D01*
X105131000Y-85189852D01*
X104499094Y-85189852D01*
X104499094Y-84936432D01*
X104417029Y-84936432D01*
G37*
G36*
X105048934Y-85659165D02*
G01*
X105048934Y-85816970D01*
X104504565Y-85816970D01*
X104540127Y-85645273D01*
X104452591Y-85645273D01*
X104417029Y-85815987D01*
X104417029Y-85912585D01*
X105048934Y-85912585D01*
X105048934Y-86070390D01*
X105131000Y-86070390D01*
X105131000Y-85659165D01*
X105048934Y-85659165D01*
G37*
G36*
X86055609Y-110131000D02*
G01*
X85959011Y-110131000D01*
X85959011Y-109830092D01*
X85853821Y-109830092D01*
X85816186Y-109833031D01*
X85786537Y-109841076D01*
X85763250Y-109853472D01*
X85743497Y-109871379D01*
X85720784Y-109901577D01*
X85694605Y-109948361D01*
X85603265Y-110131000D01*
X85499486Y-110131000D01*
X85597537Y-109936436D01*
X85628675Y-109880340D01*
X85656607Y-109842017D01*
X85687690Y-109812692D01*
X85717088Y-109797138D01*
X85679520Y-109782121D01*
X85649557Y-109761545D01*
X85626004Y-109735289D01*
X85609061Y-109704160D01*
X85598439Y-109667225D01*
X85594674Y-109623133D01*
X85594678Y-109623090D01*
X85696486Y-109623090D01*
X85700882Y-109663491D01*
X85712972Y-109694512D01*
X85732133Y-109718363D01*
X85757806Y-109735485D01*
X85792089Y-109746636D01*
X85837579Y-109750762D01*
X85959011Y-109750762D01*
X85959011Y-109496359D01*
X85837579Y-109496359D01*
X85792048Y-109500434D01*
X85757767Y-109511432D01*
X85732133Y-109528288D01*
X85712990Y-109551855D01*
X85700893Y-109582701D01*
X85696486Y-109623090D01*
X85594678Y-109623090D01*
X85598948Y-109571696D01*
X85610837Y-109529917D01*
X85629507Y-109495916D01*
X85654940Y-109468320D01*
X85686004Y-109447402D01*
X85725472Y-109431381D01*
X85775234Y-109420870D01*
X85837579Y-109417029D01*
X86055609Y-109417029D01*
X86055609Y-110131000D01*
G37*
G36*
X85207049Y-109407387D02*
G01*
X85247953Y-109418953D01*
X85283825Y-109437694D01*
X85315489Y-109463876D01*
X85343390Y-109498368D01*
X85369051Y-109546305D01*
X85388909Y-109606499D01*
X85401971Y-109681503D01*
X85406735Y-109774271D01*
X85401977Y-109866747D01*
X85388923Y-109941595D01*
X85369067Y-110001738D01*
X85343390Y-110049703D01*
X85315491Y-110084177D01*
X85283829Y-110110347D01*
X85247957Y-110129081D01*
X85207052Y-110140642D01*
X85159982Y-110144677D01*
X85112912Y-110140642D01*
X85072012Y-110129079D01*
X85036149Y-110110346D01*
X85004500Y-110084176D01*
X84976617Y-110049703D01*
X84950922Y-110001735D01*
X84931052Y-109941591D01*
X84917991Y-109866744D01*
X84913230Y-109774271D01*
X85009828Y-109774271D01*
X85012767Y-109850697D01*
X85020719Y-109911175D01*
X85032555Y-109958368D01*
X85047399Y-109994651D01*
X85069436Y-110027856D01*
X85095050Y-110050204D01*
X85124782Y-110063488D01*
X85159982Y-110068083D01*
X85194935Y-110063501D01*
X85224524Y-110050237D01*
X85250082Y-110027892D01*
X85272139Y-109994651D01*
X85286964Y-109958370D01*
X85298787Y-109911179D01*
X85306731Y-109850700D01*
X85309667Y-109774271D01*
X85306727Y-109697548D01*
X85298776Y-109636915D01*
X85286953Y-109589674D01*
X85272139Y-109553420D01*
X85250079Y-109520157D01*
X85224520Y-109497799D01*
X85194932Y-109484530D01*
X85159982Y-109479946D01*
X85124785Y-109484542D01*
X85095054Y-109497832D01*
X85069439Y-109520193D01*
X85047399Y-109553420D01*
X85032567Y-109589676D01*
X85020730Y-109636918D01*
X85012771Y-109697550D01*
X85009828Y-109774271D01*
X84913230Y-109774271D01*
X84917996Y-109681506D01*
X84931067Y-109606503D01*
X84950938Y-109546308D01*
X84976617Y-109498368D01*
X85004502Y-109463877D01*
X85036153Y-109437695D01*
X85072016Y-109418955D01*
X85112915Y-109407388D01*
X85159982Y-109403351D01*
X85207049Y-109407387D01*
G37*
G36*
X117524835Y-109417029D02*
G01*
X117073431Y-109417029D01*
X117073431Y-109499094D01*
X117428237Y-109499094D01*
X117428237Y-109709729D01*
X117088263Y-109709729D01*
X117088263Y-109791795D01*
X117428237Y-109791795D01*
X117428237Y-110048934D01*
X117064840Y-110048934D01*
X117064840Y-110131000D01*
X117524835Y-110131000D01*
X117524835Y-109417029D01*
G37*
G36*
X116954222Y-109868347D02*
G01*
X116954222Y-109961397D01*
X116631944Y-109961397D01*
X116631944Y-110131000D01*
X116535816Y-110131000D01*
X116535816Y-109961397D01*
X116433961Y-109961397D01*
X116433961Y-109882067D01*
X116535816Y-109882067D01*
X116631944Y-109882067D01*
X116875790Y-109882067D01*
X116631944Y-109501146D01*
X116631944Y-109882067D01*
X116535816Y-109882067D01*
X116535816Y-109417029D01*
X116657290Y-109417029D01*
X116954222Y-109868347D01*
G37*
G36*
X101888913Y-82759573D02*
G01*
X101981921Y-82759573D01*
X101959808Y-82704881D01*
X101944906Y-82655794D01*
X101935661Y-82607270D01*
X101932681Y-82561590D01*
X101936579Y-82509669D01*
X101947096Y-82469966D01*
X101963028Y-82439859D01*
X101986033Y-82416142D01*
X102014233Y-82402022D01*
X102049326Y-82397074D01*
X102079317Y-82400550D01*
X102102389Y-82410156D01*
X102120193Y-82425540D01*
X102133236Y-82446205D01*
X102146331Y-82480429D01*
X102158832Y-82533380D01*
X102170842Y-82591723D01*
X102184374Y-82646227D01*
X102201325Y-82689842D01*
X102221152Y-82724327D01*
X102243590Y-82751153D01*
X102271078Y-82773171D01*
X102302876Y-82789118D01*
X102339818Y-82799070D01*
X102383016Y-82802572D01*
X102434094Y-82797804D01*
X102476360Y-82784381D01*
X102511582Y-82762903D01*
X102540950Y-82732987D01*
X102562897Y-82697399D01*
X102579698Y-82652875D01*
X102590682Y-82597516D01*
X102594677Y-82529063D01*
X102591843Y-82477722D01*
X102582923Y-82421223D01*
X102568611Y-82363923D01*
X102548173Y-82302869D01*
X102449695Y-82302869D01*
X102478672Y-82362060D01*
X102498806Y-82418103D01*
X102511288Y-82474592D01*
X102515347Y-82529063D01*
X102511179Y-82583458D01*
X102499919Y-82625101D01*
X102482820Y-82656735D01*
X102464843Y-82676374D01*
X102443835Y-82690210D01*
X102419202Y-82698714D01*
X102389983Y-82701700D01*
X102356282Y-82697833D01*
X102329359Y-82686989D01*
X102307661Y-82669429D01*
X102291073Y-82646121D01*
X102276017Y-82611900D01*
X102263166Y-82563513D01*
X102251626Y-82504699D01*
X102237884Y-82449517D01*
X102221763Y-82406380D01*
X102203801Y-82373230D01*
X102184306Y-82348305D01*
X102159936Y-82327705D01*
X102131193Y-82312733D01*
X102097208Y-82303335D01*
X102056806Y-82300006D01*
X102010712Y-82304439D01*
X101971336Y-82317103D01*
X101937330Y-82337685D01*
X101907805Y-82366727D01*
X101885056Y-82401179D01*
X101868078Y-82442392D01*
X101857229Y-82491669D01*
X101853351Y-82550605D01*
X101855545Y-82600949D01*
X101862242Y-82652930D01*
X101873221Y-82705129D01*
X101888913Y-82759573D01*
G37*
G36*
X102581000Y-83151693D02*
G01*
X102576746Y-83237924D01*
X102564957Y-83309354D01*
X102546834Y-83368224D01*
X102523200Y-83416499D01*
X102494446Y-83455806D01*
X102458372Y-83489081D01*
X102414696Y-83515758D01*
X102362138Y-83535828D01*
X102299009Y-83548722D01*
X102223288Y-83553344D01*
X102147982Y-83548748D01*
X102085167Y-83535921D01*
X102032841Y-83515949D01*
X101989331Y-83489399D01*
X101953369Y-83456276D01*
X101924737Y-83417178D01*
X101901170Y-83369003D01*
X101883074Y-83310083D01*
X101871286Y-83238410D01*
X101867755Y-83166482D01*
X101946359Y-83166482D01*
X101949614Y-83227897D01*
X101958642Y-83278708D01*
X101972551Y-83320564D01*
X101990768Y-83354892D01*
X102013080Y-83382844D01*
X102040491Y-83405960D01*
X102074000Y-83424712D01*
X102114688Y-83438957D01*
X102163919Y-83448172D01*
X102223288Y-83451489D01*
X102283105Y-83448166D01*
X102332665Y-83438939D01*
X102373583Y-83424684D01*
X102407241Y-83405935D01*
X102434735Y-83382844D01*
X102457126Y-83354879D01*
X102475403Y-83320544D01*
X102489352Y-83278686D01*
X102498405Y-83227882D01*
X102501669Y-83166482D01*
X102501669Y-83049837D01*
X101946359Y-83049837D01*
X101946359Y-83166482D01*
X101867755Y-83166482D01*
X101867029Y-83151693D01*
X101867029Y-82953239D01*
X102581000Y-82953239D01*
X102581000Y-83151693D01*
G37*
G36*
X102581000Y-83703840D02*
G01*
X102397720Y-83768852D01*
X102397720Y-84090703D01*
X102581000Y-84155714D01*
X102581000Y-84256159D01*
X101867029Y-83984060D01*
X101867029Y-83929051D01*
X101962387Y-83929051D01*
X102318390Y-84060569D01*
X102318390Y-83798045D01*
X101962387Y-83929051D01*
X101867029Y-83929051D01*
X101867029Y-83874554D01*
X102581000Y-83601985D01*
X102581000Y-83703840D01*
G37*
G36*
X114296630Y-102529187D02*
G01*
X114296630Y-102338299D01*
X114454436Y-102338299D01*
X114454436Y-102258969D01*
X114201015Y-102258969D01*
X114201015Y-102564407D01*
X114239460Y-102588625D01*
X114280504Y-102608595D01*
X114324413Y-102624374D01*
X114393364Y-102639498D01*
X114468327Y-102644677D01*
X114535765Y-102640310D01*
X114594479Y-102627875D01*
X114645771Y-102608056D01*
X114690719Y-102581099D01*
X114730125Y-102546797D01*
X114762911Y-102506366D01*
X114788895Y-102459911D01*
X114808134Y-102406543D01*
X114820268Y-102345116D01*
X114824543Y-102274271D01*
X114820263Y-102203190D01*
X114808119Y-102141606D01*
X114788873Y-102088146D01*
X114762892Y-102041654D01*
X114730125Y-102001232D01*
X114690720Y-101966931D01*
X114645769Y-101939974D01*
X114594469Y-101920155D01*
X114535742Y-101907718D01*
X114468284Y-101903351D01*
X114399671Y-101907761D01*
X114335611Y-101920705D01*
X114274931Y-101942230D01*
X114219651Y-101971739D01*
X114219651Y-102075689D01*
X114256688Y-102046992D01*
X114294570Y-102023907D01*
X114333474Y-102006061D01*
X114374178Y-101993107D01*
X114416298Y-101985309D01*
X114460163Y-101982681D01*
X114513480Y-101986066D01*
X114558656Y-101995585D01*
X114596967Y-102010547D01*
X114629469Y-102030639D01*
X114656950Y-102055942D01*
X114684024Y-102093997D01*
X114704524Y-102141602D01*
X114717848Y-102200838D01*
X114722688Y-102274271D01*
X114717855Y-102347417D01*
X114704541Y-102406489D01*
X114684043Y-102454027D01*
X114656950Y-102492086D01*
X114629452Y-102517392D01*
X114596939Y-102537485D01*
X114558626Y-102552446D01*
X114513458Y-102561964D01*
X114460163Y-102565347D01*
X114410447Y-102563017D01*
X114368865Y-102556542D01*
X114330253Y-102545124D01*
X114296630Y-102529187D01*
G37*
G36*
X117638017Y-99417029D02*
G01*
X117494103Y-99417029D01*
X117311891Y-99903310D01*
X117128782Y-99417029D01*
X116984826Y-99417029D01*
X116984826Y-100131000D01*
X117079030Y-100131000D01*
X117079030Y-99504138D01*
X117263122Y-99994224D01*
X117360190Y-99994224D01*
X117544325Y-99504138D01*
X117544325Y-100131000D01*
X117638017Y-100131000D01*
X117638017Y-99417029D01*
G37*
G36*
X116767395Y-100048934D02*
G01*
X116609589Y-100048934D01*
X116609589Y-99504565D01*
X116781286Y-99540127D01*
X116781286Y-99452591D01*
X116610572Y-99417029D01*
X116513974Y-99417029D01*
X116513974Y-100048934D01*
X116356169Y-100048934D01*
X116356169Y-100131000D01*
X116767395Y-100131000D01*
X116767395Y-100048934D01*
G37*
G36*
X99417029Y-82459051D02*
G01*
X99417029Y-82838262D01*
X99499094Y-82838262D01*
X99499094Y-82547528D01*
X99672244Y-82547528D01*
X99661388Y-82589587D01*
X99657755Y-82631688D01*
X99662295Y-82691128D01*
X99675125Y-82741512D01*
X99695519Y-82784412D01*
X99723407Y-82821037D01*
X99758370Y-82851069D01*
X99798866Y-82872694D01*
X99845981Y-82886147D01*
X99901216Y-82890878D01*
X99958162Y-82885962D01*
X100005991Y-82872071D01*
X100046423Y-82849871D01*
X100080692Y-82819157D01*
X100107449Y-82781817D01*
X100127374Y-82736758D01*
X100140113Y-82682430D01*
X100144677Y-82616899D01*
X100142819Y-82571791D01*
X100137154Y-82525302D01*
X100127887Y-82478483D01*
X100114586Y-82428960D01*
X100018843Y-82428960D01*
X100038181Y-82472853D01*
X100051798Y-82517907D01*
X100059854Y-82564644D01*
X100062612Y-82614976D01*
X100059588Y-82656223D01*
X100051063Y-82691127D01*
X100037559Y-82720764D01*
X100019185Y-82745981D01*
X99995907Y-82766831D01*
X99969013Y-82781769D01*
X99937786Y-82791029D01*
X99901216Y-82794280D01*
X99864645Y-82791028D01*
X99833427Y-82781768D01*
X99806547Y-82766830D01*
X99783289Y-82745981D01*
X99764898Y-82720762D01*
X99751380Y-82691118D01*
X99742846Y-82656201D01*
X99739820Y-82614933D01*
X99741979Y-82576350D01*
X99748497Y-82537697D01*
X99759346Y-82499357D01*
X99775382Y-82459051D01*
X99417029Y-82459051D01*
G37*
G36*
X100131000Y-83256626D02*
G01*
X99417029Y-82984057D01*
X99417029Y-83084972D01*
X100018159Y-83311123D01*
X99417029Y-83537786D01*
X99417029Y-83638231D01*
X100131000Y-83366132D01*
X100131000Y-83256626D01*
G37*
G36*
X83197042Y-101938913D02*
G01*
X83197042Y-102031921D01*
X83251734Y-102009808D01*
X83300821Y-101994906D01*
X83349345Y-101985661D01*
X83395025Y-101982681D01*
X83446946Y-101986579D01*
X83486649Y-101997096D01*
X83516756Y-102013028D01*
X83540473Y-102036033D01*
X83554593Y-102064233D01*
X83559541Y-102099326D01*
X83556065Y-102129317D01*
X83546459Y-102152389D01*
X83531075Y-102170193D01*
X83510410Y-102183236D01*
X83476186Y-102196331D01*
X83423235Y-102208832D01*
X83364892Y-102220842D01*
X83310388Y-102234374D01*
X83266773Y-102251325D01*
X83232288Y-102271152D01*
X83205462Y-102293590D01*
X83183444Y-102321078D01*
X83167497Y-102352876D01*
X83157545Y-102389818D01*
X83154043Y-102433016D01*
X83158811Y-102484094D01*
X83172234Y-102526360D01*
X83193712Y-102561582D01*
X83223628Y-102590950D01*
X83259216Y-102612897D01*
X83303740Y-102629698D01*
X83359099Y-102640682D01*
X83427552Y-102644677D01*
X83478893Y-102641843D01*
X83535392Y-102632923D01*
X83592692Y-102618611D01*
X83653746Y-102598173D01*
X83653746Y-102499695D01*
X83594555Y-102528672D01*
X83538512Y-102548806D01*
X83482023Y-102561288D01*
X83427552Y-102565347D01*
X83373157Y-102561179D01*
X83331514Y-102549919D01*
X83299880Y-102532820D01*
X83280241Y-102514843D01*
X83266405Y-102493835D01*
X83257901Y-102469202D01*
X83254915Y-102439983D01*
X83258782Y-102406282D01*
X83269626Y-102379359D01*
X83287186Y-102357661D01*
X83310494Y-102341073D01*
X83344715Y-102326017D01*
X83393102Y-102313166D01*
X83451916Y-102301626D01*
X83507098Y-102287884D01*
X83550235Y-102271763D01*
X83583385Y-102253801D01*
X83608310Y-102234306D01*
X83628910Y-102209936D01*
X83643882Y-102181193D01*
X83653280Y-102147208D01*
X83656609Y-102106806D01*
X83652176Y-102060712D01*
X83639512Y-102021336D01*
X83618930Y-101987330D01*
X83589888Y-101957805D01*
X83555436Y-101935056D01*
X83514223Y-101918078D01*
X83464946Y-101907229D01*
X83406010Y-101903351D01*
X83355666Y-101905545D01*
X83303685Y-101912242D01*
X83251486Y-101923221D01*
X83197042Y-101938913D01*
G37*
G36*
X82649040Y-102018243D02*
G01*
X82649040Y-102283588D01*
X82382712Y-102283588D01*
X82382712Y-102365654D01*
X82649040Y-102365654D01*
X82649040Y-102631000D01*
X82729396Y-102631000D01*
X82729396Y-102365654D01*
X82995725Y-102365654D01*
X82995725Y-102283588D01*
X82729396Y-102283588D01*
X82729396Y-102018243D01*
X82649040Y-102018243D01*
G37*
G36*
X85982970Y-96187249D02*
G01*
X85982970Y-95735845D01*
X85900905Y-95735845D01*
X85900905Y-96090651D01*
X85690270Y-96090651D01*
X85690270Y-95750677D01*
X85608204Y-95750677D01*
X85608204Y-96090651D01*
X85351065Y-96090651D01*
X85351065Y-95727254D01*
X85269000Y-95727254D01*
X85269000Y-96187249D01*
X85982970Y-96187249D01*
G37*
G36*
X85982970Y-95568337D02*
G01*
X85982970Y-95471739D01*
X85351065Y-95471739D01*
X85351065Y-95124114D01*
X85269000Y-95124114D01*
X85269000Y-95568337D01*
X85982970Y-95568337D01*
G37*
G36*
X85463563Y-94564530D02*
G01*
X85519659Y-94595668D01*
X85557982Y-94623600D01*
X85587307Y-94654682D01*
X85602861Y-94684080D01*
X85617878Y-94646512D01*
X85638454Y-94616549D01*
X85664710Y-94592996D01*
X85695839Y-94576053D01*
X85732774Y-94565432D01*
X85776866Y-94561666D01*
X85828303Y-94565941D01*
X85870082Y-94577829D01*
X85904083Y-94596499D01*
X85931679Y-94621933D01*
X85952597Y-94652997D01*
X85968618Y-94692464D01*
X85979129Y-94742227D01*
X85982970Y-94804572D01*
X85982970Y-95022601D01*
X85269000Y-95022601D01*
X85269000Y-94926003D01*
X85569907Y-94926003D01*
X85569907Y-94820814D01*
X85568639Y-94804572D01*
X85649237Y-94804572D01*
X85649237Y-94926003D01*
X85903640Y-94926003D01*
X85903640Y-94804572D01*
X85899565Y-94759040D01*
X85888567Y-94724759D01*
X85871711Y-94699126D01*
X85848144Y-94679982D01*
X85817298Y-94667886D01*
X85776909Y-94663479D01*
X85736508Y-94667874D01*
X85705487Y-94679964D01*
X85681636Y-94699126D01*
X85664514Y-94724798D01*
X85653363Y-94759081D01*
X85649237Y-94804572D01*
X85568639Y-94804572D01*
X85566968Y-94783178D01*
X85558923Y-94753529D01*
X85546527Y-94730242D01*
X85528620Y-94710489D01*
X85498422Y-94687776D01*
X85451638Y-94661598D01*
X85269000Y-94570257D01*
X85269000Y-94466478D01*
X85463563Y-94564530D01*
G37*
G36*
X85961086Y-93914160D02*
G01*
X85868078Y-93914160D01*
X85890191Y-93968852D01*
X85905093Y-94017939D01*
X85914338Y-94066463D01*
X85917318Y-94112143D01*
X85913420Y-94164064D01*
X85902903Y-94203767D01*
X85886971Y-94233874D01*
X85863966Y-94257591D01*
X85835766Y-94271711D01*
X85800673Y-94276659D01*
X85770682Y-94273183D01*
X85747610Y-94263576D01*
X85729806Y-94248192D01*
X85716763Y-94227528D01*
X85703668Y-94193304D01*
X85691167Y-94140353D01*
X85679157Y-94082010D01*
X85665625Y-94027505D01*
X85648674Y-93983891D01*
X85628847Y-93949406D01*
X85606409Y-93922580D01*
X85578921Y-93900562D01*
X85547123Y-93884615D01*
X85510181Y-93874663D01*
X85466983Y-93871161D01*
X85415905Y-93875928D01*
X85373639Y-93889352D01*
X85338417Y-93910830D01*
X85309049Y-93940746D01*
X85287102Y-93976334D01*
X85270301Y-94020858D01*
X85259317Y-94076217D01*
X85255322Y-94144670D01*
X85258156Y-94196011D01*
X85267076Y-94252509D01*
X85281388Y-94309810D01*
X85301826Y-94370863D01*
X85400304Y-94370863D01*
X85371327Y-94311673D01*
X85351193Y-94255630D01*
X85338711Y-94199141D01*
X85334652Y-94144670D01*
X85338820Y-94090274D01*
X85350080Y-94048632D01*
X85367179Y-94016998D01*
X85385156Y-93997359D01*
X85406164Y-93983523D01*
X85430797Y-93975018D01*
X85460016Y-93972033D01*
X85493717Y-93975900D01*
X85520640Y-93986743D01*
X85542338Y-94004304D01*
X85558926Y-94027612D01*
X85573982Y-94061833D01*
X85586833Y-94110220D01*
X85598373Y-94169033D01*
X85612115Y-94224216D01*
X85628236Y-94267353D01*
X85646198Y-94300503D01*
X85665693Y-94325428D01*
X85690063Y-94346028D01*
X85718806Y-94361000D01*
X85752791Y-94370398D01*
X85793193Y-94373727D01*
X85839287Y-94369294D01*
X85878663Y-94356629D01*
X85912669Y-94336048D01*
X85942194Y-94307006D01*
X85964943Y-94272554D01*
X85981921Y-94231341D01*
X85992770Y-94182064D01*
X85996648Y-94123128D01*
X85994454Y-94072784D01*
X85987757Y-94020802D01*
X85976778Y-93968604D01*
X85961086Y-93914160D01*
G37*
G36*
X92408756Y-90134530D02*
G01*
X92438344Y-90147799D01*
X92463903Y-90170157D01*
X92485963Y-90203420D01*
X92500777Y-90239674D01*
X92512600Y-90286915D01*
X92520551Y-90347548D01*
X92523490Y-90424271D01*
X92520555Y-90500700D01*
X92512611Y-90561179D01*
X92500788Y-90608370D01*
X92485963Y-90644651D01*
X92463906Y-90677892D01*
X92438348Y-90700237D01*
X92408759Y-90713501D01*
X92373806Y-90718083D01*
X92338606Y-90713488D01*
X92308874Y-90700204D01*
X92283260Y-90677856D01*
X92261222Y-90644651D01*
X92246379Y-90608368D01*
X92234543Y-90561175D01*
X92226590Y-90500697D01*
X92223652Y-90424271D01*
X92226595Y-90347550D01*
X92234554Y-90286918D01*
X92246391Y-90239676D01*
X92261222Y-90203420D01*
X92283263Y-90170193D01*
X92308878Y-90147832D01*
X92338609Y-90134542D01*
X92373806Y-90129946D01*
X92408756Y-90134530D01*
G37*
G36*
X93278310Y-90872455D02*
G01*
X91322482Y-90872455D01*
X91322482Y-90067029D01*
X91400260Y-90067029D01*
X91672359Y-90781000D01*
X91781865Y-90781000D01*
X91918052Y-90424271D01*
X92127054Y-90424271D01*
X92131815Y-90516744D01*
X92144876Y-90591591D01*
X92164746Y-90651735D01*
X92190441Y-90699703D01*
X92218323Y-90734176D01*
X92249973Y-90760346D01*
X92285836Y-90779079D01*
X92326736Y-90790642D01*
X92373806Y-90794677D01*
X92420875Y-90790642D01*
X92461781Y-90779081D01*
X92497653Y-90760347D01*
X92529315Y-90734177D01*
X92557214Y-90699703D01*
X92557626Y-90698934D01*
X92775415Y-90698934D01*
X92775415Y-90781000D01*
X93186640Y-90781000D01*
X93186640Y-90698934D01*
X93028835Y-90698934D01*
X93028835Y-90154565D01*
X93200532Y-90190127D01*
X93200532Y-90102591D01*
X93029818Y-90067029D01*
X92933220Y-90067029D01*
X92933220Y-90698934D01*
X92775415Y-90698934D01*
X92557626Y-90698934D01*
X92582891Y-90651738D01*
X92602747Y-90591595D01*
X92615801Y-90516747D01*
X92620559Y-90424271D01*
X92615795Y-90331503D01*
X92602733Y-90256499D01*
X92582875Y-90196305D01*
X92557214Y-90148368D01*
X92529313Y-90113876D01*
X92497649Y-90087694D01*
X92461777Y-90068953D01*
X92420873Y-90057387D01*
X92373806Y-90053351D01*
X92326739Y-90057388D01*
X92285840Y-90068955D01*
X92249977Y-90087695D01*
X92218326Y-90113877D01*
X92190441Y-90148368D01*
X92164762Y-90196308D01*
X92144891Y-90256503D01*
X92131820Y-90331506D01*
X92127054Y-90424271D01*
X91918052Y-90424271D01*
X92054434Y-90067029D01*
X91953519Y-90067029D01*
X91727369Y-90668159D01*
X91500705Y-90067029D01*
X91400260Y-90067029D01*
X91322482Y-90067029D01*
X91322482Y-89975573D01*
X93278310Y-89975573D01*
X93278310Y-90872455D01*
G37*
G36*
X100029187Y-85703369D02*
G01*
X99838299Y-85703369D01*
X99838299Y-85545563D01*
X99758969Y-85545563D01*
X99758969Y-85798984D01*
X100064407Y-85798984D01*
X100088625Y-85760539D01*
X100108595Y-85719495D01*
X100124374Y-85675586D01*
X100139498Y-85606635D01*
X100144677Y-85531672D01*
X100140310Y-85464234D01*
X100127875Y-85405520D01*
X100108056Y-85354228D01*
X100081099Y-85309280D01*
X100046797Y-85269874D01*
X100006366Y-85237088D01*
X99959911Y-85211104D01*
X99906543Y-85191865D01*
X99845116Y-85179731D01*
X99774271Y-85175456D01*
X99703190Y-85179736D01*
X99641606Y-85191880D01*
X99588146Y-85211126D01*
X99541654Y-85237107D01*
X99501232Y-85269874D01*
X99466931Y-85309279D01*
X99439974Y-85354230D01*
X99420155Y-85405530D01*
X99407718Y-85464257D01*
X99403351Y-85531715D01*
X99407761Y-85600328D01*
X99420705Y-85664388D01*
X99442230Y-85725068D01*
X99471739Y-85780348D01*
X99575689Y-85780348D01*
X99546992Y-85743311D01*
X99523907Y-85705429D01*
X99506061Y-85666525D01*
X99493107Y-85625821D01*
X99485309Y-85583701D01*
X99482681Y-85539836D01*
X99486066Y-85486519D01*
X99495585Y-85441343D01*
X99510547Y-85403032D01*
X99530639Y-85370530D01*
X99555942Y-85343049D01*
X99593997Y-85315975D01*
X99641602Y-85295475D01*
X99700838Y-85282151D01*
X99774271Y-85277311D01*
X99847417Y-85282144D01*
X99906489Y-85295458D01*
X99954027Y-85315956D01*
X99992086Y-85343049D01*
X100017392Y-85370547D01*
X100037485Y-85403060D01*
X100052446Y-85441373D01*
X100061964Y-85486541D01*
X100065347Y-85539836D01*
X100063017Y-85589552D01*
X100056542Y-85631134D01*
X100045124Y-85669746D01*
X100029187Y-85703369D01*
G37*
G36*
X117638017Y-91917029D02*
G01*
X117494103Y-91917029D01*
X117311891Y-92403310D01*
X117128782Y-91917029D01*
X116984826Y-91917029D01*
X116984826Y-92631000D01*
X117079030Y-92631000D01*
X117079030Y-92004138D01*
X117263122Y-92494224D01*
X117360190Y-92494224D01*
X117544325Y-92004138D01*
X117544325Y-92631000D01*
X117638017Y-92631000D01*
X117638017Y-91917029D01*
G37*
G36*
X116841040Y-92368347D02*
G01*
X116841040Y-92461397D01*
X116518762Y-92461397D01*
X116518762Y-92631000D01*
X116422634Y-92631000D01*
X116422634Y-92461397D01*
X116320778Y-92461397D01*
X116320778Y-92382067D01*
X116422634Y-92382067D01*
X116518762Y-92382067D01*
X116762608Y-92382067D01*
X116518762Y-92001146D01*
X116518762Y-92382067D01*
X116422634Y-92382067D01*
X116422634Y-91917029D01*
X116544108Y-91917029D01*
X116841040Y-92368347D01*
G37*
G36*
X113501038Y-117831000D02*
G01*
X113244754Y-117831000D01*
X113183994Y-117827219D01*
X113134069Y-117816738D01*
X113093150Y-117800524D01*
X113059721Y-117779067D01*
X113031597Y-117750803D01*
X113011519Y-117717575D01*
X112999061Y-117678392D01*
X112994667Y-117631777D01*
X112995688Y-117621476D01*
X113096523Y-117621476D01*
X113101196Y-117663857D01*
X113113948Y-117695716D01*
X113134051Y-117719613D01*
X113161006Y-117736320D01*
X113198402Y-117747470D01*
X113249541Y-117751669D01*
X113404440Y-117751669D01*
X113404440Y-117491795D01*
X113249541Y-117491795D01*
X113198359Y-117495941D01*
X113160966Y-117506937D01*
X113134051Y-117523382D01*
X113113990Y-117546982D01*
X113101220Y-117578786D01*
X113096523Y-117621476D01*
X112995688Y-117621476D01*
X112999314Y-117584883D01*
X113012569Y-117545090D01*
X113034119Y-117510944D01*
X113063222Y-117482916D01*
X113099626Y-117461691D01*
X113144822Y-117447300D01*
X113107183Y-117437136D01*
X113077730Y-117420932D01*
X113054891Y-117398830D01*
X113038505Y-117371335D01*
X113028060Y-117337031D01*
X113025190Y-117304412D01*
X113121356Y-117304412D01*
X113125586Y-117339240D01*
X113137258Y-117365698D01*
X113156020Y-117385836D01*
X113180648Y-117399652D01*
X113214817Y-117408953D01*
X113261466Y-117412465D01*
X113404440Y-117412465D01*
X113404440Y-117196359D01*
X113261466Y-117196359D01*
X113214840Y-117199901D01*
X113180669Y-117209286D01*
X113156020Y-117223244D01*
X113137226Y-117243497D01*
X113125569Y-117269895D01*
X113121356Y-117304412D01*
X113025190Y-117304412D01*
X113024288Y-117294154D01*
X113028305Y-117252716D01*
X113039712Y-117217875D01*
X113058148Y-117188296D01*
X113084085Y-117163105D01*
X113114699Y-117144128D01*
X113152290Y-117129731D01*
X113198270Y-117120400D01*
X113254328Y-117117029D01*
X113501038Y-117117029D01*
X113501038Y-117831000D01*
G37*
G36*
X112616633Y-117107682D02*
G01*
X112669670Y-117120140D01*
X112716967Y-117140268D01*
X112759391Y-117168087D01*
X112797539Y-117204095D01*
X112828962Y-117245518D01*
X112853817Y-117292376D01*
X112872149Y-117345440D01*
X112883652Y-117405688D01*
X112887683Y-117474271D01*
X112883650Y-117542842D01*
X112872144Y-117603055D01*
X112853811Y-117656063D01*
X112828957Y-117702850D01*
X112797539Y-117744189D01*
X112759405Y-117780095D01*
X112716988Y-117807843D01*
X112669691Y-117827924D01*
X112616647Y-117840355D01*
X112556770Y-117844677D01*
X112497112Y-117840349D01*
X112444247Y-117827897D01*
X112397092Y-117807775D01*
X112354783Y-117779955D01*
X112316728Y-117743933D01*
X112285385Y-117702514D01*
X112260598Y-117655701D01*
X112242322Y-117602730D01*
X112230857Y-117542633D01*
X112226841Y-117474271D01*
X112328696Y-117474271D01*
X112333059Y-117541971D01*
X112345290Y-117598899D01*
X112364461Y-117646794D01*
X112390160Y-117687086D01*
X112423683Y-117721387D01*
X112461908Y-117745491D01*
X112505778Y-117760217D01*
X112556770Y-117765347D01*
X112607784Y-117760224D01*
X112651764Y-117745506D01*
X112690171Y-117721400D01*
X112723936Y-117687086D01*
X112749828Y-117646767D01*
X112769129Y-117598862D01*
X112781438Y-117541943D01*
X112785827Y-117474271D01*
X112781432Y-117406314D01*
X112769113Y-117349230D01*
X112749810Y-117301255D01*
X112723936Y-117260943D01*
X112690171Y-117226629D01*
X112651764Y-117202522D01*
X112607784Y-117187804D01*
X112556770Y-117182681D01*
X112505778Y-117187811D01*
X112461908Y-117202537D01*
X112423683Y-117226641D01*
X112390160Y-117260943D01*
X112364479Y-117301228D01*
X112345307Y-117349193D01*
X112333065Y-117406287D01*
X112328696Y-117474271D01*
X112226841Y-117474271D01*
X112230862Y-117405675D01*
X112242336Y-117345419D01*
X112260619Y-117292355D01*
X112285403Y-117245505D01*
X112316728Y-117204095D01*
X112354783Y-117168073D01*
X112397092Y-117140253D01*
X112444247Y-117120131D01*
X112497112Y-117107680D01*
X112556770Y-117103351D01*
X112616633Y-117107682D01*
G37*
G36*
X111845900Y-117107682D02*
G01*
X111898937Y-117120140D01*
X111946234Y-117140268D01*
X111988659Y-117168087D01*
X112026806Y-117204095D01*
X112058229Y-117245518D01*
X112083084Y-117292376D01*
X112101416Y-117345440D01*
X112112919Y-117405688D01*
X112116950Y-117474271D01*
X112112918Y-117542842D01*
X112101411Y-117603055D01*
X112083078Y-117656063D01*
X112058225Y-117702850D01*
X112026806Y-117744189D01*
X111988672Y-117780095D01*
X111946255Y-117807843D01*
X111898958Y-117827924D01*
X111845914Y-117840355D01*
X111786038Y-117844677D01*
X111726379Y-117840349D01*
X111673514Y-117827897D01*
X111626359Y-117807775D01*
X111584051Y-117779955D01*
X111545996Y-117743933D01*
X111514652Y-117702514D01*
X111489865Y-117655701D01*
X111471589Y-117602730D01*
X111460124Y-117542633D01*
X111456108Y-117474271D01*
X111557964Y-117474271D01*
X111562326Y-117541971D01*
X111574557Y-117598899D01*
X111593729Y-117646794D01*
X111619427Y-117687086D01*
X111652950Y-117721387D01*
X111691175Y-117745491D01*
X111735045Y-117760217D01*
X111786038Y-117765347D01*
X111837051Y-117760224D01*
X111881031Y-117745506D01*
X111919438Y-117721400D01*
X111953204Y-117687086D01*
X111979095Y-117646767D01*
X111998397Y-117598862D01*
X112010705Y-117541943D01*
X112015095Y-117474271D01*
X112010699Y-117406314D01*
X111998380Y-117349230D01*
X111979077Y-117301255D01*
X111953204Y-117260943D01*
X111919438Y-117226629D01*
X111881031Y-117202522D01*
X111837051Y-117187804D01*
X111786038Y-117182681D01*
X111735045Y-117187811D01*
X111691175Y-117202537D01*
X111652950Y-117226641D01*
X111619427Y-117260943D01*
X111593746Y-117301228D01*
X111574574Y-117349193D01*
X111562333Y-117406287D01*
X111557964Y-117474271D01*
X111456108Y-117474271D01*
X111460129Y-117405675D01*
X111471603Y-117345419D01*
X111489887Y-117292355D01*
X111514671Y-117245505D01*
X111545996Y-117204095D01*
X111584051Y-117168073D01*
X111626359Y-117140253D01*
X111673514Y-117120131D01*
X111726379Y-117107680D01*
X111786038Y-117103351D01*
X111845900Y-117107682D01*
G37*
G36*
X111404091Y-117117029D02*
G01*
X110800139Y-117117029D01*
X110800139Y-117199094D01*
X111053602Y-117199094D01*
X111053602Y-117831000D01*
X111150670Y-117831000D01*
X111150670Y-117199094D01*
X111404091Y-117199094D01*
X111404091Y-117117029D01*
G37*
G36*
X112506498Y-83696412D02*
G01*
X112831000Y-83696412D01*
X112831000Y-83608406D01*
X112509405Y-83608406D01*
X112459358Y-83604521D01*
X112422421Y-83594190D01*
X112395539Y-83578742D01*
X112375047Y-83556474D01*
X112362342Y-83527550D01*
X112357755Y-83489838D01*
X112360831Y-83454810D01*
X112369576Y-83425016D01*
X112383647Y-83399469D01*
X112403233Y-83377468D01*
X112426965Y-83360088D01*
X112454945Y-83347301D01*
X112487990Y-83339219D01*
X112527143Y-83336350D01*
X112831000Y-83336350D01*
X112831000Y-83247873D01*
X112086938Y-83247873D01*
X112086938Y-83336350D01*
X112376903Y-83336350D01*
X112346747Y-83359312D01*
X112323018Y-83384048D01*
X112304968Y-83410679D01*
X112291950Y-83440072D01*
X112283936Y-83472778D01*
X112281160Y-83509457D01*
X112285142Y-83555028D01*
X112296297Y-83592507D01*
X112313988Y-83623477D01*
X112338349Y-83649054D01*
X112367788Y-83668492D01*
X112404529Y-83683281D01*
X112450136Y-83692914D01*
X112506498Y-83696412D01*
G37*
G36*
X112141648Y-83959193D02*
G01*
X112294838Y-83959193D01*
X112294838Y-84140421D01*
X112363226Y-84140421D01*
X112363226Y-83959193D01*
X112654217Y-83959193D01*
X112698303Y-83961929D01*
X112724359Y-83968491D01*
X112738462Y-83977102D01*
X112747724Y-83990630D01*
X112754431Y-84013535D01*
X112757140Y-84050064D01*
X112757140Y-84140421D01*
X112831000Y-84140421D01*
X112831000Y-84050064D01*
X112827923Y-83997261D01*
X112819786Y-83958114D01*
X112807877Y-83929663D01*
X112792916Y-83909484D01*
X112772976Y-83894228D01*
X112744892Y-83882128D01*
X112706282Y-83873877D01*
X112654217Y-83870759D01*
X112363226Y-83870759D01*
X112363226Y-83806175D01*
X112294838Y-83806175D01*
X112294838Y-83870759D01*
X112141648Y-83870759D01*
X112141648Y-83959193D01*
G37*
G36*
X112141648Y-84342850D02*
G01*
X112294838Y-84342850D01*
X112294838Y-84524078D01*
X112363226Y-84524078D01*
X112363226Y-84342850D01*
X112654217Y-84342850D01*
X112698303Y-84345585D01*
X112724359Y-84352147D01*
X112738462Y-84360759D01*
X112747724Y-84374287D01*
X112754431Y-84397191D01*
X112757140Y-84433721D01*
X112757140Y-84524078D01*
X112831000Y-84524078D01*
X112831000Y-84433721D01*
X112827923Y-84380918D01*
X112819786Y-84341771D01*
X112807877Y-84313320D01*
X112792916Y-84293140D01*
X112772976Y-84277885D01*
X112744892Y-84265785D01*
X112706282Y-84257534D01*
X112654217Y-84254416D01*
X112363226Y-84254416D01*
X112363226Y-84189832D01*
X112294838Y-84189832D01*
X112294838Y-84254416D01*
X112141648Y-84254416D01*
X112141648Y-84342850D01*
G37*
G36*
X113033428Y-84724626D02*
G01*
X112751669Y-84724626D01*
X112781085Y-84745267D01*
X112804222Y-84768560D01*
X112821810Y-84794681D01*
X112834192Y-84823723D01*
X112841949Y-84857153D01*
X112844677Y-84895810D01*
X112839721Y-84942768D01*
X112825332Y-84984078D01*
X112801463Y-85020997D01*
X112767057Y-85054299D01*
X112727009Y-85080049D01*
X112680462Y-85099054D01*
X112626245Y-85111051D01*
X112562919Y-85115292D01*
X112499592Y-85111051D01*
X112445375Y-85099054D01*
X112398828Y-85080049D01*
X112358780Y-85054299D01*
X112324375Y-85020997D01*
X112300505Y-84984078D01*
X112286116Y-84942768D01*
X112281160Y-84895810D01*
X112282680Y-84874310D01*
X112355019Y-84874310D01*
X112358610Y-84907929D01*
X112368940Y-84936805D01*
X112385949Y-84961967D01*
X112410371Y-84984030D01*
X112438594Y-85000548D01*
X112472652Y-85013026D01*
X112513655Y-85021065D01*
X112562919Y-85023952D01*
X112612180Y-85021066D01*
X112653191Y-85013027D01*
X112687265Y-85000549D01*
X112715509Y-84984030D01*
X112739910Y-84961970D01*
X112756906Y-84936808D01*
X112767229Y-84907932D01*
X112770818Y-84874310D01*
X112767228Y-84840666D01*
X112756903Y-84811775D01*
X112739907Y-84786608D01*
X112715509Y-84764547D01*
X112687265Y-84748028D01*
X112653191Y-84735551D01*
X112612180Y-84727512D01*
X112562919Y-84724626D01*
X112513655Y-84727513D01*
X112472652Y-84735552D01*
X112438594Y-84748030D01*
X112410371Y-84764547D01*
X112385951Y-84786611D01*
X112368943Y-84811779D01*
X112358611Y-84840668D01*
X112355019Y-84874310D01*
X112282680Y-84874310D01*
X112283892Y-84857155D01*
X112291664Y-84823726D01*
X112304070Y-84794681D01*
X112321633Y-84768562D01*
X112344755Y-84745268D01*
X112374168Y-84724626D01*
X112294838Y-84724626D01*
X112294838Y-84636149D01*
X113033428Y-84636149D01*
X113033428Y-84724626D01*
G37*
G36*
X112311251Y-85602557D02*
G01*
X112393316Y-85602557D01*
X112376535Y-85564456D01*
X112364593Y-85525065D01*
X112357437Y-85484414D01*
X112355019Y-85441888D01*
X112357707Y-85398355D01*
X112364782Y-85366482D01*
X112375108Y-85343623D01*
X112390740Y-85325401D01*
X112410346Y-85314652D01*
X112435247Y-85310882D01*
X112454447Y-85313570D01*
X112470160Y-85321290D01*
X112483247Y-85334305D01*
X112498310Y-85364190D01*
X112516457Y-85428509D01*
X112523125Y-85458643D01*
X112540234Y-85520311D01*
X112559461Y-85563209D01*
X112580016Y-85591786D01*
X112606847Y-85613205D01*
X112640340Y-85626486D01*
X112682469Y-85631237D01*
X112718535Y-85627414D01*
X112749668Y-85616396D01*
X112776940Y-85598238D01*
X112800994Y-85572167D01*
X112819117Y-85541971D01*
X112832762Y-85505661D01*
X112841533Y-85462076D01*
X112844677Y-85409831D01*
X112842509Y-85366477D01*
X112835787Y-85320200D01*
X112824917Y-85273216D01*
X112809115Y-85221935D01*
X112718843Y-85221935D01*
X112741871Y-85271056D01*
X112757824Y-85318020D01*
X112767614Y-85365457D01*
X112770818Y-85411754D01*
X112768032Y-85452881D01*
X112760568Y-85484059D01*
X112749404Y-85507412D01*
X112732937Y-85526200D01*
X112713182Y-85537114D01*
X112689009Y-85540879D01*
X112666118Y-85538004D01*
X112648067Y-85529933D01*
X112633700Y-85516730D01*
X112623160Y-85498947D01*
X112610797Y-85465950D01*
X112596642Y-85410814D01*
X112589504Y-85380210D01*
X112574547Y-85326747D01*
X112556696Y-85288501D01*
X112536675Y-85262070D01*
X112510839Y-85242354D01*
X112478848Y-85230112D01*
X112438923Y-85225739D01*
X112402120Y-85229329D01*
X112371130Y-85239531D01*
X112344772Y-85256039D01*
X112322278Y-85279295D01*
X112305332Y-85306729D01*
X112292485Y-85340349D01*
X112284164Y-85381401D01*
X112281160Y-85431373D01*
X112283093Y-85479348D01*
X112288683Y-85523184D01*
X112298234Y-85565068D01*
X112311251Y-85602557D01*
G37*
G36*
X112710637Y-85793787D02*
G01*
X112710637Y-85894702D01*
X112831000Y-85894702D01*
X112831000Y-85793787D01*
X112710637Y-85793787D01*
G37*
G36*
X112324928Y-85793787D02*
G01*
X112324928Y-85894702D01*
X112445291Y-85894702D01*
X112445291Y-85793787D01*
X112324928Y-85793787D01*
G37*
G36*
X112117029Y-86257329D02*
G01*
X112117029Y-86338583D01*
X112921272Y-86089950D01*
X112921272Y-86008653D01*
X112117029Y-86257329D01*
G37*
G36*
X112117029Y-86586959D02*
G01*
X112117029Y-86668213D01*
X112921272Y-86419580D01*
X112921272Y-86338283D01*
X112117029Y-86586959D01*
G37*
G36*
X112618469Y-86726138D02*
G01*
X112671486Y-86737995D01*
X112716846Y-86756757D01*
X112755730Y-86782164D01*
X112788902Y-86814988D01*
X112812075Y-86851769D01*
X112826134Y-86893327D01*
X112831000Y-86940953D01*
X112828240Y-86979915D01*
X112820394Y-87013566D01*
X112807876Y-87042765D01*
X112790157Y-87069054D01*
X112767085Y-87092270D01*
X112737992Y-87112607D01*
X112780179Y-87112607D01*
X112825703Y-87109447D01*
X112862288Y-87100749D01*
X112891596Y-87087345D01*
X112914946Y-87069565D01*
X112933536Y-87046807D01*
X112947406Y-87018496D01*
X112956338Y-86983421D01*
X112959569Y-86940012D01*
X112957056Y-86901159D01*
X112949524Y-86863033D01*
X112937007Y-86825584D01*
X112918536Y-86786524D01*
X113003337Y-86786524D01*
X113016658Y-86825831D01*
X113026034Y-86866367D01*
X113031531Y-86908226D01*
X113033428Y-86953861D01*
X113028613Y-87016626D01*
X113015319Y-87067062D01*
X112994680Y-87107543D01*
X112966963Y-87139876D01*
X112932424Y-87164768D01*
X112888615Y-87183712D01*
X112833442Y-87196094D01*
X112764321Y-87200613D01*
X112294838Y-87200613D01*
X112294838Y-87112607D01*
X112374168Y-87112607D01*
X112345074Y-87092270D01*
X112322003Y-87069054D01*
X112304284Y-87042765D01*
X112291766Y-87013566D01*
X112283920Y-86979915D01*
X112282683Y-86962452D01*
X112355019Y-86962452D01*
X112358512Y-86997020D01*
X112368483Y-87026334D01*
X112384722Y-87051483D01*
X112407763Y-87073155D01*
X112434706Y-87089417D01*
X112467621Y-87101747D01*
X112507695Y-87109728D01*
X112556336Y-87112607D01*
X112604689Y-87109735D01*
X112644606Y-87101764D01*
X112677469Y-87089435D01*
X112704439Y-87073155D01*
X112727459Y-87051486D01*
X112743685Y-87026337D01*
X112753649Y-86997023D01*
X112757140Y-86962452D01*
X112753659Y-86928157D01*
X112743711Y-86899008D01*
X112727488Y-86873933D01*
X112704439Y-86852262D01*
X112677469Y-86835982D01*
X112644606Y-86823653D01*
X112604689Y-86815682D01*
X112556336Y-86812811D01*
X112507695Y-86815689D01*
X112467621Y-86823670D01*
X112434706Y-86836000D01*
X112407763Y-86852262D01*
X112384694Y-86873936D01*
X112368457Y-86899011D01*
X112358503Y-86928159D01*
X112355019Y-86962452D01*
X112282683Y-86962452D01*
X112281160Y-86940953D01*
X112286026Y-86893327D01*
X112300085Y-86851769D01*
X112323258Y-86814988D01*
X112356430Y-86782164D01*
X112395308Y-86756776D01*
X112440738Y-86738012D01*
X112493922Y-86726144D01*
X112556336Y-86721940D01*
X112618469Y-86726138D01*
G37*
G36*
X112294838Y-87381842D02*
G01*
X112294838Y-87469848D01*
X112831000Y-87469848D01*
X112831000Y-87381842D01*
X112294838Y-87381842D01*
G37*
G36*
X112086938Y-87381842D02*
G01*
X112086938Y-87469848D01*
X112199094Y-87469848D01*
X112199094Y-87381842D01*
X112086938Y-87381842D01*
G37*
G36*
X112141648Y-87741050D02*
G01*
X112294838Y-87741050D01*
X112294838Y-87922278D01*
X112363226Y-87922278D01*
X112363226Y-87741050D01*
X112654217Y-87741050D01*
X112698303Y-87743785D01*
X112724359Y-87750347D01*
X112738462Y-87758959D01*
X112747724Y-87772486D01*
X112754431Y-87795391D01*
X112757140Y-87831920D01*
X112757140Y-87922278D01*
X112831000Y-87922278D01*
X112831000Y-87831920D01*
X112827923Y-87779118D01*
X112819786Y-87739971D01*
X112807877Y-87711519D01*
X112792916Y-87691340D01*
X112772976Y-87676084D01*
X112744892Y-87663984D01*
X112706282Y-87655733D01*
X112654217Y-87652615D01*
X112363226Y-87652615D01*
X112363226Y-87588031D01*
X112294838Y-87588031D01*
X112294838Y-87652615D01*
X112141648Y-87652615D01*
X112141648Y-87741050D01*
G37*
G36*
X112506498Y-88482888D02*
G01*
X112831000Y-88482888D01*
X112831000Y-88394882D01*
X112509405Y-88394882D01*
X112459358Y-88390997D01*
X112422421Y-88380666D01*
X112395539Y-88365218D01*
X112375047Y-88342950D01*
X112362342Y-88314026D01*
X112357755Y-88276314D01*
X112360831Y-88241286D01*
X112369576Y-88211492D01*
X112383647Y-88185944D01*
X112403233Y-88163944D01*
X112426965Y-88146564D01*
X112454945Y-88133777D01*
X112487990Y-88125695D01*
X112527143Y-88122826D01*
X112831000Y-88122826D01*
X112831000Y-88034349D01*
X112086938Y-88034349D01*
X112086938Y-88122826D01*
X112376903Y-88122826D01*
X112346747Y-88145788D01*
X112323018Y-88170524D01*
X112304968Y-88197155D01*
X112291950Y-88226548D01*
X112283936Y-88259254D01*
X112281160Y-88295933D01*
X112285142Y-88341504D01*
X112296297Y-88378983D01*
X112313988Y-88409953D01*
X112338349Y-88435530D01*
X112367788Y-88454968D01*
X112404529Y-88469757D01*
X112450136Y-88479390D01*
X112506498Y-88482888D01*
G37*
G36*
X112619595Y-88649584D02*
G01*
X112294838Y-88649584D01*
X112294838Y-88737548D01*
X112616261Y-88737548D01*
X112666193Y-88741420D01*
X112703145Y-88751732D01*
X112730127Y-88767169D01*
X112750720Y-88789477D01*
X112763478Y-88818431D01*
X112768083Y-88856159D01*
X112765016Y-88891192D01*
X112756297Y-88921030D01*
X112742264Y-88946648D01*
X112722733Y-88968742D01*
X112699003Y-88986244D01*
X112671051Y-88999108D01*
X112638061Y-89007234D01*
X112598993Y-89010117D01*
X112294838Y-89010117D01*
X112294838Y-89098124D01*
X112831000Y-89098124D01*
X112831000Y-89010117D01*
X112748934Y-89010117D01*
X112779434Y-88986827D01*
X112803224Y-88962074D01*
X112821126Y-88935745D01*
X112833983Y-88906694D01*
X112841920Y-88874168D01*
X112844677Y-88837480D01*
X112840696Y-88791926D01*
X112829530Y-88754349D01*
X112811799Y-88723196D01*
X112787359Y-88697370D01*
X112757783Y-88677714D01*
X112721031Y-88662795D01*
X112675583Y-88653100D01*
X112619595Y-88649584D01*
G37*
G36*
X112831000Y-89364752D02*
G01*
X112751669Y-89364752D01*
X112781085Y-89385392D01*
X112804222Y-89408686D01*
X112821810Y-89434807D01*
X112834192Y-89463849D01*
X112841949Y-89497278D01*
X112844677Y-89535935D01*
X112839721Y-89582893D01*
X112825332Y-89624203D01*
X112801463Y-89661122D01*
X112767057Y-89694424D01*
X112727009Y-89720175D01*
X112680462Y-89739179D01*
X112626245Y-89751176D01*
X112562919Y-89755418D01*
X112499592Y-89751176D01*
X112445375Y-89739179D01*
X112398828Y-89720175D01*
X112358780Y-89694424D01*
X112324375Y-89661122D01*
X112300505Y-89624203D01*
X112286116Y-89582893D01*
X112281160Y-89535935D01*
X112282680Y-89514436D01*
X112355019Y-89514436D01*
X112358610Y-89548055D01*
X112368940Y-89576930D01*
X112385949Y-89602093D01*
X112410371Y-89624156D01*
X112438594Y-89640673D01*
X112472652Y-89653151D01*
X112513655Y-89661191D01*
X112562919Y-89664077D01*
X112612180Y-89661191D01*
X112653191Y-89653153D01*
X112687265Y-89640675D01*
X112715509Y-89624156D01*
X112739910Y-89602095D01*
X112756906Y-89576934D01*
X112767229Y-89548058D01*
X112770818Y-89514436D01*
X112767228Y-89480791D01*
X112756903Y-89451901D01*
X112739907Y-89426733D01*
X112715509Y-89404673D01*
X112687265Y-89388154D01*
X112653191Y-89375676D01*
X112612180Y-89367638D01*
X112562919Y-89364752D01*
X112513655Y-89367638D01*
X112472652Y-89375678D01*
X112438594Y-89388155D01*
X112410371Y-89404673D01*
X112385951Y-89426736D01*
X112368943Y-89451905D01*
X112358611Y-89480794D01*
X112355019Y-89514436D01*
X112282680Y-89514436D01*
X112283892Y-89497281D01*
X112291664Y-89463851D01*
X112304070Y-89434807D01*
X112321633Y-89408688D01*
X112344755Y-89385394D01*
X112374168Y-89364752D01*
X112086938Y-89364752D01*
X112086938Y-89276275D01*
X112831000Y-89276275D01*
X112831000Y-89364752D01*
G37*
G36*
X112710637Y-89913693D02*
G01*
X112710637Y-90014609D01*
X112831000Y-90014609D01*
X112831000Y-89913693D01*
X112710637Y-89913693D01*
G37*
G36*
X112313986Y-90597830D02*
G01*
X112396052Y-90597830D01*
X112377930Y-90560047D01*
X112365277Y-90522988D01*
X112357573Y-90485202D01*
X112355019Y-90447205D01*
X112358746Y-90405111D01*
X112369289Y-90369716D01*
X112386184Y-90339738D01*
X112409644Y-90314276D01*
X112437998Y-90294512D01*
X112472176Y-90279771D01*
X112513338Y-90270339D01*
X112562919Y-90266960D01*
X112612500Y-90270339D01*
X112653661Y-90279771D01*
X112687840Y-90294512D01*
X112716193Y-90314276D01*
X112739653Y-90339738D01*
X112756548Y-90369716D01*
X112767091Y-90405111D01*
X112770818Y-90447205D01*
X112768264Y-90485202D01*
X112760560Y-90522988D01*
X112747908Y-90560047D01*
X112729785Y-90597830D01*
X112811851Y-90597830D01*
X112826212Y-90560366D01*
X112836471Y-90521577D01*
X112842575Y-90481382D01*
X112844677Y-90437631D01*
X112841355Y-90389274D01*
X112831833Y-90346668D01*
X112816529Y-90308934D01*
X112795514Y-90275355D01*
X112768510Y-90245418D01*
X112728538Y-90215121D01*
X112681868Y-90192988D01*
X112627218Y-90179082D01*
X112562919Y-90174166D01*
X112497590Y-90179165D01*
X112442521Y-90193255D01*
X112395914Y-90215601D01*
X112356387Y-90246102D01*
X112329909Y-90276200D01*
X112309176Y-90310304D01*
X112293987Y-90348984D01*
X112284487Y-90393020D01*
X112281160Y-90443359D01*
X112283225Y-90483652D01*
X112289367Y-90522731D01*
X112299616Y-90560863D01*
X112313986Y-90597830D01*
G37*
G36*
X112628946Y-90716989D02*
G01*
X112684275Y-90729915D01*
X112730714Y-90750237D01*
X112769707Y-90777648D01*
X112802017Y-90812733D01*
X112825196Y-90853662D01*
X112839603Y-90901595D01*
X112844677Y-90958192D01*
X112839615Y-91014509D01*
X112825226Y-91062317D01*
X112802049Y-91103247D01*
X112769707Y-91138437D01*
X112730697Y-91165965D01*
X112684253Y-91186364D01*
X112628929Y-91199337D01*
X112562919Y-91203961D01*
X112496641Y-91199326D01*
X112441215Y-91186339D01*
X112394798Y-91165938D01*
X112355917Y-91138437D01*
X112323677Y-91103261D01*
X112300563Y-91062336D01*
X112286211Y-91014523D01*
X112281160Y-90958192D01*
X112355019Y-90958192D01*
X112358638Y-90992014D01*
X112369078Y-91021251D01*
X112386310Y-91046906D01*
X112411097Y-91069579D01*
X112439771Y-91086702D01*
X112473923Y-91099543D01*
X112514569Y-91107762D01*
X112562919Y-91110697D01*
X112611537Y-91107753D01*
X112652294Y-91099521D01*
X112686433Y-91086679D01*
X112714996Y-91069579D01*
X112739656Y-91046922D01*
X112756813Y-91021273D01*
X112767212Y-90992030D01*
X112770818Y-90958192D01*
X112767202Y-90923813D01*
X112756807Y-90894286D01*
X112739723Y-90868571D01*
X112715253Y-90846036D01*
X112686816Y-90829073D01*
X112652697Y-90816308D01*
X112611823Y-90808110D01*
X112562919Y-90805174D01*
X112514029Y-90808127D01*
X112473169Y-90816373D01*
X112439059Y-90829216D01*
X112410627Y-90846292D01*
X112386103Y-90868933D01*
X112369007Y-90894653D01*
X112358625Y-90924066D01*
X112355019Y-90958192D01*
X112281160Y-90958192D01*
X112286223Y-90901581D01*
X112300593Y-90853643D01*
X112323708Y-90812720D01*
X112355917Y-90777648D01*
X112394781Y-90750264D01*
X112441192Y-90729941D01*
X112496624Y-90716999D01*
X112562919Y-90712380D01*
X112628946Y-90716989D01*
G37*
G36*
X112396565Y-91766709D02*
G01*
X112359263Y-91791170D01*
X112330596Y-91817449D01*
X112309327Y-91845612D01*
X112293944Y-91877300D01*
X112284459Y-91913031D01*
X112281160Y-91953665D01*
X112285101Y-91994497D01*
X112296287Y-92028820D01*
X112314357Y-92057950D01*
X112339760Y-92082747D01*
X112369802Y-92101476D01*
X112406645Y-92115670D01*
X112451662Y-92124863D01*
X112506498Y-92128182D01*
X112831000Y-92128182D01*
X112831000Y-92039748D01*
X112509405Y-92039748D01*
X112458489Y-92036118D01*
X112421474Y-92026557D01*
X112395069Y-92012478D01*
X112374767Y-91991764D01*
X112362263Y-91964725D01*
X112357755Y-91929301D01*
X112360805Y-91895802D01*
X112369499Y-91867200D01*
X112383554Y-91842553D01*
X112403233Y-91821206D01*
X112435674Y-91799892D01*
X112476240Y-91786403D01*
X112527143Y-91781541D01*
X112831000Y-91781541D01*
X112831000Y-91693064D01*
X112509405Y-91693064D01*
X112458159Y-91689421D01*
X112421108Y-91679848D01*
X112394855Y-91665794D01*
X112374734Y-91645070D01*
X112362269Y-91617739D01*
X112357755Y-91581634D01*
X112360800Y-91548677D01*
X112369502Y-91520399D01*
X112383617Y-91495888D01*
X112403446Y-91474521D01*
X112436037Y-91453178D01*
X112476556Y-91439703D01*
X112527143Y-91434856D01*
X112831000Y-91434856D01*
X112831000Y-91346379D01*
X112294838Y-91346379D01*
X112294838Y-91434856D01*
X112376903Y-91434856D01*
X112346173Y-91457013D01*
X112322329Y-91481037D01*
X112304497Y-91507048D01*
X112291828Y-91535972D01*
X112283928Y-91569015D01*
X112281160Y-91606980D01*
X112284634Y-91644916D01*
X112294581Y-91677649D01*
X112310738Y-91706186D01*
X112332772Y-91730534D01*
X112361016Y-91750701D01*
X112396565Y-91766709D01*
G37*
G36*
X112117029Y-92460121D02*
G01*
X112117029Y-92541374D01*
X112921272Y-92292741D01*
X112921272Y-92211445D01*
X112117029Y-92460121D01*
G37*
G36*
X96917029Y-82386432D02*
G01*
X96917029Y-82990383D01*
X96999094Y-82990383D01*
X96999094Y-82736920D01*
X97631000Y-82736920D01*
X97631000Y-82639852D01*
X96999094Y-82639852D01*
X96999094Y-82386432D01*
X96917029Y-82386432D01*
G37*
G36*
X97548934Y-83175629D02*
G01*
X97548934Y-83512739D01*
X97631000Y-83512739D01*
X97631000Y-83059412D01*
X97548934Y-83059412D01*
X97396343Y-83209310D01*
X97272903Y-83328605D01*
X97221744Y-83370277D01*
X97184811Y-83393402D01*
X97148380Y-83407390D01*
X97113901Y-83411824D01*
X97077784Y-83407239D01*
X97047351Y-83394020D01*
X97021235Y-83371903D01*
X97001744Y-83343417D01*
X96989684Y-83309263D01*
X96985417Y-83267910D01*
X96989171Y-83222120D01*
X97001018Y-83171996D01*
X97019978Y-83121359D01*
X97048334Y-83064200D01*
X96949855Y-83064200D01*
X96929219Y-83121971D01*
X96915105Y-83173193D01*
X96906130Y-83223019D01*
X96903351Y-83265987D01*
X96907221Y-83321444D01*
X96918140Y-83368545D01*
X96935413Y-83408663D01*
X96958831Y-83442898D01*
X96988829Y-83471716D01*
X97022917Y-83492075D01*
X97061916Y-83504547D01*
X97107062Y-83508892D01*
X97150060Y-83504741D01*
X97190538Y-83492394D01*
X97230592Y-83471011D01*
X97283546Y-83432383D01*
X97363645Y-83356345D01*
X97548934Y-83175629D01*
G37*
G36*
X93767298Y-94054188D02*
G01*
X93798144Y-94066284D01*
X93821711Y-94085428D01*
X93838567Y-94111061D01*
X93849565Y-94145342D01*
X93853640Y-94190873D01*
X93853640Y-94312305D01*
X93599237Y-94312305D01*
X93599237Y-94190873D01*
X93603363Y-94145383D01*
X93614514Y-94111100D01*
X93631636Y-94085428D01*
X93655487Y-94066266D01*
X93686508Y-94054176D01*
X93726909Y-94049780D01*
X93767298Y-94054188D01*
G37*
G36*
X94024426Y-97900268D02*
G01*
X93127544Y-97900268D01*
X93127544Y-97631687D01*
X93205322Y-97631687D01*
X93207505Y-97676887D01*
X93214212Y-97724225D01*
X93225149Y-97771926D01*
X93240884Y-97822490D01*
X93333891Y-97822490D01*
X93313802Y-97780733D01*
X93299099Y-97734526D01*
X93290356Y-97685964D01*
X93287387Y-97634551D01*
X93292006Y-97574811D01*
X93304404Y-97529753D01*
X93323120Y-97496108D01*
X93342725Y-97475531D01*
X93366021Y-97460866D01*
X93393744Y-97451757D01*
X93427027Y-97448536D01*
X93457701Y-97451488D01*
X93483760Y-97459902D01*
X93506129Y-97473547D01*
X93525420Y-97492774D01*
X93544308Y-97524163D01*
X93556491Y-97564408D01*
X93560939Y-97615915D01*
X93560939Y-97699092D01*
X93640270Y-97699092D01*
X93640270Y-97612069D01*
X93643932Y-97565265D01*
X93653794Y-97529766D01*
X93668736Y-97503075D01*
X93690163Y-97482317D01*
X93716936Y-97469746D01*
X93750759Y-97465291D01*
X93785492Y-97469879D01*
X93813053Y-97482841D01*
X93835175Y-97504272D01*
X93850643Y-97531827D01*
X93860815Y-97568218D01*
X93864582Y-97615915D01*
X93862661Y-97656190D01*
X93856589Y-97701016D01*
X93846731Y-97747318D01*
X93831756Y-97800948D01*
X93916557Y-97800948D01*
X93929959Y-97746594D01*
X93939125Y-97697895D01*
X93944831Y-97650441D01*
X93946648Y-97607281D01*
X93943092Y-97551942D01*
X93933123Y-97505389D01*
X93917498Y-97466208D01*
X93896554Y-97433234D01*
X93869195Y-97405113D01*
X93838084Y-97385385D01*
X93802464Y-97373350D01*
X93761145Y-97369163D01*
X93722769Y-97373114D01*
X93689674Y-97384479D01*
X93660743Y-97403143D01*
X93636847Y-97428115D01*
X93617872Y-97459852D01*
X93603938Y-97499698D01*
X93589985Y-97455681D01*
X93569415Y-97420047D01*
X93542261Y-97391389D01*
X93509196Y-97370016D01*
X93471089Y-97356961D01*
X93426600Y-97352408D01*
X93374990Y-97357306D01*
X93331541Y-97371209D01*
X93294624Y-97393642D01*
X93263153Y-97425113D01*
X93239258Y-97462465D01*
X93221202Y-97508163D01*
X93209531Y-97563893D01*
X93205322Y-97631687D01*
X93127544Y-97631687D01*
X93127544Y-96884335D01*
X93219000Y-96884335D01*
X93219000Y-96993841D01*
X93932970Y-97266410D01*
X93932970Y-97165495D01*
X93331840Y-96939344D01*
X93932970Y-96712681D01*
X93932970Y-96612236D01*
X93219000Y-96884335D01*
X93127544Y-96884335D01*
X93127544Y-96338470D01*
X93205322Y-96338470D01*
X93207505Y-96383670D01*
X93214212Y-96431008D01*
X93225149Y-96478708D01*
X93240884Y-96529273D01*
X93333891Y-96529273D01*
X93313802Y-96487516D01*
X93299099Y-96441309D01*
X93290356Y-96392747D01*
X93287387Y-96341334D01*
X93292006Y-96281594D01*
X93304404Y-96236536D01*
X93323120Y-96202891D01*
X93342725Y-96182314D01*
X93366021Y-96167649D01*
X93393744Y-96158540D01*
X93427027Y-96155319D01*
X93457701Y-96158271D01*
X93483760Y-96166685D01*
X93506129Y-96180330D01*
X93525420Y-96199557D01*
X93544308Y-96230946D01*
X93556491Y-96271191D01*
X93560939Y-96322698D01*
X93560939Y-96405875D01*
X93640270Y-96405875D01*
X93640270Y-96318851D01*
X93643932Y-96272048D01*
X93653794Y-96236549D01*
X93668736Y-96209858D01*
X93690163Y-96189100D01*
X93716936Y-96176529D01*
X93750759Y-96172074D01*
X93785492Y-96176662D01*
X93813053Y-96189624D01*
X93835175Y-96211055D01*
X93850643Y-96238610D01*
X93860815Y-96275001D01*
X93864582Y-96322698D01*
X93862661Y-96362973D01*
X93856589Y-96407799D01*
X93846731Y-96454101D01*
X93831756Y-96507731D01*
X93916557Y-96507731D01*
X93929959Y-96453377D01*
X93939125Y-96404678D01*
X93944831Y-96357224D01*
X93946648Y-96314064D01*
X93943092Y-96258725D01*
X93933123Y-96212172D01*
X93917498Y-96172991D01*
X93896554Y-96140017D01*
X93869195Y-96111896D01*
X93838084Y-96092168D01*
X93802464Y-96080133D01*
X93761145Y-96075946D01*
X93722769Y-96079897D01*
X93689674Y-96091262D01*
X93660743Y-96109926D01*
X93636847Y-96134898D01*
X93617872Y-96166635D01*
X93603938Y-96206481D01*
X93589985Y-96162464D01*
X93569415Y-96126830D01*
X93542261Y-96098172D01*
X93509196Y-96076799D01*
X93471089Y-96063744D01*
X93426600Y-96059191D01*
X93374990Y-96064089D01*
X93331541Y-96077992D01*
X93294624Y-96100425D01*
X93263153Y-96131896D01*
X93239258Y-96169248D01*
X93221202Y-96214945D01*
X93209531Y-96270676D01*
X93205322Y-96338470D01*
X93127544Y-96338470D01*
X93127544Y-95573551D01*
X93219000Y-95573551D01*
X93932970Y-95573551D01*
X93932970Y-95122147D01*
X93850905Y-95122147D01*
X93850905Y-95476953D01*
X93640270Y-95476953D01*
X93640270Y-95136979D01*
X93558204Y-95136979D01*
X93558204Y-95476953D01*
X93301065Y-95476953D01*
X93301065Y-95113556D01*
X93219000Y-95113556D01*
X93219000Y-95573551D01*
X93127544Y-95573551D01*
X93127544Y-94954639D01*
X93219000Y-94954639D01*
X93932970Y-94954639D01*
X93932970Y-94858041D01*
X93301065Y-94858041D01*
X93301065Y-94510416D01*
X93219000Y-94510416D01*
X93219000Y-94954639D01*
X93127544Y-94954639D01*
X93127544Y-93956559D01*
X93219000Y-93956559D01*
X93401638Y-94047900D01*
X93448422Y-94074078D01*
X93478620Y-94096791D01*
X93496527Y-94116544D01*
X93508923Y-94139831D01*
X93516968Y-94169480D01*
X93518639Y-94190873D01*
X93519907Y-94207116D01*
X93519907Y-94312305D01*
X93219000Y-94312305D01*
X93219000Y-94408903D01*
X93932970Y-94408903D01*
X93932970Y-94190873D01*
X93929129Y-94128528D01*
X93918618Y-94078766D01*
X93902597Y-94039298D01*
X93881679Y-94008235D01*
X93854083Y-93982801D01*
X93820082Y-93964131D01*
X93778303Y-93952243D01*
X93726866Y-93947968D01*
X93682774Y-93951733D01*
X93645839Y-93962355D01*
X93614710Y-93979298D01*
X93588454Y-94002851D01*
X93567878Y-94032814D01*
X93552861Y-94070382D01*
X93537307Y-94040984D01*
X93507982Y-94009902D01*
X93469659Y-93981970D01*
X93413563Y-93950832D01*
X93219000Y-93852780D01*
X93219000Y-93956559D01*
X93127544Y-93956559D01*
X93127544Y-93530972D01*
X93205322Y-93530972D01*
X93208156Y-93582312D01*
X93217076Y-93638811D01*
X93231388Y-93696112D01*
X93251826Y-93757165D01*
X93350304Y-93757165D01*
X93321327Y-93697975D01*
X93301193Y-93641932D01*
X93288711Y-93585443D01*
X93284652Y-93530972D01*
X93288820Y-93476576D01*
X93300080Y-93434934D01*
X93317179Y-93403300D01*
X93335156Y-93383661D01*
X93356164Y-93369825D01*
X93380797Y-93361320D01*
X93410016Y-93358335D01*
X93443717Y-93362202D01*
X93470640Y-93373045D01*
X93492338Y-93390606D01*
X93508926Y-93413914D01*
X93523982Y-93448135D01*
X93536833Y-93496522D01*
X93548373Y-93555335D01*
X93562115Y-93610518D01*
X93578236Y-93653655D01*
X93596198Y-93686805D01*
X93615693Y-93711730D01*
X93640063Y-93732330D01*
X93668806Y-93747302D01*
X93702791Y-93756700D01*
X93743193Y-93760029D01*
X93789287Y-93755596D01*
X93828663Y-93742931D01*
X93862669Y-93722350D01*
X93892194Y-93693308D01*
X93914943Y-93658856D01*
X93931921Y-93617643D01*
X93942770Y-93568366D01*
X93946648Y-93509430D01*
X93944454Y-93459086D01*
X93937757Y-93407104D01*
X93926778Y-93354906D01*
X93911086Y-93300462D01*
X93818078Y-93300462D01*
X93840191Y-93355154D01*
X93855093Y-93404241D01*
X93864338Y-93452765D01*
X93867318Y-93498445D01*
X93863420Y-93550366D01*
X93852903Y-93590069D01*
X93836971Y-93620176D01*
X93813966Y-93643892D01*
X93785766Y-93658013D01*
X93750673Y-93662961D01*
X93720682Y-93659485D01*
X93697610Y-93649878D01*
X93679806Y-93634494D01*
X93666763Y-93613830D01*
X93653668Y-93579606D01*
X93641167Y-93526655D01*
X93629157Y-93468312D01*
X93615625Y-93413807D01*
X93598674Y-93370193D01*
X93578847Y-93335708D01*
X93556409Y-93308882D01*
X93528921Y-93286864D01*
X93497123Y-93270917D01*
X93460181Y-93260965D01*
X93416983Y-93257463D01*
X93365905Y-93262230D01*
X93323639Y-93275654D01*
X93288417Y-93297132D01*
X93259049Y-93327048D01*
X93237102Y-93362636D01*
X93220301Y-93407160D01*
X93209317Y-93462518D01*
X93205322Y-93530972D01*
X93127544Y-93530972D01*
X93127544Y-93179685D01*
X94024426Y-93179685D01*
X94024426Y-97900268D01*
G37*
G36*
X82963497Y-99438913D02*
G01*
X82963497Y-99531921D01*
X83018189Y-99509808D01*
X83067276Y-99494906D01*
X83115800Y-99485661D01*
X83161480Y-99482681D01*
X83213401Y-99486579D01*
X83253104Y-99497096D01*
X83283211Y-99513028D01*
X83306928Y-99536033D01*
X83321048Y-99564233D01*
X83325996Y-99599326D01*
X83322520Y-99629317D01*
X83312914Y-99652389D01*
X83297530Y-99670193D01*
X83276865Y-99683236D01*
X83242641Y-99696331D01*
X83189690Y-99708832D01*
X83131347Y-99720842D01*
X83076843Y-99734374D01*
X83033228Y-99751325D01*
X82998743Y-99771152D01*
X82971917Y-99793590D01*
X82949899Y-99821078D01*
X82933952Y-99852876D01*
X82924000Y-99889818D01*
X82920498Y-99933016D01*
X82925266Y-99984094D01*
X82938689Y-100026360D01*
X82960167Y-100061582D01*
X82990083Y-100090950D01*
X83025671Y-100112897D01*
X83070195Y-100129698D01*
X83125554Y-100140682D01*
X83194007Y-100144677D01*
X83245348Y-100141843D01*
X83301847Y-100132923D01*
X83359147Y-100118611D01*
X83420201Y-100098173D01*
X83420201Y-99999695D01*
X83361010Y-100028672D01*
X83304967Y-100048806D01*
X83248478Y-100061288D01*
X83194007Y-100065347D01*
X83139612Y-100061179D01*
X83097969Y-100049919D01*
X83066335Y-100032820D01*
X83046696Y-100014843D01*
X83032860Y-99993835D01*
X83024356Y-99969202D01*
X83021370Y-99939983D01*
X83025237Y-99906282D01*
X83036081Y-99879359D01*
X83053641Y-99857661D01*
X83076949Y-99841073D01*
X83111170Y-99826017D01*
X83159557Y-99813166D01*
X83218371Y-99801626D01*
X83273553Y-99787884D01*
X83316690Y-99771763D01*
X83349840Y-99753801D01*
X83374765Y-99734306D01*
X83395365Y-99709936D01*
X83410337Y-99681193D01*
X83419735Y-99647208D01*
X83423064Y-99606806D01*
X83418631Y-99560712D01*
X83405967Y-99521336D01*
X83385385Y-99487330D01*
X83356343Y-99457805D01*
X83321891Y-99435056D01*
X83280678Y-99418078D01*
X83231401Y-99407229D01*
X83172465Y-99403351D01*
X83122121Y-99405545D01*
X83070140Y-99412242D01*
X83017941Y-99423221D01*
X82963497Y-99438913D01*
G37*
G36*
X82818130Y-99821886D02*
G01*
X82560392Y-99821886D01*
X82560392Y-99901216D01*
X82818130Y-99901216D01*
X82818130Y-99821886D01*
G37*
G36*
X87082970Y-101240948D02*
G01*
X87082970Y-100861737D01*
X87000905Y-100861737D01*
X87000905Y-101152471D01*
X86827755Y-101152471D01*
X86838611Y-101110412D01*
X86842244Y-101068311D01*
X86837704Y-101008871D01*
X86824874Y-100958487D01*
X86804480Y-100915587D01*
X86776592Y-100878962D01*
X86741629Y-100848930D01*
X86701133Y-100827305D01*
X86654018Y-100813852D01*
X86598783Y-100809121D01*
X86541837Y-100814037D01*
X86494008Y-100827928D01*
X86453576Y-100850128D01*
X86419307Y-100880842D01*
X86392550Y-100918182D01*
X86372625Y-100963241D01*
X86359886Y-101017569D01*
X86355322Y-101083100D01*
X86357180Y-101128208D01*
X86362845Y-101174697D01*
X86372112Y-101221516D01*
X86385413Y-101271039D01*
X86481156Y-101271039D01*
X86461818Y-101227146D01*
X86448201Y-101182092D01*
X86440145Y-101135355D01*
X86437387Y-101085023D01*
X86440411Y-101043776D01*
X86448936Y-101008872D01*
X86462440Y-100979235D01*
X86480814Y-100954018D01*
X86504092Y-100933168D01*
X86530986Y-100918230D01*
X86562213Y-100908970D01*
X86598783Y-100905719D01*
X86635354Y-100908971D01*
X86666572Y-100918231D01*
X86693452Y-100933169D01*
X86716710Y-100954018D01*
X86735101Y-100979237D01*
X86748619Y-101008881D01*
X86757153Y-101043798D01*
X86760179Y-101085066D01*
X86758020Y-101123649D01*
X86751502Y-101162302D01*
X86740653Y-101200642D01*
X86724617Y-101240948D01*
X87082970Y-101240948D01*
G37*
G36*
X86369000Y-100443373D02*
G01*
X87082970Y-100715942D01*
X87082970Y-100615027D01*
X86481840Y-100388876D01*
X87082970Y-100162213D01*
X87082970Y-100061768D01*
X86369000Y-100333867D01*
X86369000Y-100443373D01*
G37*
G36*
X86113567Y-106917029D02*
G01*
X85509616Y-106917029D01*
X85509616Y-106999094D01*
X85763079Y-106999094D01*
X85763079Y-107631000D01*
X85860147Y-107631000D01*
X85860147Y-106999094D01*
X86113567Y-106999094D01*
X86113567Y-106917029D01*
G37*
G36*
X85248082Y-106907387D02*
G01*
X85288985Y-106918953D01*
X85324858Y-106937694D01*
X85356522Y-106963876D01*
X85384423Y-106998368D01*
X85410084Y-107046305D01*
X85429941Y-107106499D01*
X85443004Y-107181503D01*
X85447767Y-107274271D01*
X85443010Y-107366747D01*
X85429956Y-107441595D01*
X85410100Y-107501738D01*
X85384423Y-107549703D01*
X85356524Y-107584177D01*
X85324862Y-107610347D01*
X85288989Y-107629081D01*
X85248084Y-107640642D01*
X85201015Y-107644677D01*
X85153945Y-107640642D01*
X85113045Y-107629079D01*
X85077182Y-107610346D01*
X85045532Y-107584176D01*
X85017650Y-107549703D01*
X84991954Y-107501735D01*
X84972085Y-107441591D01*
X84959023Y-107366744D01*
X84954262Y-107274271D01*
X85050861Y-107274271D01*
X85053799Y-107350697D01*
X85061752Y-107411175D01*
X85073588Y-107458368D01*
X85088431Y-107494651D01*
X85110469Y-107527856D01*
X85136083Y-107550204D01*
X85165815Y-107563488D01*
X85201015Y-107568083D01*
X85235967Y-107563501D01*
X85265556Y-107550237D01*
X85291114Y-107527892D01*
X85313171Y-107494651D01*
X85327997Y-107458370D01*
X85339820Y-107411179D01*
X85347764Y-107350700D01*
X85350699Y-107274271D01*
X85347760Y-107197548D01*
X85339809Y-107136915D01*
X85327985Y-107089674D01*
X85313171Y-107053420D01*
X85291112Y-107020157D01*
X85265553Y-106997799D01*
X85235964Y-106984530D01*
X85201015Y-106979946D01*
X85165818Y-106984542D01*
X85136087Y-106997832D01*
X85110472Y-107020193D01*
X85088431Y-107053420D01*
X85073599Y-107089676D01*
X85061762Y-107136918D01*
X85053803Y-107197550D01*
X85050861Y-107274271D01*
X84954262Y-107274271D01*
X84959029Y-107181506D01*
X84972100Y-107106503D01*
X84991970Y-107046308D01*
X85017650Y-106998368D01*
X85045534Y-106963877D01*
X85077185Y-106937695D01*
X85113048Y-106918955D01*
X85153947Y-106907388D01*
X85201015Y-106903351D01*
X85248082Y-106907387D01*
G37*
G36*
X106917029Y-84959051D02*
G01*
X106917029Y-85338262D01*
X106999094Y-85338262D01*
X106999094Y-85047528D01*
X107172244Y-85047528D01*
X107161388Y-85089587D01*
X107157755Y-85131688D01*
X107162295Y-85191128D01*
X107175125Y-85241512D01*
X107195519Y-85284412D01*
X107223407Y-85321037D01*
X107258370Y-85351069D01*
X107298866Y-85372694D01*
X107345981Y-85386147D01*
X107401216Y-85390878D01*
X107458162Y-85385962D01*
X107505991Y-85372071D01*
X107546423Y-85349871D01*
X107580692Y-85319157D01*
X107607449Y-85281817D01*
X107627374Y-85236758D01*
X107640113Y-85182430D01*
X107644677Y-85116899D01*
X107642819Y-85071791D01*
X107637154Y-85025302D01*
X107627887Y-84978483D01*
X107614586Y-84928960D01*
X107518843Y-84928960D01*
X107538181Y-84972853D01*
X107551798Y-85017907D01*
X107559854Y-85064644D01*
X107562612Y-85114976D01*
X107559588Y-85156223D01*
X107551063Y-85191127D01*
X107537559Y-85220764D01*
X107519185Y-85245981D01*
X107495907Y-85266831D01*
X107469013Y-85281769D01*
X107437786Y-85291029D01*
X107401216Y-85294280D01*
X107364645Y-85291028D01*
X107333427Y-85281768D01*
X107306547Y-85266830D01*
X107283289Y-85245981D01*
X107264898Y-85220762D01*
X107251380Y-85191118D01*
X107242846Y-85156201D01*
X107239820Y-85114933D01*
X107241979Y-85076350D01*
X107248497Y-85037697D01*
X107259346Y-84999357D01*
X107275382Y-84959051D01*
X106917029Y-84959051D01*
G37*
G36*
X107631000Y-85756626D02*
G01*
X106917029Y-85484057D01*
X106917029Y-85584972D01*
X107518159Y-85811123D01*
X106917029Y-86037786D01*
X106917029Y-86138231D01*
X107631000Y-85866132D01*
X107631000Y-85756626D01*
G37*
G36*
X110498434Y-98144522D02*
G01*
X110522925Y-98154810D01*
X110543164Y-98171713D01*
X110558060Y-98193798D01*
X110567444Y-98221286D01*
X110570818Y-98255660D01*
X110567391Y-98291243D01*
X110557541Y-98322082D01*
X110541441Y-98349133D01*
X110518629Y-98373031D01*
X110491521Y-98391761D01*
X110459949Y-98405527D01*
X110423085Y-98414202D01*
X110379887Y-98417269D01*
X110360183Y-98417269D01*
X110360183Y-98329775D01*
X110363753Y-98257953D01*
X110372654Y-98211019D01*
X110384717Y-98182014D01*
X110398725Y-98164421D01*
X110416696Y-98151783D01*
X110439469Y-98143787D01*
X110468407Y-98140896D01*
X110498434Y-98144522D01*
G37*
G36*
X110551669Y-97669446D02*
G01*
X110547470Y-97720585D01*
X110536320Y-97757981D01*
X110519613Y-97784936D01*
X110495716Y-97805039D01*
X110463857Y-97817791D01*
X110421476Y-97822464D01*
X110378786Y-97817767D01*
X110346982Y-97804997D01*
X110323382Y-97784936D01*
X110306937Y-97758021D01*
X110295941Y-97720628D01*
X110291795Y-97669446D01*
X110291795Y-97514547D01*
X110551669Y-97514547D01*
X110551669Y-97669446D01*
G37*
G36*
X110212465Y-97657521D02*
G01*
X110211567Y-97669446D01*
X110208953Y-97704170D01*
X110199652Y-97738339D01*
X110185836Y-97762967D01*
X110165698Y-97781729D01*
X110139240Y-97793401D01*
X110104412Y-97797631D01*
X110069895Y-97793418D01*
X110043497Y-97781761D01*
X110023244Y-97762967D01*
X110009286Y-97738318D01*
X109999901Y-97704147D01*
X109996359Y-97657521D01*
X109996359Y-97514547D01*
X110212465Y-97514547D01*
X110212465Y-97657521D01*
G37*
G36*
X110722455Y-99032833D02*
G01*
X109839251Y-99032833D01*
X109839251Y-98685393D01*
X109941648Y-98685393D01*
X109941648Y-98773827D01*
X110094838Y-98773827D01*
X110094838Y-98955055D01*
X110163226Y-98955055D01*
X110163226Y-98773827D01*
X110454217Y-98773827D01*
X110498303Y-98776562D01*
X110524359Y-98783124D01*
X110538462Y-98791736D01*
X110547724Y-98805264D01*
X110554431Y-98828168D01*
X110557140Y-98864697D01*
X110557140Y-98955055D01*
X110631000Y-98955055D01*
X110631000Y-98864697D01*
X110627923Y-98811895D01*
X110619786Y-98772748D01*
X110607877Y-98744297D01*
X110592916Y-98724117D01*
X110572976Y-98708862D01*
X110544892Y-98696762D01*
X110506282Y-98688511D01*
X110454217Y-98685393D01*
X110163226Y-98685393D01*
X110163226Y-98620809D01*
X110094838Y-98620809D01*
X110094838Y-98685393D01*
X109941648Y-98685393D01*
X109839251Y-98685393D01*
X109839251Y-98274253D01*
X110081160Y-98274253D01*
X110085527Y-98332555D01*
X110097593Y-98379576D01*
X110116322Y-98417453D01*
X110141427Y-98447830D01*
X110172935Y-98471492D01*
X110212597Y-98489376D01*
X110262231Y-98501004D01*
X110324108Y-98505233D01*
X110631000Y-98505233D01*
X110631000Y-98417269D01*
X110548934Y-98417269D01*
X110579433Y-98394971D01*
X110603317Y-98370003D01*
X110621340Y-98342170D01*
X110633882Y-98311373D01*
X110641846Y-98275067D01*
X110644677Y-98232194D01*
X110641498Y-98191388D01*
X110632494Y-98156651D01*
X110618136Y-98126925D01*
X110598430Y-98101402D01*
X110573814Y-98080508D01*
X110545480Y-98065486D01*
X110512702Y-98056162D01*
X110474476Y-98052889D01*
X110430031Y-98057046D01*
X110393407Y-98068729D01*
X110363025Y-98087393D01*
X110337829Y-98113370D01*
X110319145Y-98144240D01*
X110304738Y-98183359D01*
X110295260Y-98232537D01*
X110291795Y-98293914D01*
X110291795Y-98329775D01*
X110291795Y-98417269D01*
X110283076Y-98417269D01*
X110244182Y-98412514D01*
X110213280Y-98399155D01*
X110188486Y-98377347D01*
X110170679Y-98348895D01*
X110159210Y-98312266D01*
X110155019Y-98265191D01*
X110157770Y-98219762D01*
X110165961Y-98175774D01*
X110179600Y-98133193D01*
X110198787Y-98092084D01*
X110116722Y-98092084D01*
X110100985Y-98140296D01*
X110090050Y-98185818D01*
X110083343Y-98231045D01*
X110081160Y-98274253D01*
X109839251Y-98274253D01*
X109839251Y-97514547D01*
X109917029Y-97514547D01*
X109917029Y-97657521D01*
X109917029Y-97664659D01*
X109920400Y-97720717D01*
X109929731Y-97766697D01*
X109944128Y-97804288D01*
X109963105Y-97834902D01*
X109988296Y-97860839D01*
X110017875Y-97879275D01*
X110052716Y-97890682D01*
X110094154Y-97894699D01*
X110137031Y-97890927D01*
X110171335Y-97880482D01*
X110198830Y-97864096D01*
X110220932Y-97841257D01*
X110237136Y-97811804D01*
X110247300Y-97774165D01*
X110261691Y-97819361D01*
X110282916Y-97855765D01*
X110310944Y-97884868D01*
X110345090Y-97906418D01*
X110384883Y-97919673D01*
X110431777Y-97924320D01*
X110478392Y-97919926D01*
X110517575Y-97907468D01*
X110550803Y-97887390D01*
X110579067Y-97859266D01*
X110600524Y-97825837D01*
X110616738Y-97784918D01*
X110627219Y-97734993D01*
X110631000Y-97674233D01*
X110631000Y-97417949D01*
X109917029Y-97417949D01*
X109917029Y-97514547D01*
X109839251Y-97514547D01*
X109839251Y-97340171D01*
X110722455Y-97340171D01*
X110722455Y-99032833D01*
G37*
G36*
X97631000Y-85040988D02*
G01*
X97330092Y-85040988D01*
X97330092Y-85146178D01*
X97333031Y-85183813D01*
X97341076Y-85213462D01*
X97353472Y-85236749D01*
X97371379Y-85256502D01*
X97401577Y-85279215D01*
X97448361Y-85305394D01*
X97631000Y-85396734D01*
X97631000Y-85500513D01*
X97436436Y-85402462D01*
X97380340Y-85371324D01*
X97342017Y-85343392D01*
X97312692Y-85312309D01*
X97297138Y-85282911D01*
X97282121Y-85320479D01*
X97261545Y-85350442D01*
X97235289Y-85373995D01*
X97204160Y-85390938D01*
X97167225Y-85401560D01*
X97123133Y-85405325D01*
X97071696Y-85401051D01*
X97029917Y-85389162D01*
X96995916Y-85370492D01*
X96968320Y-85345059D01*
X96947402Y-85313995D01*
X96931381Y-85274527D01*
X96920870Y-85224765D01*
X96917029Y-85162420D01*
X96996359Y-85162420D01*
X97000434Y-85207951D01*
X97011432Y-85242232D01*
X97028288Y-85267866D01*
X97051855Y-85287009D01*
X97082701Y-85299106D01*
X97123090Y-85303513D01*
X97163491Y-85299117D01*
X97194512Y-85287027D01*
X97218363Y-85267866D01*
X97235485Y-85242193D01*
X97246636Y-85207910D01*
X97250762Y-85162420D01*
X97250762Y-85040988D01*
X96996359Y-85040988D01*
X96996359Y-85162420D01*
X96917029Y-85162420D01*
X96917029Y-84944390D01*
X97631000Y-84944390D01*
X97631000Y-85040988D01*
G37*
G36*
X97548934Y-85716662D02*
G01*
X97548934Y-86053772D01*
X97631000Y-86053772D01*
X97631000Y-85600445D01*
X97548934Y-85600445D01*
X97396343Y-85750343D01*
X97272903Y-85869637D01*
X97221744Y-85911310D01*
X97184811Y-85934435D01*
X97148380Y-85948423D01*
X97113901Y-85952857D01*
X97077784Y-85948272D01*
X97047351Y-85935052D01*
X97021235Y-85912935D01*
X97001744Y-85884450D01*
X96989684Y-85850296D01*
X96985417Y-85808943D01*
X96989171Y-85763153D01*
X97001018Y-85713029D01*
X97019978Y-85662392D01*
X97048334Y-85605232D01*
X96949855Y-85605232D01*
X96929219Y-85663004D01*
X96915105Y-85714226D01*
X96906130Y-85764051D01*
X96903351Y-85807019D01*
X96907221Y-85862476D01*
X96918140Y-85909577D01*
X96935413Y-85949696D01*
X96958831Y-85983931D01*
X96988829Y-86012748D01*
X97022917Y-86033108D01*
X97061916Y-86045580D01*
X97107062Y-86049925D01*
X97150060Y-86045773D01*
X97190538Y-86033426D01*
X97230592Y-86012043D01*
X97283546Y-85973416D01*
X97363645Y-85897377D01*
X97548934Y-85716662D01*
G37*
G36*
X96401940Y-88044838D02*
G01*
X96595606Y-88305738D01*
X96391895Y-88581000D01*
X96495674Y-88581000D01*
X96651556Y-88370364D01*
X96807438Y-88581000D01*
X96911216Y-88581000D01*
X96703189Y-88300480D01*
X96893521Y-88044838D01*
X96789742Y-88044838D01*
X96647752Y-88235854D01*
X96505718Y-88044838D01*
X96401940Y-88044838D01*
G37*
G36*
X95465409Y-88479187D02*
G01*
X95465409Y-88288299D01*
X95623214Y-88288299D01*
X95623214Y-88208969D01*
X95369794Y-88208969D01*
X95369794Y-88514407D01*
X95408238Y-88538625D01*
X95449283Y-88558595D01*
X95493191Y-88574374D01*
X95562142Y-88589498D01*
X95637105Y-88594677D01*
X95704544Y-88590310D01*
X95763258Y-88577875D01*
X95814550Y-88558056D01*
X95859498Y-88531099D01*
X95898903Y-88496797D01*
X95931689Y-88456366D01*
X95957674Y-88409911D01*
X95976912Y-88356543D01*
X95989047Y-88295116D01*
X95993321Y-88224271D01*
X95989042Y-88153190D01*
X95976897Y-88091606D01*
X95957652Y-88038146D01*
X95931670Y-87991654D01*
X95898903Y-87951232D01*
X95859498Y-87916931D01*
X95814547Y-87889974D01*
X95763247Y-87870155D01*
X95704521Y-87857718D01*
X95637063Y-87853351D01*
X95568450Y-87857761D01*
X95504390Y-87870705D01*
X95443710Y-87892230D01*
X95388429Y-87921739D01*
X95388429Y-88025689D01*
X95425467Y-87996992D01*
X95463349Y-87973907D01*
X95502253Y-87956061D01*
X95542956Y-87943107D01*
X95585076Y-87935309D01*
X95628942Y-87932681D01*
X95682258Y-87936066D01*
X95727434Y-87945585D01*
X95765745Y-87960547D01*
X95798247Y-87980639D01*
X95825728Y-88005942D01*
X95852803Y-88043997D01*
X95873302Y-88091602D01*
X95886627Y-88150838D01*
X95891466Y-88224271D01*
X95886633Y-88297417D01*
X95873319Y-88356489D01*
X95852821Y-88404027D01*
X95825728Y-88442086D01*
X95798230Y-88467392D01*
X95765718Y-88487485D01*
X95727405Y-88502446D01*
X95682237Y-88511964D01*
X95628942Y-88515347D01*
X95579225Y-88513017D01*
X95537644Y-88506542D01*
X95499031Y-88495124D01*
X95465409Y-88479187D01*
G37*
G36*
X94881931Y-88581000D02*
G01*
X94785333Y-88581000D01*
X94785333Y-88280092D01*
X94680144Y-88280092D01*
X94642508Y-88283031D01*
X94612859Y-88291076D01*
X94589572Y-88303472D01*
X94569819Y-88321379D01*
X94547106Y-88351577D01*
X94520928Y-88398361D01*
X94429587Y-88581000D01*
X94325808Y-88581000D01*
X94423860Y-88386436D01*
X94454998Y-88330340D01*
X94482930Y-88292017D01*
X94514012Y-88262692D01*
X94543410Y-88247138D01*
X94505842Y-88232121D01*
X94475879Y-88211545D01*
X94452326Y-88185289D01*
X94435383Y-88154160D01*
X94424761Y-88117225D01*
X94420996Y-88073133D01*
X94421000Y-88073090D01*
X94522808Y-88073090D01*
X94527204Y-88113491D01*
X94539294Y-88144512D01*
X94558456Y-88168363D01*
X94584128Y-88185485D01*
X94618411Y-88196636D01*
X94663901Y-88200762D01*
X94785333Y-88200762D01*
X94785333Y-87946359D01*
X94663901Y-87946359D01*
X94618370Y-87950434D01*
X94584089Y-87961432D01*
X94558456Y-87978288D01*
X94539312Y-88001855D01*
X94527216Y-88032701D01*
X94522808Y-88073090D01*
X94421000Y-88073090D01*
X94425271Y-88021696D01*
X94437159Y-87979917D01*
X94455829Y-87945916D01*
X94481263Y-87918320D01*
X94512326Y-87897402D01*
X94551794Y-87881381D01*
X94601556Y-87870870D01*
X94663901Y-87867029D01*
X94881931Y-87867029D01*
X94881931Y-88581000D01*
G37*
G36*
X93989297Y-87867029D02*
G01*
X93385345Y-87867029D01*
X93385345Y-87949094D01*
X93638808Y-87949094D01*
X93638808Y-88581000D01*
X93735876Y-88581000D01*
X93735876Y-87949094D01*
X93989297Y-87949094D01*
X93989297Y-87867029D01*
G37*
G36*
X92493950Y-88479187D02*
G01*
X92493950Y-88288299D01*
X92651756Y-88288299D01*
X92651756Y-88208969D01*
X92398335Y-88208969D01*
X92398335Y-88514407D01*
X92436779Y-88538625D01*
X92477824Y-88558595D01*
X92521733Y-88574374D01*
X92590683Y-88589498D01*
X92665647Y-88594677D01*
X92733085Y-88590310D01*
X92791799Y-88577875D01*
X92843091Y-88558056D01*
X92888039Y-88531099D01*
X92927445Y-88496797D01*
X92960231Y-88456366D01*
X92986215Y-88409911D01*
X93005454Y-88356543D01*
X93017588Y-88295116D01*
X93021863Y-88224271D01*
X93017583Y-88153190D01*
X93005439Y-88091606D01*
X92986193Y-88038146D01*
X92960212Y-87991654D01*
X92927445Y-87951232D01*
X92888040Y-87916931D01*
X92843089Y-87889974D01*
X92791789Y-87870155D01*
X92733062Y-87857718D01*
X92665604Y-87853351D01*
X92596991Y-87857761D01*
X92532931Y-87870705D01*
X92472251Y-87892230D01*
X92416971Y-87921739D01*
X92416971Y-88025689D01*
X92454008Y-87996992D01*
X92491890Y-87973907D01*
X92530794Y-87956061D01*
X92571498Y-87943107D01*
X92613618Y-87935309D01*
X92657483Y-87932681D01*
X92710800Y-87936066D01*
X92755976Y-87945585D01*
X92794287Y-87960547D01*
X92826789Y-87980639D01*
X92854269Y-88005942D01*
X92881344Y-88043997D01*
X92901844Y-88091602D01*
X92915168Y-88150838D01*
X92920007Y-88224271D01*
X92915175Y-88297417D01*
X92901861Y-88356489D01*
X92881362Y-88404027D01*
X92854269Y-88442086D01*
X92826772Y-88467392D01*
X92794259Y-88487485D01*
X92755946Y-88502446D01*
X92710778Y-88511964D01*
X92657483Y-88515347D01*
X92607767Y-88513017D01*
X92566185Y-88506542D01*
X92527573Y-88495124D01*
X92493950Y-88479187D01*
G37*
G36*
X91885126Y-88498934D02*
G01*
X91727321Y-88498934D01*
X91727321Y-87954565D01*
X91899017Y-87990127D01*
X91899017Y-87902591D01*
X91728304Y-87867029D01*
X91631706Y-87867029D01*
X91631706Y-88498934D01*
X91473901Y-88498934D01*
X91473901Y-88581000D01*
X91885126Y-88581000D01*
X91885126Y-88498934D01*
G37*
G36*
X91119359Y-87857387D02*
G01*
X91160263Y-87868953D01*
X91196135Y-87887694D01*
X91227799Y-87913876D01*
X91255700Y-87948368D01*
X91281361Y-87996305D01*
X91301218Y-88056499D01*
X91314281Y-88131503D01*
X91319044Y-88224271D01*
X91314287Y-88316747D01*
X91301233Y-88391595D01*
X91281377Y-88451738D01*
X91255700Y-88499703D01*
X91227801Y-88534177D01*
X91196139Y-88560347D01*
X91160266Y-88579081D01*
X91119361Y-88590642D01*
X91072292Y-88594677D01*
X91025222Y-88590642D01*
X90984322Y-88579079D01*
X90948459Y-88560346D01*
X90916809Y-88534176D01*
X90888927Y-88499703D01*
X90863231Y-88451735D01*
X90843362Y-88391591D01*
X90830300Y-88316744D01*
X90825540Y-88224271D01*
X90922138Y-88224271D01*
X90925076Y-88300697D01*
X90933029Y-88361175D01*
X90944865Y-88408368D01*
X90959708Y-88444651D01*
X90981746Y-88477856D01*
X91007360Y-88500204D01*
X91037092Y-88513488D01*
X91072292Y-88518083D01*
X91107244Y-88513501D01*
X91136834Y-88500237D01*
X91162391Y-88477892D01*
X91184448Y-88444651D01*
X91199274Y-88408370D01*
X91211097Y-88361179D01*
X91219041Y-88300700D01*
X91221976Y-88224271D01*
X91219037Y-88147548D01*
X91211086Y-88086915D01*
X91199262Y-88039674D01*
X91184448Y-88003420D01*
X91162389Y-87970157D01*
X91136830Y-87947799D01*
X91107241Y-87934530D01*
X91072292Y-87929946D01*
X91037095Y-87934542D01*
X91007364Y-87947832D01*
X90981749Y-87970193D01*
X90959708Y-88003420D01*
X90944877Y-88039676D01*
X90933040Y-88086918D01*
X90925080Y-88147550D01*
X90922138Y-88224271D01*
X90825540Y-88224271D01*
X90830306Y-88131506D01*
X90843377Y-88056503D01*
X90863247Y-87996308D01*
X90888927Y-87948368D01*
X90916811Y-87913877D01*
X90948462Y-87887695D01*
X90984326Y-87868955D01*
X91025224Y-87857388D01*
X91072292Y-87853351D01*
X91119359Y-87857387D01*
G37*
G36*
X83524835Y-104417029D02*
G01*
X83073431Y-104417029D01*
X83073431Y-104499094D01*
X83428237Y-104499094D01*
X83428237Y-104709729D01*
X83088263Y-104709729D01*
X83088263Y-104791795D01*
X83428237Y-104791795D01*
X83428237Y-105048934D01*
X83064840Y-105048934D01*
X83064840Y-105131000D01*
X83524835Y-105131000D01*
X83524835Y-104417029D01*
G37*
G36*
X82814112Y-105048934D02*
G01*
X82477002Y-105048934D01*
X82477002Y-105131000D01*
X82930329Y-105131000D01*
X82930329Y-105048934D01*
X82780431Y-104896343D01*
X82661137Y-104772903D01*
X82619464Y-104721744D01*
X82596339Y-104684811D01*
X82582351Y-104648380D01*
X82577917Y-104613901D01*
X82582503Y-104577784D01*
X82595722Y-104547351D01*
X82617839Y-104521235D01*
X82646325Y-104501744D01*
X82680479Y-104489684D01*
X82721831Y-104485417D01*
X82767622Y-104489171D01*
X82817745Y-104501018D01*
X82868382Y-104519978D01*
X82925542Y-104548334D01*
X82925542Y-104449855D01*
X82867770Y-104429219D01*
X82816549Y-104415105D01*
X82766723Y-104406130D01*
X82723755Y-104403351D01*
X82668298Y-104407221D01*
X82621197Y-104418140D01*
X82581079Y-104435413D01*
X82546844Y-104458831D01*
X82518026Y-104488829D01*
X82497667Y-104522917D01*
X82485194Y-104561916D01*
X82480849Y-104607062D01*
X82485001Y-104650060D01*
X82497348Y-104690538D01*
X82518731Y-104730592D01*
X82557358Y-104783546D01*
X82633397Y-104863645D01*
X82814112Y-105048934D01*
G37*
G36*
X115581000Y-88394494D02*
G01*
X115501669Y-88394494D01*
X115531085Y-88415134D01*
X115554222Y-88438428D01*
X115571810Y-88464549D01*
X115584192Y-88493591D01*
X115591949Y-88527020D01*
X115594677Y-88565677D01*
X115589721Y-88612635D01*
X115575332Y-88653945D01*
X115551463Y-88690864D01*
X115517057Y-88724166D01*
X115477009Y-88749917D01*
X115430462Y-88768921D01*
X115376245Y-88780918D01*
X115312919Y-88785160D01*
X115249592Y-88780918D01*
X115195375Y-88768921D01*
X115148828Y-88749917D01*
X115108780Y-88724166D01*
X115074375Y-88690864D01*
X115050505Y-88653945D01*
X115036116Y-88612635D01*
X115031160Y-88565677D01*
X115032680Y-88544178D01*
X115105019Y-88544178D01*
X115108610Y-88577797D01*
X115118940Y-88606672D01*
X115135949Y-88631835D01*
X115160371Y-88653898D01*
X115188594Y-88670416D01*
X115222652Y-88682893D01*
X115263655Y-88690933D01*
X115312919Y-88693819D01*
X115362180Y-88690933D01*
X115403191Y-88682895D01*
X115437265Y-88670417D01*
X115465509Y-88653898D01*
X115489910Y-88631837D01*
X115506906Y-88606676D01*
X115517229Y-88577800D01*
X115520818Y-88544178D01*
X115517228Y-88510533D01*
X115506903Y-88481643D01*
X115489907Y-88456475D01*
X115465509Y-88434415D01*
X115437265Y-88417896D01*
X115403191Y-88405418D01*
X115362180Y-88397380D01*
X115312919Y-88394494D01*
X115263655Y-88397380D01*
X115222652Y-88405420D01*
X115188594Y-88417897D01*
X115160371Y-88434415D01*
X115135951Y-88456478D01*
X115118943Y-88481647D01*
X115108611Y-88510536D01*
X115105019Y-88544178D01*
X115032680Y-88544178D01*
X115033892Y-88527023D01*
X115041664Y-88493593D01*
X115054070Y-88464549D01*
X115071633Y-88438430D01*
X115094755Y-88415136D01*
X115124168Y-88394494D01*
X114836938Y-88394494D01*
X114836938Y-88306017D01*
X115581000Y-88306017D01*
X115581000Y-88394494D01*
G37*
G36*
X115462702Y-88900803D02*
G01*
X115495480Y-88910127D01*
X115523814Y-88925149D01*
X115548430Y-88946043D01*
X115568136Y-88971566D01*
X115582494Y-89001292D01*
X115591498Y-89036029D01*
X115594677Y-89076835D01*
X115591846Y-89119708D01*
X115583882Y-89156013D01*
X115571340Y-89186811D01*
X115553317Y-89214644D01*
X115529433Y-89239611D01*
X115498934Y-89261910D01*
X115581000Y-89261910D01*
X115581000Y-89349874D01*
X115274108Y-89349874D01*
X115212231Y-89345644D01*
X115162597Y-89334017D01*
X115122935Y-89316133D01*
X115091427Y-89292471D01*
X115066322Y-89262094D01*
X115047593Y-89224217D01*
X115035527Y-89177196D01*
X115031160Y-89118893D01*
X115033343Y-89075686D01*
X115040050Y-89030459D01*
X115050985Y-88984937D01*
X115066722Y-88936725D01*
X115148787Y-88936725D01*
X115129600Y-88977834D01*
X115115961Y-89020415D01*
X115107770Y-89064402D01*
X115105019Y-89109832D01*
X115109210Y-89156907D01*
X115120679Y-89193536D01*
X115138486Y-89221988D01*
X115163280Y-89243796D01*
X115194182Y-89257155D01*
X115233076Y-89261910D01*
X115241795Y-89261910D01*
X115241795Y-89174416D01*
X115310183Y-89174416D01*
X115310183Y-89261910D01*
X115329887Y-89261910D01*
X115373085Y-89258843D01*
X115409949Y-89250168D01*
X115441521Y-89236401D01*
X115468629Y-89217671D01*
X115491441Y-89193774D01*
X115507541Y-89166723D01*
X115517391Y-89135884D01*
X115520818Y-89100300D01*
X115517444Y-89065927D01*
X115508060Y-89038439D01*
X115493164Y-89016354D01*
X115472925Y-88999450D01*
X115448434Y-88989163D01*
X115418407Y-88985537D01*
X115389469Y-88988428D01*
X115366696Y-88996424D01*
X115348725Y-89009062D01*
X115334717Y-89026655D01*
X115322654Y-89055660D01*
X115313753Y-89102594D01*
X115310183Y-89174416D01*
X115241795Y-89174416D01*
X115241795Y-89138555D01*
X115245260Y-89077178D01*
X115254738Y-89028000D01*
X115269145Y-88988881D01*
X115287829Y-88958011D01*
X115313025Y-88932034D01*
X115343407Y-88913370D01*
X115380031Y-88901686D01*
X115424476Y-88897530D01*
X115462702Y-88900803D01*
G37*
G36*
X115061251Y-89872871D02*
G01*
X115143316Y-89872871D01*
X115126535Y-89834770D01*
X115114593Y-89795379D01*
X115107437Y-89754728D01*
X115105019Y-89712202D01*
X115107707Y-89668670D01*
X115114782Y-89636796D01*
X115125108Y-89613937D01*
X115140740Y-89595715D01*
X115160346Y-89584966D01*
X115185247Y-89581196D01*
X115204447Y-89583885D01*
X115220160Y-89591604D01*
X115233247Y-89604619D01*
X115248310Y-89634505D01*
X115266457Y-89698824D01*
X115273125Y-89728957D01*
X115290234Y-89790626D01*
X115309461Y-89833523D01*
X115330016Y-89862100D01*
X115356847Y-89883519D01*
X115390340Y-89896801D01*
X115432469Y-89901551D01*
X115468535Y-89897728D01*
X115499668Y-89886711D01*
X115526940Y-89868553D01*
X115550994Y-89842481D01*
X115569117Y-89812285D01*
X115582762Y-89775975D01*
X115591533Y-89732390D01*
X115594677Y-89680145D01*
X115592509Y-89636791D01*
X115585787Y-89590514D01*
X115574917Y-89543530D01*
X115559115Y-89492249D01*
X115468843Y-89492249D01*
X115491871Y-89541370D01*
X115507824Y-89588334D01*
X115517614Y-89635772D01*
X115520818Y-89682069D01*
X115518032Y-89723195D01*
X115510568Y-89754373D01*
X115499404Y-89777726D01*
X115482937Y-89796514D01*
X115463182Y-89807428D01*
X115439009Y-89811194D01*
X115416118Y-89808318D01*
X115398067Y-89800247D01*
X115383700Y-89787044D01*
X115373160Y-89769261D01*
X115360797Y-89736264D01*
X115346642Y-89681128D01*
X115339504Y-89650525D01*
X115324547Y-89597061D01*
X115306696Y-89558815D01*
X115286675Y-89532384D01*
X115260839Y-89512668D01*
X115228848Y-89500426D01*
X115188923Y-89496053D01*
X115152120Y-89499643D01*
X115121130Y-89509845D01*
X115094772Y-89526354D01*
X115072278Y-89549610D01*
X115055332Y-89577043D01*
X115042485Y-89610663D01*
X115034164Y-89651716D01*
X115031160Y-89701687D01*
X115033093Y-89749662D01*
X115038683Y-89793498D01*
X115048234Y-89835382D01*
X115061251Y-89872871D01*
G37*
G36*
X114891648Y-90128642D02*
G01*
X115044838Y-90128642D01*
X115044838Y-90309870D01*
X115113226Y-90309870D01*
X115113226Y-90128642D01*
X115404217Y-90128642D01*
X115448303Y-90131377D01*
X115474359Y-90137940D01*
X115488462Y-90146551D01*
X115497724Y-90160079D01*
X115504431Y-90182984D01*
X115507140Y-90219513D01*
X115507140Y-90309870D01*
X115581000Y-90309870D01*
X115581000Y-90219513D01*
X115577923Y-90166710D01*
X115569786Y-90127563D01*
X115557877Y-90099112D01*
X115542916Y-90078933D01*
X115522976Y-90063677D01*
X115494892Y-90051577D01*
X115456282Y-90043326D01*
X115404217Y-90040208D01*
X115113226Y-90040208D01*
X115113226Y-89975624D01*
X115044838Y-89975624D01*
X115044838Y-90040208D01*
X114891648Y-90040208D01*
X114891648Y-90128642D01*
G37*
G36*
X115044838Y-90425275D02*
G01*
X115044838Y-90513282D01*
X115581000Y-90513282D01*
X115581000Y-90425275D01*
X115044838Y-90425275D01*
G37*
G36*
X114836938Y-90425275D02*
G01*
X114836938Y-90513282D01*
X114949094Y-90513282D01*
X114949094Y-90425275D01*
X114836938Y-90425275D01*
G37*
G36*
X115462702Y-90667265D02*
G01*
X115495480Y-90676589D01*
X115523814Y-90691611D01*
X115548430Y-90712505D01*
X115568136Y-90738028D01*
X115582494Y-90767754D01*
X115591498Y-90802491D01*
X115594677Y-90843297D01*
X115591846Y-90886170D01*
X115583882Y-90922475D01*
X115571340Y-90953273D01*
X115553317Y-90981106D01*
X115529433Y-91006073D01*
X115498934Y-91028372D01*
X115581000Y-91028372D01*
X115581000Y-91116336D01*
X115274108Y-91116336D01*
X115212231Y-91112106D01*
X115162597Y-91100479D01*
X115122935Y-91082595D01*
X115091427Y-91058933D01*
X115066322Y-91028556D01*
X115047593Y-90990679D01*
X115035527Y-90943658D01*
X115031160Y-90885355D01*
X115033343Y-90842148D01*
X115040050Y-90796921D01*
X115050985Y-90751399D01*
X115066722Y-90703187D01*
X115148787Y-90703187D01*
X115129600Y-90744296D01*
X115115961Y-90786877D01*
X115107770Y-90830864D01*
X115105019Y-90876294D01*
X115109210Y-90923369D01*
X115120679Y-90959997D01*
X115138486Y-90988450D01*
X115163280Y-91010258D01*
X115194182Y-91023617D01*
X115233076Y-91028372D01*
X115241795Y-91028372D01*
X115241795Y-90940878D01*
X115310183Y-90940878D01*
X115310183Y-91028372D01*
X115329887Y-91028372D01*
X115373085Y-91025305D01*
X115409949Y-91016630D01*
X115441521Y-91002863D01*
X115468629Y-90984133D01*
X115491441Y-90960236D01*
X115507541Y-90933185D01*
X115517391Y-90902346D01*
X115520818Y-90866762D01*
X115517444Y-90832389D01*
X115508060Y-90804901D01*
X115493164Y-90782816D01*
X115472925Y-90765912D01*
X115448434Y-90755625D01*
X115418407Y-90751999D01*
X115389469Y-90754890D01*
X115366696Y-90762886D01*
X115348725Y-90775524D01*
X115334717Y-90793117D01*
X115322654Y-90822122D01*
X115313753Y-90869056D01*
X115310183Y-90940878D01*
X115241795Y-90940878D01*
X115241795Y-90905017D01*
X115245260Y-90843640D01*
X115254738Y-90794462D01*
X115269145Y-90755343D01*
X115287829Y-90724473D01*
X115313025Y-90698496D01*
X115343407Y-90679832D01*
X115380031Y-90668148D01*
X115424476Y-90663992D01*
X115462702Y-90667265D01*
G37*
G36*
X115256498Y-91743112D02*
G01*
X115581000Y-91743112D01*
X115581000Y-91655105D01*
X115259405Y-91655105D01*
X115209358Y-91651221D01*
X115172421Y-91640890D01*
X115145539Y-91625442D01*
X115125047Y-91603174D01*
X115112342Y-91574249D01*
X115107755Y-91536537D01*
X115110831Y-91501510D01*
X115119576Y-91471715D01*
X115133647Y-91446168D01*
X115153233Y-91424167D01*
X115176965Y-91406787D01*
X115204945Y-91394000D01*
X115237990Y-91385918D01*
X115277143Y-91383049D01*
X115581000Y-91383049D01*
X115581000Y-91294572D01*
X115044838Y-91294572D01*
X115044838Y-91383049D01*
X115126903Y-91383049D01*
X115096747Y-91406012D01*
X115073018Y-91430747D01*
X115054968Y-91457378D01*
X115041950Y-91486772D01*
X115033936Y-91519478D01*
X115031160Y-91556156D01*
X115035142Y-91601727D01*
X115046297Y-91639207D01*
X115063988Y-91670177D01*
X115088349Y-91695753D01*
X115117788Y-91715191D01*
X115154529Y-91729980D01*
X115200136Y-91739613D01*
X115256498Y-91743112D01*
G37*
G36*
X115498934Y-92014527D02*
G01*
X115498934Y-92351637D01*
X115581000Y-92351637D01*
X115581000Y-91898310D01*
X115498934Y-91898310D01*
X115346343Y-92048208D01*
X115222903Y-92167502D01*
X115171744Y-92209175D01*
X115134811Y-92232300D01*
X115098380Y-92246288D01*
X115063901Y-92250722D01*
X115027784Y-92246136D01*
X114997351Y-92232917D01*
X114971235Y-92210800D01*
X114951744Y-92182314D01*
X114939684Y-92148161D01*
X114935417Y-92106808D01*
X114939171Y-92061017D01*
X114951018Y-92010894D01*
X114969978Y-91960257D01*
X114998334Y-91903097D01*
X114899855Y-91903097D01*
X114879219Y-91960869D01*
X114865105Y-92012090D01*
X114856130Y-92061916D01*
X114853351Y-92104884D01*
X114857221Y-92160341D01*
X114868140Y-92207442D01*
X114885413Y-92247561D01*
X114908831Y-92281796D01*
X114938829Y-92310613D01*
X114972917Y-92330973D01*
X115011916Y-92343445D01*
X115057062Y-92347790D01*
X115100060Y-92343638D01*
X115140538Y-92331291D01*
X115180592Y-92309908D01*
X115233546Y-92271281D01*
X115313645Y-92195242D01*
X115498934Y-92014527D01*
G37*
G36*
X115316747Y-92518902D02*
G01*
X115391595Y-92531955D01*
X115451738Y-92551812D01*
X115499703Y-92577488D01*
X115534177Y-92605387D01*
X115560347Y-92637050D01*
X115579081Y-92672922D01*
X115590642Y-92713827D01*
X115594677Y-92760896D01*
X115590642Y-92807966D01*
X115579079Y-92848866D01*
X115560346Y-92884730D01*
X115534176Y-92916379D01*
X115499703Y-92944262D01*
X115451735Y-92969957D01*
X115391591Y-92989826D01*
X115316744Y-93002888D01*
X115224271Y-93007649D01*
X115131506Y-93002882D01*
X115056503Y-92989812D01*
X114996308Y-92969941D01*
X114948368Y-92944262D01*
X114913877Y-92916377D01*
X114887695Y-92884726D01*
X114868955Y-92848863D01*
X114857388Y-92807964D01*
X114853351Y-92760896D01*
X114929946Y-92760896D01*
X114934542Y-92796093D01*
X114947832Y-92825824D01*
X114970193Y-92851440D01*
X115003420Y-92873480D01*
X115039676Y-92888312D01*
X115086918Y-92900149D01*
X115147550Y-92908108D01*
X115224271Y-92911051D01*
X115300697Y-92908112D01*
X115361175Y-92900159D01*
X115408368Y-92888323D01*
X115444651Y-92873480D01*
X115477856Y-92851442D01*
X115500204Y-92825828D01*
X115513488Y-92796096D01*
X115518083Y-92760896D01*
X115513501Y-92725944D01*
X115500237Y-92696355D01*
X115477892Y-92670797D01*
X115444651Y-92648740D01*
X115408370Y-92633914D01*
X115361179Y-92622091D01*
X115300700Y-92614147D01*
X115224271Y-92611212D01*
X115147548Y-92614152D01*
X115086915Y-92622102D01*
X115039674Y-92633926D01*
X115003420Y-92648740D01*
X114970157Y-92670799D01*
X114947799Y-92696358D01*
X114934530Y-92725947D01*
X114929946Y-92760896D01*
X114853351Y-92760896D01*
X114857387Y-92713829D01*
X114868953Y-92672926D01*
X114887694Y-92637053D01*
X114913876Y-92605389D01*
X114948368Y-92577488D01*
X114996305Y-92551827D01*
X115056499Y-92531970D01*
X115131503Y-92518907D01*
X115224271Y-92514144D01*
X115316747Y-92518902D01*
G37*
G36*
X115316747Y-93141916D02*
G01*
X115391595Y-93154970D01*
X115451738Y-93174826D01*
X115499703Y-93200503D01*
X115534177Y-93228402D01*
X115560347Y-93260064D01*
X115579081Y-93295937D01*
X115590642Y-93336842D01*
X115594677Y-93383911D01*
X115590642Y-93430981D01*
X115579079Y-93471881D01*
X115560346Y-93507744D01*
X115534176Y-93539394D01*
X115499703Y-93567276D01*
X115451735Y-93592971D01*
X115391591Y-93612841D01*
X115316744Y-93625903D01*
X115224271Y-93630663D01*
X115131506Y-93625897D01*
X115056503Y-93612826D01*
X114996308Y-93592956D01*
X114948368Y-93567276D01*
X114913877Y-93539391D01*
X114887695Y-93507741D01*
X114868955Y-93471877D01*
X114857388Y-93430978D01*
X114853351Y-93383911D01*
X114929946Y-93383911D01*
X114934542Y-93419108D01*
X114947832Y-93448839D01*
X114970193Y-93474454D01*
X115003420Y-93496495D01*
X115039676Y-93511326D01*
X115086918Y-93523163D01*
X115147550Y-93531123D01*
X115224271Y-93534065D01*
X115300697Y-93531127D01*
X115361175Y-93523174D01*
X115408368Y-93511338D01*
X115444651Y-93496495D01*
X115477856Y-93474457D01*
X115500204Y-93448843D01*
X115513488Y-93419111D01*
X115518083Y-93383911D01*
X115513501Y-93348959D01*
X115500237Y-93319369D01*
X115477892Y-93293811D01*
X115444651Y-93271755D01*
X115408370Y-93256929D01*
X115361179Y-93245106D01*
X115300700Y-93237162D01*
X115224271Y-93234227D01*
X115147548Y-93237166D01*
X115086915Y-93245117D01*
X115039674Y-93256941D01*
X115003420Y-93271755D01*
X114970157Y-93293814D01*
X114947799Y-93319373D01*
X114934530Y-93348961D01*
X114929946Y-93383911D01*
X114853351Y-93383911D01*
X114857387Y-93336844D01*
X114868953Y-93295940D01*
X114887694Y-93260068D01*
X114913876Y-93228404D01*
X114948368Y-93200503D01*
X114996305Y-93174842D01*
X115056499Y-93154985D01*
X115131503Y-93141922D01*
X115224271Y-93137158D01*
X115316747Y-93141916D01*
G37*
G36*
X115498934Y-93817106D02*
G01*
X115498934Y-93974911D01*
X114954565Y-93974911D01*
X114990127Y-93803215D01*
X114902591Y-93803215D01*
X114867029Y-93973928D01*
X114867029Y-94070526D01*
X115498934Y-94070526D01*
X115498934Y-94228332D01*
X115581000Y-94228332D01*
X115581000Y-93817106D01*
X115498934Y-93817106D01*
G37*
G36*
X114867029Y-94567322D02*
G01*
X114867029Y-94648576D01*
X115671272Y-94399943D01*
X115671272Y-94318647D01*
X114867029Y-94567322D01*
G37*
G36*
X114867029Y-94744405D02*
G01*
X114867029Y-94841003D01*
X115168791Y-94841003D01*
X114867029Y-95161358D01*
X114867029Y-95285696D01*
X115199865Y-94931360D01*
X115581000Y-95311042D01*
X115581000Y-95183840D01*
X115237179Y-94841003D01*
X115581000Y-94841003D01*
X115581000Y-94744405D01*
X114867029Y-94744405D01*
G37*
G36*
X115378946Y-95300520D02*
G01*
X115434275Y-95313447D01*
X115480714Y-95333768D01*
X115519707Y-95361179D01*
X115552017Y-95396265D01*
X115575196Y-95437193D01*
X115589603Y-95485126D01*
X115594677Y-95541723D01*
X115589615Y-95598040D01*
X115575226Y-95645848D01*
X115552049Y-95686778D01*
X115519707Y-95721968D01*
X115480697Y-95749496D01*
X115434253Y-95769896D01*
X115378929Y-95782868D01*
X115312919Y-95787493D01*
X115246641Y-95782858D01*
X115191215Y-95769870D01*
X115144798Y-95749469D01*
X115105917Y-95721968D01*
X115073677Y-95686792D01*
X115050563Y-95645867D01*
X115036211Y-95598054D01*
X115031160Y-95541723D01*
X115105019Y-95541723D01*
X115108638Y-95575545D01*
X115119078Y-95604782D01*
X115136310Y-95630437D01*
X115161097Y-95653110D01*
X115189771Y-95670233D01*
X115223923Y-95683074D01*
X115264569Y-95691293D01*
X115312919Y-95694228D01*
X115361537Y-95691284D01*
X115402294Y-95683052D01*
X115436433Y-95670210D01*
X115464996Y-95653110D01*
X115489656Y-95630453D01*
X115506813Y-95604804D01*
X115517212Y-95575562D01*
X115520818Y-95541723D01*
X115517202Y-95507344D01*
X115506807Y-95477818D01*
X115489723Y-95452103D01*
X115465253Y-95429567D01*
X115436816Y-95412604D01*
X115402697Y-95399839D01*
X115361823Y-95391642D01*
X115312919Y-95388705D01*
X115264029Y-95391658D01*
X115223169Y-95399904D01*
X115189059Y-95412748D01*
X115160627Y-95429823D01*
X115136103Y-95452465D01*
X115119007Y-95478184D01*
X115108625Y-95507598D01*
X115105019Y-95541723D01*
X115031160Y-95541723D01*
X115036223Y-95485112D01*
X115050593Y-95437175D01*
X115073708Y-95396251D01*
X115105917Y-95361179D01*
X115144781Y-95333795D01*
X115191192Y-95313472D01*
X115246624Y-95300530D01*
X115312919Y-95295911D01*
X115378946Y-95300520D01*
G37*
G36*
X114836938Y-95933244D02*
G01*
X114836938Y-96021251D01*
X115581000Y-96021251D01*
X115581000Y-95933244D01*
X114836938Y-95933244D01*
G37*
G36*
X115044838Y-96205429D02*
G01*
X115044838Y-96293436D01*
X115581000Y-96293436D01*
X115581000Y-96205429D01*
X115044838Y-96205429D01*
G37*
G36*
X114836938Y-96205429D02*
G01*
X114836938Y-96293436D01*
X114949094Y-96293436D01*
X114949094Y-96205429D01*
X114836938Y-96205429D01*
G37*
G36*
X115581000Y-96562756D02*
G01*
X115501669Y-96562756D01*
X115531085Y-96583397D01*
X115554222Y-96606690D01*
X115571810Y-96632811D01*
X115584192Y-96661853D01*
X115591949Y-96695283D01*
X115594677Y-96733940D01*
X115589721Y-96780898D01*
X115575332Y-96822208D01*
X115551463Y-96859127D01*
X115517057Y-96892429D01*
X115477009Y-96918179D01*
X115430462Y-96937184D01*
X115376245Y-96949181D01*
X115312919Y-96953422D01*
X115249592Y-96949181D01*
X115195375Y-96937184D01*
X115148828Y-96918179D01*
X115108780Y-96892429D01*
X115074375Y-96859127D01*
X115050505Y-96822208D01*
X115036116Y-96780898D01*
X115031160Y-96733940D01*
X115032680Y-96712440D01*
X115105019Y-96712440D01*
X115108610Y-96746059D01*
X115118940Y-96774935D01*
X115135949Y-96800097D01*
X115160371Y-96822160D01*
X115188594Y-96838678D01*
X115222652Y-96851156D01*
X115263655Y-96859195D01*
X115312919Y-96862082D01*
X115362180Y-96859196D01*
X115403191Y-96851157D01*
X115437265Y-96838679D01*
X115465509Y-96822160D01*
X115489910Y-96800100D01*
X115506906Y-96774938D01*
X115517229Y-96746062D01*
X115520818Y-96712440D01*
X115517228Y-96678796D01*
X115506903Y-96649905D01*
X115489907Y-96624738D01*
X115465509Y-96602677D01*
X115437265Y-96586158D01*
X115403191Y-96573681D01*
X115362180Y-96565642D01*
X115312919Y-96562756D01*
X115263655Y-96565643D01*
X115222652Y-96573682D01*
X115188594Y-96586160D01*
X115160371Y-96602677D01*
X115135951Y-96624741D01*
X115118943Y-96649909D01*
X115108611Y-96678798D01*
X115105019Y-96712440D01*
X115032680Y-96712440D01*
X115033892Y-96695285D01*
X115041664Y-96661856D01*
X115054070Y-96632811D01*
X115071633Y-96606692D01*
X115094755Y-96583398D01*
X115124168Y-96562756D01*
X114836938Y-96562756D01*
X114836938Y-96474279D01*
X115581000Y-96474279D01*
X115581000Y-96562756D01*
G37*
G36*
X115126903Y-97409613D02*
G01*
X115114508Y-97377343D01*
X115110490Y-97338832D01*
X115113802Y-97302175D01*
X115123148Y-97271602D01*
X115138101Y-97245926D01*
X115158875Y-97224324D01*
X115183804Y-97207831D01*
X115214440Y-97195372D01*
X115251959Y-97187313D01*
X115297788Y-97184403D01*
X115581000Y-97184403D01*
X115581000Y-97095926D01*
X115044838Y-97095926D01*
X115044838Y-97184403D01*
X115126903Y-97184403D01*
X115096736Y-97205211D01*
X115072924Y-97229200D01*
X115054754Y-97256595D01*
X115042039Y-97287122D01*
X115034005Y-97322809D01*
X115031160Y-97364648D01*
X115032528Y-97384737D01*
X115036631Y-97409143D01*
X115126903Y-97409613D01*
G37*
G36*
X115044838Y-97502065D02*
G01*
X115044838Y-97590072D01*
X115581000Y-97590072D01*
X115581000Y-97502065D01*
X115044838Y-97502065D01*
G37*
G36*
X114836938Y-97502065D02*
G01*
X114836938Y-97590072D01*
X114949094Y-97590072D01*
X114949094Y-97502065D01*
X114836938Y-97502065D01*
G37*
G36*
X115271886Y-97729797D02*
G01*
X115271886Y-97987534D01*
X115351216Y-97987534D01*
X115351216Y-97729797D01*
X115271886Y-97729797D01*
G37*
G36*
X114867029Y-98131662D02*
G01*
X114867029Y-98541947D01*
X114949094Y-98541947D01*
X114949094Y-98228260D01*
X115159729Y-98228260D01*
X115159729Y-98511344D01*
X115241795Y-98511344D01*
X115241795Y-98228260D01*
X115581000Y-98228260D01*
X115581000Y-98131662D01*
X114867029Y-98131662D01*
G37*
G36*
X114921739Y-99229760D02*
G01*
X115022953Y-99229760D01*
X114994754Y-99195869D01*
X114972291Y-99161263D01*
X114955121Y-99125767D01*
X114942709Y-99088390D01*
X114935215Y-99049381D01*
X114932681Y-99008396D01*
X114936042Y-98959117D01*
X114945575Y-98916706D01*
X114960726Y-98880081D01*
X114981329Y-98848363D01*
X115007609Y-98820928D01*
X115046443Y-98794002D01*
X115094191Y-98773730D01*
X115152707Y-98760641D01*
X115224271Y-98755916D01*
X115295549Y-98760635D01*
X115353900Y-98773713D01*
X115401580Y-98793983D01*
X115440419Y-98820928D01*
X115466699Y-98848363D01*
X115487302Y-98880081D01*
X115502454Y-98916706D01*
X115511986Y-98959117D01*
X115515347Y-99008396D01*
X115512813Y-99049381D01*
X115505320Y-99088390D01*
X115492907Y-99125767D01*
X115475738Y-99161263D01*
X115453275Y-99195869D01*
X115425075Y-99229760D01*
X115526289Y-99229760D01*
X115556309Y-99177362D01*
X115577580Y-99122391D01*
X115590335Y-99064604D01*
X115594677Y-99002626D01*
X115590302Y-98937613D01*
X115577801Y-98880683D01*
X115557788Y-98830607D01*
X115530417Y-98786383D01*
X115495386Y-98747282D01*
X115454399Y-98714807D01*
X115407728Y-98689125D01*
X115354552Y-98670165D01*
X115293815Y-98658246D01*
X115224271Y-98654061D01*
X115154490Y-98658252D01*
X115093600Y-98670181D01*
X115040341Y-98689148D01*
X114993646Y-98714827D01*
X114952685Y-98747282D01*
X114917637Y-98786386D01*
X114890255Y-98830611D01*
X114870233Y-98880686D01*
X114857728Y-98937615D01*
X114853351Y-99002626D01*
X114857708Y-99065430D01*
X114870448Y-99123374D01*
X114891761Y-99178187D01*
X114921739Y-99229760D01*
G37*
G36*
X90091105Y-95858778D02*
G01*
X89475554Y-95858778D01*
X89475554Y-95698934D01*
X89553332Y-95698934D01*
X89553332Y-95781000D01*
X90013327Y-95781000D01*
X90013327Y-95067029D01*
X89561923Y-95067029D01*
X89561923Y-95149094D01*
X89916729Y-95149094D01*
X89916729Y-95359729D01*
X89576755Y-95359729D01*
X89576755Y-95441795D01*
X89916729Y-95441795D01*
X89916729Y-95698934D01*
X89553332Y-95698934D01*
X89475554Y-95698934D01*
X89475554Y-94989251D01*
X90091105Y-94989251D01*
X90091105Y-95858778D01*
G37*
G36*
X114988460Y-109471739D02*
G01*
X114988460Y-109572953D01*
X115022351Y-109544754D01*
X115056956Y-109522291D01*
X115092453Y-109505121D01*
X115129830Y-109492709D01*
X115168839Y-109485215D01*
X115209824Y-109482681D01*
X115259102Y-109486042D01*
X115301514Y-109495575D01*
X115338139Y-109510726D01*
X115369857Y-109531329D01*
X115397292Y-109557609D01*
X115424218Y-109596443D01*
X115444489Y-109644191D01*
X115457579Y-109702707D01*
X115462304Y-109774271D01*
X115457585Y-109845549D01*
X115444506Y-109903900D01*
X115424237Y-109951580D01*
X115397292Y-109990419D01*
X115369857Y-110016699D01*
X115338139Y-110037302D01*
X115301514Y-110052454D01*
X115259102Y-110061986D01*
X115209824Y-110065347D01*
X115168839Y-110062813D01*
X115129830Y-110055320D01*
X115092453Y-110042907D01*
X115056956Y-110025738D01*
X115022351Y-110003275D01*
X114988460Y-109975075D01*
X114988460Y-110076289D01*
X115040858Y-110106309D01*
X115095829Y-110127580D01*
X115153616Y-110140335D01*
X115215594Y-110144677D01*
X115280607Y-110140302D01*
X115337537Y-110127801D01*
X115387613Y-110107788D01*
X115431837Y-110080417D01*
X115470938Y-110045386D01*
X115503413Y-110004399D01*
X115529095Y-109957728D01*
X115548055Y-109904552D01*
X115559974Y-109843815D01*
X115564159Y-109774271D01*
X115559968Y-109704490D01*
X115548039Y-109643600D01*
X115529072Y-109590341D01*
X115503393Y-109543646D01*
X115470938Y-109502685D01*
X115431834Y-109467637D01*
X115387609Y-109440255D01*
X115337533Y-109420233D01*
X115280604Y-109407728D01*
X115215594Y-109403351D01*
X115152790Y-109407708D01*
X115094846Y-109420448D01*
X115040033Y-109441761D01*
X114988460Y-109471739D01*
G37*
G36*
X114698319Y-109583343D02*
G01*
X114743546Y-109590050D01*
X114789068Y-109600985D01*
X114837280Y-109616722D01*
X114837280Y-109698787D01*
X114796171Y-109679600D01*
X114753590Y-109665961D01*
X114709602Y-109657770D01*
X114664173Y-109655019D01*
X114617098Y-109659210D01*
X114580469Y-109670679D01*
X114552017Y-109688486D01*
X114530209Y-109713280D01*
X114516850Y-109744182D01*
X114512095Y-109783076D01*
X114512095Y-109791795D01*
X114635450Y-109791795D01*
X114696827Y-109795260D01*
X114746005Y-109804738D01*
X114785124Y-109819145D01*
X114815994Y-109837829D01*
X114841971Y-109863025D01*
X114860635Y-109893407D01*
X114872319Y-109930031D01*
X114876475Y-109974476D01*
X114873202Y-110012702D01*
X114863878Y-110045480D01*
X114848856Y-110073814D01*
X114827962Y-110098430D01*
X114802439Y-110118136D01*
X114772713Y-110132494D01*
X114737976Y-110141498D01*
X114697170Y-110144677D01*
X114654297Y-110141846D01*
X114617991Y-110133882D01*
X114587194Y-110121340D01*
X114559361Y-110103317D01*
X114534393Y-110079433D01*
X114512095Y-110048934D01*
X114512095Y-110131000D01*
X114424131Y-110131000D01*
X114424131Y-109879887D01*
X114512095Y-109879887D01*
X114515162Y-109923085D01*
X114523837Y-109959949D01*
X114537604Y-109991521D01*
X114556334Y-110018629D01*
X114580231Y-110041441D01*
X114607282Y-110057541D01*
X114638121Y-110067391D01*
X114673704Y-110070818D01*
X114708078Y-110067444D01*
X114735566Y-110058060D01*
X114757651Y-110043164D01*
X114774554Y-110022925D01*
X114784842Y-109998434D01*
X114788468Y-109968407D01*
X114785577Y-109939469D01*
X114777581Y-109916696D01*
X114764943Y-109898725D01*
X114747350Y-109884717D01*
X114718345Y-109872654D01*
X114671411Y-109863753D01*
X114599589Y-109860183D01*
X114512095Y-109860183D01*
X114512095Y-109879887D01*
X114424131Y-109879887D01*
X114424131Y-109824108D01*
X114428360Y-109762231D01*
X114439988Y-109712597D01*
X114457872Y-109672935D01*
X114481534Y-109641427D01*
X114511911Y-109616322D01*
X114549788Y-109597593D01*
X114596809Y-109585527D01*
X114655111Y-109581160D01*
X114698319Y-109583343D01*
G37*
G36*
X113825565Y-109696565D02*
G01*
X113801104Y-109659263D01*
X113774825Y-109630596D01*
X113746662Y-109609327D01*
X113714974Y-109593944D01*
X113679243Y-109584459D01*
X113638609Y-109581160D01*
X113597777Y-109585101D01*
X113563454Y-109596287D01*
X113534324Y-109614357D01*
X113509527Y-109639760D01*
X113490798Y-109669802D01*
X113476604Y-109706645D01*
X113467411Y-109751662D01*
X113464092Y-109806498D01*
X113464092Y-110131000D01*
X113552526Y-110131000D01*
X113552526Y-109809405D01*
X113556156Y-109758489D01*
X113565717Y-109721474D01*
X113579796Y-109695069D01*
X113600510Y-109674767D01*
X113627549Y-109662263D01*
X113662973Y-109657755D01*
X113696472Y-109660805D01*
X113725074Y-109669499D01*
X113749721Y-109683554D01*
X113771068Y-109703233D01*
X113792382Y-109735674D01*
X113805871Y-109776240D01*
X113810733Y-109827143D01*
X113810733Y-110131000D01*
X113899210Y-110131000D01*
X113899210Y-109809405D01*
X113902853Y-109758159D01*
X113912426Y-109721108D01*
X113926480Y-109694855D01*
X113947204Y-109674734D01*
X113974535Y-109662269D01*
X114010640Y-109657755D01*
X114043597Y-109660800D01*
X114071875Y-109669502D01*
X114096386Y-109683617D01*
X114117753Y-109703446D01*
X114139096Y-109736037D01*
X114152571Y-109776556D01*
X114157418Y-109827143D01*
X114157418Y-110131000D01*
X114245895Y-110131000D01*
X114245895Y-109594838D01*
X114157418Y-109594838D01*
X114157418Y-109676903D01*
X114135262Y-109646173D01*
X114111237Y-109622329D01*
X114085226Y-109604497D01*
X114056302Y-109591828D01*
X114023259Y-109583928D01*
X113985294Y-109581160D01*
X113947358Y-109584634D01*
X113914625Y-109594581D01*
X113886088Y-109610738D01*
X113861740Y-109632772D01*
X113841574Y-109661016D01*
X113825565Y-109696565D01*
G37*
G36*
X83540948Y-109417029D02*
G01*
X83161737Y-109417029D01*
X83161737Y-109499094D01*
X83452471Y-109499094D01*
X83452471Y-109672244D01*
X83410412Y-109661388D01*
X83368311Y-109657755D01*
X83308871Y-109662295D01*
X83258487Y-109675125D01*
X83215587Y-109695519D01*
X83178962Y-109723407D01*
X83148930Y-109758370D01*
X83127305Y-109798866D01*
X83113852Y-109845981D01*
X83109121Y-109901216D01*
X83114037Y-109958162D01*
X83127928Y-110005991D01*
X83150128Y-110046423D01*
X83180842Y-110080692D01*
X83218182Y-110107449D01*
X83263241Y-110127374D01*
X83317569Y-110140113D01*
X83383100Y-110144677D01*
X83428208Y-110142819D01*
X83474697Y-110137154D01*
X83521516Y-110127887D01*
X83571039Y-110114586D01*
X83571039Y-110018843D01*
X83527146Y-110038181D01*
X83482092Y-110051798D01*
X83435355Y-110059854D01*
X83385023Y-110062612D01*
X83343776Y-110059588D01*
X83308872Y-110051063D01*
X83279235Y-110037559D01*
X83254018Y-110019185D01*
X83233168Y-109995907D01*
X83218230Y-109969013D01*
X83208970Y-109937786D01*
X83205719Y-109901216D01*
X83208971Y-109864645D01*
X83218231Y-109833427D01*
X83233169Y-109806547D01*
X83254018Y-109783289D01*
X83279237Y-109764898D01*
X83308881Y-109751380D01*
X83343798Y-109742846D01*
X83385066Y-109739820D01*
X83423649Y-109741979D01*
X83462302Y-109748497D01*
X83500642Y-109759346D01*
X83540948Y-109775382D01*
X83540948Y-109417029D01*
G37*
G36*
X82743373Y-110131000D02*
G01*
X83015942Y-109417029D01*
X82915027Y-109417029D01*
X82688876Y-110018159D01*
X82462213Y-109417029D01*
X82361768Y-109417029D01*
X82633867Y-110131000D01*
X82743373Y-110131000D01*
G37*
G36*
X102772455Y-91966009D02*
G01*
X101889251Y-91966009D01*
X101889251Y-91334972D01*
X101967029Y-91334972D01*
X102568159Y-91561123D01*
X101967029Y-91787786D01*
X101967029Y-91888231D01*
X102681000Y-91616132D01*
X102681000Y-91506626D01*
X101967029Y-91234057D01*
X101967029Y-91334972D01*
X101889251Y-91334972D01*
X101889251Y-90709051D01*
X101967029Y-90709051D01*
X101967029Y-91088262D01*
X102049094Y-91088262D01*
X102049094Y-90797528D01*
X102222244Y-90797528D01*
X102211388Y-90839587D01*
X102207755Y-90881688D01*
X102212295Y-90941128D01*
X102225125Y-90991512D01*
X102245519Y-91034412D01*
X102273407Y-91071037D01*
X102308370Y-91101069D01*
X102348866Y-91122694D01*
X102395981Y-91136147D01*
X102451216Y-91140878D01*
X102508162Y-91135962D01*
X102555991Y-91122071D01*
X102596423Y-91099871D01*
X102630692Y-91069157D01*
X102657449Y-91031817D01*
X102677374Y-90986758D01*
X102690113Y-90932430D01*
X102694677Y-90866899D01*
X102692819Y-90821791D01*
X102687154Y-90775302D01*
X102677887Y-90728483D01*
X102664586Y-90678960D01*
X102568843Y-90678960D01*
X102588181Y-90722853D01*
X102601798Y-90767907D01*
X102609854Y-90814644D01*
X102612612Y-90864976D01*
X102609588Y-90906223D01*
X102601063Y-90941127D01*
X102587559Y-90970764D01*
X102569185Y-90995981D01*
X102545907Y-91016831D01*
X102519013Y-91031769D01*
X102487786Y-91041029D01*
X102451216Y-91044280D01*
X102414645Y-91041028D01*
X102383427Y-91031768D01*
X102356547Y-91016830D01*
X102333289Y-90995981D01*
X102314898Y-90970762D01*
X102301380Y-90941118D01*
X102292846Y-90906201D01*
X102289820Y-90864933D01*
X102291979Y-90826350D01*
X102298497Y-90787697D01*
X102309346Y-90749357D01*
X102325382Y-90709051D01*
X101967029Y-90709051D01*
X101889251Y-90709051D01*
X101889251Y-90601182D01*
X102772455Y-90601182D01*
X102772455Y-91966009D01*
G37*
G36*
X117638017Y-94417029D02*
G01*
X117494103Y-94417029D01*
X117311891Y-94903310D01*
X117128782Y-94417029D01*
X116984826Y-94417029D01*
X116984826Y-95131000D01*
X117079030Y-95131000D01*
X117079030Y-94504138D01*
X117263122Y-94994224D01*
X117360190Y-94994224D01*
X117544325Y-94504138D01*
X117544325Y-95131000D01*
X117638017Y-95131000D01*
X117638017Y-94417029D01*
G37*
G36*
X116491492Y-94746061D02*
G01*
X116447475Y-94760014D01*
X116411841Y-94780584D01*
X116383182Y-94807738D01*
X116361810Y-94840803D01*
X116348754Y-94878910D01*
X116344201Y-94923399D01*
X116349100Y-94975009D01*
X116363002Y-95018458D01*
X116385435Y-95055375D01*
X116416906Y-95086846D01*
X116454258Y-95110741D01*
X116499956Y-95128797D01*
X116555686Y-95140468D01*
X116623481Y-95144677D01*
X116668680Y-95142494D01*
X116716018Y-95135787D01*
X116763719Y-95124850D01*
X116814283Y-95109115D01*
X116814283Y-95016108D01*
X116772526Y-95036197D01*
X116726319Y-95050900D01*
X116677757Y-95059643D01*
X116626344Y-95062612D01*
X116566605Y-95057993D01*
X116521547Y-95045595D01*
X116487901Y-95026879D01*
X116467325Y-95007274D01*
X116452659Y-94983978D01*
X116443550Y-94956255D01*
X116440329Y-94922972D01*
X116443281Y-94892298D01*
X116451695Y-94866239D01*
X116465340Y-94843870D01*
X116484568Y-94824579D01*
X116515957Y-94805691D01*
X116556202Y-94793508D01*
X116607709Y-94789060D01*
X116690886Y-94789060D01*
X116690886Y-94709729D01*
X116603862Y-94709729D01*
X116557059Y-94706067D01*
X116521559Y-94696205D01*
X116494869Y-94681263D01*
X116474110Y-94659836D01*
X116461540Y-94633063D01*
X116457084Y-94599240D01*
X116461673Y-94564507D01*
X116474634Y-94536946D01*
X116496065Y-94514824D01*
X116523620Y-94499356D01*
X116560011Y-94489184D01*
X116607709Y-94485417D01*
X116647984Y-94487338D01*
X116692809Y-94493410D01*
X116739111Y-94503268D01*
X116792741Y-94518243D01*
X116792741Y-94433442D01*
X116738387Y-94420040D01*
X116689689Y-94410874D01*
X116642235Y-94405168D01*
X116599075Y-94403351D01*
X116543735Y-94406907D01*
X116497182Y-94416876D01*
X116458001Y-94432501D01*
X116425027Y-94453445D01*
X116396907Y-94480804D01*
X116377178Y-94511915D01*
X116365144Y-94547535D01*
X116360956Y-94588854D01*
X116364907Y-94627230D01*
X116376272Y-94660325D01*
X116394937Y-94689256D01*
X116419909Y-94713152D01*
X116451645Y-94732127D01*
X116491492Y-94746061D01*
G37*
G36*
X117638017Y-96917029D02*
G01*
X117494103Y-96917029D01*
X117311891Y-97403310D01*
X117128782Y-96917029D01*
X116984826Y-96917029D01*
X116984826Y-97631000D01*
X117079030Y-97631000D01*
X117079030Y-97004138D01*
X117263122Y-97494224D01*
X117360190Y-97494224D01*
X117544325Y-97004138D01*
X117544325Y-97631000D01*
X117638017Y-97631000D01*
X117638017Y-96917029D01*
G37*
G36*
X116700930Y-97548934D02*
G01*
X116363820Y-97548934D01*
X116363820Y-97631000D01*
X116817147Y-97631000D01*
X116817147Y-97548934D01*
X116667249Y-97396343D01*
X116547955Y-97272903D01*
X116506282Y-97221744D01*
X116483157Y-97184811D01*
X116469169Y-97148380D01*
X116464735Y-97113901D01*
X116469320Y-97077784D01*
X116482540Y-97047351D01*
X116504657Y-97021235D01*
X116533142Y-97001744D01*
X116567296Y-96989684D01*
X116608649Y-96985417D01*
X116654439Y-96989171D01*
X116704563Y-97001018D01*
X116755200Y-97019978D01*
X116812360Y-97048334D01*
X116812360Y-96949855D01*
X116754588Y-96929219D01*
X116703366Y-96915105D01*
X116653541Y-96906130D01*
X116610572Y-96903351D01*
X116555116Y-96907221D01*
X116508014Y-96918140D01*
X116467896Y-96935413D01*
X116433661Y-96958831D01*
X116404843Y-96988829D01*
X116384484Y-97022917D01*
X116372012Y-97061916D01*
X116367667Y-97107062D01*
X116371819Y-97150060D01*
X116384165Y-97190538D01*
X116405549Y-97230592D01*
X116444176Y-97283546D01*
X116520215Y-97363645D01*
X116700930Y-97548934D01*
G37*
G36*
X116796630Y-107529187D02*
G01*
X116796630Y-107338299D01*
X116954436Y-107338299D01*
X116954436Y-107258969D01*
X116701015Y-107258969D01*
X116701015Y-107564407D01*
X116739460Y-107588625D01*
X116780504Y-107608595D01*
X116824413Y-107624374D01*
X116893364Y-107639498D01*
X116968327Y-107644677D01*
X117035765Y-107640310D01*
X117094479Y-107627875D01*
X117145771Y-107608056D01*
X117190719Y-107581099D01*
X117230125Y-107546797D01*
X117262911Y-107506366D01*
X117288895Y-107459911D01*
X117308134Y-107406543D01*
X117320268Y-107345116D01*
X117324543Y-107274271D01*
X117320263Y-107203190D01*
X117308119Y-107141606D01*
X117288873Y-107088146D01*
X117262892Y-107041654D01*
X117230125Y-107001232D01*
X117190720Y-106966931D01*
X117145769Y-106939974D01*
X117094469Y-106920155D01*
X117035742Y-106907718D01*
X116968284Y-106903351D01*
X116899671Y-106907761D01*
X116835611Y-106920705D01*
X116774931Y-106942230D01*
X116719651Y-106971739D01*
X116719651Y-107075689D01*
X116756688Y-107046992D01*
X116794570Y-107023907D01*
X116833474Y-107006061D01*
X116874178Y-106993107D01*
X116916298Y-106985309D01*
X116960163Y-106982681D01*
X117013480Y-106986066D01*
X117058656Y-106995585D01*
X117096967Y-107010547D01*
X117129469Y-107030639D01*
X117156950Y-107055942D01*
X117184024Y-107093997D01*
X117204524Y-107141602D01*
X117217848Y-107200838D01*
X117222688Y-107274271D01*
X117217855Y-107347417D01*
X117204541Y-107406489D01*
X117184043Y-107454027D01*
X117156950Y-107492086D01*
X117129452Y-107517392D01*
X117096939Y-107537485D01*
X117058626Y-107552446D01*
X117013458Y-107561964D01*
X116960163Y-107565347D01*
X116910447Y-107563017D01*
X116868865Y-107556542D01*
X116830253Y-107545124D01*
X116796630Y-107529187D01*
G37*
G36*
X110029187Y-85703369D02*
G01*
X109838299Y-85703369D01*
X109838299Y-85545563D01*
X109758969Y-85545563D01*
X109758969Y-85798984D01*
X110064407Y-85798984D01*
X110088625Y-85760539D01*
X110108595Y-85719495D01*
X110124374Y-85675586D01*
X110139498Y-85606635D01*
X110144677Y-85531672D01*
X110140310Y-85464234D01*
X110127875Y-85405520D01*
X110108056Y-85354228D01*
X110081099Y-85309280D01*
X110046797Y-85269874D01*
X110006366Y-85237088D01*
X109959911Y-85211104D01*
X109906543Y-85191865D01*
X109845116Y-85179731D01*
X109774271Y-85175456D01*
X109703190Y-85179736D01*
X109641606Y-85191880D01*
X109588146Y-85211126D01*
X109541654Y-85237107D01*
X109501232Y-85269874D01*
X109466931Y-85309279D01*
X109439974Y-85354230D01*
X109420155Y-85405530D01*
X109407718Y-85464257D01*
X109403351Y-85531715D01*
X109407761Y-85600328D01*
X109420705Y-85664388D01*
X109442230Y-85725068D01*
X109471739Y-85780348D01*
X109575689Y-85780348D01*
X109546992Y-85743311D01*
X109523907Y-85705429D01*
X109506061Y-85666525D01*
X109493107Y-85625821D01*
X109485309Y-85583701D01*
X109482681Y-85539836D01*
X109486066Y-85486519D01*
X109495585Y-85441343D01*
X109510547Y-85403032D01*
X109530639Y-85370530D01*
X109555942Y-85343049D01*
X109593997Y-85315975D01*
X109641602Y-85295475D01*
X109700838Y-85282151D01*
X109774271Y-85277311D01*
X109847417Y-85282144D01*
X109906489Y-85295458D01*
X109954027Y-85315956D01*
X109992086Y-85343049D01*
X110017392Y-85370547D01*
X110037485Y-85403060D01*
X110052446Y-85441373D01*
X110061964Y-85486541D01*
X110065347Y-85539836D01*
X110063017Y-85589552D01*
X110056542Y-85631134D01*
X110045124Y-85669746D01*
X110029187Y-85703369D01*
G37*
G36*
X82796630Y-107529187D02*
G01*
X82796630Y-107338299D01*
X82954436Y-107338299D01*
X82954436Y-107258969D01*
X82701015Y-107258969D01*
X82701015Y-107564407D01*
X82739460Y-107588625D01*
X82780504Y-107608595D01*
X82824413Y-107624374D01*
X82893364Y-107639498D01*
X82968327Y-107644677D01*
X83035765Y-107640310D01*
X83094479Y-107627875D01*
X83145771Y-107608056D01*
X83190719Y-107581099D01*
X83230125Y-107546797D01*
X83262911Y-107506366D01*
X83288895Y-107459911D01*
X83308134Y-107406543D01*
X83320268Y-107345116D01*
X83324543Y-107274271D01*
X83320263Y-107203190D01*
X83308119Y-107141606D01*
X83288873Y-107088146D01*
X83262892Y-107041654D01*
X83230125Y-107001232D01*
X83190720Y-106966931D01*
X83145769Y-106939974D01*
X83094469Y-106920155D01*
X83035742Y-106907718D01*
X82968284Y-106903351D01*
X82899671Y-106907761D01*
X82835611Y-106920705D01*
X82774931Y-106942230D01*
X82719651Y-106971739D01*
X82719651Y-107075689D01*
X82756688Y-107046992D01*
X82794570Y-107023907D01*
X82833474Y-107006061D01*
X82874178Y-106993107D01*
X82916298Y-106985309D01*
X82960163Y-106982681D01*
X83013480Y-106986066D01*
X83058656Y-106995585D01*
X83096967Y-107010547D01*
X83129469Y-107030639D01*
X83156950Y-107055942D01*
X83184024Y-107093997D01*
X83204524Y-107141602D01*
X83217848Y-107200838D01*
X83222688Y-107274271D01*
X83217855Y-107347417D01*
X83204541Y-107406489D01*
X83184043Y-107454027D01*
X83156950Y-107492086D01*
X83129452Y-107517392D01*
X83096939Y-107537485D01*
X83058626Y-107552446D01*
X83013458Y-107561964D01*
X82960163Y-107565347D01*
X82910447Y-107563017D01*
X82868865Y-107556542D01*
X82830253Y-107545124D01*
X82796630Y-107529187D01*
G37*
G36*
X84253938Y-98781219D02*
G01*
X84239985Y-98737202D01*
X84219415Y-98701568D01*
X84192261Y-98672910D01*
X84159196Y-98651537D01*
X84121089Y-98638482D01*
X84076600Y-98633929D01*
X84024990Y-98638827D01*
X83981541Y-98652730D01*
X83944624Y-98675163D01*
X83913153Y-98706634D01*
X83889258Y-98743986D01*
X83871202Y-98789684D01*
X83859531Y-98845414D01*
X83855322Y-98913208D01*
X83857505Y-98958408D01*
X83864212Y-99005746D01*
X83875149Y-99053447D01*
X83890884Y-99104011D01*
X83983891Y-99104011D01*
X83963802Y-99062254D01*
X83949099Y-99016047D01*
X83940356Y-98967485D01*
X83937387Y-98916072D01*
X83942006Y-98856332D01*
X83954404Y-98811274D01*
X83973120Y-98777629D01*
X83992725Y-98757052D01*
X84016021Y-98742387D01*
X84043744Y-98733278D01*
X84077027Y-98730057D01*
X84107701Y-98733009D01*
X84133760Y-98741423D01*
X84156129Y-98755068D01*
X84175420Y-98774295D01*
X84194308Y-98805684D01*
X84206491Y-98845929D01*
X84210939Y-98897436D01*
X84210939Y-98980613D01*
X84290270Y-98980613D01*
X84290270Y-98893590D01*
X84293932Y-98846786D01*
X84303794Y-98811287D01*
X84318736Y-98784596D01*
X84340163Y-98763838D01*
X84366936Y-98751267D01*
X84400759Y-98746812D01*
X84435492Y-98751400D01*
X84463053Y-98764362D01*
X84485175Y-98785793D01*
X84500643Y-98813348D01*
X84510815Y-98849739D01*
X84514582Y-98897436D01*
X84512661Y-98937711D01*
X84506589Y-98982537D01*
X84496731Y-99028839D01*
X84481756Y-99082469D01*
X84566557Y-99082469D01*
X84579959Y-99028115D01*
X84589125Y-98979416D01*
X84594831Y-98931962D01*
X84596648Y-98888802D01*
X84593092Y-98833463D01*
X84583123Y-98786910D01*
X84567498Y-98747729D01*
X84546554Y-98714755D01*
X84519195Y-98686634D01*
X84488084Y-98666906D01*
X84452464Y-98654871D01*
X84411145Y-98650684D01*
X84372769Y-98654635D01*
X84339674Y-98666000D01*
X84310743Y-98684664D01*
X84286847Y-98709636D01*
X84267872Y-98741373D01*
X84253938Y-98781219D01*
G37*
G36*
X83989362Y-98450863D02*
G01*
X83989362Y-98349948D01*
X83869000Y-98349948D01*
X83869000Y-98450863D01*
X83989362Y-98450863D01*
G37*
G36*
X84253938Y-97847039D02*
G01*
X84239985Y-97803022D01*
X84219415Y-97767388D01*
X84192261Y-97738730D01*
X84159196Y-97717357D01*
X84121089Y-97704302D01*
X84076600Y-97699749D01*
X84024990Y-97704647D01*
X83981541Y-97718549D01*
X83944624Y-97740983D01*
X83913153Y-97772454D01*
X83889258Y-97809806D01*
X83871202Y-97855503D01*
X83859531Y-97911234D01*
X83855322Y-97979028D01*
X83857505Y-98024228D01*
X83864212Y-98071566D01*
X83875149Y-98119266D01*
X83890884Y-98169831D01*
X83983891Y-98169831D01*
X83963802Y-98128074D01*
X83949099Y-98081867D01*
X83940356Y-98033305D01*
X83937387Y-97981892D01*
X83942006Y-97922152D01*
X83954404Y-97877094D01*
X83973120Y-97843449D01*
X83992725Y-97822872D01*
X84016021Y-97808207D01*
X84043744Y-97799098D01*
X84077027Y-97795877D01*
X84107701Y-97798829D01*
X84133760Y-97807243D01*
X84156129Y-97820888D01*
X84175420Y-97840115D01*
X84194308Y-97871504D01*
X84206491Y-97911749D01*
X84210939Y-97963256D01*
X84210939Y-98046433D01*
X84290270Y-98046433D01*
X84290270Y-97959409D01*
X84293932Y-97912606D01*
X84303794Y-97877107D01*
X84318736Y-97850416D01*
X84340163Y-97829658D01*
X84366936Y-97817087D01*
X84400759Y-97812632D01*
X84435492Y-97817220D01*
X84463053Y-97830182D01*
X84485175Y-97851613D01*
X84500643Y-97879168D01*
X84510815Y-97915559D01*
X84514582Y-97963256D01*
X84512661Y-98003531D01*
X84506589Y-98048357D01*
X84496731Y-98094659D01*
X84481756Y-98148289D01*
X84566557Y-98148289D01*
X84579959Y-98093935D01*
X84589125Y-98045236D01*
X84594831Y-97997782D01*
X84596648Y-97954622D01*
X84593092Y-97899283D01*
X84583123Y-97852730D01*
X84567498Y-97813549D01*
X84546554Y-97780575D01*
X84519195Y-97752454D01*
X84488084Y-97732726D01*
X84452464Y-97720691D01*
X84411145Y-97716504D01*
X84372769Y-97720455D01*
X84339674Y-97731820D01*
X84310743Y-97750484D01*
X84286847Y-97775456D01*
X84267872Y-97807193D01*
X84253938Y-97847039D01*
G37*
G36*
X117682050Y-102631000D02*
G01*
X117425766Y-102631000D01*
X117365006Y-102627219D01*
X117315081Y-102616738D01*
X117274162Y-102600524D01*
X117240733Y-102579067D01*
X117212609Y-102550803D01*
X117192531Y-102517575D01*
X117180073Y-102478392D01*
X117175679Y-102431777D01*
X117176700Y-102421476D01*
X117277535Y-102421476D01*
X117282208Y-102463857D01*
X117294960Y-102495716D01*
X117315063Y-102519613D01*
X117342018Y-102536320D01*
X117379414Y-102547470D01*
X117430553Y-102551669D01*
X117585452Y-102551669D01*
X117585452Y-102291795D01*
X117430553Y-102291795D01*
X117379371Y-102295941D01*
X117341978Y-102306937D01*
X117315063Y-102323382D01*
X117295002Y-102346982D01*
X117282232Y-102378786D01*
X117277535Y-102421476D01*
X117176700Y-102421476D01*
X117180326Y-102384883D01*
X117193581Y-102345090D01*
X117215131Y-102310944D01*
X117244234Y-102282916D01*
X117280638Y-102261691D01*
X117325834Y-102247300D01*
X117288195Y-102237136D01*
X117258742Y-102220932D01*
X117235903Y-102198830D01*
X117219517Y-102171335D01*
X117209072Y-102137031D01*
X117206202Y-102104412D01*
X117302368Y-102104412D01*
X117306598Y-102139240D01*
X117318270Y-102165698D01*
X117337032Y-102185836D01*
X117361660Y-102199652D01*
X117395829Y-102208953D01*
X117442478Y-102212465D01*
X117585452Y-102212465D01*
X117585452Y-101996359D01*
X117442478Y-101996359D01*
X117395852Y-101999901D01*
X117361681Y-102009286D01*
X117337032Y-102023244D01*
X117318238Y-102043497D01*
X117306581Y-102069895D01*
X117302368Y-102104412D01*
X117206202Y-102104412D01*
X117205300Y-102094154D01*
X117209317Y-102052716D01*
X117220724Y-102017875D01*
X117239160Y-101988296D01*
X117265097Y-101963105D01*
X117295711Y-101944128D01*
X117333302Y-101929731D01*
X117379282Y-101920400D01*
X117435340Y-101917029D01*
X117682050Y-101917029D01*
X117682050Y-102631000D01*
G37*
G36*
X116868954Y-102083343D02*
G01*
X116914181Y-102090050D01*
X116959703Y-102100985D01*
X117007915Y-102116722D01*
X117007915Y-102198787D01*
X116966806Y-102179600D01*
X116924225Y-102165961D01*
X116880237Y-102157770D01*
X116834808Y-102155019D01*
X116787733Y-102159210D01*
X116751104Y-102170679D01*
X116722652Y-102188486D01*
X116700844Y-102213280D01*
X116687485Y-102244182D01*
X116682730Y-102283076D01*
X116682730Y-102291795D01*
X116806085Y-102291795D01*
X116867462Y-102295260D01*
X116916640Y-102304738D01*
X116955759Y-102319145D01*
X116986629Y-102337829D01*
X117012606Y-102363025D01*
X117031270Y-102393407D01*
X117042953Y-102430031D01*
X117047110Y-102474476D01*
X117043837Y-102512702D01*
X117034513Y-102545480D01*
X117019491Y-102573814D01*
X116998597Y-102598430D01*
X116973074Y-102618136D01*
X116943348Y-102632494D01*
X116908611Y-102641498D01*
X116867805Y-102644677D01*
X116824932Y-102641846D01*
X116788626Y-102633882D01*
X116757829Y-102621340D01*
X116729996Y-102603317D01*
X116705028Y-102579433D01*
X116682730Y-102548934D01*
X116682730Y-102631000D01*
X116594766Y-102631000D01*
X116594766Y-102379887D01*
X116682730Y-102379887D01*
X116685797Y-102423085D01*
X116694472Y-102459949D01*
X116708238Y-102491521D01*
X116726968Y-102518629D01*
X116750866Y-102541441D01*
X116777917Y-102557541D01*
X116808756Y-102567391D01*
X116844339Y-102570818D01*
X116878713Y-102567444D01*
X116906201Y-102558060D01*
X116928286Y-102543164D01*
X116945189Y-102522925D01*
X116955477Y-102498434D01*
X116959103Y-102468407D01*
X116956212Y-102439469D01*
X116948216Y-102416696D01*
X116935578Y-102398725D01*
X116917985Y-102384717D01*
X116888980Y-102372654D01*
X116842046Y-102363753D01*
X116770224Y-102360183D01*
X116682730Y-102360183D01*
X116682730Y-102379887D01*
X116594766Y-102379887D01*
X116594766Y-102324108D01*
X116598995Y-102262231D01*
X116610623Y-102212597D01*
X116628507Y-102172935D01*
X116652169Y-102141427D01*
X116682546Y-102116322D01*
X116720423Y-102097593D01*
X116767444Y-102085527D01*
X116825746Y-102081160D01*
X116868954Y-102083343D01*
G37*
G36*
X116326172Y-101941648D02*
G01*
X116326172Y-102094838D01*
X116144944Y-102094838D01*
X116144944Y-102163226D01*
X116326172Y-102163226D01*
X116326172Y-102454217D01*
X116323437Y-102498303D01*
X116316875Y-102524359D01*
X116308263Y-102538462D01*
X116294735Y-102547724D01*
X116271831Y-102554431D01*
X116235302Y-102557140D01*
X116144944Y-102557140D01*
X116144944Y-102631000D01*
X116235302Y-102631000D01*
X116288104Y-102627923D01*
X116327251Y-102619786D01*
X116355702Y-102607877D01*
X116375882Y-102592916D01*
X116391137Y-102572976D01*
X116403237Y-102544892D01*
X116411488Y-102506282D01*
X116414606Y-102454217D01*
X116414606Y-102163226D01*
X116479190Y-102163226D01*
X116479190Y-102094838D01*
X116414606Y-102094838D01*
X116414606Y-101941648D01*
X116326172Y-101941648D01*
G37*
G36*
X105131000Y-82540988D02*
G01*
X104830092Y-82540988D01*
X104830092Y-82646178D01*
X104833031Y-82683813D01*
X104841076Y-82713462D01*
X104853472Y-82736749D01*
X104871379Y-82756502D01*
X104901577Y-82779215D01*
X104948361Y-82805394D01*
X105131000Y-82896734D01*
X105131000Y-83000513D01*
X104936436Y-82902462D01*
X104880340Y-82871324D01*
X104842017Y-82843392D01*
X104812692Y-82812309D01*
X104797138Y-82782911D01*
X104782121Y-82820479D01*
X104761545Y-82850442D01*
X104735289Y-82873995D01*
X104704160Y-82890938D01*
X104667225Y-82901560D01*
X104623133Y-82905325D01*
X104571696Y-82901051D01*
X104529917Y-82889162D01*
X104495916Y-82870492D01*
X104468320Y-82845059D01*
X104447402Y-82813995D01*
X104431381Y-82774527D01*
X104420870Y-82724765D01*
X104417029Y-82662420D01*
X104496359Y-82662420D01*
X104500434Y-82707951D01*
X104511432Y-82742232D01*
X104528288Y-82767866D01*
X104551855Y-82787009D01*
X104582701Y-82799106D01*
X104623090Y-82803513D01*
X104663491Y-82799117D01*
X104694512Y-82787027D01*
X104718363Y-82767866D01*
X104735485Y-82742193D01*
X104746636Y-82707910D01*
X104750762Y-82662420D01*
X104750762Y-82540988D01*
X104496359Y-82540988D01*
X104496359Y-82662420D01*
X104417029Y-82662420D01*
X104417029Y-82444390D01*
X105131000Y-82444390D01*
X105131000Y-82540988D01*
G37*
G36*
X105048934Y-83150197D02*
G01*
X105048934Y-83308003D01*
X104504565Y-83308003D01*
X104540127Y-83136306D01*
X104452591Y-83136306D01*
X104417029Y-83307019D01*
X104417029Y-83403618D01*
X105048934Y-83403618D01*
X105048934Y-83561423D01*
X105131000Y-83561423D01*
X105131000Y-83150197D01*
X105048934Y-83150197D01*
G37*
G36*
X115189521Y-105131000D02*
G01*
X115462090Y-104417029D01*
X115361175Y-104417029D01*
X115135024Y-105018159D01*
X114908361Y-104417029D01*
X114807916Y-104417029D01*
X115080014Y-105131000D01*
X115189521Y-105131000D01*
G37*
G36*
X114802402Y-104417029D02*
G01*
X114198450Y-104417029D01*
X114198450Y-104499094D01*
X114451913Y-104499094D01*
X114451913Y-105131000D01*
X114548982Y-105131000D01*
X114548982Y-104499094D01*
X114802402Y-104499094D01*
X114802402Y-104417029D01*
G37*
G36*
X114139466Y-104417029D02*
G01*
X114035687Y-104417029D01*
X113858306Y-104682417D01*
X113679941Y-104417029D01*
X113576162Y-104417029D01*
X113805690Y-104759909D01*
X113560861Y-105131000D01*
X113664639Y-105131000D01*
X113865486Y-104827357D01*
X114067744Y-105131000D01*
X114171993Y-105131000D01*
X113917119Y-104749865D01*
X114139466Y-104417029D01*
G37*
G36*
X101938913Y-85148477D02*
G01*
X102031921Y-85148477D01*
X102009808Y-85093785D01*
X101994906Y-85044698D01*
X101985661Y-84996174D01*
X101982681Y-84950494D01*
X101986579Y-84898573D01*
X101997096Y-84858870D01*
X102013028Y-84828763D01*
X102036033Y-84805046D01*
X102064233Y-84790926D01*
X102099326Y-84785978D01*
X102129317Y-84789454D01*
X102152389Y-84799060D01*
X102170193Y-84814444D01*
X102183236Y-84835109D01*
X102196331Y-84869333D01*
X102208832Y-84922284D01*
X102220842Y-84980627D01*
X102234374Y-85035131D01*
X102251325Y-85078746D01*
X102271152Y-85113231D01*
X102293590Y-85140057D01*
X102321078Y-85162075D01*
X102352876Y-85178022D01*
X102389818Y-85187974D01*
X102433016Y-85191476D01*
X102484094Y-85186708D01*
X102526360Y-85173285D01*
X102561582Y-85151807D01*
X102590950Y-85121891D01*
X102612897Y-85086303D01*
X102629698Y-85041779D01*
X102640682Y-84986420D01*
X102644677Y-84917967D01*
X102641843Y-84866626D01*
X102632923Y-84810127D01*
X102618611Y-84752827D01*
X102598173Y-84691773D01*
X102499695Y-84691773D01*
X102528672Y-84750964D01*
X102548806Y-84807007D01*
X102561288Y-84863496D01*
X102565347Y-84917967D01*
X102561179Y-84972362D01*
X102549919Y-85014005D01*
X102532820Y-85045639D01*
X102514843Y-85065278D01*
X102493835Y-85079114D01*
X102469202Y-85087618D01*
X102439983Y-85090604D01*
X102406282Y-85086737D01*
X102379359Y-85075893D01*
X102357661Y-85058333D01*
X102341073Y-85035025D01*
X102326017Y-85000804D01*
X102313166Y-84952417D01*
X102301626Y-84893603D01*
X102287884Y-84838421D01*
X102271763Y-84795284D01*
X102253801Y-84762134D01*
X102234306Y-84737209D01*
X102209936Y-84716609D01*
X102181193Y-84701637D01*
X102147208Y-84692239D01*
X102106806Y-84688910D01*
X102060712Y-84693343D01*
X102021336Y-84706007D01*
X101987330Y-84726589D01*
X101957805Y-84755631D01*
X101935056Y-84790083D01*
X101918078Y-84831296D01*
X101907229Y-84880573D01*
X101903351Y-84939509D01*
X101905545Y-84989853D01*
X101912242Y-85041834D01*
X101923221Y-85094033D01*
X101938913Y-85148477D01*
G37*
G36*
X101971739Y-85876724D02*
G01*
X102072953Y-85876724D01*
X102044754Y-85842833D01*
X102022291Y-85808227D01*
X102005121Y-85772731D01*
X101992709Y-85735354D01*
X101985215Y-85696345D01*
X101982681Y-85655360D01*
X101986042Y-85606082D01*
X101995575Y-85563670D01*
X102010726Y-85527045D01*
X102031329Y-85495327D01*
X102057609Y-85467892D01*
X102096443Y-85440966D01*
X102144191Y-85420694D01*
X102202707Y-85407605D01*
X102274271Y-85402880D01*
X102345549Y-85407599D01*
X102403900Y-85420677D01*
X102451580Y-85440947D01*
X102490419Y-85467892D01*
X102516699Y-85495327D01*
X102537302Y-85527045D01*
X102552454Y-85563670D01*
X102561986Y-85606082D01*
X102565347Y-85655360D01*
X102562813Y-85696345D01*
X102555320Y-85735354D01*
X102542907Y-85772731D01*
X102525738Y-85808227D01*
X102503275Y-85842833D01*
X102475075Y-85876724D01*
X102576289Y-85876724D01*
X102606309Y-85824326D01*
X102627580Y-85769355D01*
X102640335Y-85711568D01*
X102644677Y-85649590D01*
X102640302Y-85584577D01*
X102627801Y-85527647D01*
X102607788Y-85477571D01*
X102580417Y-85433347D01*
X102545386Y-85394246D01*
X102504399Y-85361771D01*
X102457728Y-85336089D01*
X102404552Y-85317129D01*
X102343815Y-85305210D01*
X102274271Y-85301025D01*
X102204490Y-85305216D01*
X102143600Y-85317145D01*
X102090341Y-85336112D01*
X102043646Y-85361791D01*
X102002685Y-85394246D01*
X101967637Y-85433350D01*
X101940255Y-85477575D01*
X101920233Y-85527650D01*
X101907728Y-85584579D01*
X101903351Y-85649590D01*
X101907708Y-85712394D01*
X101920448Y-85770338D01*
X101941761Y-85825151D01*
X101971739Y-85876724D01*
G37*
G36*
X101917029Y-86026023D02*
G01*
X101917029Y-86122621D01*
X102548934Y-86122621D01*
X102548934Y-86470246D01*
X102631000Y-86470246D01*
X102631000Y-86026023D01*
X101917029Y-86026023D01*
G37*
D11*
%TO.C,R11*%
X88732379Y-101230000D02*
X89067621Y-101230000D01*
X88732379Y-100470000D02*
X89067621Y-100470000D01*
%TO.C,C27*%
X92065835Y-89090000D02*
X91834165Y-89090000D01*
X92065835Y-89810000D02*
X91834165Y-89810000D01*
%TO.C,C61*%
X98634165Y-99910000D02*
X98865835Y-99910000D01*
X98634165Y-99190000D02*
X98865835Y-99190000D01*
%TO.C,C60*%
X97265835Y-100340000D02*
X97034165Y-100340000D01*
X97265835Y-101060000D02*
X97034165Y-101060000D01*
%TO.C,C30*%
X91384165Y-92790000D02*
X91615835Y-92790000D01*
X91384165Y-93510000D02*
X91615835Y-93510000D01*
%TO.C,R20*%
X97867621Y-89620000D02*
X97532379Y-89620000D01*
X97867621Y-90380000D02*
X97532379Y-90380000D01*
%TO.C,C74*%
X99565835Y-101790000D02*
X99334165Y-101790000D01*
X99565835Y-102510000D02*
X99334165Y-102510000D01*
%TO.C,R25*%
X112117621Y-103670000D02*
X111782379Y-103670000D01*
X112117621Y-104430000D02*
X111782379Y-104430000D01*
D12*
%TO.C,SW2*%
X84300000Y-93950000D02*
X84300000Y-93450000D01*
X84300000Y-95150000D02*
X84700000Y-93950000D01*
X84300000Y-95650000D02*
X84300000Y-95150000D01*
X85000000Y-91850000D02*
X82300000Y-91850000D01*
X85000000Y-97250000D02*
X82300000Y-97250000D01*
X85000000Y-97250000D02*
X85000000Y-91850000D01*
X83300000Y-93700000D02*
G75*
G02*
X82700000Y-93700000I-300000J0D01*
G01*
X82700000Y-93700000D02*
G75*
G02*
X83300000Y-93700000I300000J0D01*
G01*
X83300000Y-95400000D02*
G75*
G02*
X82700000Y-95400000I-300000J0D01*
G01*
X82700000Y-95400000D02*
G75*
G02*
X83300000Y-95400000I300000J0D01*
G01*
D11*
%TO.C,C75*%
X99565835Y-100490000D02*
X99334165Y-100490000D01*
X99565835Y-101210000D02*
X99334165Y-101210000D01*
%TO.C,C6*%
X103565835Y-98640000D02*
X103334165Y-98640000D01*
X103565835Y-99360000D02*
X103334165Y-99360000D01*
%TO.C,R17*%
X110320000Y-91082379D02*
X110320000Y-91417621D01*
X111080000Y-91082379D02*
X111080000Y-91417621D01*
%TO.C,R18*%
X100217621Y-89620000D02*
X99882379Y-89620000D01*
X100217621Y-90380000D02*
X99882379Y-90380000D01*
%TO.C,C44*%
X96315835Y-94440000D02*
X96084165Y-94440000D01*
X96315835Y-95160000D02*
X96084165Y-95160000D01*
%TO.C,C4*%
X107234165Y-100640000D02*
X107465835Y-100640000D01*
X107234165Y-101360000D02*
X107465835Y-101360000D01*
%TO.C,D15*%
X94050000Y-90035000D02*
X96335000Y-90035000D01*
X96335000Y-88565000D02*
X94050000Y-88565000D01*
X96335000Y-90035000D02*
X96335000Y-88565000D01*
%TO.C,C26*%
X89490000Y-93334165D02*
X89490000Y-93565835D01*
X90210000Y-93334165D02*
X90210000Y-93565835D01*
%TO.C,C10*%
X103565835Y-99890000D02*
X103334165Y-99890000D01*
X103565835Y-100610000D02*
X103334165Y-100610000D01*
%TO.C,C15*%
X107515835Y-96240000D02*
X107284165Y-96240000D01*
X107515835Y-96960000D02*
X107284165Y-96960000D01*
%TO.C,R37*%
X112570000Y-93832379D02*
X112570000Y-94167621D01*
X113330000Y-93832379D02*
X113330000Y-94167621D01*
%TO.C,C28*%
X89090000Y-89515835D02*
X89090000Y-89284165D01*
X89810000Y-89515835D02*
X89810000Y-89284165D01*
%TO.C,R19*%
X94870000Y-91082379D02*
X94870000Y-91417621D01*
X95630000Y-91082379D02*
X95630000Y-91417621D01*
%TO.C,R4*%
X105320000Y-96732379D02*
X105320000Y-97067621D01*
X106080000Y-96732379D02*
X106080000Y-97067621D01*
%TO.C,C71*%
X99265835Y-88490000D02*
X99034165Y-88490000D01*
X99265835Y-89210000D02*
X99034165Y-89210000D01*
%TO.C,C64*%
X100090000Y-98440580D02*
X100090000Y-98159420D01*
X101110000Y-98440580D02*
X101110000Y-98159420D01*
%TO.C,C63*%
X98290000Y-96890580D02*
X98290000Y-96609420D01*
X99310000Y-96890580D02*
X99310000Y-96609420D01*
%TO.C,Y5*%
X97750000Y-96300000D02*
X95450000Y-96300000D01*
X97750000Y-99000000D02*
X97750000Y-96300000D01*
%TO.C,C31*%
X88140000Y-89284165D02*
X88140000Y-89515835D01*
X88860000Y-89284165D02*
X88860000Y-89515835D01*
%TO.C,C39*%
X84415835Y-90390000D02*
X84184165Y-90390000D01*
X84415835Y-91110000D02*
X84184165Y-91110000D01*
%TO.C,C66*%
X107598752Y-91740000D02*
X106176248Y-91740000D01*
X107598752Y-93560000D02*
X106176248Y-93560000D01*
%TO.C,C78*%
X109634165Y-103690000D02*
X109865835Y-103690000D01*
X109634165Y-104410000D02*
X109865835Y-104410000D01*
%TO.C,R12*%
X92017621Y-99720000D02*
X91682379Y-99720000D01*
X92017621Y-100480000D02*
X91682379Y-100480000D01*
%TO.C,R28*%
X111420000Y-100682379D02*
X111420000Y-101017621D01*
X112180000Y-100682379D02*
X112180000Y-101017621D01*
D12*
%TO.C,SW1*%
X105150000Y-114950000D02*
X105150000Y-117650000D01*
X107250000Y-115650000D02*
X106750000Y-115650000D01*
X108450000Y-115650000D02*
X107250000Y-115250000D01*
X108950000Y-115650000D02*
X108450000Y-115650000D01*
X110550000Y-114950000D02*
X105150000Y-114950000D01*
X110550000Y-114950000D02*
X110550000Y-117650000D01*
X107300000Y-116950000D02*
G75*
G02*
X106700000Y-116950000I-300000J0D01*
G01*
X106700000Y-116950000D02*
G75*
G02*
X107300000Y-116950000I300000J0D01*
G01*
X109000000Y-116950000D02*
G75*
G02*
X108400000Y-116950000I-300000J0D01*
G01*
X108400000Y-116950000D02*
G75*
G02*
X109000000Y-116950000I300000J0D01*
G01*
D11*
%TO.C,C5*%
X106140000Y-99515835D02*
X106140000Y-99284165D01*
X106860000Y-99515835D02*
X106860000Y-99284165D01*
%TO.C,C53*%
X90715835Y-102390000D02*
X90484165Y-102390000D01*
X90715835Y-103110000D02*
X90484165Y-103110000D01*
%TO.C,C29*%
X90040000Y-89515835D02*
X90040000Y-89284165D01*
X90760000Y-89515835D02*
X90760000Y-89284165D01*
%TO.C,R7*%
X101670000Y-88817621D02*
X101670000Y-88482379D01*
X102430000Y-88817621D02*
X102430000Y-88482379D01*
%TO.C,C68*%
X110411252Y-94040000D02*
X108988748Y-94040000D01*
X110411252Y-95860000D02*
X108988748Y-95860000D01*
%TO.C,C43*%
X94084165Y-98240000D02*
X94315835Y-98240000D01*
X94084165Y-98960000D02*
X94315835Y-98960000D01*
%TO.C,J7*%
X88240000Y-86785000D02*
X88240000Y-84285000D01*
X89290000Y-86785000D02*
X88240000Y-86785000D01*
X89290000Y-87775000D02*
X89290000Y-86785000D01*
X95290000Y-82315000D02*
X89410000Y-82315000D01*
X95410000Y-86785000D02*
X96460000Y-86785000D01*
X96460000Y-86785000D02*
X96460000Y-84285000D01*
%TO.C,C42*%
X94440000Y-96915835D02*
X94440000Y-96684165D01*
X95160000Y-96915835D02*
X95160000Y-96684165D01*
%TO.C,C36*%
X86440000Y-94015835D02*
X86440000Y-93784165D01*
X87160000Y-94015835D02*
X87160000Y-93784165D01*
%TO.C,Y2*%
X84200000Y-90100000D02*
X86900000Y-90100000D01*
X86900000Y-90100000D02*
X86900000Y-87800000D01*
%TO.C,C25*%
X87190000Y-89515835D02*
X87190000Y-89284165D01*
X87910000Y-89515835D02*
X87910000Y-89284165D01*
%TO.C,C34*%
X86440000Y-91584165D02*
X86440000Y-91815835D01*
X87160000Y-91584165D02*
X87160000Y-91815835D01*
%TO.C,U5*%
X106640000Y-104690000D02*
X108950000Y-104690000D01*
X106640000Y-104965000D02*
X106640000Y-104690000D01*
X106640000Y-114335000D02*
X106640000Y-114610000D01*
X106640000Y-114610000D02*
X108950000Y-114610000D01*
X111260000Y-104690000D02*
X108950000Y-104690000D01*
X111260000Y-104965000D02*
X111260000Y-104690000D01*
X111260000Y-114335000D02*
X111260000Y-114610000D01*
X111260000Y-114610000D02*
X108950000Y-114610000D01*
X111875000Y-104965000D02*
X111635000Y-104635000D01*
X112115000Y-104635000D01*
X111875000Y-104965000D01*
G36*
X111875000Y-104965000D02*
G01*
X111635000Y-104635000D01*
X112115000Y-104635000D01*
X111875000Y-104965000D01*
G37*
%TO.C,C70*%
X100565835Y-91540000D02*
X100334165Y-91540000D01*
X100565835Y-92260000D02*
X100334165Y-92260000D01*
%TO.C,C9*%
X105190000Y-103334165D02*
X105190000Y-103565835D01*
X105910000Y-103334165D02*
X105910000Y-103565835D01*
%TO.C,C55*%
X94240000Y-101434165D02*
X94240000Y-101665835D01*
X94960000Y-101434165D02*
X94960000Y-101665835D01*
%TO.C,R29*%
X93470000Y-91082379D02*
X93470000Y-91417621D01*
X94230000Y-91082379D02*
X94230000Y-91417621D01*
%TO.C,C65*%
X108815835Y-89540000D02*
X108584165Y-89540000D01*
X108815835Y-90260000D02*
X108584165Y-90260000D01*
%TO.C,C86*%
X112990000Y-107934165D02*
X112990000Y-108165835D01*
X113710000Y-107934165D02*
X113710000Y-108165835D01*
%TO.C,C56*%
X104230000Y-108264165D02*
X104230000Y-108495835D01*
X104950000Y-108264165D02*
X104950000Y-108495835D01*
%TO.C,C40*%
X86490000Y-96265835D02*
X86490000Y-96034165D01*
X87210000Y-96265835D02*
X87210000Y-96034165D01*
%TO.C,R33*%
X110770000Y-115682379D02*
X110770000Y-116017621D01*
X111530000Y-115682379D02*
X111530000Y-116017621D01*
%TO.C,D16*%
X103015000Y-89765000D02*
X103015000Y-92050000D01*
X104485000Y-89765000D02*
X103015000Y-89765000D01*
X104485000Y-92050000D02*
X104485000Y-89765000D01*
%TO.C,R13*%
X99720000Y-95482379D02*
X99720000Y-95817621D01*
X100480000Y-95482379D02*
X100480000Y-95817621D01*
%TO.C,D14*%
X110915000Y-96665000D02*
X110915000Y-98950000D01*
X112385000Y-96665000D02*
X110915000Y-96665000D01*
X112385000Y-98950000D02*
X112385000Y-96665000D01*
D12*
%TO.C,D11*%
X87450000Y-93450000D02*
X89300000Y-93450000D01*
X87450000Y-96050000D02*
X87450000Y-93450000D01*
X88450000Y-94650000D02*
X88350000Y-94650000D01*
X88400000Y-94400000D01*
X88450000Y-94650000D01*
G36*
X88450000Y-94650000D02*
G01*
X88350000Y-94650000D01*
X88400000Y-94400000D01*
X88450000Y-94650000D01*
G37*
D11*
%TO.C,C50*%
X88240000Y-99034165D02*
X88240000Y-99265835D01*
X88960000Y-99034165D02*
X88960000Y-99265835D01*
%TO.C,C37*%
X82340000Y-89034165D02*
X82340000Y-89265835D01*
X83060000Y-89034165D02*
X83060000Y-89265835D01*
%TO.C,JP1*%
X84700000Y-105700000D02*
X84700000Y-102900000D01*
X85400000Y-102250000D02*
X86000000Y-102250000D01*
X86000000Y-106350000D02*
X85400000Y-106350000D01*
X86700000Y-102900000D02*
X86700000Y-105700000D01*
X84700000Y-102950000D02*
G75*
G02*
X85400000Y-102250000I699999J1D01*
G01*
X85400000Y-106350000D02*
G75*
G02*
X84700000Y-105650000I0J700000D01*
G01*
X86000000Y-102250000D02*
G75*
G02*
X86700000Y-102950000I1J-699999D01*
G01*
X86700000Y-105650000D02*
G75*
G02*
X86000000Y-106350000I-700000J0D01*
G01*
D12*
%TO.C,J9*%
X88700000Y-112550000D02*
X88700000Y-105350000D01*
X88800000Y-115350000D02*
X88800000Y-118350000D01*
X88800000Y-118350000D02*
X92800000Y-118350000D01*
X90400000Y-104350000D02*
X93500000Y-104350000D01*
X96200000Y-117450000D02*
X103600000Y-117450000D01*
X103600000Y-112550000D02*
X103600000Y-105350000D01*
X103600000Y-117450000D02*
X103600000Y-115350000D01*
X92798213Y-118346847D02*
G75*
G02*
X96200000Y-117450000I3401787J-6003153D01*
G01*
D11*
%TO.C,C23*%
X87440000Y-106784165D02*
X87440000Y-107015835D01*
X88160000Y-106784165D02*
X88160000Y-107015835D01*
%TO.C,C7*%
X103565835Y-101790000D02*
X103334165Y-101790000D01*
X103565835Y-102510000D02*
X103334165Y-102510000D01*
%TO.C,C33*%
X89415835Y-90690000D02*
X89184165Y-90690000D01*
X89415835Y-91410000D02*
X89184165Y-91410000D01*
%TO.C,R10*%
X88432379Y-96320000D02*
X88767621Y-96320000D01*
X88432379Y-97080000D02*
X88767621Y-97080000D01*
%TO.C,R8*%
X103070000Y-88817621D02*
X103070000Y-88482379D01*
X103830000Y-88817621D02*
X103830000Y-88482379D01*
%TO.C,R36*%
X113767621Y-95270000D02*
X113432379Y-95270000D01*
X113767621Y-96030000D02*
X113432379Y-96030000D01*
%TO.C,C14*%
X106184165Y-94590000D02*
X106415835Y-94590000D01*
X106184165Y-95310000D02*
X106415835Y-95310000D01*
%TO.C,C1*%
X107234165Y-101790000D02*
X107465835Y-101790000D01*
X107234165Y-102510000D02*
X107465835Y-102510000D01*
%TO.C,R9*%
X87020000Y-98982379D02*
X87020000Y-99317621D01*
X87780000Y-98982379D02*
X87780000Y-99317621D01*
%TO.C,R16*%
X109167621Y-90620000D02*
X108832379Y-90620000D01*
X109167621Y-91380000D02*
X108832379Y-91380000D01*
%TO.C,R30*%
X102870000Y-93682379D02*
X102870000Y-94017621D01*
X103630000Y-93682379D02*
X103630000Y-94017621D01*
%TO.C,C41*%
X98284165Y-94440000D02*
X98515835Y-94440000D01*
X98284165Y-95160000D02*
X98515835Y-95160000D01*
%TO.C,C84*%
X107690000Y-88134165D02*
X107690000Y-88365835D01*
X108410000Y-88134165D02*
X108410000Y-88365835D01*
%TO.C,C62*%
X96665835Y-99190000D02*
X96434165Y-99190000D01*
X96665835Y-99910000D02*
X96434165Y-99910000D01*
%TO.C,R35*%
X113767621Y-96270000D02*
X113432379Y-96270000D01*
X113767621Y-97030000D02*
X113432379Y-97030000D01*
%TO.C,C72*%
X97911252Y-90865000D02*
X97388748Y-90865000D01*
X97911252Y-92335000D02*
X97388748Y-92335000D01*
%TO.C,R15*%
X106767621Y-90620000D02*
X106432379Y-90620000D01*
X106767621Y-91380000D02*
X106432379Y-91380000D01*
%TO.C,C8*%
X107234165Y-102940000D02*
X107465835Y-102940000D01*
X107234165Y-103660000D02*
X107465835Y-103660000D01*
%TO.C,L2*%
X87390000Y-91599800D02*
X87390000Y-91800200D01*
X88110000Y-91599800D02*
X88110000Y-91800200D01*
%TO.C,L5*%
X98049622Y-92890000D02*
X97250378Y-92890000D01*
X98049622Y-94010000D02*
X97250378Y-94010000D01*
%TO.C,C2*%
X104940000Y-99515835D02*
X104940000Y-99284165D01*
X105660000Y-99515835D02*
X105660000Y-99284165D01*
%TO.C,C3*%
X103565835Y-100840000D02*
X103334165Y-100840000D01*
X103565835Y-101560000D02*
X103334165Y-101560000D01*
%TO.C,C35*%
X85490000Y-91584165D02*
X85490000Y-91815835D01*
X86210000Y-91584165D02*
X86210000Y-91815835D01*
%TO.C,C38*%
X83290000Y-88834165D02*
X83290000Y-89065835D01*
X84010000Y-88834165D02*
X84010000Y-89065835D01*
%TO.C,D10*%
X102250000Y-95200000D02*
X104910000Y-95200000D01*
X102250000Y-96900000D02*
X104910000Y-96900000D01*
X104910000Y-96900000D02*
X104910000Y-95200000D01*
%TO.C,D18*%
X91565000Y-95450000D02*
X91565000Y-97735000D01*
X91565000Y-97735000D02*
X93035000Y-97735000D01*
X93035000Y-97735000D02*
X93035000Y-95450000D01*
%TO.C,C77*%
X109865835Y-102540000D02*
X109634165Y-102540000D01*
X109865835Y-103260000D02*
X109634165Y-103260000D01*
%TO.C,C24*%
X87440000Y-109915835D02*
X87440000Y-109684165D01*
X88160000Y-109915835D02*
X88160000Y-109684165D01*
%TO.C,C49*%
X89390000Y-99034165D02*
X89390000Y-99265835D01*
X90110000Y-99034165D02*
X90110000Y-99265835D01*
%TO.C,R14*%
X100817500Y-95817621D02*
X100817500Y-95482379D01*
X101577500Y-95817621D02*
X101577500Y-95482379D01*
%TO.C,R34*%
X112870000Y-100517621D02*
X112870000Y-100182379D01*
X113630000Y-100517621D02*
X113630000Y-100182379D01*
%TO.C,C17*%
X117240000Y-88234165D02*
X117240000Y-88465835D01*
X117960000Y-88234165D02*
X117960000Y-88465835D01*
%TO.C,C47*%
X95240000Y-101665835D02*
X95240000Y-101434165D01*
X95960000Y-101665835D02*
X95960000Y-101434165D01*
%TO.C,C45*%
X96734165Y-95390000D02*
X96965835Y-95390000D01*
X96734165Y-96110000D02*
X96965835Y-96110000D01*
%TD*%
M02*
