<?xml version="1.0" encoding="UTF-8" standalone="no"?>
<!-- Created with Inkscape (http://www.inkscape.org/) -->

<svg
   width="110mm"
   height="110mm"
   viewBox="0 0 110 110"
   version="1.1"
   id="svg5"
   inkscape:version="1.4.3 (1:1.4.3+202512261035+0d15f75042)"
   sodipodi:docname="rc_app.svg"
   inkscape:export-filename="gyroaccel.png"
   inkscape:export-xdpi="461.81821"
   inkscape:export-ydpi="461.81821"
   xmlns:inkscape="http://www.inkscape.org/namespaces/inkscape"
   xmlns:sodipodi="http://sodipodi.sourceforge.net/DTD/sodipodi-0.dtd"
   xmlns="http://www.w3.org/2000/svg"
   xmlns:svg="http://www.w3.org/2000/svg">
  <sodipodi:namedview
     id="namedview7"
     pagecolor="#ffffff"
     bordercolor="#000000"
     borderopacity="0.25"
     inkscape:showpageshadow="2"
     inkscape:pageopacity="0.0"
     inkscape:pagecheckerboard="0"
     inkscape:deskcolor="#d1d1d1"
     inkscape:document-units="mm"
     showgrid="false"
     inkscape:zoom="2.5877449"
     inkscape:cx="173.12371"
     inkscape:cy="224.32659"
     inkscape:window-width="2560"
     inkscape:window-height="1368"
     inkscape:window-x="0"
     inkscape:window-y="0"
     inkscape:window-maximized="1"
     inkscape:current-layer="layer1" />
  <defs
     id="defs2" />
  <g
     inkscape:label="Ebene 1"
     inkscape:groupmode="layer"
     id="layer1">
    <path
       id="path1"
       style="baseline-shift:baseline;display:inline;overflow:visible;opacity:1;vector-effect:none;fill:#000000;enable-background:accumulate;stop-color:#000000;stop-opacity:1"
       d="m 25.136967,25.927616 c -4.777894,0 -8.133205,2.129498 -10.129098,4.842082 -1.995894,2.712585 -2.820769,5.881202 -3.439583,8.273397 -2.2093001,8.540659 -3.8096923,16.325817 -5.1443887,29.128971 -0.5716216,5.483311 -1.435629,12.792117 -0.7772135,19.378662 0.3292077,3.293273 1.0341893,6.427216 2.464449,9.094019 1.4302598,2.666804 3.6787462,4.860913 6.7794312,5.906103 3.418589,1.15234 6.693607,-0.38391 9.089884,-2.771411 2.396276,-2.3875 4.323762,-5.6693 6.048727,-8.953458 4.283428,-8.155212 4.649627,-13.58741 9.926009,-20.472653 1.301094,-1.697821 2.614817,-2.580399 4.890657,-3.195153 2.27584,-0.614754 5.52569,-0.836125 10.153903,-0.836125 4.628213,0 7.878579,0.221371 10.154419,0.836125 2.27584,0.614754 3.589563,1.497332 4.890657,3.195153 5.276382,6.885243 5.642581,12.317441 9.926009,20.472653 1.724965,3.284158 3.652451,6.565958 6.048727,8.953458 2.396277,2.387501 5.671295,3.923751 9.089884,2.771411 3.100686,-1.04519 5.34917,-3.239299 6.77943,-5.906103 1.43026,-2.666804 2.1337,-5.800746 2.4629,-9.094019 0.65842,-6.586545 -0.20404,-13.895351 -0.77566,-19.378662 C 102.24142,55.368913 100.64102,47.583754 98.431718,39.043095 97.812904,36.6509 96.988029,33.482283 94.992135,30.769698 92.996242,28.057114 89.640931,25.927616 84.863037,25.927616 H 56.882833 53.117171 Z m 31.745866,3.765662 h 27.980204 c 3.753447,0 5.657751,1.352495 7.095691,3.306775 1.437941,1.95428 2.221095,4.636941 2.828251,6.98407 2.181252,8.432226 3.726167,15.926 5.04517,28.578617 0.575271,5.518289 1.370461,12.636865 0.773081,18.612817 -0.29869,2.987977 -0.951043,5.668318 -2.035019,7.689454 -1.083975,2.021136 -2.506797,3.39049 -4.663798,4.117578 -1.897794,0.63971 -3.366363,-0.01164 -5.230689,-1.869137 C 86.811398,95.255955 84.96164,92.23424 83.302926,89.076217 79.314283,81.482245 78.828688,75.627125 73.033268,68.064579 71.304358,65.808493 69.031019,64.305119 66.136532,63.523254 63.67734,62.858973 60.604715,62.668563 56.882833,62.613232 h -3.765662 c -3.721881,0.05533 -6.794507,0.245741 -9.253699,0.910022 -2.894487,0.781865 -5.167826,2.285239 -6.896736,4.541325 -5.79542,7.562546 -6.282564,13.417666 -10.271208,21.011638 -1.658713,3.158023 -3.508989,6.179738 -5.373315,8.037235 -1.864326,1.857498 -3.330828,2.508847 -5.228622,1.869137 -2.157,-0.727088 -3.581889,-2.096441 -4.665865,-4.117578 C 10.343751,92.843875 9.6913975,90.163534 9.3927083,87.175557 8.7953299,81.199604 9.5925866,74.081029 10.167855,68.56274 c 1.319003,-12.652616 2.863918,-20.14639 5.04517,-28.578617 0.607156,-2.347129 1.388244,-5.02979 2.826184,-6.98407 1.437941,-1.95428 3.344311,-3.306775 7.097758,-3.306775 h 27.980204 m -21.732523,5.211051 c -7.879025,-2.4e-4 -14.314189,6.405731 -14.314372,14.267347 -2.4e-4,7.861908 6.435062,14.268102 14.314372,14.267863 C 39.26366,63.439357 45.69771,57.033303 45.697469,49.171676 45.697287,41.310344 39.263378,34.90451 31.384648,34.904329 Z m 47.230708,0 c -7.87873,1.81e-4 -14.312639,6.406015 -14.312821,14.267347 -2.41e-4,7.861627 6.433809,14.267681 14.312821,14.267863 7.87931,2.39e-4 14.314613,-6.405955 14.314372,-14.267863 C 92.929546,41.31006 86.494381,34.904089 78.615356,34.904329 Z m -47.230708,3.763595 c 5.851445,1.34e-4 10.547024,4.684398 10.547159,10.503752 1.78e-4,5.819575 -4.695478,10.504133 -10.547159,10.504268 -5.851909,1.78e-4 -10.548888,-4.684456 -10.548711,-10.504268 1.36e-4,-5.819592 4.697041,-10.50393 10.548711,-10.503752 z m 47.230708,0 c 5.85167,-1.78e-4 10.548576,4.68416 10.548711,10.503752 1.78e-4,5.819812 -4.696802,10.504446 -10.548711,10.504268 -5.851681,-1.35e-4 -10.547337,-4.684693 -10.547159,-10.504268 1.35e-4,-5.819354 4.695714,-10.503618 10.547159,-10.503752 z m -47.232775,6.677629 c -2.091307,-6.2e-5 -3.831761,1.731363 -3.831808,3.826123 -6.6e-5,2.094837 1.740437,3.826187 3.831808,3.826123 2.091298,-4.7e-5 3.834455,-1.731351 3.834391,-3.826123 -4.7e-5,-2.094696 -1.743157,-3.826076 -3.834391,-3.826123 z m 47.232775,0 c -2.091233,4.7e-5 -3.832277,1.731427 -3.832324,3.826123 -6.4e-5,2.094772 1.741026,3.826076 3.832324,3.826123 2.091372,6.4e-5 3.833941,-1.731286 3.833875,-3.826123 -4.7e-5,-2.09476 -1.742567,-3.826185 -3.833875,-3.826123 z"
       sodipodi:nodetypes="sssssssssssssssssssssssccscsssssssssssccsssssssssssccccccccccccccccccccccccccsssss" />
    <path
       style="baseline-shift:baseline;display:inline;overflow:visible;vector-effect:none;stroke-linecap:round;enable-background:accumulate;stop-color:#000000;stop-opacity:1;opacity:1;fill:#000000"
       d="m 21.458984,11.701172 a 1.8825001,1.8825001 0 0 0 -1.882812,1.882812 1.8825001,1.8825001 0 0 0 1.882812,1.882813 h 31.658203 v 12.34375 A 1.8825001,1.8825001 0 0 0 55,29.693359 1.8825001,1.8825001 0 0 0 56.882812,27.810547 V 11.701172 Z"
       id="path2" />
    <path
       style="baseline-shift:baseline;display:inline;overflow:visible;vector-effect:none;stroke-linecap:round;enable-background:accumulate;stop-color:#000000;stop-opacity:1;opacity:1;fill:#000000"
       d="M 53.117187,11.701172 V 27.810547 A 1.8825001,1.8825001 0 0 0 55,29.693359 1.8825001,1.8825001 0 0 0 56.882812,27.810547 v -12.34375 h 31.658204 a 1.8825001,1.8825001 0 0 0 1.882812,-1.882813 1.8825001,1.8825001 0 0 0 -1.882812,-1.882812 z"
       id="use2" />
  </g>
</svg>
